%TF.GenerationSoftware,KiCad,Pcbnew,9.0.1*%
%TF.CreationDate,2025-08-18T19:36:26-06:00*%
%TF.ProjectId,aurora40_kicad,6175726f-7261-4343-905f-6b696361642e,1*%
%TF.SameCoordinates,Original*%
%TF.FileFunction,Copper,L1,Top*%
%TF.FilePolarity,Positive*%
%FSLAX46Y46*%
G04 Gerber Fmt 4.6, Leading zero omitted, Abs format (unit mm)*
G04 Created by KiCad (PCBNEW 9.0.1) date 2025-08-18 19:36:26*
%MOMM*%
%LPD*%
G01*
G04 APERTURE LIST*
G04 Aperture macros list*
%AMRoundRect*
0 Rectangle with rounded corners*
0 $1 Rounding radius*
0 $2 $3 $4 $5 $6 $7 $8 $9 X,Y pos of 4 corners*
0 Add a 4 corners polygon primitive as box body*
4,1,4,$2,$3,$4,$5,$6,$7,$8,$9,$2,$3,0*
0 Add four circle primitives for the rounded corners*
1,1,$1+$1,$2,$3*
1,1,$1+$1,$4,$5*
1,1,$1+$1,$6,$7*
1,1,$1+$1,$8,$9*
0 Add four rect primitives between the rounded corners*
20,1,$1+$1,$2,$3,$4,$5,0*
20,1,$1+$1,$4,$5,$6,$7,0*
20,1,$1+$1,$6,$7,$8,$9,0*
20,1,$1+$1,$8,$9,$2,$3,0*%
G04 Aperture macros list end*
%TA.AperFunction,ComponentPad*%
%ADD10C,2.000000*%
%TD*%
%TA.AperFunction,ComponentPad*%
%ADD11C,1.800000*%
%TD*%
%TA.AperFunction,ComponentPad*%
%ADD12RoundRect,0.450000X0.450000X0.450000X-0.450000X0.450000X-0.450000X-0.450000X0.450000X-0.450000X0*%
%TD*%
%TA.AperFunction,ComponentPad*%
%ADD13O,1.800000X4.340000*%
%TD*%
%TA.AperFunction,ComponentPad*%
%ADD14RoundRect,0.250000X-0.625000X0.350000X-0.625000X-0.350000X0.625000X-0.350000X0.625000X0.350000X0*%
%TD*%
%TA.AperFunction,ComponentPad*%
%ADD15O,1.750000X1.200000*%
%TD*%
%TA.AperFunction,ViaPad*%
%ADD16C,0.600000*%
%TD*%
%TA.AperFunction,Conductor*%
%ADD17C,0.200000*%
%TD*%
G04 APERTURE END LIST*
D10*
%TO.P,CH7,1,1*%
%TO.N,/SW7*%
X72000000Y-68000000D03*
%TO.P,CH7,2,2*%
%TO.N,GND*%
X77000000Y-70100000D03*
%TD*%
%TO.P,CH5,1,1*%
%TO.N,/SW5*%
X126000000Y-51000000D03*
%TO.P,CH5,2,2*%
%TO.N,GND*%
X131000000Y-53100000D03*
%TD*%
%TO.P,CH18,1,1*%
%TO.N,/SW18*%
X90000000Y-102000000D03*
%TO.P,CH18,2,2*%
%TO.N,GND*%
X95000000Y-104100000D03*
%TD*%
%TO.P,CH3,1,1*%
%TO.N,/SW3*%
X90000000Y-51000000D03*
%TO.P,CH3,2,2*%
%TO.N,GND*%
X95000000Y-53100000D03*
%TD*%
%TO.P,CH10,1,1*%
%TO.N,/SW10*%
X126000000Y-68000000D03*
%TO.P,CH10,2,2*%
%TO.N,GND*%
X131000000Y-70100000D03*
%TD*%
%TO.P,CH8,1,1*%
%TO.N,/SW8*%
X90000000Y-68000000D03*
%TO.P,CH8,2,2*%
%TO.N,GND*%
X95000000Y-70100000D03*
%TD*%
%TO.P,CH20,1,1*%
%TO.N,/SW20*%
X126000000Y-102000000D03*
%TO.P,CH20,2,2*%
%TO.N,GND*%
X131000000Y-104100000D03*
%TD*%
%TO.P,CH2,1,1*%
%TO.N,/SW2*%
X72000000Y-51000000D03*
%TO.P,CH2,2,2*%
%TO.N,GND*%
X77000000Y-53100000D03*
%TD*%
%TO.P,CH16,1,1*%
%TO.N,/SW16*%
X54000000Y-102000000D03*
%TO.P,CH16,2,2*%
%TO.N,GND*%
X59000000Y-104100000D03*
%TD*%
%TO.P,CH12,1,1*%
%TO.N,/SW12*%
X72000000Y-85000000D03*
%TO.P,CH12,2,2*%
%TO.N,GND*%
X77000000Y-87100000D03*
%TD*%
%TO.P,CH9,1,1*%
%TO.N,/SW9*%
X108000000Y-68000000D03*
%TO.P,CH9,2,2*%
%TO.N,GND*%
X113000000Y-70100000D03*
%TD*%
%TO.P,CH17,1,1*%
%TO.N,/SW17*%
X72000000Y-102000000D03*
%TO.P,CH17,2,2*%
%TO.N,GND*%
X77000000Y-104100000D03*
%TD*%
%TO.P,CH4,1,1*%
%TO.N,/SW4*%
X108000000Y-51000000D03*
%TO.P,CH4,2,2*%
%TO.N,GND*%
X113000000Y-53100000D03*
%TD*%
%TO.P,CH1,1,1*%
%TO.N,/SW1*%
X54000000Y-51000000D03*
%TO.P,CH1,2,2*%
%TO.N,GND*%
X59000000Y-53100000D03*
%TD*%
%TO.P,CH13,1,1*%
%TO.N,/SW13*%
X90000000Y-85000000D03*
%TO.P,CH13,2,2*%
%TO.N,GND*%
X95000000Y-87100000D03*
%TD*%
%TO.P,CH14,1,1*%
%TO.N,/SW14*%
X108000000Y-85000000D03*
%TO.P,CH14,2,2*%
%TO.N,GND*%
X113000000Y-87100000D03*
%TD*%
%TO.P,CH6,1,1*%
%TO.N,/SW6*%
X54000000Y-68000000D03*
%TO.P,CH6,2,2*%
%TO.N,GND*%
X59000000Y-70100000D03*
%TD*%
%TO.P,CH11,1,1*%
%TO.N,/SW11*%
X54000000Y-85000000D03*
%TO.P,CH11,2,2*%
%TO.N,GND*%
X59000000Y-87100000D03*
%TD*%
%TO.P,CH19,1,1*%
%TO.N,/SW19*%
X108000000Y-102000000D03*
%TO.P,CH19,2,2*%
%TO.N,GND*%
X113000000Y-104100000D03*
%TD*%
%TO.P,CH15,1,1*%
%TO.N,/SW15*%
X126000000Y-85000000D03*
%TO.P,CH15,2,2*%
%TO.N,GND*%
X131000000Y-87100000D03*
%TD*%
D11*
%TO.P,U1,1,P0.06*%
%TO.N,/SW1*%
X102600000Y-44580000D03*
%TO.P,U1,2,P0.08*%
%TO.N,/SW2*%
X102600000Y-47120000D03*
D12*
%TO.P,U1,3,GND*%
%TO.N,GND*%
X102600000Y-49660000D03*
%TO.P,U1,4,GND*%
X102600000Y-52200000D03*
D11*
%TO.P,U1,5,P0.17*%
%TO.N,/SW4*%
X102600000Y-54740000D03*
%TO.P,U1,6,P0.20*%
%TO.N,/SW5*%
X102600000Y-57280000D03*
%TO.P,U1,7,P0.22*%
%TO.N,/SW9*%
X102600000Y-59820000D03*
%TO.P,U1,8,P0.24*%
%TO.N,/SW10*%
X102600000Y-62360000D03*
%TO.P,U1,9,P1.00*%
%TO.N,/SW14*%
X102600000Y-64900000D03*
%TO.P,U1,10,P0.11*%
%TO.N,/SW15*%
X102600000Y-67440000D03*
%TO.P,U1,11,P1.04-LF*%
%TO.N,/SW19*%
X102600000Y-69980000D03*
%TO.P,U1,12,P1.06-LF*%
%TO.N,/SW20*%
X102600000Y-72520000D03*
D13*
%TO.P,U1,13,BAT+*%
%TO.N,/BAT+*%
X87360000Y-43310000D03*
D12*
%TO.P,U1,14,GND*%
%TO.N,GND*%
X87360000Y-47120000D03*
D11*
%TO.P,U1,15,RST*%
%TO.N,/RST*%
X87360000Y-49660000D03*
%TO.P,U1,16,3V3*%
%TO.N,unconnected-(U1-3V3-Pad16)*%
X87360000Y-52200000D03*
%TO.P,U1,17,P0.31-LF*%
%TO.N,/SW6*%
X87360000Y-54740000D03*
%TO.P,U1,18,P0.29-LF*%
%TO.N,/SW7*%
X87360000Y-57280000D03*
%TO.P,U1,19,P0.02-LF*%
%TO.N,/SW11*%
X87360000Y-59820000D03*
%TO.P,U1,20,P1.15-LF*%
%TO.N,/SW12*%
X87360000Y-62360000D03*
%TO.P,U1,21,P1.13-LF*%
%TO.N,/SW13*%
X87360000Y-64900000D03*
%TO.P,U1,22,P1.11-LF*%
%TO.N,/SW16*%
X87360000Y-67440000D03*
%TO.P,U1,23,P0.10-LF*%
%TO.N,/SW17*%
X87360000Y-69980000D03*
%TO.P,U1,24,P0.09-LF*%
%TO.N,/SW18*%
X87360000Y-72520000D03*
%TO.P,U1,25,P1.01-LF*%
%TO.N,/SW3*%
X100060000Y-67440000D03*
%TO.P,U1,26,P1.02-LF*%
%TO.N,/SW8*%
X97520000Y-67440000D03*
%TO.P,U1,27,P1.07-LF*%
%TO.N,unconnected-(U1-P1.07-LF-Pad27)*%
X94980000Y-67440000D03*
D12*
%TO.P,U1,28,GND*%
%TO.N,GND*%
X102600000Y-42040000D03*
D11*
%TO.P,U1,29,BAT+*%
%TO.N,/BAT+*%
X87360000Y-42040000D03*
%TD*%
D14*
%TO.P,J1,1,Pin_1*%
%TO.N,Net-(J1-Pin_1)*%
X86550000Y-76200000D03*
D15*
%TO.P,J1,2,Pin_2*%
%TO.N,GND*%
X86550000Y-78200000D03*
%TD*%
D16*
%TO.N,GND*%
X85000000Y-49700000D03*
X98000000Y-64700000D03*
%TD*%
D17*
%TO.N,/SW1*%
X54000000Y-51000000D02*
X55301000Y-49699000D01*
X94719448Y-44580000D02*
X102600000Y-44580000D01*
X81699470Y-49699000D02*
X85617470Y-45781000D01*
X85617470Y-45781000D02*
X93518448Y-45781000D01*
X55301000Y-49699000D02*
X81699470Y-49699000D01*
X93518448Y-45781000D02*
X94719448Y-44580000D01*
%TO.N,GND*%
X101700000Y-53100000D02*
X102600000Y-52200000D01*
X95000000Y-70100000D02*
X96558471Y-70100000D01*
X98721000Y-65421000D02*
X98000000Y-64700000D01*
X95000000Y-53100000D02*
X101700000Y-53100000D01*
X96558471Y-70100000D02*
X98721000Y-67937471D01*
X98440000Y-49660000D02*
X102600000Y-49660000D01*
X98721000Y-67937471D02*
X98721000Y-65421000D01*
X95000000Y-53100000D02*
X98440000Y-49660000D01*
%TO.N,/SW2*%
X72000000Y-51000000D02*
X80965570Y-51000000D01*
X93299724Y-48400276D02*
X94150448Y-49251000D01*
X100469000Y-49251000D02*
X102600000Y-47120000D01*
X80965570Y-51000000D02*
X83565294Y-48400276D01*
X94150448Y-49251000D02*
X100469000Y-49251000D01*
X83565294Y-48400276D02*
X93299724Y-48400276D01*
%TO.N,/SW3*%
X99160000Y-66540000D02*
X99160000Y-60160000D01*
X99160000Y-60160000D02*
X90000000Y-51000000D01*
X100060000Y-67440000D02*
X99160000Y-66540000D01*
%TO.N,/SW4*%
X104260000Y-54740000D02*
X108000000Y-51000000D01*
X102600000Y-54740000D02*
X104260000Y-54740000D01*
%TO.N,/SW5*%
X119720000Y-57280000D02*
X126000000Y-51000000D01*
X102600000Y-57280000D02*
X119720000Y-57280000D01*
%TO.N,/SW6*%
X71501000Y-66699000D02*
X83460000Y-54740000D01*
X54000000Y-68000000D02*
X55301000Y-66699000D01*
X55301000Y-66699000D02*
X71501000Y-66699000D01*
X83460000Y-54740000D02*
X87360000Y-54740000D01*
%TO.N,/SW7*%
X72000000Y-68000000D02*
X76640000Y-68000000D01*
X76640000Y-68000000D02*
X87360000Y-57280000D01*
%TO.N,/SW8*%
X90641000Y-68641000D02*
X96319000Y-68641000D01*
X90000000Y-68000000D02*
X90641000Y-68641000D01*
X96319000Y-68641000D02*
X97520000Y-67440000D01*
%TO.N,/SW9*%
X106299000Y-63519000D02*
X106299000Y-66299000D01*
X102600000Y-59820000D02*
X106299000Y-63519000D01*
X106299000Y-66299000D02*
X108000000Y-68000000D01*
%TO.N,/SW10*%
X111700000Y-68000000D02*
X126000000Y-68000000D01*
X107461108Y-69301000D02*
X110399000Y-69301000D01*
X105898000Y-65658000D02*
X105898000Y-67737892D01*
X110399000Y-69301000D02*
X111700000Y-68000000D01*
X105898000Y-67737892D02*
X107461108Y-69301000D01*
X102600000Y-62360000D02*
X105898000Y-65658000D01*
%TO.N,/SW11*%
X87360000Y-59820000D02*
X83701000Y-63479000D01*
X74561660Y-68538892D02*
X58100552Y-85000000D01*
X83701000Y-64697470D02*
X79859578Y-68538892D01*
X83701000Y-63479000D02*
X83701000Y-64697470D01*
X79859578Y-68538892D02*
X74561660Y-68538892D01*
X58100552Y-85000000D02*
X54000000Y-85000000D01*
%TO.N,/SW12*%
X74949724Y-74770276D02*
X74949724Y-82050276D01*
X74949724Y-82050276D02*
X72000000Y-85000000D01*
X87360000Y-62360000D02*
X74949724Y-74770276D01*
%TO.N,/SW13*%
X90701000Y-80702530D02*
X90701000Y-84299000D01*
X88561000Y-66101000D02*
X88561000Y-78562530D01*
X87360000Y-64900000D02*
X88561000Y-66101000D01*
X88561000Y-78562530D02*
X90701000Y-80702530D01*
X90701000Y-84299000D02*
X90000000Y-85000000D01*
%TO.N,/SW14*%
X102600000Y-65006992D02*
X106299000Y-68705992D01*
X106299000Y-68705992D02*
X106299000Y-83299000D01*
X102600000Y-64900000D02*
X102600000Y-65006992D01*
X106299000Y-83299000D02*
X108000000Y-85000000D01*
%TO.N,/SW15*%
X103801000Y-68641000D02*
X103801000Y-82640892D01*
X102600000Y-67440000D02*
X103801000Y-68641000D01*
X103801000Y-82640892D02*
X109860108Y-88700000D01*
X109860108Y-88700000D02*
X122300000Y-88700000D01*
X122300000Y-88700000D02*
X126000000Y-85000000D01*
%TO.N,/SW16*%
X63101552Y-96999000D02*
X58100552Y-102000000D01*
X87360000Y-67440000D02*
X83701000Y-71099000D01*
X83701000Y-71099000D02*
X83701000Y-78295470D01*
X83701000Y-78295470D02*
X64997470Y-96999000D01*
X58100552Y-102000000D02*
X54000000Y-102000000D01*
X64997470Y-96999000D02*
X63101552Y-96999000D01*
%TO.N,/SW17*%
X84102000Y-88197448D02*
X72000000Y-100299448D01*
X84102000Y-73238000D02*
X84102000Y-88197448D01*
X87360000Y-69980000D02*
X84102000Y-73238000D01*
X72000000Y-100299448D02*
X72000000Y-102000000D01*
%TO.N,/SW18*%
X87726000Y-72886000D02*
X87360000Y-72520000D01*
X90000000Y-102000000D02*
X87726000Y-99726000D01*
X87726000Y-99726000D02*
X87726000Y-72886000D01*
%TO.N,/SW19*%
X102199000Y-96199000D02*
X102199000Y-73817471D01*
X101000000Y-72618471D02*
X101000000Y-71580000D01*
X102199000Y-73817471D02*
X101000000Y-72618471D01*
X108000000Y-102000000D02*
X102199000Y-96199000D01*
X101000000Y-71580000D02*
X102600000Y-69980000D01*
%TO.N,/SW20*%
X109694008Y-89101000D02*
X102600000Y-82006992D01*
X126000000Y-102000000D02*
X113101000Y-89101000D01*
X102600000Y-82006992D02*
X102600000Y-72520000D01*
X113101000Y-89101000D02*
X109694008Y-89101000D01*
%TD*%
%TA.AperFunction,Conductor*%
%TO.N,GND*%
G36*
X88888814Y-52061067D02*
G01*
X88902147Y-52059151D01*
X88922290Y-52068350D01*
X88943927Y-52073057D01*
X88961652Y-52086325D01*
X88965703Y-52088176D01*
X88972181Y-52094208D01*
X89022490Y-52144517D01*
X89213567Y-52283343D01*
X89312991Y-52334002D01*
X89424003Y-52390566D01*
X89424005Y-52390566D01*
X89424008Y-52390568D01*
X89512476Y-52419313D01*
X89648631Y-52463553D01*
X89881903Y-52500500D01*
X89881908Y-52500500D01*
X90118097Y-52500500D01*
X90224126Y-52483705D01*
X90351368Y-52463553D01*
X90477566Y-52422547D01*
X90547404Y-52420553D01*
X90603563Y-52452798D01*
X98523181Y-60372416D01*
X98556666Y-60433739D01*
X98559500Y-60460097D01*
X98559500Y-66220763D01*
X98539815Y-66287802D01*
X98487011Y-66333557D01*
X98417853Y-66343501D01*
X98362615Y-66321081D01*
X98254025Y-66242187D01*
X98254024Y-66242186D01*
X98254022Y-66242185D01*
X98191096Y-66210122D01*
X98057606Y-66142104D01*
X98057603Y-66142103D01*
X97847952Y-66073985D01*
X97739086Y-66056742D01*
X97630222Y-66039500D01*
X97409778Y-66039500D01*
X97350505Y-66048888D01*
X97192047Y-66073985D01*
X96982396Y-66142103D01*
X96982393Y-66142104D01*
X96785974Y-66242187D01*
X96607641Y-66371752D01*
X96607636Y-66371756D01*
X96451756Y-66527636D01*
X96451752Y-66527641D01*
X96350318Y-66667254D01*
X96294988Y-66709920D01*
X96225375Y-66715899D01*
X96163580Y-66683293D01*
X96149682Y-66667254D01*
X96048247Y-66527641D01*
X96048243Y-66527636D01*
X95892363Y-66371756D01*
X95892358Y-66371752D01*
X95714025Y-66242186D01*
X95708223Y-66239230D01*
X95657429Y-66191254D01*
X95640636Y-66123432D01*
X95663176Y-66057298D01*
X95717070Y-66014186D01*
X95864526Y-65953108D01*
X95864529Y-65953106D01*
X95864535Y-65953104D01*
X96085965Y-65825261D01*
X96288813Y-65669610D01*
X96469610Y-65488813D01*
X96625261Y-65285965D01*
X96753104Y-65064535D01*
X96850950Y-64828313D01*
X96917126Y-64581340D01*
X96950500Y-64327843D01*
X96950500Y-64072157D01*
X96917126Y-63818660D01*
X96850950Y-63571687D01*
X96838915Y-63542633D01*
X96753105Y-63335468D01*
X96753100Y-63335457D01*
X96625265Y-63114042D01*
X96625261Y-63114035D01*
X96536591Y-62998478D01*
X96469611Y-62911188D01*
X96469605Y-62911181D01*
X96288818Y-62730394D01*
X96288811Y-62730388D01*
X96085973Y-62574745D01*
X96085971Y-62574743D01*
X96085965Y-62574739D01*
X96085960Y-62574736D01*
X96085957Y-62574734D01*
X95864542Y-62446899D01*
X95864531Y-62446894D01*
X95628322Y-62349053D01*
X95628315Y-62349051D01*
X95628313Y-62349050D01*
X95381340Y-62282874D01*
X95324449Y-62275384D01*
X95127850Y-62249500D01*
X95127843Y-62249500D01*
X94872157Y-62249500D01*
X94872149Y-62249500D01*
X94646826Y-62279165D01*
X94618660Y-62282874D01*
X94371687Y-62349050D01*
X94371677Y-62349053D01*
X94135468Y-62446894D01*
X94135457Y-62446899D01*
X93914042Y-62574734D01*
X93914026Y-62574745D01*
X93711188Y-62730388D01*
X93711181Y-62730394D01*
X93530394Y-62911181D01*
X93530388Y-62911188D01*
X93374745Y-63114026D01*
X93374734Y-63114042D01*
X93246899Y-63335457D01*
X93246894Y-63335468D01*
X93149053Y-63571677D01*
X93149050Y-63571687D01*
X93082874Y-63818660D01*
X93082601Y-63820731D01*
X93049500Y-64072149D01*
X93049500Y-64327850D01*
X93075457Y-64525007D01*
X93082874Y-64581340D01*
X93145586Y-64815384D01*
X93149050Y-64828312D01*
X93149053Y-64828322D01*
X93246894Y-65064531D01*
X93246899Y-65064542D01*
X93374734Y-65285957D01*
X93374745Y-65285973D01*
X93530388Y-65488811D01*
X93530394Y-65488818D01*
X93711181Y-65669605D01*
X93711187Y-65669610D01*
X93914035Y-65825261D01*
X93914042Y-65825265D01*
X94135457Y-65953100D01*
X94135473Y-65953108D01*
X94260866Y-66005047D01*
X94315270Y-66048888D01*
X94337335Y-66115182D01*
X94320056Y-66182881D01*
X94269711Y-66230092D01*
X94245974Y-66242186D01*
X94067641Y-66371752D01*
X94067636Y-66371756D01*
X93911756Y-66527636D01*
X93911752Y-66527641D01*
X93782187Y-66705974D01*
X93682104Y-66902393D01*
X93682103Y-66902396D01*
X93613985Y-67112047D01*
X93579500Y-67329778D01*
X93579500Y-67550221D01*
X93613985Y-67767954D01*
X93649800Y-67878183D01*
X93651795Y-67948024D01*
X93615714Y-68007856D01*
X93553013Y-68038684D01*
X93531869Y-68040500D01*
X91624500Y-68040500D01*
X91557461Y-68020815D01*
X91511706Y-67968011D01*
X91500500Y-67916500D01*
X91500500Y-67881902D01*
X91463553Y-67648631D01*
X91421589Y-67519480D01*
X91390568Y-67424008D01*
X91390566Y-67424005D01*
X91390566Y-67424003D01*
X91334002Y-67312991D01*
X91283343Y-67213567D01*
X91144517Y-67022490D01*
X90977510Y-66855483D01*
X90786433Y-66716657D01*
X90765474Y-66705978D01*
X90575996Y-66609433D01*
X90351368Y-66536446D01*
X90118097Y-66499500D01*
X90118092Y-66499500D01*
X89881908Y-66499500D01*
X89881903Y-66499500D01*
X89648631Y-66536446D01*
X89424000Y-66609434D01*
X89341794Y-66651321D01*
X89273125Y-66664217D01*
X89208385Y-66637940D01*
X89168128Y-66580834D01*
X89161500Y-66540836D01*
X89161500Y-66021945D01*
X89161500Y-66021943D01*
X89120577Y-65869216D01*
X89095196Y-65825254D01*
X89041524Y-65732290D01*
X89041521Y-65732286D01*
X89041520Y-65732284D01*
X88929716Y-65620480D01*
X88929715Y-65620479D01*
X88925385Y-65616149D01*
X88925374Y-65616139D01*
X88733438Y-65424203D01*
X88726892Y-65412215D01*
X88716598Y-65403240D01*
X88710476Y-65382152D01*
X88699953Y-65362880D01*
X88700513Y-65347831D01*
X88697120Y-65336141D01*
X88702111Y-65304930D01*
X88702250Y-65301221D01*
X88702695Y-65299720D01*
X88726015Y-65227951D01*
X88728307Y-65213476D01*
X88730632Y-65205649D01*
X88745348Y-65182903D01*
X88756952Y-65158423D01*
X88764047Y-65154004D01*
X88768587Y-65146988D01*
X88793265Y-65135808D01*
X88816262Y-65121488D01*
X88824617Y-65121606D01*
X88832231Y-65118158D01*
X88859036Y-65122096D01*
X88886125Y-65122482D01*
X88896289Y-65127570D01*
X88901359Y-65128315D01*
X88906187Y-65132525D01*
X88918924Y-65138901D01*
X88919056Y-65138686D01*
X88921560Y-65140220D01*
X88922395Y-65140638D01*
X88923212Y-65141232D01*
X89077555Y-65219873D01*
X89242299Y-65273402D01*
X89413389Y-65300500D01*
X89413390Y-65300500D01*
X89586610Y-65300500D01*
X89586611Y-65300500D01*
X89757701Y-65273402D01*
X89922445Y-65219873D01*
X90076788Y-65141232D01*
X90216928Y-65039414D01*
X90339414Y-64916928D01*
X90441232Y-64776788D01*
X90519873Y-64622445D01*
X90573402Y-64457701D01*
X90600500Y-64286611D01*
X90600500Y-64113389D01*
X90573402Y-63942299D01*
X90519873Y-63777555D01*
X90441232Y-63623212D01*
X90339414Y-63483072D01*
X90216928Y-63360586D01*
X90076788Y-63258768D01*
X89922445Y-63180127D01*
X89757701Y-63126598D01*
X89757699Y-63126597D01*
X89757698Y-63126597D01*
X89626271Y-63105781D01*
X89586611Y-63099500D01*
X89413389Y-63099500D01*
X89373728Y-63105781D01*
X89242302Y-63126597D01*
X89242299Y-63126598D01*
X89078922Y-63179683D01*
X89077552Y-63180128D01*
X88923211Y-63258768D01*
X88904497Y-63272365D01*
X88783072Y-63360586D01*
X88783070Y-63360588D01*
X88783069Y-63360588D01*
X88660588Y-63483069D01*
X88660588Y-63483070D01*
X88660586Y-63483072D01*
X88626722Y-63529682D01*
X88558768Y-63623211D01*
X88480129Y-63777550D01*
X88480128Y-63777552D01*
X88480127Y-63777555D01*
X88478411Y-63782833D01*
X88438975Y-63840507D01*
X88374616Y-63867705D01*
X88305770Y-63855790D01*
X88286754Y-63844213D01*
X88279329Y-63838722D01*
X88272365Y-63831758D01*
X88132385Y-63730057D01*
X88131902Y-63729700D01*
X88111120Y-63702275D01*
X88090079Y-63674989D01*
X88090032Y-63674446D01*
X88089704Y-63674013D01*
X88087048Y-63639699D01*
X88084100Y-63605375D01*
X88084353Y-63604893D01*
X88084312Y-63604351D01*
X88100636Y-63574033D01*
X88116705Y-63543580D01*
X88117323Y-63543044D01*
X88117437Y-63542833D01*
X88117797Y-63542633D01*
X88132745Y-63529682D01*
X88272358Y-63428247D01*
X88272356Y-63428247D01*
X88272365Y-63428242D01*
X88428242Y-63272365D01*
X88557815Y-63094022D01*
X88657895Y-62897606D01*
X88726015Y-62687951D01*
X88760500Y-62470222D01*
X88760500Y-62249778D01*
X88726015Y-62032049D01*
X88657895Y-61822394D01*
X88657895Y-61822393D01*
X88623237Y-61754375D01*
X88557815Y-61625978D01*
X88541260Y-61603192D01*
X88428247Y-61447641D01*
X88428243Y-61447636D01*
X88272363Y-61291756D01*
X88272358Y-61291752D01*
X88132745Y-61190318D01*
X88090079Y-61134989D01*
X88084100Y-61065375D01*
X88116705Y-61003580D01*
X88132745Y-60989682D01*
X88272358Y-60888247D01*
X88272356Y-60888247D01*
X88272365Y-60888242D01*
X88428242Y-60732365D01*
X88557815Y-60554022D01*
X88657895Y-60357606D01*
X88726015Y-60147951D01*
X88760500Y-59930222D01*
X88760500Y-59709778D01*
X88726015Y-59492049D01*
X88657895Y-59282394D01*
X88657895Y-59282393D01*
X88623237Y-59214375D01*
X88557815Y-59085978D01*
X88541260Y-59063192D01*
X88428247Y-58907641D01*
X88428243Y-58907636D01*
X88272363Y-58751756D01*
X88272358Y-58751752D01*
X88132745Y-58650318D01*
X88090079Y-58594989D01*
X88084100Y-58525375D01*
X88116705Y-58463580D01*
X88132745Y-58449682D01*
X88272358Y-58348247D01*
X88272356Y-58348247D01*
X88272365Y-58348242D01*
X88428242Y-58192365D01*
X88557815Y-58014022D01*
X88657895Y-57817606D01*
X88726015Y-57607951D01*
X88760500Y-57390222D01*
X88760500Y-57169778D01*
X88726015Y-56952049D01*
X88657895Y-56742394D01*
X88657895Y-56742393D01*
X88591351Y-56611796D01*
X88557815Y-56545978D01*
X88541260Y-56523192D01*
X88428247Y-56367641D01*
X88428243Y-56367636D01*
X88272363Y-56211756D01*
X88272358Y-56211752D01*
X88132745Y-56110318D01*
X88090079Y-56054989D01*
X88084100Y-55985375D01*
X88116705Y-55923580D01*
X88132745Y-55909682D01*
X88272358Y-55808247D01*
X88272356Y-55808247D01*
X88272365Y-55808242D01*
X88428242Y-55652365D01*
X88557815Y-55474022D01*
X88657895Y-55277606D01*
X88726015Y-55067951D01*
X88760500Y-54850222D01*
X88760500Y-54629778D01*
X88726015Y-54412049D01*
X88657895Y-54202394D01*
X88657895Y-54202393D01*
X88615818Y-54119815D01*
X88557815Y-54005978D01*
X88470773Y-53886174D01*
X88428247Y-53827641D01*
X88428243Y-53827636D01*
X88272363Y-53671756D01*
X88272358Y-53671752D01*
X88132745Y-53570318D01*
X88090079Y-53514989D01*
X88084100Y-53445375D01*
X88116705Y-53383580D01*
X88132745Y-53369682D01*
X88257826Y-53278804D01*
X88272365Y-53268242D01*
X88428242Y-53112365D01*
X88557815Y-52934022D01*
X88657895Y-52737606D01*
X88726015Y-52527951D01*
X88760500Y-52310222D01*
X88760500Y-52181889D01*
X88766738Y-52160643D01*
X88768318Y-52138555D01*
X88776390Y-52127771D01*
X88780185Y-52114850D01*
X88796918Y-52100350D01*
X88810190Y-52082622D01*
X88822810Y-52077914D01*
X88832989Y-52069095D01*
X88854906Y-52065943D01*
X88875654Y-52058205D01*
X88888814Y-52061067D01*
G37*
%TD.AperFunction*%
%TA.AperFunction,Conductor*%
G36*
X93066666Y-49020461D02*
G01*
X93087308Y-49037095D01*
X93665587Y-49615374D01*
X93665597Y-49615385D01*
X93669927Y-49619715D01*
X93669928Y-49619716D01*
X93781732Y-49731520D01*
X93781734Y-49731521D01*
X93781738Y-49731524D01*
X93918657Y-49810573D01*
X93918664Y-49810577D01*
X94030467Y-49840534D01*
X94071390Y-49851500D01*
X94071391Y-49851500D01*
X100382331Y-49851500D01*
X100382347Y-49851501D01*
X100389943Y-49851501D01*
X100548054Y-49851501D01*
X100548057Y-49851501D01*
X100700785Y-49810577D01*
X100757111Y-49778057D01*
X100837716Y-49731520D01*
X100949520Y-49619716D01*
X100949520Y-49619714D01*
X100959723Y-49609512D01*
X100959727Y-49609506D01*
X101122916Y-49446317D01*
X101184237Y-49412834D01*
X101210595Y-49410000D01*
X102166988Y-49410000D01*
X102134075Y-49467007D01*
X102100000Y-49594174D01*
X102100000Y-49725826D01*
X102134075Y-49852993D01*
X102166988Y-49910000D01*
X101200001Y-49910000D01*
X101200001Y-50165098D01*
X101210078Y-50278460D01*
X101263228Y-50464215D01*
X101352686Y-50635474D01*
X101474784Y-50785215D01*
X101534488Y-50833898D01*
X101574005Y-50891519D01*
X101576097Y-50961358D01*
X101540099Y-51021240D01*
X101534488Y-51026102D01*
X101474784Y-51074784D01*
X101352686Y-51224525D01*
X101263228Y-51395784D01*
X101210079Y-51581538D01*
X101210078Y-51581541D01*
X101200000Y-51694902D01*
X101200000Y-51950000D01*
X102166988Y-51950000D01*
X102134075Y-52007007D01*
X102100000Y-52134174D01*
X102100000Y-52265826D01*
X102134075Y-52392993D01*
X102166988Y-52450000D01*
X101200001Y-52450000D01*
X101200001Y-52705098D01*
X101210078Y-52818460D01*
X101263228Y-53004215D01*
X101352686Y-53175474D01*
X101474784Y-53325215D01*
X101624526Y-53447313D01*
X101624527Y-53447314D01*
X101664046Y-53467957D01*
X101714354Y-53516443D01*
X101730462Y-53584430D01*
X101707256Y-53650334D01*
X101690886Y-53668119D01*
X101691080Y-53668313D01*
X101531756Y-53827636D01*
X101531752Y-53827641D01*
X101402187Y-54005974D01*
X101302104Y-54202393D01*
X101302105Y-54202394D01*
X101233985Y-54412047D01*
X101199500Y-54629778D01*
X101199500Y-54850221D01*
X101233985Y-55067952D01*
X101302103Y-55277603D01*
X101302104Y-55277606D01*
X101402187Y-55474025D01*
X101531752Y-55652358D01*
X101531756Y-55652363D01*
X101687636Y-55808243D01*
X101687641Y-55808247D01*
X101827254Y-55909682D01*
X101869920Y-55965012D01*
X101875899Y-56034625D01*
X101843293Y-56096420D01*
X101827254Y-56110318D01*
X101687641Y-56211752D01*
X101687636Y-56211756D01*
X101531756Y-56367636D01*
X101531752Y-56367641D01*
X101402187Y-56545974D01*
X101302104Y-56742393D01*
X101302103Y-56742396D01*
X101233985Y-56952047D01*
X101199500Y-57169778D01*
X101199500Y-57390221D01*
X101233985Y-57607952D01*
X101302103Y-57817603D01*
X101302104Y-57817606D01*
X101402187Y-58014025D01*
X101531752Y-58192358D01*
X101531756Y-58192363D01*
X101687636Y-58348243D01*
X101687641Y-58348247D01*
X101827254Y-58449682D01*
X101869920Y-58505012D01*
X101875899Y-58574625D01*
X101843293Y-58636420D01*
X101827254Y-58650318D01*
X101687641Y-58751752D01*
X101687636Y-58751756D01*
X101531756Y-58907636D01*
X101531752Y-58907641D01*
X101402187Y-59085974D01*
X101302104Y-59282393D01*
X101302103Y-59282396D01*
X101233985Y-59492047D01*
X101199500Y-59709778D01*
X101199500Y-59930221D01*
X101233985Y-60147952D01*
X101302103Y-60357603D01*
X101302104Y-60357606D01*
X101402187Y-60554025D01*
X101531752Y-60732358D01*
X101531756Y-60732363D01*
X101687636Y-60888243D01*
X101687641Y-60888247D01*
X101827254Y-60989682D01*
X101869920Y-61045012D01*
X101875899Y-61114625D01*
X101843293Y-61176420D01*
X101827254Y-61190318D01*
X101687641Y-61291752D01*
X101687636Y-61291756D01*
X101531756Y-61447636D01*
X101531752Y-61447641D01*
X101402187Y-61625974D01*
X101302104Y-61822393D01*
X101302103Y-61822396D01*
X101233985Y-62032047D01*
X101199500Y-62249778D01*
X101199500Y-62470221D01*
X101233985Y-62687952D01*
X101302103Y-62897603D01*
X101302104Y-62897606D01*
X101353502Y-62998478D01*
X101395408Y-63080722D01*
X101402187Y-63094025D01*
X101531752Y-63272358D01*
X101531756Y-63272363D01*
X101687636Y-63428243D01*
X101687641Y-63428247D01*
X101827254Y-63529682D01*
X101844430Y-63551957D01*
X101864039Y-63572134D01*
X101865482Y-63579257D01*
X101869920Y-63585012D01*
X101872327Y-63613039D01*
X101877914Y-63640612D01*
X101875277Y-63647384D01*
X101875899Y-63654625D01*
X101862771Y-63679504D01*
X101852564Y-63705721D01*
X101845122Y-63712953D01*
X101843293Y-63716420D01*
X101827255Y-63730318D01*
X101827254Y-63730319D01*
X101702811Y-63820731D01*
X101637004Y-63844210D01*
X101568950Y-63828384D01*
X101520256Y-63778278D01*
X101519441Y-63776707D01*
X101467613Y-63674989D01*
X101441232Y-63623212D01*
X101339414Y-63483072D01*
X101216928Y-63360586D01*
X101076788Y-63258768D01*
X100922445Y-63180127D01*
X100757701Y-63126598D01*
X100757699Y-63126597D01*
X100757698Y-63126597D01*
X100626271Y-63105781D01*
X100586611Y-63099500D01*
X100413389Y-63099500D01*
X100373728Y-63105781D01*
X100242302Y-63126597D01*
X100242299Y-63126598D01*
X100078922Y-63179683D01*
X100077549Y-63180129D01*
X99940794Y-63249809D01*
X99872125Y-63262705D01*
X99807385Y-63236428D01*
X99767128Y-63179322D01*
X99760500Y-63139324D01*
X99760500Y-60080945D01*
X99760500Y-60080943D01*
X99719577Y-59928216D01*
X99719577Y-59928215D01*
X99719577Y-59928214D01*
X99690639Y-59878095D01*
X99690637Y-59878092D01*
X99654835Y-59816079D01*
X99640520Y-59791284D01*
X99528716Y-59679480D01*
X99528715Y-59679479D01*
X99524385Y-59675149D01*
X99524374Y-59675139D01*
X94637656Y-54788421D01*
X94604171Y-54727098D01*
X94609155Y-54657406D01*
X94651027Y-54601473D01*
X94716491Y-54577056D01*
X94744735Y-54578267D01*
X94881948Y-54600000D01*
X95118052Y-54600000D01*
X95351247Y-54563065D01*
X95575802Y-54490102D01*
X95786163Y-54382918D01*
X95786169Y-54382914D01*
X95869104Y-54322658D01*
X95869105Y-54322658D01*
X95211058Y-53664612D01*
X95231591Y-53659111D01*
X95368408Y-53580119D01*
X95480119Y-53468408D01*
X95559111Y-53331591D01*
X95564612Y-53311059D01*
X96222658Y-53969105D01*
X96222658Y-53969104D01*
X96282914Y-53886169D01*
X96282918Y-53886163D01*
X96390102Y-53675802D01*
X96463065Y-53451247D01*
X96500000Y-53218052D01*
X96500000Y-52981947D01*
X96463065Y-52748752D01*
X96390102Y-52524197D01*
X96282914Y-52313828D01*
X96222658Y-52230894D01*
X96222658Y-52230893D01*
X95564612Y-52888940D01*
X95559111Y-52868409D01*
X95480119Y-52731592D01*
X95368408Y-52619881D01*
X95231591Y-52540889D01*
X95211059Y-52535387D01*
X95869105Y-51877340D01*
X95869104Y-51877338D01*
X95786174Y-51817087D01*
X95757811Y-51802635D01*
X95575802Y-51709897D01*
X95351247Y-51636934D01*
X95351248Y-51636934D01*
X95118052Y-51600000D01*
X94881948Y-51600000D01*
X94648752Y-51636934D01*
X94424197Y-51709897D01*
X94213830Y-51817084D01*
X94130894Y-51877340D01*
X94788941Y-52535387D01*
X94768409Y-52540889D01*
X94631592Y-52619881D01*
X94519881Y-52731592D01*
X94440889Y-52868409D01*
X94435387Y-52888941D01*
X93777340Y-52230894D01*
X93717084Y-52313830D01*
X93609897Y-52524197D01*
X93536934Y-52748752D01*
X93500000Y-52981947D01*
X93500000Y-53218052D01*
X93521732Y-53355264D01*
X93512777Y-53424558D01*
X93467781Y-53478010D01*
X93401029Y-53498649D01*
X93333716Y-53479924D01*
X93311578Y-53462343D01*
X91452798Y-51603563D01*
X91419313Y-51542240D01*
X91422547Y-51477566D01*
X91463553Y-51351368D01*
X91483705Y-51224126D01*
X91500500Y-51118097D01*
X91500500Y-50881902D01*
X91463553Y-50648631D01*
X91403632Y-50464215D01*
X91390568Y-50424008D01*
X91390566Y-50424005D01*
X91390566Y-50424003D01*
X91334002Y-50312991D01*
X91283343Y-50213567D01*
X91144517Y-50022490D01*
X90977510Y-49855483D01*
X90786433Y-49716657D01*
X90575996Y-49609433D01*
X90351368Y-49536446D01*
X90118097Y-49499500D01*
X90118092Y-49499500D01*
X89881908Y-49499500D01*
X89881903Y-49499500D01*
X89648631Y-49536446D01*
X89424003Y-49609433D01*
X89213566Y-49716657D01*
X89022490Y-49855482D01*
X88965004Y-49912969D01*
X88903680Y-49946453D01*
X88833988Y-49941468D01*
X88778055Y-49899597D01*
X88753639Y-49834132D01*
X88754849Y-49805897D01*
X88760500Y-49770222D01*
X88760500Y-49549778D01*
X88726015Y-49332049D01*
X88671118Y-49163093D01*
X88669124Y-49093253D01*
X88705205Y-49033420D01*
X88767906Y-49002592D01*
X88789050Y-49000776D01*
X92999627Y-49000776D01*
X93066666Y-49020461D01*
G37*
%TD.AperFunction*%
%TA.AperFunction,Conductor*%
G36*
X102850000Y-51766988D02*
G01*
X102792993Y-51734075D01*
X102665826Y-51700000D01*
X102534174Y-51700000D01*
X102407007Y-51734075D01*
X102350000Y-51766988D01*
X102350000Y-50093012D01*
X102407007Y-50125925D01*
X102534174Y-50160000D01*
X102665826Y-50160000D01*
X102792993Y-50125925D01*
X102850000Y-50093012D01*
X102850000Y-51766988D01*
G37*
%TD.AperFunction*%
%TA.AperFunction,Conductor*%
G36*
X85881513Y-46468706D02*
G01*
X85937446Y-46510578D01*
X85961863Y-46576042D01*
X85961692Y-46595867D01*
X85960000Y-46614897D01*
X85960000Y-46870000D01*
X86926988Y-46870000D01*
X86894075Y-46927007D01*
X86860000Y-47054174D01*
X86860000Y-47185826D01*
X86894075Y-47312993D01*
X86926988Y-47370000D01*
X85960001Y-47370000D01*
X85960001Y-47625100D01*
X85963530Y-47664797D01*
X85949859Y-47733316D01*
X85901313Y-47783566D01*
X85840017Y-47799776D01*
X84747292Y-47799776D01*
X84680253Y-47780091D01*
X84634498Y-47727287D01*
X84624554Y-47658129D01*
X84653579Y-47594573D01*
X84659611Y-47588095D01*
X85193532Y-47054174D01*
X85750500Y-46497205D01*
X85811821Y-46463722D01*
X85881513Y-46468706D01*
G37*
%TD.AperFunction*%
%TA.AperFunction,Conductor*%
G36*
X139742539Y-38920185D02*
G01*
X139788294Y-38972989D01*
X139799500Y-39024500D01*
X139799500Y-106375500D01*
X139779815Y-106442539D01*
X139727011Y-106488294D01*
X139675500Y-106499500D01*
X50324500Y-106499500D01*
X50257461Y-106479815D01*
X50211706Y-106427011D01*
X50200500Y-106375500D01*
X50200500Y-98113389D01*
X52399500Y-98113389D01*
X52399500Y-98286611D01*
X52426598Y-98457701D01*
X52466770Y-98581338D01*
X52480128Y-98622447D01*
X52541919Y-98743719D01*
X52558768Y-98776788D01*
X52660586Y-98916928D01*
X52783072Y-99039414D01*
X52923212Y-99141232D01*
X53077555Y-99219873D01*
X53242299Y-99273402D01*
X53413389Y-99300500D01*
X53413390Y-99300500D01*
X53586610Y-99300500D01*
X53586611Y-99300500D01*
X53757701Y-99273402D01*
X53922445Y-99219873D01*
X54076788Y-99141232D01*
X54216928Y-99039414D01*
X54339414Y-98916928D01*
X54441232Y-98776788D01*
X54519873Y-98622445D01*
X54573402Y-98457701D01*
X54600500Y-98286611D01*
X54600500Y-98113389D01*
X54573402Y-97942299D01*
X54519873Y-97777555D01*
X54441232Y-97623212D01*
X54339414Y-97483072D01*
X54216928Y-97360586D01*
X54076788Y-97258768D01*
X53922445Y-97180127D01*
X53757701Y-97126598D01*
X53757699Y-97126597D01*
X53757698Y-97126597D01*
X53626271Y-97105781D01*
X53586611Y-97099500D01*
X53413389Y-97099500D01*
X53373728Y-97105781D01*
X53242302Y-97126597D01*
X53077552Y-97180128D01*
X52923211Y-97258768D01*
X52843256Y-97316859D01*
X52783072Y-97360586D01*
X52783070Y-97360588D01*
X52783069Y-97360588D01*
X52660588Y-97483069D01*
X52660588Y-97483070D01*
X52660586Y-97483072D01*
X52636377Y-97516393D01*
X52558768Y-97623211D01*
X52480128Y-97777552D01*
X52426597Y-97942302D01*
X52404306Y-98083044D01*
X52399500Y-98113389D01*
X50200500Y-98113389D01*
X50200500Y-81113389D01*
X52399500Y-81113389D01*
X52399500Y-81286611D01*
X52426598Y-81457701D01*
X52480127Y-81622445D01*
X52558768Y-81776788D01*
X52660586Y-81916928D01*
X52783072Y-82039414D01*
X52923212Y-82141232D01*
X53077555Y-82219873D01*
X53242299Y-82273402D01*
X53413389Y-82300500D01*
X53413390Y-82300500D01*
X53586610Y-82300500D01*
X53586611Y-82300500D01*
X53757701Y-82273402D01*
X53922445Y-82219873D01*
X54076788Y-82141232D01*
X54216928Y-82039414D01*
X54339414Y-81916928D01*
X54441232Y-81776788D01*
X54519873Y-81622445D01*
X54573402Y-81457701D01*
X54600500Y-81286611D01*
X54600500Y-81113389D01*
X54573402Y-80942299D01*
X54519873Y-80777555D01*
X54441232Y-80623212D01*
X54339414Y-80483072D01*
X54216928Y-80360586D01*
X54076788Y-80258768D01*
X53922445Y-80180127D01*
X53757701Y-80126598D01*
X53757699Y-80126597D01*
X53757698Y-80126597D01*
X53626271Y-80105781D01*
X53586611Y-80099500D01*
X53413389Y-80099500D01*
X53373728Y-80105781D01*
X53242302Y-80126597D01*
X53242299Y-80126598D01*
X53106544Y-80170708D01*
X53077552Y-80180128D01*
X52923211Y-80258768D01*
X52843256Y-80316859D01*
X52783072Y-80360586D01*
X52783070Y-80360588D01*
X52783069Y-80360588D01*
X52660588Y-80483069D01*
X52660588Y-80483070D01*
X52660586Y-80483072D01*
X52660582Y-80483078D01*
X52558768Y-80623211D01*
X52480128Y-80777552D01*
X52426597Y-80942302D01*
X52404306Y-81083044D01*
X52399500Y-81113389D01*
X50200500Y-81113389D01*
X50200500Y-69981947D01*
X57500000Y-69981947D01*
X57500000Y-70218052D01*
X57536934Y-70451247D01*
X57609897Y-70675802D01*
X57717087Y-70886174D01*
X57777338Y-70969104D01*
X57777340Y-70969105D01*
X58435387Y-70311058D01*
X58440889Y-70331591D01*
X58519881Y-70468408D01*
X58631592Y-70580119D01*
X58768409Y-70659111D01*
X58788940Y-70664612D01*
X58130893Y-71322658D01*
X58213828Y-71382914D01*
X58424197Y-71490102D01*
X58648752Y-71563065D01*
X58648751Y-71563065D01*
X58881948Y-71600000D01*
X59118052Y-71600000D01*
X59351247Y-71563065D01*
X59575802Y-71490102D01*
X59786163Y-71382918D01*
X59786169Y-71382914D01*
X59869104Y-71322658D01*
X59869105Y-71322658D01*
X59211058Y-70664612D01*
X59231591Y-70659111D01*
X59368408Y-70580119D01*
X59480119Y-70468408D01*
X59559111Y-70331591D01*
X59564612Y-70311059D01*
X60222658Y-70969105D01*
X60222658Y-70969104D01*
X60282914Y-70886169D01*
X60282918Y-70886163D01*
X60390102Y-70675802D01*
X60463065Y-70451247D01*
X60500000Y-70218052D01*
X60500000Y-69981947D01*
X60463065Y-69748752D01*
X60390102Y-69524197D01*
X60282914Y-69313828D01*
X60222658Y-69230894D01*
X60222658Y-69230893D01*
X59564612Y-69888940D01*
X59559111Y-69868409D01*
X59480119Y-69731592D01*
X59368408Y-69619881D01*
X59231591Y-69540889D01*
X59211059Y-69535387D01*
X59869105Y-68877340D01*
X59869104Y-68877338D01*
X59786174Y-68817087D01*
X59575802Y-68709897D01*
X59351247Y-68636934D01*
X59351248Y-68636934D01*
X59118052Y-68600000D01*
X58881948Y-68600000D01*
X58648752Y-68636934D01*
X58424197Y-68709897D01*
X58213830Y-68817084D01*
X58130894Y-68877340D01*
X58788941Y-69535387D01*
X58768409Y-69540889D01*
X58631592Y-69619881D01*
X58519881Y-69731592D01*
X58440889Y-69868409D01*
X58435387Y-69888941D01*
X57777340Y-69230894D01*
X57717084Y-69313830D01*
X57609897Y-69524197D01*
X57536934Y-69748752D01*
X57500000Y-69981947D01*
X50200500Y-69981947D01*
X50200500Y-64113389D01*
X52399500Y-64113389D01*
X52399500Y-64286611D01*
X52401954Y-64302107D01*
X52410651Y-64357019D01*
X52426598Y-64457701D01*
X52480127Y-64622445D01*
X52558768Y-64776788D01*
X52660586Y-64916928D01*
X52783072Y-65039414D01*
X52923212Y-65141232D01*
X53077555Y-65219873D01*
X53242299Y-65273402D01*
X53413389Y-65300500D01*
X53413390Y-65300500D01*
X53586610Y-65300500D01*
X53586611Y-65300500D01*
X53757701Y-65273402D01*
X53922445Y-65219873D01*
X54076788Y-65141232D01*
X54216928Y-65039414D01*
X54339414Y-64916928D01*
X54441232Y-64776788D01*
X54519873Y-64622445D01*
X54573402Y-64457701D01*
X54600500Y-64286611D01*
X54600500Y-64113389D01*
X54573402Y-63942299D01*
X54519873Y-63777555D01*
X54441232Y-63623212D01*
X54339414Y-63483072D01*
X54216928Y-63360586D01*
X54076788Y-63258768D01*
X53922445Y-63180127D01*
X53757701Y-63126598D01*
X53757699Y-63126597D01*
X53757698Y-63126597D01*
X53626271Y-63105781D01*
X53586611Y-63099500D01*
X53413389Y-63099500D01*
X53373728Y-63105781D01*
X53242302Y-63126597D01*
X53242299Y-63126598D01*
X53078922Y-63179683D01*
X53077552Y-63180128D01*
X52923211Y-63258768D01*
X52904497Y-63272365D01*
X52783072Y-63360586D01*
X52783070Y-63360588D01*
X52783069Y-63360588D01*
X52660588Y-63483069D01*
X52660588Y-63483070D01*
X52660586Y-63483072D01*
X52626722Y-63529682D01*
X52558768Y-63623211D01*
X52480128Y-63777552D01*
X52426597Y-63942302D01*
X52403601Y-64087495D01*
X52399500Y-64113389D01*
X50200500Y-64113389D01*
X50200500Y-52981947D01*
X57500000Y-52981947D01*
X57500000Y-53218052D01*
X57536934Y-53451247D01*
X57609897Y-53675802D01*
X57717087Y-53886174D01*
X57777338Y-53969104D01*
X57777340Y-53969105D01*
X58435387Y-53311058D01*
X58440889Y-53331591D01*
X58519881Y-53468408D01*
X58631592Y-53580119D01*
X58768409Y-53659111D01*
X58788940Y-53664612D01*
X58130893Y-54322658D01*
X58213828Y-54382914D01*
X58424197Y-54490102D01*
X58648752Y-54563065D01*
X58648751Y-54563065D01*
X58881948Y-54600000D01*
X59118052Y-54600000D01*
X59351247Y-54563065D01*
X59575802Y-54490102D01*
X59786163Y-54382918D01*
X59786169Y-54382914D01*
X59869104Y-54322658D01*
X59869105Y-54322658D01*
X59211058Y-53664612D01*
X59231591Y-53659111D01*
X59368408Y-53580119D01*
X59480119Y-53468408D01*
X59559111Y-53331591D01*
X59564612Y-53311058D01*
X60222658Y-53969105D01*
X60222658Y-53969104D01*
X60282914Y-53886169D01*
X60282918Y-53886163D01*
X60390102Y-53675802D01*
X60463065Y-53451247D01*
X60500000Y-53218052D01*
X60500000Y-52981947D01*
X60463065Y-52748752D01*
X60390102Y-52524197D01*
X60282914Y-52313828D01*
X60222658Y-52230894D01*
X60222658Y-52230893D01*
X59564612Y-52888940D01*
X59559111Y-52868409D01*
X59480119Y-52731592D01*
X59368408Y-52619881D01*
X59231591Y-52540889D01*
X59211059Y-52535387D01*
X59869105Y-51877340D01*
X59869104Y-51877338D01*
X59786174Y-51817087D01*
X59575802Y-51709897D01*
X59351247Y-51636934D01*
X59351248Y-51636934D01*
X59118052Y-51600000D01*
X58881948Y-51600000D01*
X58648752Y-51636934D01*
X58424197Y-51709897D01*
X58213830Y-51817084D01*
X58130894Y-51877340D01*
X58788941Y-52535387D01*
X58768409Y-52540889D01*
X58631592Y-52619881D01*
X58519881Y-52731592D01*
X58440889Y-52868409D01*
X58435387Y-52888941D01*
X57777340Y-52230894D01*
X57717084Y-52313830D01*
X57609897Y-52524197D01*
X57536934Y-52748752D01*
X57500000Y-52981947D01*
X50200500Y-52981947D01*
X50200500Y-50881902D01*
X52499500Y-50881902D01*
X52499500Y-51118097D01*
X52536446Y-51351368D01*
X52609433Y-51575996D01*
X52672617Y-51700000D01*
X52716657Y-51786433D01*
X52855483Y-51977510D01*
X53022490Y-52144517D01*
X53213567Y-52283343D01*
X53312991Y-52334002D01*
X53424003Y-52390566D01*
X53424005Y-52390566D01*
X53424008Y-52390568D01*
X53512476Y-52419313D01*
X53648631Y-52463553D01*
X53881903Y-52500500D01*
X53881908Y-52500500D01*
X54118097Y-52500500D01*
X54351368Y-52463553D01*
X54384468Y-52452798D01*
X54575992Y-52390568D01*
X54786433Y-52283343D01*
X54977510Y-52144517D01*
X55144517Y-51977510D01*
X55283343Y-51786433D01*
X55390568Y-51575992D01*
X55463553Y-51351368D01*
X55463554Y-51351362D01*
X55500500Y-51118097D01*
X55500500Y-50881902D01*
X55476163Y-50728248D01*
X55463553Y-50648632D01*
X55422547Y-50522432D01*
X55422113Y-50507220D01*
X55416795Y-50492961D01*
X55421136Y-50473006D01*
X55420553Y-50452595D01*
X55428641Y-50438507D01*
X55431648Y-50424688D01*
X55452794Y-50396439D01*
X55513418Y-50335817D01*
X55574742Y-50302333D01*
X55601098Y-50299500D01*
X70479216Y-50299500D01*
X70546255Y-50319185D01*
X70592010Y-50371989D01*
X70601954Y-50441147D01*
X70597148Y-50461812D01*
X70596368Y-50464215D01*
X70536446Y-50648631D01*
X70499500Y-50881902D01*
X70499500Y-51118097D01*
X70536446Y-51351368D01*
X70609433Y-51575996D01*
X70672617Y-51700000D01*
X70716657Y-51786433D01*
X70855483Y-51977510D01*
X71022490Y-52144517D01*
X71213567Y-52283343D01*
X71312991Y-52334002D01*
X71424003Y-52390566D01*
X71424005Y-52390566D01*
X71424008Y-52390568D01*
X71512476Y-52419313D01*
X71648631Y-52463553D01*
X71881903Y-52500500D01*
X71881908Y-52500500D01*
X72118097Y-52500500D01*
X72351368Y-52463553D01*
X72384468Y-52452798D01*
X72575992Y-52390568D01*
X72786433Y-52283343D01*
X72977510Y-52144517D01*
X73144517Y-51977510D01*
X73283343Y-51786433D01*
X73343583Y-51668204D01*
X73391558Y-51617409D01*
X73454068Y-51600500D01*
X76130300Y-51600500D01*
X76197339Y-51620185D01*
X76243094Y-51672989D01*
X76253038Y-51742147D01*
X76224013Y-51805703D01*
X76203185Y-51824818D01*
X76130894Y-51877339D01*
X76130894Y-51877340D01*
X76788941Y-52535387D01*
X76768409Y-52540889D01*
X76631592Y-52619881D01*
X76519881Y-52731592D01*
X76440889Y-52868409D01*
X76435387Y-52888941D01*
X75777340Y-52230894D01*
X75717084Y-52313830D01*
X75609897Y-52524197D01*
X75536934Y-52748752D01*
X75500000Y-52981947D01*
X75500000Y-53218052D01*
X75536934Y-53451247D01*
X75609897Y-53675802D01*
X75717087Y-53886174D01*
X75777338Y-53969104D01*
X75777340Y-53969105D01*
X76435387Y-53311058D01*
X76440889Y-53331591D01*
X76519881Y-53468408D01*
X76631592Y-53580119D01*
X76768409Y-53659111D01*
X76788940Y-53664612D01*
X76130893Y-54322658D01*
X76213828Y-54382914D01*
X76424197Y-54490102D01*
X76648752Y-54563065D01*
X76648751Y-54563065D01*
X76881948Y-54600000D01*
X77118052Y-54600000D01*
X77351247Y-54563065D01*
X77575802Y-54490102D01*
X77786163Y-54382918D01*
X77786169Y-54382914D01*
X77869104Y-54322658D01*
X77869105Y-54322658D01*
X77211058Y-53664612D01*
X77231591Y-53659111D01*
X77368408Y-53580119D01*
X77480119Y-53468408D01*
X77559111Y-53331591D01*
X77564612Y-53311059D01*
X78222658Y-53969105D01*
X78222658Y-53969104D01*
X78282914Y-53886169D01*
X78282918Y-53886163D01*
X78390102Y-53675802D01*
X78463065Y-53451247D01*
X78500000Y-53218052D01*
X78500000Y-52981947D01*
X78463065Y-52748752D01*
X78390102Y-52524197D01*
X78282914Y-52313828D01*
X78222658Y-52230894D01*
X78222658Y-52230893D01*
X77564612Y-52888940D01*
X77559111Y-52868409D01*
X77480119Y-52731592D01*
X77368408Y-52619881D01*
X77231591Y-52540889D01*
X77211059Y-52535387D01*
X77869105Y-51877340D01*
X77869104Y-51877338D01*
X77796816Y-51824818D01*
X77754150Y-51769488D01*
X77748171Y-51699875D01*
X77780777Y-51638080D01*
X77841615Y-51603723D01*
X77869701Y-51600500D01*
X80878901Y-51600500D01*
X80878917Y-51600501D01*
X80886513Y-51600501D01*
X81044624Y-51600501D01*
X81044627Y-51600501D01*
X81197355Y-51559577D01*
X81247474Y-51530639D01*
X81334286Y-51480520D01*
X81446090Y-51368716D01*
X81446090Y-51368714D01*
X81456298Y-51358507D01*
X81456299Y-51358504D01*
X83777710Y-49037095D01*
X83839033Y-49003610D01*
X83865391Y-49000776D01*
X85930950Y-49000776D01*
X85997989Y-49020461D01*
X86043744Y-49073265D01*
X86053688Y-49142423D01*
X86048881Y-49163094D01*
X85993985Y-49332047D01*
X85981639Y-49410000D01*
X85959500Y-49549778D01*
X85959500Y-49770222D01*
X85965892Y-49810577D01*
X85993985Y-49987952D01*
X86062103Y-50197603D01*
X86062104Y-50197606D01*
X86162187Y-50394025D01*
X86291752Y-50572358D01*
X86291756Y-50572363D01*
X86447636Y-50728243D01*
X86447641Y-50728247D01*
X86587254Y-50829682D01*
X86629920Y-50885012D01*
X86635899Y-50954625D01*
X86603293Y-51016420D01*
X86587254Y-51030318D01*
X86447641Y-51131752D01*
X86447636Y-51131756D01*
X86291756Y-51287636D01*
X86291752Y-51287641D01*
X86162187Y-51465974D01*
X86062104Y-51662393D01*
X86062103Y-51662396D01*
X85993985Y-51872047D01*
X85977281Y-51977511D01*
X85959500Y-52089778D01*
X85959500Y-52310222D01*
X85972225Y-52390566D01*
X85993985Y-52527952D01*
X86062103Y-52737603D01*
X86062104Y-52737606D01*
X86162187Y-52934025D01*
X86291752Y-53112358D01*
X86291756Y-53112363D01*
X86447636Y-53268243D01*
X86447641Y-53268247D01*
X86587254Y-53369682D01*
X86629920Y-53425012D01*
X86635899Y-53494625D01*
X86603293Y-53556420D01*
X86587254Y-53570318D01*
X86447641Y-53671752D01*
X86447636Y-53671756D01*
X86291756Y-53827636D01*
X86291752Y-53827641D01*
X86162185Y-54005976D01*
X86128648Y-54071796D01*
X86080674Y-54122591D01*
X86018164Y-54139500D01*
X83546669Y-54139500D01*
X83546653Y-54139499D01*
X83539057Y-54139499D01*
X83380943Y-54139499D01*
X83301010Y-54160917D01*
X83228216Y-54180422D01*
X83190159Y-54202395D01*
X83190158Y-54202394D01*
X83091287Y-54259477D01*
X83091282Y-54259481D01*
X72783099Y-64567665D01*
X72721776Y-64601150D01*
X72652084Y-64596166D01*
X72596151Y-64554294D01*
X72571734Y-64488830D01*
X72572945Y-64460586D01*
X72593969Y-64327843D01*
X72600500Y-64286611D01*
X72600500Y-64113389D01*
X72573402Y-63942299D01*
X72519873Y-63777555D01*
X72441232Y-63623212D01*
X72339414Y-63483072D01*
X72216928Y-63360586D01*
X72076788Y-63258768D01*
X71922445Y-63180127D01*
X71757701Y-63126598D01*
X71757699Y-63126597D01*
X71757698Y-63126597D01*
X71626271Y-63105781D01*
X71586611Y-63099500D01*
X71413389Y-63099500D01*
X71373728Y-63105781D01*
X71242302Y-63126597D01*
X71242299Y-63126598D01*
X71078922Y-63179683D01*
X71077552Y-63180128D01*
X70923211Y-63258768D01*
X70904497Y-63272365D01*
X70783072Y-63360586D01*
X70783070Y-63360588D01*
X70783069Y-63360588D01*
X70660588Y-63483069D01*
X70660588Y-63483070D01*
X70660586Y-63483072D01*
X70626722Y-63529682D01*
X70558768Y-63623211D01*
X70480128Y-63777552D01*
X70426597Y-63942302D01*
X70403601Y-64087495D01*
X70399500Y-64113389D01*
X70399500Y-64286611D01*
X70401954Y-64302107D01*
X70410651Y-64357019D01*
X70426598Y-64457701D01*
X70480127Y-64622445D01*
X70558768Y-64776788D01*
X70660586Y-64916928D01*
X70783072Y-65039414D01*
X70923212Y-65141232D01*
X71077555Y-65219873D01*
X71242299Y-65273402D01*
X71413389Y-65300500D01*
X71413390Y-65300500D01*
X71586610Y-65300500D01*
X71586611Y-65300500D01*
X71757701Y-65273402D01*
X71757701Y-65273401D01*
X71760586Y-65272945D01*
X71829880Y-65281900D01*
X71883332Y-65326896D01*
X71903971Y-65393647D01*
X71885246Y-65460961D01*
X71867665Y-65483099D01*
X71288584Y-66062181D01*
X71227261Y-66095666D01*
X71200903Y-66098500D01*
X60075476Y-66098500D01*
X60008437Y-66078815D01*
X59962682Y-66026011D01*
X59952738Y-65956853D01*
X59981763Y-65893297D01*
X60013475Y-65867113D01*
X60085965Y-65825261D01*
X60288813Y-65669610D01*
X60469610Y-65488813D01*
X60625261Y-65285965D01*
X60753104Y-65064535D01*
X60850950Y-64828313D01*
X60917126Y-64581340D01*
X60950500Y-64327843D01*
X60950500Y-64113389D01*
X63399500Y-64113389D01*
X63399500Y-64286611D01*
X63401954Y-64302107D01*
X63410651Y-64357019D01*
X63426598Y-64457701D01*
X63480127Y-64622445D01*
X63558768Y-64776788D01*
X63660586Y-64916928D01*
X63783072Y-65039414D01*
X63923212Y-65141232D01*
X64077555Y-65219873D01*
X64242299Y-65273402D01*
X64413389Y-65300500D01*
X64413390Y-65300500D01*
X64586610Y-65300500D01*
X64586611Y-65300500D01*
X64757701Y-65273402D01*
X64922445Y-65219873D01*
X65076788Y-65141232D01*
X65216928Y-65039414D01*
X65339414Y-64916928D01*
X65441232Y-64776788D01*
X65519873Y-64622445D01*
X65573402Y-64457701D01*
X65600500Y-64286611D01*
X65600500Y-64113389D01*
X65573402Y-63942299D01*
X65519873Y-63777555D01*
X65441232Y-63623212D01*
X65339414Y-63483072D01*
X65216928Y-63360586D01*
X65076788Y-63258768D01*
X64922445Y-63180127D01*
X64757701Y-63126598D01*
X64757699Y-63126597D01*
X64757698Y-63126597D01*
X64626271Y-63105781D01*
X64586611Y-63099500D01*
X64413389Y-63099500D01*
X64373728Y-63105781D01*
X64242302Y-63126597D01*
X64242299Y-63126598D01*
X64078922Y-63179683D01*
X64077552Y-63180128D01*
X63923211Y-63258768D01*
X63904497Y-63272365D01*
X63783072Y-63360586D01*
X63783070Y-63360588D01*
X63783069Y-63360588D01*
X63660588Y-63483069D01*
X63660588Y-63483070D01*
X63660586Y-63483072D01*
X63626722Y-63529682D01*
X63558768Y-63623211D01*
X63480128Y-63777552D01*
X63426597Y-63942302D01*
X63403601Y-64087495D01*
X63399500Y-64113389D01*
X60950500Y-64113389D01*
X60950500Y-64072157D01*
X60917126Y-63818660D01*
X60850950Y-63571687D01*
X60838915Y-63542633D01*
X60753105Y-63335468D01*
X60753100Y-63335457D01*
X60625265Y-63114042D01*
X60625261Y-63114035D01*
X60536591Y-62998478D01*
X60469611Y-62911188D01*
X60469605Y-62911181D01*
X60288818Y-62730394D01*
X60288811Y-62730388D01*
X60085973Y-62574745D01*
X60085971Y-62574743D01*
X60085965Y-62574739D01*
X60085960Y-62574736D01*
X60085957Y-62574734D01*
X59864542Y-62446899D01*
X59864531Y-62446894D01*
X59628322Y-62349053D01*
X59628315Y-62349051D01*
X59628313Y-62349050D01*
X59381340Y-62282874D01*
X59324449Y-62275384D01*
X59127850Y-62249500D01*
X59127843Y-62249500D01*
X58872157Y-62249500D01*
X58872149Y-62249500D01*
X58646826Y-62279165D01*
X58618660Y-62282874D01*
X58371687Y-62349050D01*
X58371677Y-62349053D01*
X58135468Y-62446894D01*
X58135457Y-62446899D01*
X57914042Y-62574734D01*
X57914026Y-62574745D01*
X57711188Y-62730388D01*
X57711181Y-62730394D01*
X57530394Y-62911181D01*
X57530388Y-62911188D01*
X57374745Y-63114026D01*
X57374734Y-63114042D01*
X57246899Y-63335457D01*
X57246894Y-63335468D01*
X57149053Y-63571677D01*
X57149050Y-63571687D01*
X57082874Y-63818660D01*
X57082601Y-63820731D01*
X57049500Y-64072149D01*
X57049500Y-64327850D01*
X57075457Y-64525007D01*
X57082874Y-64581340D01*
X57145586Y-64815384D01*
X57149050Y-64828312D01*
X57149053Y-64828322D01*
X57246894Y-65064531D01*
X57246899Y-65064542D01*
X57374734Y-65285957D01*
X57374745Y-65285973D01*
X57530388Y-65488811D01*
X57530394Y-65488818D01*
X57711181Y-65669605D01*
X57711187Y-65669610D01*
X57914035Y-65825261D01*
X57986525Y-65867113D01*
X58034740Y-65917680D01*
X58047962Y-65986288D01*
X58021994Y-66051152D01*
X57965080Y-66091680D01*
X57924524Y-66098500D01*
X55387669Y-66098500D01*
X55387653Y-66098499D01*
X55380057Y-66098499D01*
X55221943Y-66098499D01*
X55122997Y-66125012D01*
X55069210Y-66139424D01*
X55069209Y-66139425D01*
X55019096Y-66168359D01*
X55019095Y-66168360D01*
X55003032Y-66177634D01*
X54932285Y-66218479D01*
X54932282Y-66218481D01*
X54820478Y-66330286D01*
X54603563Y-66547200D01*
X54542240Y-66580685D01*
X54477564Y-66577450D01*
X54351370Y-66536447D01*
X54118097Y-66499500D01*
X54118092Y-66499500D01*
X53881908Y-66499500D01*
X53881903Y-66499500D01*
X53648631Y-66536446D01*
X53424003Y-66609433D01*
X53213566Y-66716657D01*
X53104550Y-66795862D01*
X53022490Y-66855483D01*
X53022488Y-66855485D01*
X53022487Y-66855485D01*
X52855485Y-67022487D01*
X52855485Y-67022488D01*
X52855483Y-67022490D01*
X52795862Y-67104550D01*
X52716657Y-67213566D01*
X52609433Y-67424003D01*
X52536446Y-67648631D01*
X52499500Y-67881902D01*
X52499500Y-68118097D01*
X52536446Y-68351368D01*
X52609433Y-68575996D01*
X52672872Y-68700500D01*
X52716657Y-68786433D01*
X52855483Y-68977510D01*
X53022490Y-69144517D01*
X53213567Y-69283343D01*
X53284896Y-69319687D01*
X53424003Y-69390566D01*
X53424005Y-69390566D01*
X53424008Y-69390568D01*
X53487273Y-69411124D01*
X53648631Y-69463553D01*
X53881903Y-69500500D01*
X53881908Y-69500500D01*
X54118097Y-69500500D01*
X54351368Y-69463553D01*
X54575992Y-69390568D01*
X54786433Y-69283343D01*
X54977510Y-69144517D01*
X55144517Y-68977510D01*
X55283343Y-68786433D01*
X55390568Y-68575992D01*
X55463553Y-68351368D01*
X55476078Y-68272290D01*
X55500500Y-68118097D01*
X55500500Y-67881902D01*
X55475919Y-67726711D01*
X55463553Y-67648632D01*
X55422547Y-67522432D01*
X55422113Y-67507220D01*
X55416795Y-67492961D01*
X55421136Y-67473006D01*
X55420553Y-67452595D01*
X55428641Y-67438507D01*
X55431648Y-67424688D01*
X55452794Y-67396439D01*
X55513418Y-67335817D01*
X55574742Y-67302333D01*
X55601098Y-67299500D01*
X70479216Y-67299500D01*
X70546255Y-67319185D01*
X70592010Y-67371989D01*
X70601954Y-67441147D01*
X70597148Y-67461812D01*
X70594696Y-67469361D01*
X70536446Y-67648631D01*
X70499500Y-67881902D01*
X70499500Y-68118097D01*
X70536446Y-68351368D01*
X70609433Y-68575996D01*
X70672872Y-68700500D01*
X70716657Y-68786433D01*
X70855483Y-68977510D01*
X71022490Y-69144517D01*
X71213567Y-69283343D01*
X71284896Y-69319687D01*
X71424003Y-69390566D01*
X71424005Y-69390566D01*
X71424008Y-69390568D01*
X71487273Y-69411124D01*
X71648631Y-69463553D01*
X71881903Y-69500500D01*
X71881908Y-69500500D01*
X72118097Y-69500500D01*
X72351368Y-69463553D01*
X72506587Y-69413118D01*
X72576426Y-69411124D01*
X72636259Y-69447204D01*
X72667088Y-69509904D01*
X72659124Y-69579319D01*
X72632585Y-69618731D01*
X61154901Y-81096415D01*
X61093578Y-81129900D01*
X61023886Y-81124916D01*
X60967953Y-81083044D01*
X60944281Y-81024920D01*
X60933404Y-80942302D01*
X60917126Y-80818660D01*
X60850950Y-80571687D01*
X60847172Y-80562567D01*
X60788377Y-80420622D01*
X60753104Y-80335465D01*
X60753102Y-80335462D01*
X60753100Y-80335457D01*
X60625265Y-80114042D01*
X60625261Y-80114035D01*
X60469610Y-79911187D01*
X60469605Y-79911181D01*
X60288818Y-79730394D01*
X60288811Y-79730388D01*
X60085973Y-79574745D01*
X60085971Y-79574743D01*
X60085965Y-79574739D01*
X60085960Y-79574736D01*
X60085957Y-79574734D01*
X59864542Y-79446899D01*
X59864531Y-79446894D01*
X59628322Y-79349053D01*
X59628315Y-79349051D01*
X59628313Y-79349050D01*
X59381340Y-79282874D01*
X59325007Y-79275457D01*
X59127850Y-79249500D01*
X59127843Y-79249500D01*
X58872157Y-79249500D01*
X58872149Y-79249500D01*
X58646826Y-79279165D01*
X58618660Y-79282874D01*
X58554745Y-79300000D01*
X58371687Y-79349050D01*
X58371677Y-79349053D01*
X58135468Y-79446894D01*
X58135457Y-79446899D01*
X57914042Y-79574734D01*
X57914026Y-79574745D01*
X57711188Y-79730388D01*
X57711181Y-79730394D01*
X57530394Y-79911181D01*
X57530388Y-79911188D01*
X57374745Y-80114026D01*
X57374734Y-80114042D01*
X57246899Y-80335457D01*
X57246894Y-80335468D01*
X57149053Y-80571677D01*
X57149050Y-80571687D01*
X57084476Y-80812684D01*
X57082874Y-80818661D01*
X57049500Y-81072149D01*
X57049500Y-81327850D01*
X57062210Y-81424384D01*
X57082874Y-81581340D01*
X57148540Y-81826408D01*
X57149050Y-81828312D01*
X57149053Y-81828322D01*
X57246894Y-82064531D01*
X57246899Y-82064542D01*
X57374734Y-82285957D01*
X57374745Y-82285973D01*
X57530388Y-82488811D01*
X57530394Y-82488818D01*
X57711181Y-82669605D01*
X57711187Y-82669610D01*
X57914035Y-82825261D01*
X57914042Y-82825265D01*
X58135457Y-82953100D01*
X58135462Y-82953102D01*
X58135465Y-82953104D01*
X58371687Y-83050950D01*
X58618660Y-83117126D01*
X58824920Y-83144281D01*
X58888816Y-83172548D01*
X58927287Y-83230872D01*
X58928118Y-83300737D01*
X58896415Y-83354901D01*
X57888136Y-84363181D01*
X57826813Y-84396666D01*
X57800455Y-84399500D01*
X55454068Y-84399500D01*
X55387029Y-84379815D01*
X55343583Y-84331795D01*
X55283343Y-84213567D01*
X55144517Y-84022490D01*
X54977510Y-83855483D01*
X54786433Y-83716657D01*
X54575996Y-83609433D01*
X54351368Y-83536446D01*
X54118097Y-83499500D01*
X54118092Y-83499500D01*
X53881908Y-83499500D01*
X53881903Y-83499500D01*
X53648631Y-83536446D01*
X53424003Y-83609433D01*
X53213566Y-83716657D01*
X53127044Y-83779520D01*
X53022490Y-83855483D01*
X53022488Y-83855485D01*
X53022487Y-83855485D01*
X52855485Y-84022487D01*
X52855485Y-84022488D01*
X52855483Y-84022490D01*
X52795862Y-84104550D01*
X52716657Y-84213566D01*
X52609433Y-84424003D01*
X52536446Y-84648631D01*
X52499500Y-84881902D01*
X52499500Y-85118097D01*
X52536446Y-85351368D01*
X52609433Y-85575996D01*
X52716657Y-85786433D01*
X52855483Y-85977510D01*
X53022490Y-86144517D01*
X53213567Y-86283343D01*
X53312991Y-86334002D01*
X53424003Y-86390566D01*
X53424005Y-86390566D01*
X53424008Y-86390568D01*
X53512476Y-86419313D01*
X53648631Y-86463553D01*
X53881903Y-86500500D01*
X53881908Y-86500500D01*
X54118097Y-86500500D01*
X54351368Y-86463553D01*
X54384468Y-86452798D01*
X54575992Y-86390568D01*
X54786433Y-86283343D01*
X54977510Y-86144517D01*
X55144517Y-85977510D01*
X55283343Y-85786433D01*
X55343583Y-85668204D01*
X55391558Y-85617409D01*
X55454068Y-85600500D01*
X58013884Y-85600500D01*
X58021491Y-85600500D01*
X58021495Y-85600501D01*
X58130300Y-85600501D01*
X58197339Y-85620186D01*
X58243094Y-85672991D01*
X58247962Y-85706852D01*
X58253037Y-85742148D01*
X58224012Y-85805704D01*
X58203184Y-85824820D01*
X58130894Y-85877340D01*
X58788941Y-86535387D01*
X58768409Y-86540889D01*
X58631592Y-86619881D01*
X58519881Y-86731592D01*
X58440889Y-86868409D01*
X58435387Y-86888941D01*
X57777340Y-86230894D01*
X57717084Y-86313830D01*
X57609897Y-86524197D01*
X57536934Y-86748752D01*
X57500000Y-86981947D01*
X57500000Y-87218052D01*
X57536934Y-87451247D01*
X57609897Y-87675802D01*
X57717087Y-87886174D01*
X57777338Y-87969104D01*
X57777340Y-87969105D01*
X58435387Y-87311058D01*
X58440889Y-87331591D01*
X58519881Y-87468408D01*
X58631592Y-87580119D01*
X58768409Y-87659111D01*
X58788940Y-87664612D01*
X58130893Y-88322658D01*
X58213828Y-88382914D01*
X58424197Y-88490102D01*
X58648752Y-88563065D01*
X58648751Y-88563065D01*
X58881948Y-88600000D01*
X59118052Y-88600000D01*
X59351247Y-88563065D01*
X59575802Y-88490102D01*
X59786163Y-88382918D01*
X59786169Y-88382914D01*
X59869104Y-88322658D01*
X59869105Y-88322658D01*
X59211058Y-87664612D01*
X59231591Y-87659111D01*
X59368408Y-87580119D01*
X59480119Y-87468408D01*
X59559111Y-87331591D01*
X59564612Y-87311059D01*
X60222658Y-87969105D01*
X60222658Y-87969104D01*
X60282914Y-87886169D01*
X60282918Y-87886163D01*
X60390102Y-87675802D01*
X60463065Y-87451247D01*
X60500000Y-87218052D01*
X60500000Y-86981947D01*
X60463065Y-86748752D01*
X60390102Y-86524197D01*
X60282914Y-86313828D01*
X60222658Y-86230894D01*
X60222658Y-86230893D01*
X59564612Y-86888940D01*
X59559111Y-86868409D01*
X59480119Y-86731592D01*
X59368408Y-86619881D01*
X59231591Y-86540889D01*
X59211059Y-86535387D01*
X59869105Y-85877340D01*
X59869104Y-85877338D01*
X59786174Y-85817087D01*
X59575802Y-85709897D01*
X59351247Y-85636934D01*
X59351248Y-85636934D01*
X59118052Y-85600000D01*
X58881948Y-85600000D01*
X58648751Y-85636934D01*
X58648748Y-85636935D01*
X58642392Y-85639000D01*
X58636029Y-85639181D01*
X58630443Y-85642232D01*
X58601529Y-85640164D01*
X58572551Y-85640990D01*
X58567099Y-85637702D01*
X58560751Y-85637248D01*
X58537545Y-85619877D01*
X58512721Y-85604905D01*
X58509912Y-85599192D01*
X58504817Y-85595378D01*
X58494686Y-85568217D01*
X58481897Y-85542201D01*
X58482623Y-85535876D01*
X58480399Y-85529914D01*
X58486559Y-85501591D01*
X58489867Y-85472788D01*
X58494236Y-85466299D01*
X58495250Y-85461641D01*
X58516396Y-85433391D01*
X58581072Y-85368716D01*
X58581073Y-85368713D01*
X63263101Y-80686684D01*
X63324424Y-80653200D01*
X63394116Y-80658184D01*
X63450049Y-80700056D01*
X63474466Y-80765520D01*
X63468713Y-80812684D01*
X63426597Y-80942301D01*
X63404306Y-81083044D01*
X63399500Y-81113389D01*
X63399500Y-81286611D01*
X63426598Y-81457701D01*
X63480127Y-81622445D01*
X63558768Y-81776788D01*
X63660586Y-81916928D01*
X63783072Y-82039414D01*
X63923212Y-82141232D01*
X64077555Y-82219873D01*
X64242299Y-82273402D01*
X64413389Y-82300500D01*
X64413390Y-82300500D01*
X64586610Y-82300500D01*
X64586611Y-82300500D01*
X64757701Y-82273402D01*
X64922445Y-82219873D01*
X65076788Y-82141232D01*
X65216928Y-82039414D01*
X65339414Y-81916928D01*
X65441232Y-81776788D01*
X65519873Y-81622445D01*
X65573402Y-81457701D01*
X65600500Y-81286611D01*
X65600500Y-81113389D01*
X70399500Y-81113389D01*
X70399500Y-81286611D01*
X70426598Y-81457701D01*
X70480127Y-81622445D01*
X70558768Y-81776788D01*
X70660586Y-81916928D01*
X70783072Y-82039414D01*
X70923212Y-82141232D01*
X71077555Y-82219873D01*
X71242299Y-82273402D01*
X71413389Y-82300500D01*
X71413390Y-82300500D01*
X71586610Y-82300500D01*
X71586611Y-82300500D01*
X71757701Y-82273402D01*
X71922445Y-82219873D01*
X72076788Y-82141232D01*
X72216928Y-82039414D01*
X72339414Y-81916928D01*
X72441232Y-81776788D01*
X72519873Y-81622445D01*
X72573402Y-81457701D01*
X72600500Y-81286611D01*
X72600500Y-81113389D01*
X72573402Y-80942299D01*
X72519873Y-80777555D01*
X72441232Y-80623212D01*
X72339414Y-80483072D01*
X72216928Y-80360586D01*
X72076788Y-80258768D01*
X71922445Y-80180127D01*
X71757701Y-80126598D01*
X71757699Y-80126597D01*
X71757698Y-80126597D01*
X71626271Y-80105781D01*
X71586611Y-80099500D01*
X71413389Y-80099500D01*
X71373728Y-80105781D01*
X71242302Y-80126597D01*
X71242299Y-80126598D01*
X71106544Y-80170708D01*
X71077552Y-80180128D01*
X70923211Y-80258768D01*
X70843256Y-80316859D01*
X70783072Y-80360586D01*
X70783070Y-80360588D01*
X70783069Y-80360588D01*
X70660588Y-80483069D01*
X70660588Y-80483070D01*
X70660586Y-80483072D01*
X70660582Y-80483078D01*
X70558768Y-80623211D01*
X70480128Y-80777552D01*
X70426597Y-80942302D01*
X70404306Y-81083044D01*
X70399500Y-81113389D01*
X65600500Y-81113389D01*
X65573402Y-80942299D01*
X65519873Y-80777555D01*
X65441232Y-80623212D01*
X65339414Y-80483072D01*
X65216928Y-80360586D01*
X65076788Y-80258768D01*
X64922445Y-80180127D01*
X64757701Y-80126598D01*
X64757699Y-80126597D01*
X64757698Y-80126597D01*
X64626271Y-80105781D01*
X64586611Y-80099500D01*
X64413389Y-80099500D01*
X64381192Y-80104599D01*
X64242301Y-80126597D01*
X64159140Y-80153618D01*
X64112683Y-80168713D01*
X64042843Y-80170708D01*
X63983010Y-80134628D01*
X63952182Y-80071927D01*
X63960147Y-80002513D01*
X63986685Y-79963101D01*
X68879414Y-75070373D01*
X74774076Y-69175711D01*
X74835399Y-69142226D01*
X74861757Y-69139392D01*
X75603615Y-69139392D01*
X75670654Y-69159077D01*
X75716409Y-69211881D01*
X75726353Y-69281039D01*
X75714100Y-69319687D01*
X75609897Y-69524197D01*
X75536934Y-69748752D01*
X75500000Y-69981947D01*
X75500000Y-70218052D01*
X75536934Y-70451247D01*
X75609897Y-70675802D01*
X75717087Y-70886174D01*
X75777338Y-70969104D01*
X75777340Y-70969105D01*
X76435387Y-70311058D01*
X76440889Y-70331591D01*
X76519881Y-70468408D01*
X76631592Y-70580119D01*
X76768409Y-70659111D01*
X76788939Y-70664612D01*
X76130893Y-71322658D01*
X76213828Y-71382914D01*
X76424197Y-71490102D01*
X76648752Y-71563065D01*
X76648751Y-71563065D01*
X76881948Y-71600000D01*
X76971402Y-71600000D01*
X77038441Y-71619685D01*
X77084196Y-71672489D01*
X77094140Y-71741647D01*
X77065115Y-71805203D01*
X77059083Y-71811681D01*
X74469205Y-74401558D01*
X74469203Y-74401561D01*
X74419085Y-74488370D01*
X74419083Y-74488372D01*
X74390149Y-74538485D01*
X74390148Y-74538486D01*
X74390147Y-74538491D01*
X74349223Y-74691219D01*
X74349223Y-74691221D01*
X74349223Y-74859322D01*
X74349224Y-74859335D01*
X74349224Y-81750178D01*
X74329539Y-81817217D01*
X74312905Y-81837859D01*
X72603563Y-83547200D01*
X72542240Y-83580685D01*
X72477564Y-83577450D01*
X72351370Y-83536447D01*
X72118097Y-83499500D01*
X72118092Y-83499500D01*
X71881908Y-83499500D01*
X71881903Y-83499500D01*
X71648631Y-83536446D01*
X71424003Y-83609433D01*
X71213566Y-83716657D01*
X71127044Y-83779520D01*
X71022490Y-83855483D01*
X71022488Y-83855485D01*
X71022487Y-83855485D01*
X70855485Y-84022487D01*
X70855485Y-84022488D01*
X70855483Y-84022490D01*
X70795862Y-84104550D01*
X70716657Y-84213566D01*
X70609433Y-84424003D01*
X70536446Y-84648631D01*
X70499500Y-84881902D01*
X70499500Y-85118097D01*
X70536446Y-85351368D01*
X70609433Y-85575996D01*
X70716657Y-85786433D01*
X70855483Y-85977510D01*
X71022490Y-86144517D01*
X71213567Y-86283343D01*
X71312991Y-86334002D01*
X71424003Y-86390566D01*
X71424005Y-86390566D01*
X71424008Y-86390568D01*
X71512476Y-86419313D01*
X71648631Y-86463553D01*
X71881903Y-86500500D01*
X71881908Y-86500500D01*
X72118097Y-86500500D01*
X72351368Y-86463553D01*
X72384468Y-86452798D01*
X72575992Y-86390568D01*
X72786433Y-86283343D01*
X72977510Y-86144517D01*
X73144517Y-85977510D01*
X73283343Y-85786433D01*
X73390568Y-85575992D01*
X73463553Y-85351368D01*
X73500500Y-85118097D01*
X73500500Y-84881902D01*
X73463553Y-84648635D01*
X73463553Y-84648632D01*
X73422547Y-84522433D01*
X73420553Y-84452593D01*
X73452796Y-84396437D01*
X75357725Y-82491511D01*
X75419048Y-82458026D01*
X75488740Y-82463010D01*
X75533087Y-82491511D01*
X75711181Y-82669605D01*
X75711187Y-82669610D01*
X75914035Y-82825261D01*
X75914042Y-82825265D01*
X76135457Y-82953100D01*
X76135462Y-82953102D01*
X76135465Y-82953104D01*
X76371687Y-83050950D01*
X76618660Y-83117126D01*
X76872157Y-83150500D01*
X76872164Y-83150500D01*
X77127836Y-83150500D01*
X77127843Y-83150500D01*
X77381340Y-83117126D01*
X77628313Y-83050950D01*
X77851252Y-82958605D01*
X77920720Y-82951137D01*
X77983200Y-82982412D01*
X78018852Y-83042501D01*
X78016358Y-83112326D01*
X77986385Y-83160848D01*
X64785054Y-96362181D01*
X64723731Y-96395666D01*
X64697373Y-96398500D01*
X63188221Y-96398500D01*
X63188205Y-96398499D01*
X63180609Y-96398499D01*
X63022495Y-96398499D01*
X62907949Y-96429192D01*
X62869766Y-96439423D01*
X62859561Y-96445315D01*
X62856828Y-96446894D01*
X62856826Y-96446895D01*
X62856823Y-96446896D01*
X62732842Y-96518475D01*
X62732834Y-96518481D01*
X61154901Y-98096415D01*
X61093578Y-98129900D01*
X61023886Y-98124916D01*
X60967953Y-98083044D01*
X60944281Y-98024920D01*
X60933404Y-97942302D01*
X60917126Y-97818660D01*
X60850950Y-97571687D01*
X60847172Y-97562567D01*
X60766463Y-97367716D01*
X60753104Y-97335465D01*
X60753102Y-97335462D01*
X60753100Y-97335457D01*
X60625265Y-97114042D01*
X60625261Y-97114035D01*
X60469610Y-96911187D01*
X60469605Y-96911181D01*
X60288818Y-96730394D01*
X60288811Y-96730388D01*
X60085973Y-96574745D01*
X60085971Y-96574743D01*
X60085965Y-96574739D01*
X60085960Y-96574736D01*
X60085957Y-96574734D01*
X59864542Y-96446899D01*
X59864531Y-96446894D01*
X59628322Y-96349053D01*
X59628315Y-96349051D01*
X59628313Y-96349050D01*
X59381340Y-96282874D01*
X59325007Y-96275457D01*
X59127850Y-96249500D01*
X59127843Y-96249500D01*
X58872157Y-96249500D01*
X58872149Y-96249500D01*
X58655271Y-96278054D01*
X58618660Y-96282874D01*
X58371687Y-96349050D01*
X58371677Y-96349053D01*
X58135468Y-96446894D01*
X58135457Y-96446899D01*
X57914042Y-96574734D01*
X57914026Y-96574745D01*
X57711188Y-96730388D01*
X57711181Y-96730394D01*
X57530394Y-96911181D01*
X57530388Y-96911188D01*
X57374745Y-97114026D01*
X57374734Y-97114042D01*
X57246899Y-97335457D01*
X57246894Y-97335468D01*
X57149053Y-97571677D01*
X57149050Y-97571687D01*
X57114654Y-97700057D01*
X57082874Y-97818661D01*
X57049500Y-98072149D01*
X57049500Y-98327850D01*
X57066596Y-98457697D01*
X57082874Y-98581340D01*
X57149050Y-98828312D01*
X57149053Y-98828322D01*
X57246894Y-99064531D01*
X57246899Y-99064542D01*
X57374734Y-99285957D01*
X57374745Y-99285973D01*
X57530388Y-99488811D01*
X57530394Y-99488818D01*
X57711181Y-99669605D01*
X57711187Y-99669610D01*
X57914035Y-99825261D01*
X57914042Y-99825265D01*
X58135457Y-99953100D01*
X58135462Y-99953102D01*
X58135465Y-99953104D01*
X58371687Y-100050950D01*
X58618660Y-100117126D01*
X58824920Y-100144281D01*
X58888816Y-100172548D01*
X58927287Y-100230872D01*
X58928118Y-100300737D01*
X58896415Y-100354901D01*
X57888136Y-101363181D01*
X57826813Y-101396666D01*
X57800455Y-101399500D01*
X55454068Y-101399500D01*
X55387029Y-101379815D01*
X55343583Y-101331795D01*
X55283342Y-101213566D01*
X55144517Y-101022490D01*
X54977510Y-100855483D01*
X54786433Y-100716657D01*
X54786429Y-100716655D01*
X54575996Y-100609433D01*
X54351368Y-100536446D01*
X54118097Y-100499500D01*
X54118092Y-100499500D01*
X53881908Y-100499500D01*
X53881903Y-100499500D01*
X53648631Y-100536446D01*
X53424003Y-100609433D01*
X53213566Y-100716657D01*
X53104550Y-100795862D01*
X53022490Y-100855483D01*
X53022488Y-100855485D01*
X53022487Y-100855485D01*
X52855485Y-101022487D01*
X52855485Y-101022488D01*
X52855483Y-101022490D01*
X52795862Y-101104550D01*
X52716657Y-101213566D01*
X52609433Y-101424003D01*
X52536446Y-101648631D01*
X52499500Y-101881902D01*
X52499500Y-102118097D01*
X52536446Y-102351368D01*
X52609433Y-102575996D01*
X52716657Y-102786433D01*
X52855483Y-102977510D01*
X53022490Y-103144517D01*
X53213567Y-103283343D01*
X53312991Y-103334002D01*
X53424003Y-103390566D01*
X53424005Y-103390566D01*
X53424008Y-103390568D01*
X53544412Y-103429689D01*
X53648631Y-103463553D01*
X53881903Y-103500500D01*
X53881908Y-103500500D01*
X54118097Y-103500500D01*
X54351368Y-103463553D01*
X54575992Y-103390568D01*
X54786433Y-103283343D01*
X54977510Y-103144517D01*
X55144517Y-102977510D01*
X55283343Y-102786433D01*
X55343583Y-102668204D01*
X55391558Y-102617409D01*
X55454068Y-102600500D01*
X58013884Y-102600500D01*
X58021491Y-102600500D01*
X58021495Y-102600501D01*
X58130300Y-102600501D01*
X58197339Y-102620186D01*
X58243094Y-102672991D01*
X58247962Y-102706852D01*
X58253037Y-102742148D01*
X58224012Y-102805704D01*
X58203184Y-102824820D01*
X58130894Y-102877340D01*
X58788941Y-103535387D01*
X58768409Y-103540889D01*
X58631592Y-103619881D01*
X58519881Y-103731592D01*
X58440889Y-103868409D01*
X58435387Y-103888941D01*
X57777340Y-103230894D01*
X57717084Y-103313830D01*
X57609897Y-103524197D01*
X57536934Y-103748752D01*
X57500000Y-103981947D01*
X57500000Y-104218052D01*
X57536934Y-104451247D01*
X57609897Y-104675802D01*
X57717087Y-104886174D01*
X57777338Y-104969104D01*
X57777340Y-104969105D01*
X58435387Y-104311058D01*
X58440889Y-104331591D01*
X58519881Y-104468408D01*
X58631592Y-104580119D01*
X58768409Y-104659111D01*
X58788940Y-104664612D01*
X58130893Y-105322658D01*
X58213828Y-105382914D01*
X58424197Y-105490102D01*
X58648752Y-105563065D01*
X58648751Y-105563065D01*
X58881948Y-105600000D01*
X59118052Y-105600000D01*
X59351247Y-105563065D01*
X59575802Y-105490102D01*
X59786163Y-105382918D01*
X59786169Y-105382914D01*
X59869104Y-105322658D01*
X59869105Y-105322658D01*
X59211058Y-104664612D01*
X59231591Y-104659111D01*
X59368408Y-104580119D01*
X59480119Y-104468408D01*
X59559111Y-104331591D01*
X59564612Y-104311059D01*
X60222658Y-104969105D01*
X60222658Y-104969104D01*
X60282914Y-104886169D01*
X60282918Y-104886163D01*
X60390102Y-104675802D01*
X60463065Y-104451247D01*
X60500000Y-104218052D01*
X60500000Y-103981947D01*
X75500000Y-103981947D01*
X75500000Y-104218052D01*
X75536934Y-104451247D01*
X75609897Y-104675802D01*
X75717087Y-104886174D01*
X75777338Y-104969104D01*
X75777340Y-104969105D01*
X76435387Y-104311058D01*
X76440889Y-104331591D01*
X76519881Y-104468408D01*
X76631592Y-104580119D01*
X76768409Y-104659111D01*
X76788940Y-104664612D01*
X76130893Y-105322658D01*
X76213828Y-105382914D01*
X76424197Y-105490102D01*
X76648752Y-105563065D01*
X76648751Y-105563065D01*
X76881948Y-105600000D01*
X77118052Y-105600000D01*
X77351247Y-105563065D01*
X77575802Y-105490102D01*
X77786163Y-105382918D01*
X77786169Y-105382914D01*
X77869104Y-105322658D01*
X77869105Y-105322658D01*
X77211058Y-104664612D01*
X77231591Y-104659111D01*
X77368408Y-104580119D01*
X77480119Y-104468408D01*
X77559111Y-104331591D01*
X77564612Y-104311059D01*
X78222658Y-104969105D01*
X78222658Y-104969104D01*
X78282914Y-104886169D01*
X78282918Y-104886163D01*
X78390102Y-104675802D01*
X78463065Y-104451247D01*
X78500000Y-104218052D01*
X78500000Y-103981947D01*
X93500000Y-103981947D01*
X93500000Y-104218052D01*
X93536934Y-104451247D01*
X93609897Y-104675802D01*
X93717087Y-104886174D01*
X93777338Y-104969104D01*
X93777340Y-104969105D01*
X94435387Y-104311058D01*
X94440889Y-104331591D01*
X94519881Y-104468408D01*
X94631592Y-104580119D01*
X94768409Y-104659111D01*
X94788940Y-104664612D01*
X94130893Y-105322658D01*
X94213828Y-105382914D01*
X94424197Y-105490102D01*
X94648752Y-105563065D01*
X94648751Y-105563065D01*
X94881948Y-105600000D01*
X95118052Y-105600000D01*
X95351247Y-105563065D01*
X95575802Y-105490102D01*
X95786163Y-105382918D01*
X95786169Y-105382914D01*
X95869104Y-105322658D01*
X95869105Y-105322658D01*
X95211058Y-104664612D01*
X95231591Y-104659111D01*
X95368408Y-104580119D01*
X95480119Y-104468408D01*
X95559111Y-104331591D01*
X95564612Y-104311059D01*
X96222658Y-104969105D01*
X96222658Y-104969104D01*
X96282914Y-104886169D01*
X96282918Y-104886163D01*
X96390102Y-104675802D01*
X96463065Y-104451247D01*
X96500000Y-104218052D01*
X96500000Y-103981947D01*
X111500000Y-103981947D01*
X111500000Y-104218052D01*
X111536934Y-104451247D01*
X111609897Y-104675802D01*
X111717087Y-104886174D01*
X111777338Y-104969104D01*
X111777340Y-104969105D01*
X112435387Y-104311058D01*
X112440889Y-104331591D01*
X112519881Y-104468408D01*
X112631592Y-104580119D01*
X112768409Y-104659111D01*
X112788940Y-104664612D01*
X112130893Y-105322658D01*
X112213828Y-105382914D01*
X112424197Y-105490102D01*
X112648752Y-105563065D01*
X112648751Y-105563065D01*
X112881948Y-105600000D01*
X113118052Y-105600000D01*
X113351247Y-105563065D01*
X113575802Y-105490102D01*
X113786163Y-105382918D01*
X113786169Y-105382914D01*
X113869104Y-105322658D01*
X113869105Y-105322658D01*
X113211058Y-104664612D01*
X113231591Y-104659111D01*
X113368408Y-104580119D01*
X113480119Y-104468408D01*
X113559111Y-104331591D01*
X113564612Y-104311059D01*
X114222658Y-104969105D01*
X114222658Y-104969104D01*
X114282914Y-104886169D01*
X114282918Y-104886163D01*
X114390102Y-104675802D01*
X114463065Y-104451247D01*
X114500000Y-104218052D01*
X114500000Y-103981947D01*
X129500000Y-103981947D01*
X129500000Y-104218052D01*
X129536934Y-104451247D01*
X129609897Y-104675802D01*
X129717087Y-104886174D01*
X129777338Y-104969104D01*
X129777340Y-104969105D01*
X130435387Y-104311058D01*
X130440889Y-104331591D01*
X130519881Y-104468408D01*
X130631592Y-104580119D01*
X130768409Y-104659111D01*
X130788940Y-104664612D01*
X130130893Y-105322658D01*
X130213828Y-105382914D01*
X130424197Y-105490102D01*
X130648752Y-105563065D01*
X130648751Y-105563065D01*
X130881948Y-105600000D01*
X131118052Y-105600000D01*
X131351247Y-105563065D01*
X131575802Y-105490102D01*
X131786163Y-105382918D01*
X131786169Y-105382914D01*
X131869104Y-105322658D01*
X131869105Y-105322658D01*
X131211058Y-104664612D01*
X131231591Y-104659111D01*
X131368408Y-104580119D01*
X131480119Y-104468408D01*
X131559111Y-104331591D01*
X131564612Y-104311059D01*
X132222658Y-104969105D01*
X132222658Y-104969104D01*
X132282914Y-104886169D01*
X132282918Y-104886163D01*
X132390102Y-104675802D01*
X132463065Y-104451247D01*
X132500000Y-104218052D01*
X132500000Y-103981947D01*
X132463065Y-103748752D01*
X132390102Y-103524197D01*
X132282914Y-103313828D01*
X132222658Y-103230894D01*
X132222658Y-103230893D01*
X131564612Y-103888940D01*
X131559111Y-103868409D01*
X131480119Y-103731592D01*
X131368408Y-103619881D01*
X131231591Y-103540889D01*
X131211059Y-103535387D01*
X131869105Y-102877340D01*
X131869104Y-102877338D01*
X131786174Y-102817087D01*
X131575802Y-102709897D01*
X131351247Y-102636934D01*
X131351248Y-102636934D01*
X131118052Y-102600000D01*
X130881948Y-102600000D01*
X130648752Y-102636934D01*
X130424197Y-102709897D01*
X130213830Y-102817084D01*
X130130894Y-102877340D01*
X130788941Y-103535387D01*
X130768409Y-103540889D01*
X130631592Y-103619881D01*
X130519881Y-103731592D01*
X130440889Y-103868409D01*
X130435387Y-103888941D01*
X129777340Y-103230894D01*
X129717084Y-103313830D01*
X129609897Y-103524197D01*
X129536934Y-103748752D01*
X129500000Y-103981947D01*
X114500000Y-103981947D01*
X114463065Y-103748752D01*
X114390102Y-103524197D01*
X114282914Y-103313828D01*
X114222658Y-103230894D01*
X114222658Y-103230893D01*
X113564612Y-103888940D01*
X113559111Y-103868409D01*
X113480119Y-103731592D01*
X113368408Y-103619881D01*
X113231591Y-103540889D01*
X113211059Y-103535387D01*
X113869105Y-102877340D01*
X113869104Y-102877338D01*
X113786174Y-102817087D01*
X113575802Y-102709897D01*
X113351247Y-102636934D01*
X113351248Y-102636934D01*
X113118052Y-102600000D01*
X112881948Y-102600000D01*
X112648752Y-102636934D01*
X112424197Y-102709897D01*
X112213830Y-102817084D01*
X112130894Y-102877340D01*
X112788941Y-103535387D01*
X112768409Y-103540889D01*
X112631592Y-103619881D01*
X112519881Y-103731592D01*
X112440889Y-103868409D01*
X112435387Y-103888941D01*
X111777340Y-103230894D01*
X111717084Y-103313830D01*
X111609897Y-103524197D01*
X111536934Y-103748752D01*
X111500000Y-103981947D01*
X96500000Y-103981947D01*
X96463065Y-103748752D01*
X96390102Y-103524197D01*
X96282914Y-103313828D01*
X96222658Y-103230894D01*
X96222658Y-103230893D01*
X95564612Y-103888940D01*
X95559111Y-103868409D01*
X95480119Y-103731592D01*
X95368408Y-103619881D01*
X95231591Y-103540889D01*
X95211059Y-103535387D01*
X95869105Y-102877340D01*
X95869104Y-102877338D01*
X95786174Y-102817087D01*
X95575802Y-102709897D01*
X95351247Y-102636934D01*
X95351248Y-102636934D01*
X95118052Y-102600000D01*
X94881948Y-102600000D01*
X94648752Y-102636934D01*
X94424197Y-102709897D01*
X94213830Y-102817084D01*
X94130894Y-102877340D01*
X94788941Y-103535387D01*
X94768409Y-103540889D01*
X94631592Y-103619881D01*
X94519881Y-103731592D01*
X94440889Y-103868409D01*
X94435387Y-103888941D01*
X93777340Y-103230894D01*
X93717084Y-103313830D01*
X93609897Y-103524197D01*
X93536934Y-103748752D01*
X93500000Y-103981947D01*
X78500000Y-103981947D01*
X78463065Y-103748752D01*
X78390102Y-103524197D01*
X78282914Y-103313828D01*
X78222658Y-103230894D01*
X78222658Y-103230893D01*
X77564612Y-103888940D01*
X77559111Y-103868409D01*
X77480119Y-103731592D01*
X77368408Y-103619881D01*
X77231591Y-103540889D01*
X77211059Y-103535387D01*
X77869105Y-102877340D01*
X77869104Y-102877338D01*
X77786174Y-102817087D01*
X77575802Y-102709897D01*
X77351247Y-102636934D01*
X77351248Y-102636934D01*
X77118052Y-102600000D01*
X76881948Y-102600000D01*
X76648752Y-102636934D01*
X76424197Y-102709897D01*
X76213830Y-102817084D01*
X76130894Y-102877340D01*
X76788941Y-103535387D01*
X76768409Y-103540889D01*
X76631592Y-103619881D01*
X76519881Y-103731592D01*
X76440889Y-103868409D01*
X76435387Y-103888941D01*
X75777340Y-103230894D01*
X75717084Y-103313830D01*
X75609897Y-103524197D01*
X75536934Y-103748752D01*
X75500000Y-103981947D01*
X60500000Y-103981947D01*
X60463065Y-103748752D01*
X60390102Y-103524197D01*
X60282914Y-103313828D01*
X60222658Y-103230894D01*
X60222658Y-103230893D01*
X59564612Y-103888940D01*
X59559111Y-103868409D01*
X59480119Y-103731592D01*
X59368408Y-103619881D01*
X59231591Y-103540889D01*
X59211059Y-103535387D01*
X59869105Y-102877340D01*
X59869104Y-102877338D01*
X59786174Y-102817087D01*
X59575802Y-102709897D01*
X59351247Y-102636934D01*
X59351248Y-102636934D01*
X59118052Y-102600000D01*
X58881948Y-102600000D01*
X58648751Y-102636934D01*
X58648748Y-102636935D01*
X58642392Y-102639000D01*
X58636029Y-102639181D01*
X58630443Y-102642232D01*
X58601529Y-102640164D01*
X58572551Y-102640990D01*
X58567099Y-102637702D01*
X58560751Y-102637248D01*
X58537545Y-102619877D01*
X58512721Y-102604905D01*
X58509912Y-102599192D01*
X58504817Y-102595378D01*
X58494686Y-102568217D01*
X58481897Y-102542201D01*
X58482623Y-102535876D01*
X58480399Y-102529914D01*
X58486559Y-102501591D01*
X58489867Y-102472788D01*
X58494236Y-102466299D01*
X58495250Y-102461641D01*
X58516396Y-102433391D01*
X58581072Y-102368716D01*
X58581073Y-102368713D01*
X63263102Y-97686684D01*
X63324423Y-97653201D01*
X63394115Y-97658185D01*
X63450048Y-97700057D01*
X63474465Y-97765521D01*
X63468712Y-97812685D01*
X63426597Y-97942301D01*
X63404306Y-98083044D01*
X63399500Y-98113389D01*
X63399500Y-98286611D01*
X63426598Y-98457701D01*
X63466770Y-98581338D01*
X63480128Y-98622447D01*
X63541919Y-98743719D01*
X63558768Y-98776788D01*
X63660586Y-98916928D01*
X63783072Y-99039414D01*
X63923212Y-99141232D01*
X64077555Y-99219873D01*
X64242299Y-99273402D01*
X64413389Y-99300500D01*
X64413390Y-99300500D01*
X64586610Y-99300500D01*
X64586611Y-99300500D01*
X64757701Y-99273402D01*
X64922445Y-99219873D01*
X65076788Y-99141232D01*
X65216928Y-99039414D01*
X65339414Y-98916928D01*
X65441232Y-98776788D01*
X65519873Y-98622445D01*
X65573402Y-98457701D01*
X65600500Y-98286611D01*
X65600500Y-98113389D01*
X65573402Y-97942299D01*
X65519873Y-97777555D01*
X65441232Y-97623212D01*
X65424395Y-97600038D01*
X65411435Y-97582199D01*
X65399982Y-97550102D01*
X65388069Y-97518162D01*
X65388264Y-97517261D01*
X65387955Y-97516393D01*
X65395681Y-97483166D01*
X65402920Y-97449889D01*
X65403644Y-97448920D01*
X65403780Y-97448339D01*
X65424063Y-97421642D01*
X65477990Y-97367716D01*
X65477991Y-97367713D01*
X75358915Y-87486788D01*
X75420233Y-87453307D01*
X75489925Y-87458291D01*
X75545858Y-87500163D01*
X75564522Y-87536154D01*
X75609897Y-87675804D01*
X75717087Y-87886174D01*
X75777338Y-87969104D01*
X75777340Y-87969105D01*
X76435387Y-87311058D01*
X76440889Y-87331591D01*
X76519881Y-87468408D01*
X76631592Y-87580119D01*
X76768409Y-87659111D01*
X76788940Y-87664612D01*
X76130893Y-88322658D01*
X76213828Y-88382914D01*
X76424197Y-88490102D01*
X76648752Y-88563065D01*
X76648751Y-88563065D01*
X76881948Y-88600000D01*
X77118052Y-88600000D01*
X77351247Y-88563065D01*
X77575802Y-88490102D01*
X77786163Y-88382918D01*
X77786169Y-88382914D01*
X77869104Y-88322658D01*
X77869105Y-88322658D01*
X77211058Y-87664612D01*
X77231591Y-87659111D01*
X77368408Y-87580119D01*
X77480119Y-87468408D01*
X77559111Y-87331591D01*
X77564612Y-87311059D01*
X78222658Y-87969105D01*
X78222658Y-87969104D01*
X78282914Y-87886169D01*
X78282918Y-87886163D01*
X78390102Y-87675802D01*
X78463065Y-87451247D01*
X78500000Y-87218052D01*
X78500000Y-86981947D01*
X78463065Y-86748752D01*
X78390102Y-86524197D01*
X78282914Y-86313828D01*
X78222658Y-86230894D01*
X78222658Y-86230893D01*
X77564612Y-86888940D01*
X77559111Y-86868409D01*
X77480119Y-86731592D01*
X77368408Y-86619881D01*
X77231591Y-86540889D01*
X77211058Y-86535387D01*
X77869105Y-85877340D01*
X77869104Y-85877338D01*
X77786174Y-85817087D01*
X77575804Y-85709897D01*
X77436155Y-85664522D01*
X77378480Y-85625084D01*
X77351282Y-85560725D01*
X77363197Y-85491879D01*
X77386788Y-85458916D01*
X81274053Y-81571651D01*
X81335374Y-81538168D01*
X81405066Y-81543152D01*
X81460999Y-81585024D01*
X81478108Y-81618017D01*
X81478266Y-81617952D01*
X81479026Y-81619789D01*
X81479662Y-81621014D01*
X81480127Y-81622445D01*
X81558768Y-81776788D01*
X81660586Y-81916928D01*
X81783072Y-82039414D01*
X81923212Y-82141232D01*
X82077555Y-82219873D01*
X82242299Y-82273402D01*
X82413389Y-82300500D01*
X82413390Y-82300500D01*
X82586610Y-82300500D01*
X82586611Y-82300500D01*
X82757701Y-82273402D01*
X82922445Y-82219873D01*
X83076788Y-82141232D01*
X83216928Y-82039414D01*
X83289819Y-81966523D01*
X83351142Y-81933038D01*
X83420834Y-81938022D01*
X83476767Y-81979894D01*
X83501184Y-82045358D01*
X83501500Y-82054204D01*
X83501500Y-87897350D01*
X83481815Y-87964389D01*
X83465181Y-87985031D01*
X72736899Y-98713312D01*
X72675576Y-98746797D01*
X72605884Y-98741813D01*
X72549951Y-98699941D01*
X72525534Y-98634477D01*
X72531286Y-98587319D01*
X72573402Y-98457701D01*
X72600500Y-98286611D01*
X72600500Y-98113389D01*
X72573402Y-97942299D01*
X72519873Y-97777555D01*
X72441232Y-97623212D01*
X72339414Y-97483072D01*
X72216928Y-97360586D01*
X72076788Y-97258768D01*
X71922445Y-97180127D01*
X71757701Y-97126598D01*
X71757699Y-97126597D01*
X71757698Y-97126597D01*
X71626271Y-97105781D01*
X71586611Y-97099500D01*
X71413389Y-97099500D01*
X71373728Y-97105781D01*
X71242302Y-97126597D01*
X71077552Y-97180128D01*
X70923211Y-97258768D01*
X70843256Y-97316859D01*
X70783072Y-97360586D01*
X70783070Y-97360588D01*
X70783069Y-97360588D01*
X70660588Y-97483069D01*
X70660588Y-97483070D01*
X70660586Y-97483072D01*
X70636377Y-97516393D01*
X70558768Y-97623211D01*
X70480128Y-97777552D01*
X70426597Y-97942302D01*
X70404306Y-98083044D01*
X70399500Y-98113389D01*
X70399500Y-98286611D01*
X70426598Y-98457701D01*
X70466770Y-98581338D01*
X70480128Y-98622447D01*
X70541919Y-98743719D01*
X70558768Y-98776788D01*
X70660586Y-98916928D01*
X70783072Y-99039414D01*
X70923212Y-99141232D01*
X71077555Y-99219873D01*
X71242299Y-99273402D01*
X71413389Y-99300500D01*
X71413390Y-99300500D01*
X71586610Y-99300500D01*
X71586611Y-99300500D01*
X71757701Y-99273402D01*
X71887317Y-99231286D01*
X71957153Y-99229292D01*
X72016986Y-99265372D01*
X72047815Y-99328072D01*
X72039851Y-99397487D01*
X72013312Y-99436899D01*
X71631286Y-99818926D01*
X71519481Y-99930730D01*
X71519479Y-99930733D01*
X71506563Y-99953105D01*
X71474928Y-100007900D01*
X71469361Y-100017542D01*
X71469359Y-100017544D01*
X71440425Y-100067657D01*
X71440424Y-100067658D01*
X71433174Y-100094716D01*
X71399499Y-100220391D01*
X71399499Y-100220393D01*
X71399499Y-100388494D01*
X71399500Y-100388507D01*
X71399500Y-100545931D01*
X71379815Y-100612970D01*
X71331796Y-100656415D01*
X71213568Y-100716655D01*
X71079896Y-100813774D01*
X71022490Y-100855483D01*
X71022488Y-100855485D01*
X71022487Y-100855485D01*
X70855485Y-101022487D01*
X70855485Y-101022488D01*
X70855483Y-101022490D01*
X70795862Y-101104550D01*
X70716657Y-101213566D01*
X70609433Y-101424003D01*
X70536446Y-101648631D01*
X70499500Y-101881902D01*
X70499500Y-102118097D01*
X70536446Y-102351368D01*
X70609433Y-102575996D01*
X70716657Y-102786433D01*
X70855483Y-102977510D01*
X71022490Y-103144517D01*
X71213567Y-103283343D01*
X71312991Y-103334002D01*
X71424003Y-103390566D01*
X71424005Y-103390566D01*
X71424008Y-103390568D01*
X71544412Y-103429689D01*
X71648631Y-103463553D01*
X71881903Y-103500500D01*
X71881908Y-103500500D01*
X72118097Y-103500500D01*
X72351368Y-103463553D01*
X72575992Y-103390568D01*
X72786433Y-103283343D01*
X72977510Y-103144517D01*
X73144517Y-102977510D01*
X73283343Y-102786433D01*
X73390568Y-102575992D01*
X73463553Y-102351368D01*
X73500500Y-102118097D01*
X73500500Y-101881902D01*
X73463553Y-101648631D01*
X73401534Y-101457758D01*
X73390568Y-101424008D01*
X73390566Y-101424005D01*
X73390566Y-101424003D01*
X73283342Y-101213566D01*
X73144517Y-101022490D01*
X72977510Y-100855483D01*
X72786433Y-100716657D01*
X72703720Y-100674512D01*
X72652925Y-100626538D01*
X72636130Y-100558717D01*
X72658668Y-100492582D01*
X72672329Y-100476353D01*
X74845100Y-98303582D01*
X74906421Y-98270099D01*
X74976113Y-98275083D01*
X75032046Y-98316955D01*
X75055718Y-98375079D01*
X75066596Y-98457701D01*
X75082874Y-98581340D01*
X75149050Y-98828312D01*
X75149053Y-98828322D01*
X75246894Y-99064531D01*
X75246899Y-99064542D01*
X75374734Y-99285957D01*
X75374745Y-99285973D01*
X75530388Y-99488811D01*
X75530394Y-99488818D01*
X75711181Y-99669605D01*
X75711187Y-99669610D01*
X75914035Y-99825261D01*
X75914042Y-99825265D01*
X76135457Y-99953100D01*
X76135462Y-99953102D01*
X76135465Y-99953104D01*
X76371687Y-100050950D01*
X76618660Y-100117126D01*
X76872157Y-100150500D01*
X76872164Y-100150500D01*
X77127836Y-100150500D01*
X77127843Y-100150500D01*
X77381340Y-100117126D01*
X77628313Y-100050950D01*
X77864535Y-99953104D01*
X78085965Y-99825261D01*
X78288813Y-99669610D01*
X78469610Y-99488813D01*
X78625261Y-99285965D01*
X78753104Y-99064535D01*
X78850950Y-98828313D01*
X78917126Y-98581340D01*
X78950500Y-98327843D01*
X78950500Y-98113389D01*
X81399500Y-98113389D01*
X81399500Y-98286611D01*
X81426598Y-98457701D01*
X81466770Y-98581338D01*
X81480128Y-98622447D01*
X81541919Y-98743719D01*
X81558768Y-98776788D01*
X81660586Y-98916928D01*
X81783072Y-99039414D01*
X81923212Y-99141232D01*
X82077555Y-99219873D01*
X82242299Y-99273402D01*
X82413389Y-99300500D01*
X82413390Y-99300500D01*
X82586610Y-99300500D01*
X82586611Y-99300500D01*
X82757701Y-99273402D01*
X82922445Y-99219873D01*
X83076788Y-99141232D01*
X83216928Y-99039414D01*
X83339414Y-98916928D01*
X83441232Y-98776788D01*
X83519873Y-98622445D01*
X83573402Y-98457701D01*
X83600500Y-98286611D01*
X83600500Y-98113389D01*
X83573402Y-97942299D01*
X83519873Y-97777555D01*
X83441232Y-97623212D01*
X83339414Y-97483072D01*
X83216928Y-97360586D01*
X83076788Y-97258768D01*
X82922445Y-97180127D01*
X82757701Y-97126598D01*
X82757699Y-97126597D01*
X82757698Y-97126597D01*
X82626271Y-97105781D01*
X82586611Y-97099500D01*
X82413389Y-97099500D01*
X82373728Y-97105781D01*
X82242302Y-97126597D01*
X82077552Y-97180128D01*
X81923211Y-97258768D01*
X81843256Y-97316859D01*
X81783072Y-97360586D01*
X81783070Y-97360588D01*
X81783069Y-97360588D01*
X81660588Y-97483069D01*
X81660588Y-97483070D01*
X81660586Y-97483072D01*
X81636377Y-97516393D01*
X81558768Y-97623211D01*
X81480128Y-97777552D01*
X81426597Y-97942302D01*
X81404306Y-98083044D01*
X81399500Y-98113389D01*
X78950500Y-98113389D01*
X78950500Y-98072157D01*
X78917126Y-97818660D01*
X78850950Y-97571687D01*
X78847172Y-97562567D01*
X78766463Y-97367716D01*
X78753104Y-97335465D01*
X78753102Y-97335462D01*
X78753100Y-97335457D01*
X78625265Y-97114042D01*
X78625261Y-97114035D01*
X78469610Y-96911187D01*
X78469605Y-96911181D01*
X78288818Y-96730394D01*
X78288811Y-96730388D01*
X78085973Y-96574745D01*
X78085971Y-96574743D01*
X78085965Y-96574739D01*
X78085960Y-96574736D01*
X78085957Y-96574734D01*
X77864542Y-96446899D01*
X77864531Y-96446894D01*
X77628322Y-96349053D01*
X77628315Y-96349051D01*
X77628313Y-96349050D01*
X77381340Y-96282874D01*
X77331576Y-96276322D01*
X77175079Y-96255718D01*
X77111183Y-96227451D01*
X77072712Y-96169126D01*
X77071881Y-96099262D01*
X77103582Y-96045100D01*
X84582520Y-88566164D01*
X84661577Y-88429232D01*
X84702501Y-88276505D01*
X84702501Y-88118390D01*
X84702501Y-88110795D01*
X84702500Y-88110777D01*
X84702500Y-78914000D01*
X84722185Y-78846961D01*
X84774989Y-78801206D01*
X84826500Y-78790000D01*
X85280805Y-78790000D01*
X85347844Y-78809685D01*
X85381124Y-78841116D01*
X85435963Y-78916598D01*
X85558397Y-79039032D01*
X85698475Y-79140804D01*
X85852742Y-79219408D01*
X86017415Y-79272914D01*
X86188429Y-79300000D01*
X86300000Y-79300000D01*
X86300000Y-78914000D01*
X86319685Y-78846961D01*
X86372489Y-78801206D01*
X86424000Y-78790000D01*
X86676000Y-78790000D01*
X86743039Y-78809685D01*
X86788794Y-78862489D01*
X86800000Y-78914000D01*
X86800000Y-79300000D01*
X86911571Y-79300000D01*
X86982102Y-79288829D01*
X87051396Y-79297784D01*
X87104848Y-79342780D01*
X87125487Y-79409531D01*
X87125500Y-79411302D01*
X87125500Y-99639330D01*
X87125499Y-99639348D01*
X87125499Y-99805054D01*
X87125498Y-99805054D01*
X87166423Y-99957785D01*
X87195358Y-100007900D01*
X87195359Y-100007904D01*
X87195360Y-100007904D01*
X87245479Y-100094714D01*
X87245481Y-100094717D01*
X87364349Y-100213585D01*
X87364355Y-100213590D01*
X88547200Y-101396435D01*
X88580685Y-101457758D01*
X88577450Y-101522433D01*
X88536447Y-101648628D01*
X88499500Y-101881902D01*
X88499500Y-102118097D01*
X88536446Y-102351368D01*
X88609433Y-102575996D01*
X88716657Y-102786433D01*
X88855483Y-102977510D01*
X89022490Y-103144517D01*
X89213567Y-103283343D01*
X89312991Y-103334002D01*
X89424003Y-103390566D01*
X89424005Y-103390566D01*
X89424008Y-103390568D01*
X89544412Y-103429689D01*
X89648631Y-103463553D01*
X89881903Y-103500500D01*
X89881908Y-103500500D01*
X90118097Y-103500500D01*
X90351368Y-103463553D01*
X90575992Y-103390568D01*
X90786433Y-103283343D01*
X90977510Y-103144517D01*
X91144517Y-102977510D01*
X91283343Y-102786433D01*
X91390568Y-102575992D01*
X91463553Y-102351368D01*
X91500500Y-102118097D01*
X91500500Y-101881902D01*
X91463553Y-101648631D01*
X91401534Y-101457758D01*
X91390568Y-101424008D01*
X91390566Y-101424005D01*
X91390566Y-101424003D01*
X91283342Y-101213566D01*
X91144517Y-101022490D01*
X90977510Y-100855483D01*
X90786433Y-100716657D01*
X90786429Y-100716655D01*
X90575996Y-100609433D01*
X90351368Y-100536446D01*
X90118097Y-100499500D01*
X90118092Y-100499500D01*
X89881908Y-100499500D01*
X89881903Y-100499500D01*
X89648628Y-100536447D01*
X89522433Y-100577450D01*
X89452592Y-100579445D01*
X89396435Y-100547200D01*
X88362819Y-99513583D01*
X88329334Y-99452260D01*
X88326500Y-99425902D01*
X88326500Y-98837432D01*
X88346185Y-98770393D01*
X88398989Y-98724638D01*
X88468147Y-98714694D01*
X88531703Y-98743719D01*
X88556229Y-98772644D01*
X88558768Y-98776788D01*
X88660586Y-98916928D01*
X88783072Y-99039414D01*
X88923212Y-99141232D01*
X89077555Y-99219873D01*
X89242299Y-99273402D01*
X89413389Y-99300500D01*
X89413390Y-99300500D01*
X89586610Y-99300500D01*
X89586611Y-99300500D01*
X89757701Y-99273402D01*
X89922445Y-99219873D01*
X90076788Y-99141232D01*
X90216928Y-99039414D01*
X90339414Y-98916928D01*
X90441232Y-98776788D01*
X90519873Y-98622445D01*
X90573402Y-98457701D01*
X90600500Y-98286611D01*
X90600500Y-98113389D01*
X90593970Y-98072163D01*
X90593968Y-98072149D01*
X93049500Y-98072149D01*
X93049500Y-98327850D01*
X93066596Y-98457697D01*
X93082874Y-98581340D01*
X93149050Y-98828312D01*
X93149053Y-98828322D01*
X93246894Y-99064531D01*
X93246899Y-99064542D01*
X93374734Y-99285957D01*
X93374745Y-99285973D01*
X93530388Y-99488811D01*
X93530394Y-99488818D01*
X93711181Y-99669605D01*
X93711187Y-99669610D01*
X93914035Y-99825261D01*
X93914042Y-99825265D01*
X94135457Y-99953100D01*
X94135462Y-99953102D01*
X94135465Y-99953104D01*
X94371687Y-100050950D01*
X94618660Y-100117126D01*
X94872157Y-100150500D01*
X94872164Y-100150500D01*
X95127836Y-100150500D01*
X95127843Y-100150500D01*
X95381340Y-100117126D01*
X95628313Y-100050950D01*
X95864535Y-99953104D01*
X96085965Y-99825261D01*
X96288813Y-99669610D01*
X96469610Y-99488813D01*
X96625261Y-99285965D01*
X96753104Y-99064535D01*
X96850950Y-98828313D01*
X96917126Y-98581340D01*
X96950500Y-98327843D01*
X96950500Y-98113389D01*
X99399500Y-98113389D01*
X99399500Y-98286611D01*
X99426598Y-98457701D01*
X99466770Y-98581338D01*
X99480128Y-98622447D01*
X99541919Y-98743719D01*
X99558768Y-98776788D01*
X99660586Y-98916928D01*
X99783072Y-99039414D01*
X99923212Y-99141232D01*
X100077555Y-99219873D01*
X100242299Y-99273402D01*
X100413389Y-99300500D01*
X100413390Y-99300500D01*
X100586610Y-99300500D01*
X100586611Y-99300500D01*
X100757701Y-99273402D01*
X100922445Y-99219873D01*
X101076788Y-99141232D01*
X101216928Y-99039414D01*
X101339414Y-98916928D01*
X101441232Y-98776788D01*
X101519873Y-98622445D01*
X101573402Y-98457701D01*
X101600500Y-98286611D01*
X101600500Y-98113389D01*
X101573402Y-97942299D01*
X101519873Y-97777555D01*
X101441232Y-97623212D01*
X101339414Y-97483072D01*
X101216928Y-97360586D01*
X101076788Y-97258768D01*
X100922445Y-97180127D01*
X100757701Y-97126598D01*
X100757699Y-97126597D01*
X100757698Y-97126597D01*
X100626271Y-97105781D01*
X100586611Y-97099500D01*
X100413389Y-97099500D01*
X100373728Y-97105781D01*
X100242302Y-97126597D01*
X100077552Y-97180128D01*
X99923211Y-97258768D01*
X99843256Y-97316859D01*
X99783072Y-97360586D01*
X99783070Y-97360588D01*
X99783069Y-97360588D01*
X99660588Y-97483069D01*
X99660588Y-97483070D01*
X99660586Y-97483072D01*
X99636377Y-97516393D01*
X99558768Y-97623211D01*
X99480128Y-97777552D01*
X99426597Y-97942302D01*
X99404306Y-98083044D01*
X99399500Y-98113389D01*
X96950500Y-98113389D01*
X96950500Y-98072157D01*
X96917126Y-97818660D01*
X96850950Y-97571687D01*
X96847172Y-97562567D01*
X96766463Y-97367716D01*
X96753104Y-97335465D01*
X96753102Y-97335462D01*
X96753100Y-97335457D01*
X96625265Y-97114042D01*
X96625261Y-97114035D01*
X96469610Y-96911187D01*
X96469605Y-96911181D01*
X96288818Y-96730394D01*
X96288811Y-96730388D01*
X96085973Y-96574745D01*
X96085971Y-96574743D01*
X96085965Y-96574739D01*
X96085960Y-96574736D01*
X96085957Y-96574734D01*
X95864542Y-96446899D01*
X95864531Y-96446894D01*
X95628322Y-96349053D01*
X95628315Y-96349051D01*
X95628313Y-96349050D01*
X95381340Y-96282874D01*
X95325007Y-96275457D01*
X95127850Y-96249500D01*
X95127843Y-96249500D01*
X94872157Y-96249500D01*
X94872149Y-96249500D01*
X94655271Y-96278054D01*
X94618660Y-96282874D01*
X94371687Y-96349050D01*
X94371677Y-96349053D01*
X94135468Y-96446894D01*
X94135457Y-96446899D01*
X93914042Y-96574734D01*
X93914026Y-96574745D01*
X93711188Y-96730388D01*
X93711181Y-96730394D01*
X93530394Y-96911181D01*
X93530388Y-96911188D01*
X93374745Y-97114026D01*
X93374734Y-97114042D01*
X93246899Y-97335457D01*
X93246894Y-97335468D01*
X93149053Y-97571677D01*
X93149050Y-97571687D01*
X93114654Y-97700057D01*
X93082874Y-97818661D01*
X93049500Y-98072149D01*
X90593968Y-98072149D01*
X90573402Y-97942302D01*
X90573402Y-97942301D01*
X90573402Y-97942299D01*
X90519873Y-97777555D01*
X90441232Y-97623212D01*
X90339414Y-97483072D01*
X90216928Y-97360586D01*
X90076788Y-97258768D01*
X89922445Y-97180127D01*
X89757701Y-97126598D01*
X89757699Y-97126597D01*
X89757698Y-97126597D01*
X89626271Y-97105781D01*
X89586611Y-97099500D01*
X89413389Y-97099500D01*
X89373728Y-97105781D01*
X89242302Y-97126597D01*
X89077552Y-97180128D01*
X88923211Y-97258768D01*
X88843256Y-97316859D01*
X88783072Y-97360586D01*
X88783070Y-97360588D01*
X88783069Y-97360588D01*
X88660588Y-97483069D01*
X88660588Y-97483070D01*
X88660586Y-97483072D01*
X88636377Y-97516393D01*
X88558761Y-97623220D01*
X88556225Y-97627360D01*
X88504412Y-97674234D01*
X88435482Y-97685654D01*
X88371320Y-97657995D01*
X88332297Y-97600038D01*
X88326500Y-97562567D01*
X88326500Y-86981947D01*
X93500000Y-86981947D01*
X93500000Y-87218052D01*
X93536934Y-87451247D01*
X93609897Y-87675802D01*
X93717087Y-87886174D01*
X93777338Y-87969104D01*
X93777340Y-87969105D01*
X94435387Y-87311058D01*
X94440889Y-87331591D01*
X94519881Y-87468408D01*
X94631592Y-87580119D01*
X94768409Y-87659111D01*
X94788940Y-87664612D01*
X94130893Y-88322658D01*
X94213828Y-88382914D01*
X94424197Y-88490102D01*
X94648752Y-88563065D01*
X94648751Y-88563065D01*
X94881948Y-88600000D01*
X95118052Y-88600000D01*
X95351247Y-88563065D01*
X95575802Y-88490102D01*
X95786163Y-88382918D01*
X95786169Y-88382914D01*
X95869104Y-88322658D01*
X95869105Y-88322658D01*
X95211058Y-87664612D01*
X95231591Y-87659111D01*
X95368408Y-87580119D01*
X95480119Y-87468408D01*
X95559111Y-87331591D01*
X95564612Y-87311059D01*
X96222658Y-87969105D01*
X96222658Y-87969104D01*
X96282914Y-87886169D01*
X96282918Y-87886163D01*
X96390102Y-87675802D01*
X96463065Y-87451247D01*
X96500000Y-87218052D01*
X96500000Y-86981947D01*
X96463065Y-86748752D01*
X96390102Y-86524197D01*
X96282914Y-86313828D01*
X96222658Y-86230894D01*
X96222658Y-86230893D01*
X95564612Y-86888940D01*
X95559111Y-86868409D01*
X95480119Y-86731592D01*
X95368408Y-86619881D01*
X95231591Y-86540889D01*
X95211059Y-86535387D01*
X95869105Y-85877340D01*
X95869104Y-85877338D01*
X95786174Y-85817087D01*
X95575802Y-85709897D01*
X95351247Y-85636934D01*
X95351248Y-85636934D01*
X95118052Y-85600000D01*
X94881948Y-85600000D01*
X94648752Y-85636934D01*
X94424197Y-85709897D01*
X94213830Y-85817084D01*
X94130894Y-85877340D01*
X94788941Y-86535387D01*
X94768409Y-86540889D01*
X94631592Y-86619881D01*
X94519881Y-86731592D01*
X94440889Y-86868409D01*
X94435387Y-86888941D01*
X93777340Y-86230894D01*
X93717084Y-86313830D01*
X93609897Y-86524197D01*
X93536934Y-86748752D01*
X93500000Y-86981947D01*
X88326500Y-86981947D01*
X88326500Y-85488122D01*
X88346185Y-85421083D01*
X88398989Y-85375328D01*
X88468147Y-85365384D01*
X88531703Y-85394409D01*
X88568430Y-85449803D01*
X88604471Y-85560725D01*
X88609433Y-85575994D01*
X88631950Y-85620186D01*
X88716657Y-85786433D01*
X88855483Y-85977510D01*
X89022490Y-86144517D01*
X89213567Y-86283343D01*
X89312991Y-86334002D01*
X89424003Y-86390566D01*
X89424005Y-86390566D01*
X89424008Y-86390568D01*
X89512476Y-86419313D01*
X89648631Y-86463553D01*
X89881903Y-86500500D01*
X89881908Y-86500500D01*
X90118097Y-86500500D01*
X90351368Y-86463553D01*
X90384468Y-86452798D01*
X90575992Y-86390568D01*
X90786433Y-86283343D01*
X90977510Y-86144517D01*
X91144517Y-85977510D01*
X91283343Y-85786433D01*
X91390568Y-85575992D01*
X91463553Y-85351368D01*
X91500500Y-85118097D01*
X91500500Y-84881902D01*
X91463553Y-84648631D01*
X91399856Y-84452593D01*
X91390568Y-84424008D01*
X91390566Y-84424005D01*
X91390566Y-84424003D01*
X91315016Y-84275728D01*
X91311895Y-84262732D01*
X91306529Y-84254385D01*
X91302447Y-84226011D01*
X91302259Y-84226032D01*
X91302258Y-84226023D01*
X91302138Y-84223864D01*
X91301507Y-84219475D01*
X91301501Y-84219450D01*
X91301500Y-84212346D01*
X91301500Y-81072149D01*
X93049500Y-81072149D01*
X93049500Y-81327850D01*
X93062210Y-81424384D01*
X93082874Y-81581340D01*
X93148540Y-81826408D01*
X93149050Y-81828312D01*
X93149053Y-81828322D01*
X93246894Y-82064531D01*
X93246899Y-82064542D01*
X93374734Y-82285957D01*
X93374745Y-82285973D01*
X93530388Y-82488811D01*
X93530394Y-82488818D01*
X93711181Y-82669605D01*
X93711187Y-82669610D01*
X93914035Y-82825261D01*
X93914042Y-82825265D01*
X94135457Y-82953100D01*
X94135462Y-82953102D01*
X94135465Y-82953104D01*
X94371687Y-83050950D01*
X94618660Y-83117126D01*
X94872157Y-83150500D01*
X94872164Y-83150500D01*
X95127836Y-83150500D01*
X95127843Y-83150500D01*
X95381340Y-83117126D01*
X95628313Y-83050950D01*
X95864535Y-82953104D01*
X96085965Y-82825261D01*
X96288813Y-82669610D01*
X96469610Y-82488813D01*
X96625261Y-82285965D01*
X96753104Y-82064535D01*
X96850950Y-81828313D01*
X96917126Y-81581340D01*
X96950500Y-81327843D01*
X96950500Y-81072157D01*
X96917126Y-80818660D01*
X96850950Y-80571687D01*
X96847172Y-80562567D01*
X96788377Y-80420622D01*
X96753104Y-80335465D01*
X96753102Y-80335462D01*
X96753100Y-80335457D01*
X96625265Y-80114042D01*
X96625261Y-80114035D01*
X96469610Y-79911187D01*
X96469605Y-79911181D01*
X96288818Y-79730394D01*
X96288811Y-79730388D01*
X96085973Y-79574745D01*
X96085971Y-79574743D01*
X96085965Y-79574739D01*
X96085960Y-79574736D01*
X96085957Y-79574734D01*
X95864542Y-79446899D01*
X95864531Y-79446894D01*
X95628322Y-79349053D01*
X95628315Y-79349051D01*
X95628313Y-79349050D01*
X95381340Y-79282874D01*
X95325007Y-79275457D01*
X95127850Y-79249500D01*
X95127843Y-79249500D01*
X94872157Y-79249500D01*
X94872149Y-79249500D01*
X94646826Y-79279165D01*
X94618660Y-79282874D01*
X94554745Y-79300000D01*
X94371687Y-79349050D01*
X94371677Y-79349053D01*
X94135468Y-79446894D01*
X94135457Y-79446899D01*
X93914042Y-79574734D01*
X93914026Y-79574745D01*
X93711188Y-79730388D01*
X93711181Y-79730394D01*
X93530394Y-79911181D01*
X93530388Y-79911188D01*
X93374745Y-80114026D01*
X93374734Y-80114042D01*
X93246899Y-80335457D01*
X93246894Y-80335468D01*
X93149053Y-80571677D01*
X93149050Y-80571687D01*
X93084476Y-80812684D01*
X93082874Y-80818661D01*
X93049500Y-81072149D01*
X91301500Y-81072149D01*
X91301500Y-80791589D01*
X91301501Y-80791576D01*
X91301501Y-80623475D01*
X91301501Y-80623473D01*
X91260577Y-80470745D01*
X91231639Y-80420625D01*
X91181520Y-80333814D01*
X91069716Y-80222010D01*
X91069715Y-80222009D01*
X91065385Y-80217679D01*
X91065374Y-80217669D01*
X89849386Y-79001681D01*
X89815901Y-78940358D01*
X89820885Y-78870666D01*
X89862757Y-78814733D01*
X89928221Y-78790316D01*
X89937067Y-78790000D01*
X101474500Y-78790000D01*
X101541539Y-78809685D01*
X101587294Y-78862489D01*
X101598500Y-78914000D01*
X101598500Y-80458040D01*
X101578815Y-80525079D01*
X101526011Y-80570834D01*
X101456853Y-80580778D01*
X101393297Y-80551753D01*
X101374183Y-80530926D01*
X101339418Y-80483078D01*
X101339414Y-80483072D01*
X101216928Y-80360586D01*
X101076788Y-80258768D01*
X100922445Y-80180127D01*
X100757701Y-80126598D01*
X100757699Y-80126597D01*
X100757698Y-80126597D01*
X100626271Y-80105781D01*
X100586611Y-80099500D01*
X100413389Y-80099500D01*
X100373728Y-80105781D01*
X100242302Y-80126597D01*
X100242299Y-80126598D01*
X100106544Y-80170708D01*
X100077552Y-80180128D01*
X99923211Y-80258768D01*
X99843256Y-80316859D01*
X99783072Y-80360586D01*
X99783070Y-80360588D01*
X99783069Y-80360588D01*
X99660588Y-80483069D01*
X99660588Y-80483070D01*
X99660586Y-80483072D01*
X99660582Y-80483078D01*
X99558768Y-80623211D01*
X99480128Y-80777552D01*
X99426597Y-80942302D01*
X99404306Y-81083044D01*
X99399500Y-81113389D01*
X99399500Y-81286611D01*
X99426598Y-81457701D01*
X99480127Y-81622445D01*
X99558768Y-81776788D01*
X99660586Y-81916928D01*
X99783072Y-82039414D01*
X99923212Y-82141232D01*
X100077555Y-82219873D01*
X100242299Y-82273402D01*
X100413389Y-82300500D01*
X100413390Y-82300500D01*
X100586610Y-82300500D01*
X100586611Y-82300500D01*
X100757701Y-82273402D01*
X100922445Y-82219873D01*
X101076788Y-82141232D01*
X101216928Y-82039414D01*
X101339414Y-81916928D01*
X101374182Y-81869073D01*
X101429512Y-81826408D01*
X101499125Y-81820429D01*
X101560920Y-81853035D01*
X101595277Y-81913873D01*
X101598500Y-81941959D01*
X101598500Y-96112330D01*
X101598499Y-96112348D01*
X101598499Y-96278054D01*
X101598498Y-96278054D01*
X101598499Y-96278057D01*
X101639423Y-96430785D01*
X101639424Y-96430787D01*
X101639423Y-96430787D01*
X101648725Y-96446897D01*
X101648726Y-96446898D01*
X101718477Y-96567712D01*
X101718481Y-96567717D01*
X101837349Y-96686585D01*
X101837355Y-96686590D01*
X106547200Y-101396435D01*
X106580685Y-101457758D01*
X106577450Y-101522433D01*
X106536447Y-101648628D01*
X106499500Y-101881902D01*
X106499500Y-102118097D01*
X106536446Y-102351368D01*
X106609433Y-102575996D01*
X106716657Y-102786433D01*
X106855483Y-102977510D01*
X107022490Y-103144517D01*
X107213567Y-103283343D01*
X107312991Y-103334002D01*
X107424003Y-103390566D01*
X107424005Y-103390566D01*
X107424008Y-103390568D01*
X107544412Y-103429689D01*
X107648631Y-103463553D01*
X107881903Y-103500500D01*
X107881908Y-103500500D01*
X108118097Y-103500500D01*
X108351368Y-103463553D01*
X108575992Y-103390568D01*
X108786433Y-103283343D01*
X108977510Y-103144517D01*
X109144517Y-102977510D01*
X109283343Y-102786433D01*
X109390568Y-102575992D01*
X109463553Y-102351368D01*
X109500500Y-102118097D01*
X109500500Y-101881902D01*
X109463553Y-101648631D01*
X109401534Y-101457758D01*
X109390568Y-101424008D01*
X109390566Y-101424005D01*
X109390566Y-101424003D01*
X109283342Y-101213566D01*
X109144517Y-101022490D01*
X108977510Y-100855483D01*
X108786433Y-100716657D01*
X108786429Y-100716655D01*
X108575996Y-100609433D01*
X108351368Y-100536446D01*
X108118097Y-100499500D01*
X108118092Y-100499500D01*
X107881908Y-100499500D01*
X107881903Y-100499500D01*
X107648628Y-100536447D01*
X107522433Y-100577450D01*
X107452592Y-100579445D01*
X107396435Y-100547200D01*
X104962624Y-98113389D01*
X106399500Y-98113389D01*
X106399500Y-98286611D01*
X106426598Y-98457701D01*
X106466770Y-98581338D01*
X106480128Y-98622447D01*
X106541919Y-98743719D01*
X106558768Y-98776788D01*
X106660586Y-98916928D01*
X106783072Y-99039414D01*
X106923212Y-99141232D01*
X107077555Y-99219873D01*
X107242299Y-99273402D01*
X107413389Y-99300500D01*
X107413390Y-99300500D01*
X107586610Y-99300500D01*
X107586611Y-99300500D01*
X107757701Y-99273402D01*
X107922445Y-99219873D01*
X108076788Y-99141232D01*
X108216928Y-99039414D01*
X108339414Y-98916928D01*
X108441232Y-98776788D01*
X108519873Y-98622445D01*
X108573402Y-98457701D01*
X108600500Y-98286611D01*
X108600500Y-98113389D01*
X108593970Y-98072163D01*
X108593968Y-98072149D01*
X111049500Y-98072149D01*
X111049500Y-98327850D01*
X111066596Y-98457697D01*
X111082874Y-98581340D01*
X111149050Y-98828312D01*
X111149053Y-98828322D01*
X111246894Y-99064531D01*
X111246899Y-99064542D01*
X111374734Y-99285957D01*
X111374745Y-99285973D01*
X111530388Y-99488811D01*
X111530394Y-99488818D01*
X111711181Y-99669605D01*
X111711187Y-99669610D01*
X111914035Y-99825261D01*
X111914042Y-99825265D01*
X112135457Y-99953100D01*
X112135462Y-99953102D01*
X112135465Y-99953104D01*
X112371687Y-100050950D01*
X112618660Y-100117126D01*
X112872157Y-100150500D01*
X112872164Y-100150500D01*
X113127836Y-100150500D01*
X113127843Y-100150500D01*
X113381340Y-100117126D01*
X113628313Y-100050950D01*
X113864535Y-99953104D01*
X114085965Y-99825261D01*
X114288813Y-99669610D01*
X114469610Y-99488813D01*
X114625261Y-99285965D01*
X114753104Y-99064535D01*
X114850950Y-98828313D01*
X114917126Y-98581340D01*
X114950500Y-98327843D01*
X114950500Y-98113389D01*
X117399500Y-98113389D01*
X117399500Y-98286611D01*
X117426598Y-98457701D01*
X117466770Y-98581338D01*
X117480128Y-98622447D01*
X117541919Y-98743719D01*
X117558768Y-98776788D01*
X117660586Y-98916928D01*
X117783072Y-99039414D01*
X117923212Y-99141232D01*
X118077555Y-99219873D01*
X118242299Y-99273402D01*
X118413389Y-99300500D01*
X118413390Y-99300500D01*
X118586610Y-99300500D01*
X118586611Y-99300500D01*
X118757701Y-99273402D01*
X118922445Y-99219873D01*
X119076788Y-99141232D01*
X119216928Y-99039414D01*
X119339414Y-98916928D01*
X119441232Y-98776788D01*
X119519873Y-98622445D01*
X119573402Y-98457701D01*
X119600500Y-98286611D01*
X119600500Y-98113389D01*
X119573402Y-97942299D01*
X119519873Y-97777555D01*
X119441232Y-97623212D01*
X119339414Y-97483072D01*
X119216928Y-97360586D01*
X119076788Y-97258768D01*
X118922445Y-97180127D01*
X118757701Y-97126598D01*
X118757699Y-97126597D01*
X118757698Y-97126597D01*
X118626271Y-97105781D01*
X118586611Y-97099500D01*
X118413389Y-97099500D01*
X118373728Y-97105781D01*
X118242302Y-97126597D01*
X118077552Y-97180128D01*
X117923211Y-97258768D01*
X117843256Y-97316859D01*
X117783072Y-97360586D01*
X117783070Y-97360588D01*
X117783069Y-97360588D01*
X117660588Y-97483069D01*
X117660588Y-97483070D01*
X117660586Y-97483072D01*
X117636377Y-97516393D01*
X117558768Y-97623211D01*
X117480128Y-97777552D01*
X117426597Y-97942302D01*
X117404306Y-98083044D01*
X117399500Y-98113389D01*
X114950500Y-98113389D01*
X114950500Y-98072157D01*
X114917126Y-97818660D01*
X114850950Y-97571687D01*
X114847172Y-97562567D01*
X114766463Y-97367716D01*
X114753104Y-97335465D01*
X114753102Y-97335462D01*
X114753100Y-97335457D01*
X114625265Y-97114042D01*
X114625261Y-97114035D01*
X114469610Y-96911187D01*
X114469605Y-96911181D01*
X114288818Y-96730394D01*
X114288811Y-96730388D01*
X114085973Y-96574745D01*
X114085971Y-96574743D01*
X114085965Y-96574739D01*
X114085960Y-96574736D01*
X114085957Y-96574734D01*
X113864542Y-96446899D01*
X113864531Y-96446894D01*
X113628322Y-96349053D01*
X113628315Y-96349051D01*
X113628313Y-96349050D01*
X113381340Y-96282874D01*
X113325007Y-96275457D01*
X113127850Y-96249500D01*
X113127843Y-96249500D01*
X112872157Y-96249500D01*
X112872149Y-96249500D01*
X112655271Y-96278054D01*
X112618660Y-96282874D01*
X112371687Y-96349050D01*
X112371677Y-96349053D01*
X112135468Y-96446894D01*
X112135457Y-96446899D01*
X111914042Y-96574734D01*
X111914026Y-96574745D01*
X111711188Y-96730388D01*
X111711181Y-96730394D01*
X111530394Y-96911181D01*
X111530388Y-96911188D01*
X111374745Y-97114026D01*
X111374734Y-97114042D01*
X111246899Y-97335457D01*
X111246894Y-97335468D01*
X111149053Y-97571677D01*
X111149050Y-97571687D01*
X111114654Y-97700057D01*
X111082874Y-97818661D01*
X111049500Y-98072149D01*
X108593968Y-98072149D01*
X108573402Y-97942302D01*
X108573402Y-97942301D01*
X108573402Y-97942299D01*
X108519873Y-97777555D01*
X108441232Y-97623212D01*
X108339414Y-97483072D01*
X108216928Y-97360586D01*
X108076788Y-97258768D01*
X107922445Y-97180127D01*
X107757701Y-97126598D01*
X107757699Y-97126597D01*
X107757698Y-97126597D01*
X107626271Y-97105781D01*
X107586611Y-97099500D01*
X107413389Y-97099500D01*
X107373728Y-97105781D01*
X107242302Y-97126597D01*
X107077552Y-97180128D01*
X106923211Y-97258768D01*
X106843256Y-97316859D01*
X106783072Y-97360586D01*
X106783070Y-97360588D01*
X106783069Y-97360588D01*
X106660588Y-97483069D01*
X106660588Y-97483070D01*
X106660586Y-97483072D01*
X106636377Y-97516393D01*
X106558768Y-97623211D01*
X106480128Y-97777552D01*
X106426597Y-97942302D01*
X106404306Y-98083044D01*
X106399500Y-98113389D01*
X104962624Y-98113389D01*
X102835819Y-95986584D01*
X102802334Y-95925261D01*
X102799500Y-95898903D01*
X102799500Y-83355089D01*
X102819185Y-83288050D01*
X102871989Y-83242295D01*
X102941147Y-83232351D01*
X103004703Y-83261376D01*
X103011181Y-83267408D01*
X109209147Y-89465374D01*
X109209157Y-89465385D01*
X109213487Y-89469715D01*
X109213488Y-89469716D01*
X109325292Y-89581520D01*
X109325294Y-89581521D01*
X109325298Y-89581524D01*
X109462217Y-89660573D01*
X109462224Y-89660577D01*
X109574027Y-89690534D01*
X109614950Y-89701500D01*
X109614951Y-89701500D01*
X112800903Y-89701500D01*
X112867942Y-89721185D01*
X112888584Y-89737819D01*
X124547200Y-101396435D01*
X124580685Y-101457758D01*
X124577450Y-101522433D01*
X124536447Y-101648628D01*
X124499500Y-101881902D01*
X124499500Y-102118097D01*
X124536446Y-102351368D01*
X124609433Y-102575996D01*
X124716657Y-102786433D01*
X124855483Y-102977510D01*
X125022490Y-103144517D01*
X125213567Y-103283343D01*
X125312991Y-103334002D01*
X125424003Y-103390566D01*
X125424005Y-103390566D01*
X125424008Y-103390568D01*
X125544412Y-103429689D01*
X125648631Y-103463553D01*
X125881903Y-103500500D01*
X125881908Y-103500500D01*
X126118097Y-103500500D01*
X126351368Y-103463553D01*
X126575992Y-103390568D01*
X126786433Y-103283343D01*
X126977510Y-103144517D01*
X127144517Y-102977510D01*
X127283343Y-102786433D01*
X127390568Y-102575992D01*
X127463553Y-102351368D01*
X127500500Y-102118097D01*
X127500500Y-101881902D01*
X127463553Y-101648631D01*
X127401534Y-101457758D01*
X127390568Y-101424008D01*
X127390566Y-101424005D01*
X127390566Y-101424003D01*
X127283342Y-101213566D01*
X127144517Y-101022490D01*
X126977510Y-100855483D01*
X126786433Y-100716657D01*
X126786429Y-100716655D01*
X126575996Y-100609433D01*
X126351368Y-100536446D01*
X126118097Y-100499500D01*
X126118092Y-100499500D01*
X125881908Y-100499500D01*
X125881903Y-100499500D01*
X125648628Y-100536447D01*
X125522433Y-100577450D01*
X125452592Y-100579445D01*
X125396435Y-100547200D01*
X122962624Y-98113389D01*
X124399500Y-98113389D01*
X124399500Y-98286611D01*
X124426598Y-98457701D01*
X124466770Y-98581338D01*
X124480128Y-98622447D01*
X124541919Y-98743719D01*
X124558768Y-98776788D01*
X124660586Y-98916928D01*
X124783072Y-99039414D01*
X124923212Y-99141232D01*
X125077555Y-99219873D01*
X125242299Y-99273402D01*
X125413389Y-99300500D01*
X125413390Y-99300500D01*
X125586610Y-99300500D01*
X125586611Y-99300500D01*
X125757701Y-99273402D01*
X125922445Y-99219873D01*
X126076788Y-99141232D01*
X126216928Y-99039414D01*
X126339414Y-98916928D01*
X126441232Y-98776788D01*
X126519873Y-98622445D01*
X126573402Y-98457701D01*
X126600500Y-98286611D01*
X126600500Y-98113389D01*
X126593970Y-98072163D01*
X126593968Y-98072149D01*
X129049500Y-98072149D01*
X129049500Y-98327850D01*
X129066596Y-98457697D01*
X129082874Y-98581340D01*
X129149050Y-98828312D01*
X129149053Y-98828322D01*
X129246894Y-99064531D01*
X129246899Y-99064542D01*
X129374734Y-99285957D01*
X129374745Y-99285973D01*
X129530388Y-99488811D01*
X129530394Y-99488818D01*
X129711181Y-99669605D01*
X129711187Y-99669610D01*
X129914035Y-99825261D01*
X129914042Y-99825265D01*
X130135457Y-99953100D01*
X130135462Y-99953102D01*
X130135465Y-99953104D01*
X130371687Y-100050950D01*
X130618660Y-100117126D01*
X130872157Y-100150500D01*
X130872164Y-100150500D01*
X131127836Y-100150500D01*
X131127843Y-100150500D01*
X131381340Y-100117126D01*
X131628313Y-100050950D01*
X131864535Y-99953104D01*
X132085965Y-99825261D01*
X132288813Y-99669610D01*
X132469610Y-99488813D01*
X132625261Y-99285965D01*
X132753104Y-99064535D01*
X132850950Y-98828313D01*
X132917126Y-98581340D01*
X132950500Y-98327843D01*
X132950500Y-98113389D01*
X135399500Y-98113389D01*
X135399500Y-98286611D01*
X135426598Y-98457701D01*
X135466770Y-98581338D01*
X135480128Y-98622447D01*
X135541919Y-98743719D01*
X135558768Y-98776788D01*
X135660586Y-98916928D01*
X135783072Y-99039414D01*
X135923212Y-99141232D01*
X136077555Y-99219873D01*
X136242299Y-99273402D01*
X136413389Y-99300500D01*
X136413390Y-99300500D01*
X136586610Y-99300500D01*
X136586611Y-99300500D01*
X136757701Y-99273402D01*
X136922445Y-99219873D01*
X137076788Y-99141232D01*
X137216928Y-99039414D01*
X137339414Y-98916928D01*
X137441232Y-98776788D01*
X137519873Y-98622445D01*
X137573402Y-98457701D01*
X137600500Y-98286611D01*
X137600500Y-98113389D01*
X137573402Y-97942299D01*
X137519873Y-97777555D01*
X137441232Y-97623212D01*
X137339414Y-97483072D01*
X137216928Y-97360586D01*
X137076788Y-97258768D01*
X136922445Y-97180127D01*
X136757701Y-97126598D01*
X136757699Y-97126597D01*
X136757698Y-97126597D01*
X136626271Y-97105781D01*
X136586611Y-97099500D01*
X136413389Y-97099500D01*
X136373728Y-97105781D01*
X136242302Y-97126597D01*
X136077552Y-97180128D01*
X135923211Y-97258768D01*
X135843256Y-97316859D01*
X135783072Y-97360586D01*
X135783070Y-97360588D01*
X135783069Y-97360588D01*
X135660588Y-97483069D01*
X135660588Y-97483070D01*
X135660586Y-97483072D01*
X135636377Y-97516393D01*
X135558768Y-97623211D01*
X135480128Y-97777552D01*
X135426597Y-97942302D01*
X135404306Y-98083044D01*
X135399500Y-98113389D01*
X132950500Y-98113389D01*
X132950500Y-98072157D01*
X132917126Y-97818660D01*
X132850950Y-97571687D01*
X132847172Y-97562567D01*
X132766463Y-97367716D01*
X132753104Y-97335465D01*
X132753102Y-97335462D01*
X132753100Y-97335457D01*
X132625265Y-97114042D01*
X132625261Y-97114035D01*
X132469610Y-96911187D01*
X132469605Y-96911181D01*
X132288818Y-96730394D01*
X132288811Y-96730388D01*
X132085973Y-96574745D01*
X132085971Y-96574743D01*
X132085965Y-96574739D01*
X132085960Y-96574736D01*
X132085957Y-96574734D01*
X131864542Y-96446899D01*
X131864531Y-96446894D01*
X131628322Y-96349053D01*
X131628315Y-96349051D01*
X131628313Y-96349050D01*
X131381340Y-96282874D01*
X131325007Y-96275457D01*
X131127850Y-96249500D01*
X131127843Y-96249500D01*
X130872157Y-96249500D01*
X130872149Y-96249500D01*
X130655271Y-96278054D01*
X130618660Y-96282874D01*
X130371687Y-96349050D01*
X130371677Y-96349053D01*
X130135468Y-96446894D01*
X130135457Y-96446899D01*
X129914042Y-96574734D01*
X129914026Y-96574745D01*
X129711188Y-96730388D01*
X129711181Y-96730394D01*
X129530394Y-96911181D01*
X129530388Y-96911188D01*
X129374745Y-97114026D01*
X129374734Y-97114042D01*
X129246899Y-97335457D01*
X129246894Y-97335468D01*
X129149053Y-97571677D01*
X129149050Y-97571687D01*
X129114654Y-97700057D01*
X129082874Y-97818661D01*
X129049500Y-98072149D01*
X126593968Y-98072149D01*
X126573402Y-97942302D01*
X126573402Y-97942301D01*
X126573402Y-97942299D01*
X126519873Y-97777555D01*
X126441232Y-97623212D01*
X126339414Y-97483072D01*
X126216928Y-97360586D01*
X126076788Y-97258768D01*
X125922445Y-97180127D01*
X125757701Y-97126598D01*
X125757699Y-97126597D01*
X125757698Y-97126597D01*
X125626271Y-97105781D01*
X125586611Y-97099500D01*
X125413389Y-97099500D01*
X125373728Y-97105781D01*
X125242302Y-97126597D01*
X125077552Y-97180128D01*
X124923211Y-97258768D01*
X124843256Y-97316859D01*
X124783072Y-97360586D01*
X124783070Y-97360588D01*
X124783069Y-97360588D01*
X124660588Y-97483069D01*
X124660588Y-97483070D01*
X124660586Y-97483072D01*
X124636377Y-97516393D01*
X124558768Y-97623211D01*
X124480128Y-97777552D01*
X124426597Y-97942302D01*
X124404306Y-98083044D01*
X124399500Y-98113389D01*
X122962624Y-98113389D01*
X114361416Y-89512181D01*
X114327931Y-89450858D01*
X114332915Y-89381166D01*
X114374787Y-89325233D01*
X114440251Y-89300816D01*
X114449097Y-89300500D01*
X122213331Y-89300500D01*
X122213347Y-89300501D01*
X122220943Y-89300501D01*
X122379054Y-89300501D01*
X122379057Y-89300501D01*
X122531785Y-89259577D01*
X122581904Y-89230639D01*
X122668716Y-89180520D01*
X122780520Y-89068716D01*
X122780520Y-89068714D01*
X122790728Y-89058507D01*
X122790730Y-89058504D01*
X124867286Y-86981947D01*
X129500000Y-86981947D01*
X129500000Y-87218052D01*
X129536934Y-87451247D01*
X129609897Y-87675802D01*
X129717087Y-87886174D01*
X129777338Y-87969104D01*
X129777340Y-87969105D01*
X130435387Y-87311058D01*
X130440889Y-87331591D01*
X130519881Y-87468408D01*
X130631592Y-87580119D01*
X130768409Y-87659111D01*
X130788940Y-87664612D01*
X130130893Y-88322658D01*
X130213828Y-88382914D01*
X130424197Y-88490102D01*
X130648752Y-88563065D01*
X130648751Y-88563065D01*
X130881948Y-88600000D01*
X131118052Y-88600000D01*
X131351247Y-88563065D01*
X131575802Y-88490102D01*
X131786163Y-88382918D01*
X131786169Y-88382914D01*
X131869104Y-88322658D01*
X131869105Y-88322658D01*
X131211058Y-87664612D01*
X131231591Y-87659111D01*
X131368408Y-87580119D01*
X131480119Y-87468408D01*
X131559111Y-87331591D01*
X131564612Y-87311059D01*
X132222658Y-87969105D01*
X132222658Y-87969104D01*
X132282914Y-87886169D01*
X132282918Y-87886163D01*
X132390102Y-87675802D01*
X132463065Y-87451247D01*
X132500000Y-87218052D01*
X132500000Y-86981947D01*
X132463065Y-86748752D01*
X132390102Y-86524197D01*
X132282914Y-86313828D01*
X132222658Y-86230894D01*
X132222658Y-86230893D01*
X131564612Y-86888940D01*
X131559111Y-86868409D01*
X131480119Y-86731592D01*
X131368408Y-86619881D01*
X131231591Y-86540889D01*
X131211059Y-86535387D01*
X131869105Y-85877340D01*
X131869104Y-85877338D01*
X131786174Y-85817087D01*
X131575802Y-85709897D01*
X131351247Y-85636934D01*
X131351248Y-85636934D01*
X131118052Y-85600000D01*
X130881948Y-85600000D01*
X130648752Y-85636934D01*
X130424197Y-85709897D01*
X130213830Y-85817084D01*
X130130894Y-85877340D01*
X130788941Y-86535387D01*
X130768409Y-86540889D01*
X130631592Y-86619881D01*
X130519881Y-86731592D01*
X130440889Y-86868409D01*
X130435387Y-86888941D01*
X129777340Y-86230894D01*
X129717084Y-86313830D01*
X129609897Y-86524197D01*
X129536934Y-86748752D01*
X129500000Y-86981947D01*
X124867286Y-86981947D01*
X125396437Y-86452796D01*
X125457758Y-86419313D01*
X125522433Y-86422547D01*
X125648632Y-86463553D01*
X125736110Y-86477408D01*
X125881903Y-86500500D01*
X125881908Y-86500500D01*
X126118097Y-86500500D01*
X126351368Y-86463553D01*
X126384468Y-86452798D01*
X126575992Y-86390568D01*
X126786433Y-86283343D01*
X126977510Y-86144517D01*
X127144517Y-85977510D01*
X127283343Y-85786433D01*
X127390568Y-85575992D01*
X127463553Y-85351368D01*
X127500500Y-85118097D01*
X127500500Y-84881902D01*
X127463553Y-84648631D01*
X127399856Y-84452593D01*
X127390568Y-84424008D01*
X127390566Y-84424005D01*
X127390566Y-84424003D01*
X127334002Y-84312991D01*
X127283343Y-84213567D01*
X127144517Y-84022490D01*
X126977510Y-83855483D01*
X126786433Y-83716657D01*
X126575996Y-83609433D01*
X126351368Y-83536446D01*
X126118097Y-83499500D01*
X126118092Y-83499500D01*
X125881908Y-83499500D01*
X125881903Y-83499500D01*
X125648631Y-83536446D01*
X125424003Y-83609433D01*
X125213566Y-83716657D01*
X125127044Y-83779520D01*
X125022490Y-83855483D01*
X125022488Y-83855485D01*
X125022487Y-83855485D01*
X124855485Y-84022487D01*
X124855485Y-84022488D01*
X124855483Y-84022490D01*
X124795862Y-84104550D01*
X124716657Y-84213566D01*
X124609433Y-84424003D01*
X124536446Y-84648631D01*
X124499500Y-84881902D01*
X124499500Y-85118097D01*
X124536447Y-85351369D01*
X124536447Y-85351372D01*
X124577450Y-85477564D01*
X124579445Y-85547405D01*
X124547200Y-85603563D01*
X122087584Y-88063181D01*
X122026261Y-88096666D01*
X121999903Y-88099500D01*
X114371286Y-88099500D01*
X114304247Y-88079815D01*
X114258492Y-88027011D01*
X114248548Y-87957853D01*
X114270969Y-87902613D01*
X114282914Y-87886172D01*
X114390102Y-87675802D01*
X114463065Y-87451247D01*
X114500000Y-87218052D01*
X114500000Y-86981947D01*
X114463065Y-86748752D01*
X114390102Y-86524197D01*
X114282914Y-86313828D01*
X114222658Y-86230894D01*
X114222658Y-86230893D01*
X113564612Y-86888939D01*
X113559111Y-86868409D01*
X113480119Y-86731592D01*
X113368408Y-86619881D01*
X113231591Y-86540889D01*
X113211059Y-86535387D01*
X113869105Y-85877340D01*
X113869104Y-85877338D01*
X113786174Y-85817087D01*
X113575802Y-85709897D01*
X113351247Y-85636934D01*
X113351248Y-85636934D01*
X113118052Y-85600000D01*
X112881948Y-85600000D01*
X112648752Y-85636934D01*
X112424197Y-85709897D01*
X112213830Y-85817084D01*
X112130894Y-85877340D01*
X112788941Y-86535387D01*
X112768409Y-86540889D01*
X112631592Y-86619881D01*
X112519881Y-86731592D01*
X112440889Y-86868409D01*
X112435387Y-86888941D01*
X111777340Y-86230894D01*
X111717084Y-86313830D01*
X111609897Y-86524197D01*
X111536934Y-86748752D01*
X111500000Y-86981947D01*
X111500000Y-87218052D01*
X111536934Y-87451247D01*
X111609897Y-87675802D01*
X111717085Y-87886172D01*
X111729031Y-87902613D01*
X111752512Y-87968419D01*
X111736687Y-88036473D01*
X111686582Y-88085169D01*
X111628714Y-88099500D01*
X110160206Y-88099500D01*
X110093167Y-88079815D01*
X110072525Y-88063181D01*
X108580029Y-86570685D01*
X108546544Y-86509362D01*
X108551528Y-86439670D01*
X108593400Y-86383737D01*
X108611415Y-86372519D01*
X108786433Y-86283343D01*
X108977510Y-86144517D01*
X109144517Y-85977510D01*
X109283343Y-85786433D01*
X109390568Y-85575992D01*
X109463553Y-85351368D01*
X109500500Y-85118097D01*
X109500500Y-84881902D01*
X109463553Y-84648631D01*
X109399856Y-84452593D01*
X109390568Y-84424008D01*
X109390566Y-84424005D01*
X109390566Y-84424003D01*
X109334002Y-84312991D01*
X109283343Y-84213567D01*
X109144517Y-84022490D01*
X108977510Y-83855483D01*
X108786433Y-83716657D01*
X108575996Y-83609433D01*
X108351368Y-83536446D01*
X108118097Y-83499500D01*
X108118092Y-83499500D01*
X107881908Y-83499500D01*
X107881903Y-83499500D01*
X107648628Y-83536447D01*
X107522433Y-83577450D01*
X107452592Y-83579445D01*
X107396435Y-83547200D01*
X106935819Y-83086584D01*
X106902334Y-83025261D01*
X106899500Y-82998903D01*
X106899500Y-82331499D01*
X106919185Y-82264460D01*
X106971989Y-82218705D01*
X107041147Y-82208761D01*
X107072726Y-82218776D01*
X107073046Y-82218006D01*
X107077547Y-82219870D01*
X107077552Y-82219871D01*
X107077555Y-82219873D01*
X107242299Y-82273402D01*
X107413389Y-82300500D01*
X107413390Y-82300500D01*
X107586610Y-82300500D01*
X107586611Y-82300500D01*
X107757701Y-82273402D01*
X107922445Y-82219873D01*
X108076788Y-82141232D01*
X108216928Y-82039414D01*
X108339414Y-81916928D01*
X108441232Y-81776788D01*
X108519873Y-81622445D01*
X108573402Y-81457701D01*
X108600500Y-81286611D01*
X108600500Y-81113389D01*
X108593970Y-81072163D01*
X108593968Y-81072149D01*
X111049500Y-81072149D01*
X111049500Y-81327850D01*
X111062210Y-81424384D01*
X111082874Y-81581340D01*
X111148540Y-81826408D01*
X111149050Y-81828312D01*
X111149053Y-81828322D01*
X111246894Y-82064531D01*
X111246899Y-82064542D01*
X111374734Y-82285957D01*
X111374745Y-82285973D01*
X111530388Y-82488811D01*
X111530394Y-82488818D01*
X111711181Y-82669605D01*
X111711187Y-82669610D01*
X111914035Y-82825261D01*
X111914042Y-82825265D01*
X112135457Y-82953100D01*
X112135462Y-82953102D01*
X112135465Y-82953104D01*
X112371687Y-83050950D01*
X112618660Y-83117126D01*
X112872157Y-83150500D01*
X112872164Y-83150500D01*
X113127836Y-83150500D01*
X113127843Y-83150500D01*
X113381340Y-83117126D01*
X113628313Y-83050950D01*
X113864535Y-82953104D01*
X114085965Y-82825261D01*
X114288813Y-82669610D01*
X114469610Y-82488813D01*
X114625261Y-82285965D01*
X114753104Y-82064535D01*
X114850950Y-81828313D01*
X114917126Y-81581340D01*
X114950500Y-81327843D01*
X114950500Y-81113389D01*
X117399500Y-81113389D01*
X117399500Y-81286611D01*
X117426598Y-81457701D01*
X117480127Y-81622445D01*
X117558768Y-81776788D01*
X117660586Y-81916928D01*
X117783072Y-82039414D01*
X117923212Y-82141232D01*
X118077555Y-82219873D01*
X118242299Y-82273402D01*
X118413389Y-82300500D01*
X118413390Y-82300500D01*
X118586610Y-82300500D01*
X118586611Y-82300500D01*
X118757701Y-82273402D01*
X118922445Y-82219873D01*
X119076788Y-82141232D01*
X119216928Y-82039414D01*
X119339414Y-81916928D01*
X119441232Y-81776788D01*
X119519873Y-81622445D01*
X119573402Y-81457701D01*
X119600500Y-81286611D01*
X119600500Y-81113389D01*
X124399500Y-81113389D01*
X124399500Y-81286611D01*
X124426598Y-81457701D01*
X124480127Y-81622445D01*
X124558768Y-81776788D01*
X124660586Y-81916928D01*
X124783072Y-82039414D01*
X124923212Y-82141232D01*
X125077555Y-82219873D01*
X125242299Y-82273402D01*
X125413389Y-82300500D01*
X125413390Y-82300500D01*
X125586610Y-82300500D01*
X125586611Y-82300500D01*
X125757701Y-82273402D01*
X125922445Y-82219873D01*
X126076788Y-82141232D01*
X126216928Y-82039414D01*
X126339414Y-81916928D01*
X126441232Y-81776788D01*
X126519873Y-81622445D01*
X126573402Y-81457701D01*
X126600500Y-81286611D01*
X126600500Y-81113389D01*
X126593970Y-81072163D01*
X126593968Y-81072149D01*
X129049500Y-81072149D01*
X129049500Y-81327850D01*
X129062210Y-81424384D01*
X129082874Y-81581340D01*
X129148540Y-81826408D01*
X129149050Y-81828312D01*
X129149053Y-81828322D01*
X129246894Y-82064531D01*
X129246899Y-82064542D01*
X129374734Y-82285957D01*
X129374745Y-82285973D01*
X129530388Y-82488811D01*
X129530394Y-82488818D01*
X129711181Y-82669605D01*
X129711187Y-82669610D01*
X129914035Y-82825261D01*
X129914042Y-82825265D01*
X130135457Y-82953100D01*
X130135462Y-82953102D01*
X130135465Y-82953104D01*
X130371687Y-83050950D01*
X130618660Y-83117126D01*
X130872157Y-83150500D01*
X130872164Y-83150500D01*
X131127836Y-83150500D01*
X131127843Y-83150500D01*
X131381340Y-83117126D01*
X131628313Y-83050950D01*
X131864535Y-82953104D01*
X132085965Y-82825261D01*
X132288813Y-82669610D01*
X132469610Y-82488813D01*
X132625261Y-82285965D01*
X132753104Y-82064535D01*
X132850950Y-81828313D01*
X132917126Y-81581340D01*
X132950500Y-81327843D01*
X132950500Y-81113389D01*
X135399500Y-81113389D01*
X135399500Y-81286611D01*
X135426598Y-81457701D01*
X135480127Y-81622445D01*
X135558768Y-81776788D01*
X135660586Y-81916928D01*
X135783072Y-82039414D01*
X135923212Y-82141232D01*
X136077555Y-82219873D01*
X136242299Y-82273402D01*
X136413389Y-82300500D01*
X136413390Y-82300500D01*
X136586610Y-82300500D01*
X136586611Y-82300500D01*
X136757701Y-82273402D01*
X136922445Y-82219873D01*
X137076788Y-82141232D01*
X137216928Y-82039414D01*
X137339414Y-81916928D01*
X137441232Y-81776788D01*
X137519873Y-81622445D01*
X137573402Y-81457701D01*
X137600500Y-81286611D01*
X137600500Y-81113389D01*
X137573402Y-80942299D01*
X137519873Y-80777555D01*
X137441232Y-80623212D01*
X137339414Y-80483072D01*
X137216928Y-80360586D01*
X137076788Y-80258768D01*
X136922445Y-80180127D01*
X136757701Y-80126598D01*
X136757699Y-80126597D01*
X136757698Y-80126597D01*
X136626271Y-80105781D01*
X136586611Y-80099500D01*
X136413389Y-80099500D01*
X136373728Y-80105781D01*
X136242302Y-80126597D01*
X136242299Y-80126598D01*
X136106544Y-80170708D01*
X136077552Y-80180128D01*
X135923211Y-80258768D01*
X135843256Y-80316859D01*
X135783072Y-80360586D01*
X135783070Y-80360588D01*
X135783069Y-80360588D01*
X135660588Y-80483069D01*
X135660588Y-80483070D01*
X135660586Y-80483072D01*
X135660582Y-80483078D01*
X135558768Y-80623211D01*
X135480128Y-80777552D01*
X135426597Y-80942302D01*
X135404306Y-81083044D01*
X135399500Y-81113389D01*
X132950500Y-81113389D01*
X132950500Y-81072157D01*
X132917126Y-80818660D01*
X132850950Y-80571687D01*
X132847172Y-80562567D01*
X132788377Y-80420622D01*
X132753104Y-80335465D01*
X132753102Y-80335462D01*
X132753100Y-80335457D01*
X132625265Y-80114042D01*
X132625261Y-80114035D01*
X132469610Y-79911187D01*
X132469605Y-79911181D01*
X132288818Y-79730394D01*
X132288811Y-79730388D01*
X132085973Y-79574745D01*
X132085971Y-79574743D01*
X132085965Y-79574739D01*
X132085960Y-79574736D01*
X132085957Y-79574734D01*
X131864542Y-79446899D01*
X131864531Y-79446894D01*
X131628322Y-79349053D01*
X131628315Y-79349051D01*
X131628313Y-79349050D01*
X131381340Y-79282874D01*
X131325007Y-79275457D01*
X131127850Y-79249500D01*
X131127843Y-79249500D01*
X130872157Y-79249500D01*
X130872149Y-79249500D01*
X130646826Y-79279165D01*
X130618660Y-79282874D01*
X130554745Y-79300000D01*
X130371687Y-79349050D01*
X130371677Y-79349053D01*
X130135468Y-79446894D01*
X130135457Y-79446899D01*
X129914042Y-79574734D01*
X129914026Y-79574745D01*
X129711188Y-79730388D01*
X129711181Y-79730394D01*
X129530394Y-79911181D01*
X129530388Y-79911188D01*
X129374745Y-80114026D01*
X129374734Y-80114042D01*
X129246899Y-80335457D01*
X129246894Y-80335468D01*
X129149053Y-80571677D01*
X129149050Y-80571687D01*
X129084476Y-80812684D01*
X129082874Y-80818661D01*
X129049500Y-81072149D01*
X126593968Y-81072149D01*
X126573402Y-80942302D01*
X126573402Y-80942301D01*
X126573402Y-80942299D01*
X126519873Y-80777555D01*
X126441232Y-80623212D01*
X126339414Y-80483072D01*
X126216928Y-80360586D01*
X126076788Y-80258768D01*
X125922445Y-80180127D01*
X125757701Y-80126598D01*
X125757699Y-80126597D01*
X125757698Y-80126597D01*
X125626271Y-80105781D01*
X125586611Y-80099500D01*
X125413389Y-80099500D01*
X125373728Y-80105781D01*
X125242302Y-80126597D01*
X125242299Y-80126598D01*
X125106544Y-80170708D01*
X125077552Y-80180128D01*
X124923211Y-80258768D01*
X124843256Y-80316859D01*
X124783072Y-80360586D01*
X124783070Y-80360588D01*
X124783069Y-80360588D01*
X124660588Y-80483069D01*
X124660588Y-80483070D01*
X124660586Y-80483072D01*
X124660582Y-80483078D01*
X124558768Y-80623211D01*
X124480128Y-80777552D01*
X124426597Y-80942302D01*
X124404306Y-81083044D01*
X124399500Y-81113389D01*
X119600500Y-81113389D01*
X119573402Y-80942299D01*
X119519873Y-80777555D01*
X119441232Y-80623212D01*
X119339414Y-80483072D01*
X119216928Y-80360586D01*
X119076788Y-80258768D01*
X118922445Y-80180127D01*
X118757701Y-80126598D01*
X118757699Y-80126597D01*
X118757698Y-80126597D01*
X118626271Y-80105781D01*
X118586611Y-80099500D01*
X118413389Y-80099500D01*
X118373728Y-80105781D01*
X118242302Y-80126597D01*
X118242299Y-80126598D01*
X118106544Y-80170708D01*
X118077552Y-80180128D01*
X117923211Y-80258768D01*
X117843256Y-80316859D01*
X117783072Y-80360586D01*
X117783070Y-80360588D01*
X117783069Y-80360588D01*
X117660588Y-80483069D01*
X117660588Y-80483070D01*
X117660586Y-80483072D01*
X117660582Y-80483078D01*
X117558768Y-80623211D01*
X117480128Y-80777552D01*
X117426597Y-80942302D01*
X117404306Y-81083044D01*
X117399500Y-81113389D01*
X114950500Y-81113389D01*
X114950500Y-81072157D01*
X114917126Y-80818660D01*
X114850950Y-80571687D01*
X114847172Y-80562567D01*
X114788377Y-80420622D01*
X114753104Y-80335465D01*
X114753102Y-80335462D01*
X114753100Y-80335457D01*
X114625265Y-80114042D01*
X114625261Y-80114035D01*
X114469610Y-79911187D01*
X114469605Y-79911181D01*
X114288818Y-79730394D01*
X114288811Y-79730388D01*
X114085973Y-79574745D01*
X114085971Y-79574743D01*
X114085965Y-79574739D01*
X114085960Y-79574736D01*
X114085957Y-79574734D01*
X113864542Y-79446899D01*
X113864531Y-79446894D01*
X113628322Y-79349053D01*
X113628315Y-79349051D01*
X113628313Y-79349050D01*
X113381340Y-79282874D01*
X113325007Y-79275457D01*
X113127850Y-79249500D01*
X113127843Y-79249500D01*
X112872157Y-79249500D01*
X112872149Y-79249500D01*
X112646826Y-79279165D01*
X112618660Y-79282874D01*
X112554745Y-79300000D01*
X112371687Y-79349050D01*
X112371677Y-79349053D01*
X112135468Y-79446894D01*
X112135457Y-79446899D01*
X111914042Y-79574734D01*
X111914026Y-79574745D01*
X111711188Y-79730388D01*
X111711181Y-79730394D01*
X111530394Y-79911181D01*
X111530388Y-79911188D01*
X111374745Y-80114026D01*
X111374734Y-80114042D01*
X111246899Y-80335457D01*
X111246894Y-80335468D01*
X111149053Y-80571677D01*
X111149050Y-80571687D01*
X111084476Y-80812684D01*
X111082874Y-80818661D01*
X111049500Y-81072149D01*
X108593968Y-81072149D01*
X108573402Y-80942302D01*
X108573402Y-80942301D01*
X108573402Y-80942299D01*
X108519873Y-80777555D01*
X108441232Y-80623212D01*
X108339414Y-80483072D01*
X108216928Y-80360586D01*
X108076788Y-80258768D01*
X107922445Y-80180127D01*
X107757701Y-80126598D01*
X107757699Y-80126597D01*
X107757698Y-80126597D01*
X107626271Y-80105781D01*
X107586611Y-80099500D01*
X107413389Y-80099500D01*
X107373728Y-80105781D01*
X107242302Y-80126597D01*
X107077547Y-80180129D01*
X107073046Y-80181994D01*
X107072378Y-80180383D01*
X107011102Y-80191879D01*
X106946366Y-80165590D01*
X106906120Y-80108475D01*
X106899500Y-80068500D01*
X106899500Y-78914000D01*
X106919185Y-78846961D01*
X106971989Y-78801206D01*
X107023500Y-78790000D01*
X108870000Y-78790000D01*
X108870000Y-70025500D01*
X108889685Y-69958461D01*
X108942489Y-69912706D01*
X108994000Y-69901500D01*
X110312331Y-69901500D01*
X110312347Y-69901501D01*
X110319943Y-69901501D01*
X110478054Y-69901501D01*
X110478057Y-69901501D01*
X110630785Y-69860577D01*
X110680904Y-69831639D01*
X110767716Y-69781520D01*
X110879520Y-69669716D01*
X110879520Y-69669714D01*
X110889728Y-69659507D01*
X110889729Y-69659504D01*
X111912416Y-68636819D01*
X111973739Y-68603334D01*
X112000097Y-68600500D01*
X112130300Y-68600500D01*
X112197339Y-68620185D01*
X112243094Y-68672989D01*
X112253038Y-68742147D01*
X112224013Y-68805703D01*
X112203185Y-68824818D01*
X112130894Y-68877339D01*
X112130894Y-68877340D01*
X112788941Y-69535387D01*
X112768409Y-69540889D01*
X112631592Y-69619881D01*
X112519881Y-69731592D01*
X112440889Y-69868409D01*
X112435387Y-69888941D01*
X111777340Y-69230894D01*
X111717084Y-69313830D01*
X111609897Y-69524197D01*
X111536934Y-69748752D01*
X111500000Y-69981947D01*
X111500000Y-70218052D01*
X111536934Y-70451247D01*
X111609897Y-70675802D01*
X111717087Y-70886174D01*
X111777338Y-70969104D01*
X111777340Y-70969105D01*
X112435387Y-70311058D01*
X112440889Y-70331591D01*
X112519881Y-70468408D01*
X112631592Y-70580119D01*
X112768409Y-70659111D01*
X112788940Y-70664612D01*
X112130893Y-71322658D01*
X112213828Y-71382914D01*
X112424197Y-71490102D01*
X112648752Y-71563065D01*
X112648751Y-71563065D01*
X112881948Y-71600000D01*
X113118052Y-71600000D01*
X113351247Y-71563065D01*
X113575802Y-71490102D01*
X113786163Y-71382918D01*
X113786169Y-71382914D01*
X113869104Y-71322658D01*
X113869105Y-71322658D01*
X113211058Y-70664612D01*
X113231591Y-70659111D01*
X113368408Y-70580119D01*
X113480119Y-70468408D01*
X113559111Y-70331591D01*
X113564612Y-70311059D01*
X114222658Y-70969105D01*
X114222658Y-70969104D01*
X114282914Y-70886169D01*
X114282918Y-70886163D01*
X114390102Y-70675802D01*
X114463065Y-70451247D01*
X114500000Y-70218052D01*
X114500000Y-69981947D01*
X129500000Y-69981947D01*
X129500000Y-70218052D01*
X129536934Y-70451247D01*
X129609897Y-70675802D01*
X129717087Y-70886174D01*
X129777338Y-70969104D01*
X129777340Y-70969105D01*
X130435387Y-70311058D01*
X130440889Y-70331591D01*
X130519881Y-70468408D01*
X130631592Y-70580119D01*
X130768409Y-70659111D01*
X130788940Y-70664612D01*
X130130893Y-71322658D01*
X130213828Y-71382914D01*
X130424197Y-71490102D01*
X130648752Y-71563065D01*
X130648751Y-71563065D01*
X130881948Y-71600000D01*
X131118052Y-71600000D01*
X131351247Y-71563065D01*
X131575802Y-71490102D01*
X131786163Y-71382918D01*
X131786169Y-71382914D01*
X131869104Y-71322658D01*
X131869105Y-71322658D01*
X131211058Y-70664612D01*
X131231591Y-70659111D01*
X131368408Y-70580119D01*
X131480119Y-70468408D01*
X131559111Y-70331591D01*
X131564612Y-70311059D01*
X132222658Y-70969105D01*
X132222658Y-70969104D01*
X132282914Y-70886169D01*
X132282918Y-70886163D01*
X132390102Y-70675802D01*
X132463065Y-70451247D01*
X132500000Y-70218052D01*
X132500000Y-69981947D01*
X132463065Y-69748752D01*
X132390102Y-69524197D01*
X132282914Y-69313828D01*
X132222658Y-69230894D01*
X132222658Y-69230893D01*
X131564612Y-69888940D01*
X131559111Y-69868409D01*
X131480119Y-69731592D01*
X131368408Y-69619881D01*
X131231591Y-69540889D01*
X131211059Y-69535387D01*
X131869105Y-68877340D01*
X131869104Y-68877338D01*
X131786174Y-68817087D01*
X131575802Y-68709897D01*
X131351247Y-68636934D01*
X131351248Y-68636934D01*
X131118052Y-68600000D01*
X130881948Y-68600000D01*
X130648752Y-68636934D01*
X130424197Y-68709897D01*
X130213830Y-68817084D01*
X130130894Y-68877340D01*
X130788941Y-69535387D01*
X130768409Y-69540889D01*
X130631592Y-69619881D01*
X130519881Y-69731592D01*
X130440889Y-69868409D01*
X130435387Y-69888941D01*
X129777340Y-69230894D01*
X129717084Y-69313830D01*
X129609897Y-69524197D01*
X129536934Y-69748752D01*
X129500000Y-69981947D01*
X114500000Y-69981947D01*
X114463065Y-69748752D01*
X114390102Y-69524197D01*
X114282914Y-69313828D01*
X114222658Y-69230894D01*
X114222658Y-69230893D01*
X113564612Y-69888940D01*
X113559111Y-69868409D01*
X113480119Y-69731592D01*
X113368408Y-69619881D01*
X113231591Y-69540889D01*
X113211059Y-69535387D01*
X113869105Y-68877340D01*
X113869104Y-68877338D01*
X113796816Y-68824818D01*
X113754150Y-68769488D01*
X113748171Y-68699875D01*
X113780777Y-68638080D01*
X113841615Y-68603723D01*
X113869701Y-68600500D01*
X124545932Y-68600500D01*
X124612971Y-68620185D01*
X124656416Y-68668203D01*
X124716657Y-68786433D01*
X124855483Y-68977510D01*
X125022490Y-69144517D01*
X125213567Y-69283343D01*
X125284896Y-69319687D01*
X125424003Y-69390566D01*
X125424005Y-69390566D01*
X125424008Y-69390568D01*
X125487273Y-69411124D01*
X125648631Y-69463553D01*
X125881903Y-69500500D01*
X125881908Y-69500500D01*
X126118097Y-69500500D01*
X126351368Y-69463553D01*
X126575992Y-69390568D01*
X126786433Y-69283343D01*
X126977510Y-69144517D01*
X127144517Y-68977510D01*
X127283343Y-68786433D01*
X127390568Y-68575992D01*
X127463553Y-68351368D01*
X127476078Y-68272290D01*
X127500500Y-68118097D01*
X127500500Y-67881902D01*
X127463553Y-67648631D01*
X127421589Y-67519480D01*
X127390568Y-67424008D01*
X127390566Y-67424005D01*
X127390566Y-67424003D01*
X127334002Y-67312991D01*
X127283343Y-67213567D01*
X127144517Y-67022490D01*
X126977510Y-66855483D01*
X126786433Y-66716657D01*
X126765474Y-66705978D01*
X126575996Y-66609433D01*
X126351368Y-66536446D01*
X126118097Y-66499500D01*
X126118092Y-66499500D01*
X125881908Y-66499500D01*
X125881903Y-66499500D01*
X125648631Y-66536446D01*
X125424003Y-66609433D01*
X125213566Y-66716657D01*
X125104550Y-66795862D01*
X125022490Y-66855483D01*
X125022488Y-66855485D01*
X125022487Y-66855485D01*
X124855485Y-67022487D01*
X124855485Y-67022488D01*
X124855483Y-67022490D01*
X124795862Y-67104550D01*
X124716657Y-67213566D01*
X124684060Y-67277540D01*
X124657445Y-67329778D01*
X124656417Y-67331795D01*
X124608442Y-67382591D01*
X124545932Y-67399500D01*
X111786669Y-67399500D01*
X111786653Y-67399499D01*
X111779057Y-67399499D01*
X111620943Y-67399499D01*
X111529476Y-67424008D01*
X111468210Y-67440424D01*
X111468209Y-67440425D01*
X111418096Y-67469359D01*
X111418095Y-67469360D01*
X111383807Y-67489156D01*
X111331285Y-67519479D01*
X111331282Y-67519481D01*
X111219480Y-67631284D01*
X111219478Y-67631286D01*
X110686044Y-68164721D01*
X110186584Y-68664181D01*
X110125261Y-68697666D01*
X110098903Y-68700500D01*
X109520784Y-68700500D01*
X109453745Y-68680815D01*
X109407990Y-68628011D01*
X109398046Y-68558853D01*
X109402851Y-68538187D01*
X109463553Y-68351368D01*
X109476078Y-68272290D01*
X109500500Y-68118097D01*
X109500500Y-67881902D01*
X109463553Y-67648631D01*
X109421589Y-67519480D01*
X109390568Y-67424008D01*
X109390566Y-67424005D01*
X109390566Y-67424003D01*
X109334002Y-67312991D01*
X109283343Y-67213567D01*
X109144517Y-67022490D01*
X108977510Y-66855483D01*
X108786433Y-66716657D01*
X108765474Y-66705978D01*
X108575996Y-66609433D01*
X108351368Y-66536446D01*
X108118097Y-66499500D01*
X108118092Y-66499500D01*
X107881908Y-66499500D01*
X107881903Y-66499500D01*
X107648628Y-66536447D01*
X107522433Y-66577450D01*
X107452592Y-66579445D01*
X107396435Y-66547200D01*
X106935819Y-66086584D01*
X106902334Y-66025261D01*
X106899500Y-65998903D01*
X106899500Y-65331499D01*
X106919185Y-65264460D01*
X106971989Y-65218705D01*
X107041147Y-65208761D01*
X107072726Y-65218776D01*
X107073046Y-65218006D01*
X107077547Y-65219870D01*
X107077552Y-65219871D01*
X107077555Y-65219873D01*
X107242299Y-65273402D01*
X107413389Y-65300500D01*
X107413390Y-65300500D01*
X107586610Y-65300500D01*
X107586611Y-65300500D01*
X107757701Y-65273402D01*
X107922445Y-65219873D01*
X108076788Y-65141232D01*
X108216928Y-65039414D01*
X108339414Y-64916928D01*
X108441232Y-64776788D01*
X108519873Y-64622445D01*
X108573402Y-64457701D01*
X108600500Y-64286611D01*
X108600500Y-64113389D01*
X108596048Y-64085283D01*
X108593968Y-64072149D01*
X111049500Y-64072149D01*
X111049500Y-64327850D01*
X111075457Y-64525007D01*
X111082874Y-64581340D01*
X111145586Y-64815384D01*
X111149050Y-64828312D01*
X111149053Y-64828322D01*
X111246894Y-65064531D01*
X111246899Y-65064542D01*
X111374734Y-65285957D01*
X111374745Y-65285973D01*
X111530388Y-65488811D01*
X111530394Y-65488818D01*
X111711181Y-65669605D01*
X111711187Y-65669610D01*
X111914035Y-65825261D01*
X111914042Y-65825265D01*
X112135457Y-65953100D01*
X112135462Y-65953102D01*
X112135465Y-65953104D01*
X112371687Y-66050950D01*
X112618660Y-66117126D01*
X112872157Y-66150500D01*
X112872164Y-66150500D01*
X113127836Y-66150500D01*
X113127843Y-66150500D01*
X113381340Y-66117126D01*
X113628313Y-66050950D01*
X113864535Y-65953104D01*
X114085965Y-65825261D01*
X114288813Y-65669610D01*
X114469610Y-65488813D01*
X114625261Y-65285965D01*
X114753104Y-65064535D01*
X114850950Y-64828313D01*
X114917126Y-64581340D01*
X114950500Y-64327843D01*
X114950500Y-64113389D01*
X117399500Y-64113389D01*
X117399500Y-64286611D01*
X117401954Y-64302107D01*
X117410651Y-64357019D01*
X117426598Y-64457701D01*
X117480127Y-64622445D01*
X117558768Y-64776788D01*
X117660586Y-64916928D01*
X117783072Y-65039414D01*
X117923212Y-65141232D01*
X118077555Y-65219873D01*
X118242299Y-65273402D01*
X118413389Y-65300500D01*
X118413390Y-65300500D01*
X118586610Y-65300500D01*
X118586611Y-65300500D01*
X118757701Y-65273402D01*
X118922445Y-65219873D01*
X119076788Y-65141232D01*
X119216928Y-65039414D01*
X119339414Y-64916928D01*
X119441232Y-64776788D01*
X119519873Y-64622445D01*
X119573402Y-64457701D01*
X119600500Y-64286611D01*
X119600500Y-64113389D01*
X124399500Y-64113389D01*
X124399500Y-64286611D01*
X124401954Y-64302107D01*
X124410651Y-64357019D01*
X124426598Y-64457701D01*
X124480127Y-64622445D01*
X124558768Y-64776788D01*
X124660586Y-64916928D01*
X124783072Y-65039414D01*
X124923212Y-65141232D01*
X125077555Y-65219873D01*
X125242299Y-65273402D01*
X125413389Y-65300500D01*
X125413390Y-65300500D01*
X125586610Y-65300500D01*
X125586611Y-65300500D01*
X125757701Y-65273402D01*
X125922445Y-65219873D01*
X126076788Y-65141232D01*
X126216928Y-65039414D01*
X126339414Y-64916928D01*
X126441232Y-64776788D01*
X126519873Y-64622445D01*
X126573402Y-64457701D01*
X126600500Y-64286611D01*
X126600500Y-64113389D01*
X126596048Y-64085283D01*
X126593968Y-64072149D01*
X129049500Y-64072149D01*
X129049500Y-64327850D01*
X129075457Y-64525007D01*
X129082874Y-64581340D01*
X129145586Y-64815384D01*
X129149050Y-64828312D01*
X129149053Y-64828322D01*
X129246894Y-65064531D01*
X129246899Y-65064542D01*
X129374734Y-65285957D01*
X129374745Y-65285973D01*
X129530388Y-65488811D01*
X129530394Y-65488818D01*
X129711181Y-65669605D01*
X129711187Y-65669610D01*
X129914035Y-65825261D01*
X129914042Y-65825265D01*
X130135457Y-65953100D01*
X130135462Y-65953102D01*
X130135465Y-65953104D01*
X130371687Y-66050950D01*
X130618660Y-66117126D01*
X130872157Y-66150500D01*
X130872164Y-66150500D01*
X131127836Y-66150500D01*
X131127843Y-66150500D01*
X131381340Y-66117126D01*
X131628313Y-66050950D01*
X131864535Y-65953104D01*
X132085965Y-65825261D01*
X132288813Y-65669610D01*
X132469610Y-65488813D01*
X132625261Y-65285965D01*
X132753104Y-65064535D01*
X132850950Y-64828313D01*
X132917126Y-64581340D01*
X132950500Y-64327843D01*
X132950500Y-64113389D01*
X135399500Y-64113389D01*
X135399500Y-64286611D01*
X135401954Y-64302107D01*
X135410651Y-64357019D01*
X135426598Y-64457701D01*
X135480127Y-64622445D01*
X135558768Y-64776788D01*
X135660586Y-64916928D01*
X135783072Y-65039414D01*
X135923212Y-65141232D01*
X136077555Y-65219873D01*
X136242299Y-65273402D01*
X136413389Y-65300500D01*
X136413390Y-65300500D01*
X136586610Y-65300500D01*
X136586611Y-65300500D01*
X136757701Y-65273402D01*
X136922445Y-65219873D01*
X137076788Y-65141232D01*
X137216928Y-65039414D01*
X137339414Y-64916928D01*
X137441232Y-64776788D01*
X137519873Y-64622445D01*
X137573402Y-64457701D01*
X137600500Y-64286611D01*
X137600500Y-64113389D01*
X137573402Y-63942299D01*
X137519873Y-63777555D01*
X137441232Y-63623212D01*
X137339414Y-63483072D01*
X137216928Y-63360586D01*
X137076788Y-63258768D01*
X136922445Y-63180127D01*
X136757701Y-63126598D01*
X136757699Y-63126597D01*
X136757698Y-63126597D01*
X136626271Y-63105781D01*
X136586611Y-63099500D01*
X136413389Y-63099500D01*
X136373728Y-63105781D01*
X136242302Y-63126597D01*
X136242299Y-63126598D01*
X136078922Y-63179683D01*
X136077552Y-63180128D01*
X135923211Y-63258768D01*
X135904497Y-63272365D01*
X135783072Y-63360586D01*
X135783070Y-63360588D01*
X135783069Y-63360588D01*
X135660588Y-63483069D01*
X135660588Y-63483070D01*
X135660586Y-63483072D01*
X135626722Y-63529682D01*
X135558768Y-63623211D01*
X135480128Y-63777552D01*
X135426597Y-63942302D01*
X135403601Y-64087495D01*
X135399500Y-64113389D01*
X132950500Y-64113389D01*
X132950500Y-64072157D01*
X132917126Y-63818660D01*
X132850950Y-63571687D01*
X132838915Y-63542633D01*
X132753105Y-63335468D01*
X132753100Y-63335457D01*
X132625265Y-63114042D01*
X132625261Y-63114035D01*
X132536591Y-62998478D01*
X132469611Y-62911188D01*
X132469605Y-62911181D01*
X132288818Y-62730394D01*
X132288811Y-62730388D01*
X132085973Y-62574745D01*
X132085971Y-62574743D01*
X132085965Y-62574739D01*
X132085960Y-62574736D01*
X132085957Y-62574734D01*
X131864542Y-62446899D01*
X131864531Y-62446894D01*
X131628322Y-62349053D01*
X131628315Y-62349051D01*
X131628313Y-62349050D01*
X131381340Y-62282874D01*
X131324449Y-62275384D01*
X131127850Y-62249500D01*
X131127843Y-62249500D01*
X130872157Y-62249500D01*
X130872149Y-62249500D01*
X130646826Y-62279165D01*
X130618660Y-62282874D01*
X130371687Y-62349050D01*
X130371677Y-62349053D01*
X130135468Y-62446894D01*
X130135457Y-62446899D01*
X129914042Y-62574734D01*
X129914026Y-62574745D01*
X129711188Y-62730388D01*
X129711181Y-62730394D01*
X129530394Y-62911181D01*
X129530388Y-62911188D01*
X129374745Y-63114026D01*
X129374734Y-63114042D01*
X129246899Y-63335457D01*
X129246894Y-63335468D01*
X129149053Y-63571677D01*
X129149050Y-63571687D01*
X129082874Y-63818660D01*
X129082601Y-63820731D01*
X129049500Y-64072149D01*
X126593968Y-64072149D01*
X126589405Y-64043343D01*
X126573402Y-63942299D01*
X126519873Y-63777555D01*
X126441232Y-63623212D01*
X126339414Y-63483072D01*
X126216928Y-63360586D01*
X126076788Y-63258768D01*
X125922445Y-63180127D01*
X125757701Y-63126598D01*
X125757699Y-63126597D01*
X125757698Y-63126597D01*
X125626271Y-63105781D01*
X125586611Y-63099500D01*
X125413389Y-63099500D01*
X125373728Y-63105781D01*
X125242302Y-63126597D01*
X125242299Y-63126598D01*
X125078922Y-63179683D01*
X125077552Y-63180128D01*
X124923211Y-63258768D01*
X124904497Y-63272365D01*
X124783072Y-63360586D01*
X124783070Y-63360588D01*
X124783069Y-63360588D01*
X124660588Y-63483069D01*
X124660588Y-63483070D01*
X124660586Y-63483072D01*
X124626722Y-63529682D01*
X124558768Y-63623211D01*
X124480128Y-63777552D01*
X124426597Y-63942302D01*
X124403601Y-64087495D01*
X124399500Y-64113389D01*
X119600500Y-64113389D01*
X119573402Y-63942299D01*
X119519873Y-63777555D01*
X119441232Y-63623212D01*
X119339414Y-63483072D01*
X119216928Y-63360586D01*
X119076788Y-63258768D01*
X118922445Y-63180127D01*
X118757701Y-63126598D01*
X118757699Y-63126597D01*
X118757698Y-63126597D01*
X118626271Y-63105781D01*
X118586611Y-63099500D01*
X118413389Y-63099500D01*
X118373728Y-63105781D01*
X118242302Y-63126597D01*
X118242299Y-63126598D01*
X118078922Y-63179683D01*
X118077552Y-63180128D01*
X117923211Y-63258768D01*
X117904497Y-63272365D01*
X117783072Y-63360586D01*
X117783070Y-63360588D01*
X117783069Y-63360588D01*
X117660588Y-63483069D01*
X117660588Y-63483070D01*
X117660586Y-63483072D01*
X117626722Y-63529682D01*
X117558768Y-63623211D01*
X117480128Y-63777552D01*
X117426597Y-63942302D01*
X117403601Y-64087495D01*
X117399500Y-64113389D01*
X114950500Y-64113389D01*
X114950500Y-64072157D01*
X114917126Y-63818660D01*
X114850950Y-63571687D01*
X114838915Y-63542633D01*
X114753105Y-63335468D01*
X114753100Y-63335457D01*
X114625265Y-63114042D01*
X114625261Y-63114035D01*
X114536591Y-62998478D01*
X114469611Y-62911188D01*
X114469605Y-62911181D01*
X114288818Y-62730394D01*
X114288811Y-62730388D01*
X114085973Y-62574745D01*
X114085971Y-62574743D01*
X114085965Y-62574739D01*
X114085960Y-62574736D01*
X114085957Y-62574734D01*
X113864542Y-62446899D01*
X113864531Y-62446894D01*
X113628322Y-62349053D01*
X113628315Y-62349051D01*
X113628313Y-62349050D01*
X113381340Y-62282874D01*
X113324449Y-62275384D01*
X113127850Y-62249500D01*
X113127843Y-62249500D01*
X112872157Y-62249500D01*
X112872149Y-62249500D01*
X112646826Y-62279165D01*
X112618660Y-62282874D01*
X112371687Y-62349050D01*
X112371677Y-62349053D01*
X112135468Y-62446894D01*
X112135457Y-62446899D01*
X111914042Y-62574734D01*
X111914026Y-62574745D01*
X111711188Y-62730388D01*
X111711181Y-62730394D01*
X111530394Y-62911181D01*
X111530388Y-62911188D01*
X111374745Y-63114026D01*
X111374734Y-63114042D01*
X111246899Y-63335457D01*
X111246894Y-63335468D01*
X111149053Y-63571677D01*
X111149050Y-63571687D01*
X111082874Y-63818660D01*
X111082601Y-63820731D01*
X111049500Y-64072149D01*
X108593968Y-64072149D01*
X108589405Y-64043343D01*
X108573402Y-63942299D01*
X108519873Y-63777555D01*
X108441232Y-63623212D01*
X108339414Y-63483072D01*
X108216928Y-63360586D01*
X108076788Y-63258768D01*
X107922445Y-63180127D01*
X107757701Y-63126598D01*
X107757699Y-63126597D01*
X107757698Y-63126597D01*
X107626271Y-63105781D01*
X107586611Y-63099500D01*
X107413389Y-63099500D01*
X107373728Y-63105781D01*
X107242302Y-63126597D01*
X107242299Y-63126598D01*
X107078922Y-63179683D01*
X107077549Y-63180129D01*
X106965423Y-63237260D01*
X106896754Y-63250156D01*
X106832014Y-63223879D01*
X106815886Y-63208516D01*
X106807841Y-63199339D01*
X106779520Y-63150284D01*
X106667716Y-63038480D01*
X106667713Y-63038478D01*
X103973437Y-60344202D01*
X103939953Y-60282880D01*
X103943187Y-60218205D01*
X103966015Y-60147951D01*
X104000500Y-59930222D01*
X104000500Y-59709778D01*
X103966015Y-59492049D01*
X103897895Y-59282394D01*
X103897895Y-59282393D01*
X103863237Y-59214375D01*
X103797815Y-59085978D01*
X103781260Y-59063192D01*
X103668247Y-58907641D01*
X103668243Y-58907636D01*
X103512363Y-58751756D01*
X103512358Y-58751752D01*
X103372745Y-58650318D01*
X103330079Y-58594989D01*
X103324100Y-58525375D01*
X103356705Y-58463580D01*
X103372745Y-58449682D01*
X103512358Y-58348247D01*
X103512356Y-58348247D01*
X103512365Y-58348242D01*
X103668242Y-58192365D01*
X103797815Y-58014022D01*
X103831352Y-57948204D01*
X103879326Y-57897409D01*
X103941836Y-57880500D01*
X119633331Y-57880500D01*
X119633347Y-57880501D01*
X119640943Y-57880501D01*
X119799054Y-57880501D01*
X119799057Y-57880501D01*
X119951785Y-57839577D01*
X120001904Y-57810639D01*
X120088716Y-57760520D01*
X120200520Y-57648716D01*
X120200520Y-57648714D01*
X120210728Y-57638507D01*
X120210730Y-57638504D01*
X124867286Y-52981947D01*
X129500000Y-52981947D01*
X129500000Y-53218052D01*
X129536934Y-53451247D01*
X129609897Y-53675802D01*
X129717087Y-53886174D01*
X129777338Y-53969104D01*
X129777340Y-53969105D01*
X130435387Y-53311058D01*
X130440889Y-53331591D01*
X130519881Y-53468408D01*
X130631592Y-53580119D01*
X130768409Y-53659111D01*
X130788940Y-53664612D01*
X130130893Y-54322658D01*
X130213828Y-54382914D01*
X130424197Y-54490102D01*
X130648752Y-54563065D01*
X130648751Y-54563065D01*
X130881948Y-54600000D01*
X131118052Y-54600000D01*
X131351247Y-54563065D01*
X131575802Y-54490102D01*
X131786163Y-54382918D01*
X131786169Y-54382914D01*
X131869104Y-54322658D01*
X131869105Y-54322658D01*
X131211058Y-53664612D01*
X131231591Y-53659111D01*
X131368408Y-53580119D01*
X131480119Y-53468408D01*
X131559111Y-53331591D01*
X131564612Y-53311059D01*
X132222658Y-53969105D01*
X132222658Y-53969104D01*
X132282914Y-53886169D01*
X132282918Y-53886163D01*
X132390102Y-53675802D01*
X132463065Y-53451247D01*
X132500000Y-53218052D01*
X132500000Y-52981947D01*
X132463065Y-52748752D01*
X132390102Y-52524197D01*
X132282914Y-52313828D01*
X132222658Y-52230894D01*
X132222658Y-52230893D01*
X131564612Y-52888940D01*
X131559111Y-52868409D01*
X131480119Y-52731592D01*
X131368408Y-52619881D01*
X131231591Y-52540889D01*
X131211059Y-52535387D01*
X131869105Y-51877340D01*
X131869104Y-51877338D01*
X131786174Y-51817087D01*
X131575802Y-51709897D01*
X131351247Y-51636934D01*
X131351248Y-51636934D01*
X131118052Y-51600000D01*
X130881948Y-51600000D01*
X130648752Y-51636934D01*
X130424197Y-51709897D01*
X130213830Y-51817084D01*
X130130894Y-51877340D01*
X130788941Y-52535387D01*
X130768409Y-52540889D01*
X130631592Y-52619881D01*
X130519881Y-52731592D01*
X130440889Y-52868409D01*
X130435387Y-52888941D01*
X129777340Y-52230894D01*
X129717084Y-52313830D01*
X129609897Y-52524197D01*
X129536934Y-52748752D01*
X129500000Y-52981947D01*
X124867286Y-52981947D01*
X125396437Y-52452796D01*
X125457758Y-52419313D01*
X125522433Y-52422547D01*
X125648632Y-52463553D01*
X125736110Y-52477408D01*
X125881903Y-52500500D01*
X125881908Y-52500500D01*
X126118097Y-52500500D01*
X126351368Y-52463553D01*
X126384468Y-52452798D01*
X126575992Y-52390568D01*
X126786433Y-52283343D01*
X126977510Y-52144517D01*
X127144517Y-51977510D01*
X127283343Y-51786433D01*
X127390568Y-51575992D01*
X127463553Y-51351368D01*
X127463554Y-51351362D01*
X127500500Y-51118097D01*
X127500500Y-50881902D01*
X127463553Y-50648631D01*
X127403632Y-50464215D01*
X127390568Y-50424008D01*
X127390566Y-50424005D01*
X127390566Y-50424003D01*
X127334002Y-50312991D01*
X127283343Y-50213567D01*
X127144517Y-50022490D01*
X126977510Y-49855483D01*
X126786433Y-49716657D01*
X126575996Y-49609433D01*
X126351368Y-49536446D01*
X126118097Y-49499500D01*
X126118092Y-49499500D01*
X125881908Y-49499500D01*
X125881903Y-49499500D01*
X125648631Y-49536446D01*
X125424003Y-49609433D01*
X125213566Y-49716657D01*
X125139841Y-49770222D01*
X125022490Y-49855483D01*
X125022488Y-49855485D01*
X125022487Y-49855485D01*
X124855485Y-50022487D01*
X124855485Y-50022488D01*
X124855483Y-50022490D01*
X124795862Y-50104550D01*
X124716657Y-50213566D01*
X124609433Y-50424003D01*
X124536446Y-50648631D01*
X124499500Y-50881902D01*
X124499500Y-51118097D01*
X124536447Y-51351369D01*
X124536447Y-51351372D01*
X124577450Y-51477564D01*
X124579445Y-51547405D01*
X124547200Y-51603563D01*
X119507584Y-56643181D01*
X119446261Y-56676666D01*
X119419903Y-56679500D01*
X103941836Y-56679500D01*
X103874797Y-56659815D01*
X103831352Y-56611796D01*
X103797814Y-56545976D01*
X103668247Y-56367641D01*
X103668243Y-56367636D01*
X103512363Y-56211756D01*
X103512358Y-56211752D01*
X103372745Y-56110318D01*
X103330079Y-56054989D01*
X103324100Y-55985375D01*
X103356705Y-55923580D01*
X103372745Y-55909682D01*
X103512358Y-55808247D01*
X103512356Y-55808247D01*
X103512365Y-55808242D01*
X103668242Y-55652365D01*
X103797815Y-55474022D01*
X103831352Y-55408204D01*
X103841800Y-55397140D01*
X103848123Y-55383297D01*
X103865303Y-55372255D01*
X103879326Y-55357409D01*
X103895005Y-55353167D01*
X103906901Y-55345523D01*
X103941836Y-55340500D01*
X104173331Y-55340500D01*
X104173347Y-55340501D01*
X104180943Y-55340501D01*
X104339054Y-55340501D01*
X104339057Y-55340501D01*
X104491785Y-55299577D01*
X104541904Y-55270639D01*
X104628716Y-55220520D01*
X104740520Y-55108716D01*
X104740520Y-55108714D01*
X104750728Y-55098507D01*
X104750730Y-55098504D01*
X106867286Y-52981947D01*
X111500000Y-52981947D01*
X111500000Y-53218052D01*
X111536934Y-53451247D01*
X111609897Y-53675802D01*
X111717087Y-53886174D01*
X111777338Y-53969104D01*
X111777340Y-53969105D01*
X112435387Y-53311058D01*
X112440889Y-53331591D01*
X112519881Y-53468408D01*
X112631592Y-53580119D01*
X112768409Y-53659111D01*
X112788940Y-53664612D01*
X112130893Y-54322658D01*
X112213828Y-54382914D01*
X112424197Y-54490102D01*
X112648752Y-54563065D01*
X112648751Y-54563065D01*
X112881948Y-54600000D01*
X113118052Y-54600000D01*
X113351247Y-54563065D01*
X113575802Y-54490102D01*
X113786163Y-54382918D01*
X113786169Y-54382914D01*
X113869104Y-54322658D01*
X113869105Y-54322658D01*
X113211058Y-53664612D01*
X113231591Y-53659111D01*
X113368408Y-53580119D01*
X113480119Y-53468408D01*
X113559111Y-53331591D01*
X113564612Y-53311059D01*
X114222658Y-53969105D01*
X114222658Y-53969104D01*
X114282914Y-53886169D01*
X114282918Y-53886163D01*
X114390102Y-53675802D01*
X114463065Y-53451247D01*
X114500000Y-53218052D01*
X114500000Y-52981947D01*
X114463065Y-52748752D01*
X114390102Y-52524197D01*
X114282914Y-52313828D01*
X114222658Y-52230894D01*
X114222658Y-52230893D01*
X113564612Y-52888940D01*
X113559111Y-52868409D01*
X113480119Y-52731592D01*
X113368408Y-52619881D01*
X113231591Y-52540889D01*
X113211059Y-52535387D01*
X113869105Y-51877340D01*
X113869104Y-51877338D01*
X113786174Y-51817087D01*
X113575802Y-51709897D01*
X113351247Y-51636934D01*
X113351248Y-51636934D01*
X113118052Y-51600000D01*
X112881948Y-51600000D01*
X112648752Y-51636934D01*
X112424197Y-51709897D01*
X112213830Y-51817084D01*
X112130894Y-51877340D01*
X112788941Y-52535387D01*
X112768409Y-52540889D01*
X112631592Y-52619881D01*
X112519881Y-52731592D01*
X112440889Y-52868409D01*
X112435387Y-52888941D01*
X111777340Y-52230894D01*
X111717084Y-52313830D01*
X111609897Y-52524197D01*
X111536934Y-52748752D01*
X111500000Y-52981947D01*
X106867286Y-52981947D01*
X107396437Y-52452796D01*
X107457758Y-52419313D01*
X107522433Y-52422547D01*
X107648632Y-52463553D01*
X107736110Y-52477408D01*
X107881903Y-52500500D01*
X107881908Y-52500500D01*
X108118097Y-52500500D01*
X108351368Y-52463553D01*
X108384468Y-52452798D01*
X108575992Y-52390568D01*
X108786433Y-52283343D01*
X108977510Y-52144517D01*
X109144517Y-51977510D01*
X109283343Y-51786433D01*
X109390568Y-51575992D01*
X109463553Y-51351368D01*
X109463554Y-51351362D01*
X109500500Y-51118097D01*
X109500500Y-50881902D01*
X109463553Y-50648631D01*
X109403632Y-50464215D01*
X109390568Y-50424008D01*
X109390566Y-50424005D01*
X109390566Y-50424003D01*
X109334002Y-50312991D01*
X109283343Y-50213567D01*
X109144517Y-50022490D01*
X108977510Y-49855483D01*
X108786433Y-49716657D01*
X108575996Y-49609433D01*
X108351368Y-49536446D01*
X108118097Y-49499500D01*
X108118092Y-49499500D01*
X107881908Y-49499500D01*
X107881903Y-49499500D01*
X107648631Y-49536446D01*
X107424003Y-49609433D01*
X107213566Y-49716657D01*
X107139841Y-49770222D01*
X107022490Y-49855483D01*
X107022488Y-49855485D01*
X107022487Y-49855485D01*
X106855485Y-50022487D01*
X106855485Y-50022488D01*
X106855483Y-50022490D01*
X106795862Y-50104550D01*
X106716657Y-50213566D01*
X106609433Y-50424003D01*
X106536446Y-50648631D01*
X106499500Y-50881902D01*
X106499500Y-51118097D01*
X106536447Y-51351369D01*
X106536447Y-51351372D01*
X106577450Y-51477564D01*
X106579445Y-51547405D01*
X106547200Y-51603563D01*
X104047584Y-54103181D01*
X104020656Y-54117884D01*
X103994838Y-54134477D01*
X103988637Y-54135368D01*
X103986261Y-54136666D01*
X103959903Y-54139500D01*
X103941836Y-54139500D01*
X103874797Y-54119815D01*
X103831352Y-54071796D01*
X103797814Y-54005976D01*
X103668247Y-53827641D01*
X103668243Y-53827636D01*
X103508920Y-53668313D01*
X103509766Y-53667466D01*
X103474635Y-53613639D01*
X103474142Y-53543771D01*
X103511501Y-53484728D01*
X103535954Y-53467956D01*
X103575474Y-53447313D01*
X103725215Y-53325215D01*
X103847313Y-53175474D01*
X103936771Y-53004215D01*
X103989920Y-52818461D01*
X103989921Y-52818458D01*
X103999999Y-52705097D01*
X104000000Y-52705095D01*
X104000000Y-52450000D01*
X103033012Y-52450000D01*
X103065925Y-52392993D01*
X103100000Y-52265826D01*
X103100000Y-52134174D01*
X103065925Y-52007007D01*
X103033012Y-51950000D01*
X103999999Y-51950000D01*
X103999999Y-51694907D01*
X103999998Y-51694901D01*
X103989921Y-51581539D01*
X103936771Y-51395784D01*
X103847313Y-51224525D01*
X103725213Y-51074781D01*
X103665512Y-51026102D01*
X103625994Y-50968482D01*
X103623902Y-50898643D01*
X103659900Y-50838760D01*
X103665512Y-50833898D01*
X103725213Y-50785218D01*
X103847313Y-50635474D01*
X103936771Y-50464215D01*
X103989920Y-50278461D01*
X103989921Y-50278458D01*
X103999999Y-50165097D01*
X104000000Y-50165095D01*
X104000000Y-49910000D01*
X103033012Y-49910000D01*
X103065925Y-49852993D01*
X103100000Y-49725826D01*
X103100000Y-49594174D01*
X103065925Y-49467007D01*
X103033012Y-49410000D01*
X103999999Y-49410000D01*
X103999999Y-49154907D01*
X103999998Y-49154901D01*
X103989921Y-49041539D01*
X103936771Y-48855784D01*
X103847313Y-48684525D01*
X103725215Y-48534784D01*
X103575474Y-48412686D01*
X103535952Y-48392042D01*
X103485644Y-48343555D01*
X103469537Y-48275568D01*
X103492743Y-48209665D01*
X103509114Y-48191881D01*
X103508920Y-48191687D01*
X103559376Y-48141231D01*
X103668242Y-48032365D01*
X103797815Y-47854022D01*
X103897895Y-47657606D01*
X103966015Y-47447951D01*
X104000500Y-47230222D01*
X104000500Y-47113389D01*
X106399500Y-47113389D01*
X106399500Y-47286611D01*
X106403686Y-47313039D01*
X106425053Y-47447951D01*
X106426598Y-47457701D01*
X106480127Y-47622445D01*
X106558768Y-47776788D01*
X106660586Y-47916928D01*
X106783072Y-48039414D01*
X106923212Y-48141232D01*
X107077555Y-48219873D01*
X107242299Y-48273402D01*
X107413389Y-48300500D01*
X107413390Y-48300500D01*
X107586610Y-48300500D01*
X107586611Y-48300500D01*
X107757701Y-48273402D01*
X107922445Y-48219873D01*
X108076788Y-48141232D01*
X108216928Y-48039414D01*
X108339414Y-47916928D01*
X108441232Y-47776788D01*
X108519873Y-47622445D01*
X108573402Y-47457701D01*
X108600500Y-47286611D01*
X108600500Y-47113389D01*
X108593970Y-47072163D01*
X108593968Y-47072149D01*
X111049500Y-47072149D01*
X111049500Y-47327850D01*
X111065313Y-47447952D01*
X111082874Y-47581340D01*
X111123596Y-47733316D01*
X111149050Y-47828312D01*
X111149053Y-47828322D01*
X111246894Y-48064531D01*
X111246899Y-48064542D01*
X111374734Y-48285957D01*
X111374745Y-48285973D01*
X111530388Y-48488811D01*
X111530394Y-48488818D01*
X111711181Y-48669605D01*
X111711188Y-48669611D01*
X111855638Y-48780452D01*
X111914035Y-48825261D01*
X111914042Y-48825265D01*
X112135457Y-48953100D01*
X112135462Y-48953102D01*
X112135465Y-48953104D01*
X112144516Y-48956853D01*
X112348966Y-49041539D01*
X112371687Y-49050950D01*
X112618660Y-49117126D01*
X112872157Y-49150500D01*
X112872164Y-49150500D01*
X113127836Y-49150500D01*
X113127843Y-49150500D01*
X113381340Y-49117126D01*
X113628313Y-49050950D01*
X113864535Y-48953104D01*
X114085965Y-48825261D01*
X114288813Y-48669610D01*
X114469610Y-48488813D01*
X114625261Y-48285965D01*
X114753104Y-48064535D01*
X114850950Y-47828313D01*
X114917126Y-47581340D01*
X114950500Y-47327843D01*
X114950500Y-47113389D01*
X117399500Y-47113389D01*
X117399500Y-47286611D01*
X117403686Y-47313039D01*
X117425053Y-47447951D01*
X117426598Y-47457701D01*
X117480127Y-47622445D01*
X117558768Y-47776788D01*
X117660586Y-47916928D01*
X117783072Y-48039414D01*
X117923212Y-48141232D01*
X118077555Y-48219873D01*
X118242299Y-48273402D01*
X118413389Y-48300500D01*
X118413390Y-48300500D01*
X118586610Y-48300500D01*
X118586611Y-48300500D01*
X118757701Y-48273402D01*
X118922445Y-48219873D01*
X119076788Y-48141232D01*
X119216928Y-48039414D01*
X119339414Y-47916928D01*
X119441232Y-47776788D01*
X119519873Y-47622445D01*
X119573402Y-47457701D01*
X119600500Y-47286611D01*
X119600500Y-47113389D01*
X124399500Y-47113389D01*
X124399500Y-47286611D01*
X124403686Y-47313039D01*
X124425053Y-47447951D01*
X124426598Y-47457701D01*
X124480127Y-47622445D01*
X124558768Y-47776788D01*
X124660586Y-47916928D01*
X124783072Y-48039414D01*
X124923212Y-48141232D01*
X125077555Y-48219873D01*
X125242299Y-48273402D01*
X125413389Y-48300500D01*
X125413390Y-48300500D01*
X125586610Y-48300500D01*
X125586611Y-48300500D01*
X125757701Y-48273402D01*
X125922445Y-48219873D01*
X126076788Y-48141232D01*
X126216928Y-48039414D01*
X126339414Y-47916928D01*
X126441232Y-47776788D01*
X126519873Y-47622445D01*
X126573402Y-47457701D01*
X126600500Y-47286611D01*
X126600500Y-47113389D01*
X126593970Y-47072163D01*
X126593968Y-47072149D01*
X129049500Y-47072149D01*
X129049500Y-47327850D01*
X129065313Y-47447952D01*
X129082874Y-47581340D01*
X129123596Y-47733316D01*
X129149050Y-47828312D01*
X129149053Y-47828322D01*
X129246894Y-48064531D01*
X129246899Y-48064542D01*
X129374734Y-48285957D01*
X129374745Y-48285973D01*
X129530388Y-48488811D01*
X129530394Y-48488818D01*
X129711181Y-48669605D01*
X129711188Y-48669611D01*
X129855638Y-48780452D01*
X129914035Y-48825261D01*
X129914042Y-48825265D01*
X130135457Y-48953100D01*
X130135462Y-48953102D01*
X130135465Y-48953104D01*
X130144516Y-48956853D01*
X130348966Y-49041539D01*
X130371687Y-49050950D01*
X130618660Y-49117126D01*
X130872157Y-49150500D01*
X130872164Y-49150500D01*
X131127836Y-49150500D01*
X131127843Y-49150500D01*
X131381340Y-49117126D01*
X131628313Y-49050950D01*
X131864535Y-48953104D01*
X132085965Y-48825261D01*
X132288813Y-48669610D01*
X132469610Y-48488813D01*
X132625261Y-48285965D01*
X132753104Y-48064535D01*
X132850950Y-47828313D01*
X132917126Y-47581340D01*
X132950500Y-47327843D01*
X132950500Y-47113389D01*
X135399500Y-47113389D01*
X135399500Y-47286611D01*
X135403686Y-47313039D01*
X135425053Y-47447951D01*
X135426598Y-47457701D01*
X135480127Y-47622445D01*
X135558768Y-47776788D01*
X135660586Y-47916928D01*
X135783072Y-48039414D01*
X135923212Y-48141232D01*
X136077555Y-48219873D01*
X136242299Y-48273402D01*
X136413389Y-48300500D01*
X136413390Y-48300500D01*
X136586610Y-48300500D01*
X136586611Y-48300500D01*
X136757701Y-48273402D01*
X136922445Y-48219873D01*
X137076788Y-48141232D01*
X137216928Y-48039414D01*
X137339414Y-47916928D01*
X137441232Y-47776788D01*
X137519873Y-47622445D01*
X137573402Y-47457701D01*
X137600500Y-47286611D01*
X137600500Y-47113389D01*
X137573402Y-46942299D01*
X137519873Y-46777555D01*
X137441232Y-46623212D01*
X137339414Y-46483072D01*
X137216928Y-46360586D01*
X137076788Y-46258768D01*
X136922445Y-46180127D01*
X136757701Y-46126598D01*
X136757699Y-46126597D01*
X136757698Y-46126597D01*
X136626271Y-46105781D01*
X136586611Y-46099500D01*
X136413389Y-46099500D01*
X136373728Y-46105781D01*
X136242302Y-46126597D01*
X136077552Y-46180128D01*
X135923211Y-46258768D01*
X135843256Y-46316859D01*
X135783072Y-46360586D01*
X135783070Y-46360588D01*
X135783069Y-46360588D01*
X135660588Y-46483069D01*
X135660588Y-46483070D01*
X135660586Y-46483072D01*
X135640602Y-46510578D01*
X135558768Y-46623211D01*
X135480128Y-46777552D01*
X135426597Y-46942302D01*
X135403601Y-47087495D01*
X135399500Y-47113389D01*
X132950500Y-47113389D01*
X132950500Y-47072157D01*
X132917126Y-46818660D01*
X132850950Y-46571687D01*
X132820099Y-46497207D01*
X132801480Y-46452256D01*
X132753104Y-46335465D01*
X132753102Y-46335462D01*
X132753100Y-46335457D01*
X132625265Y-46114042D01*
X132625261Y-46114035D01*
X132577473Y-46051756D01*
X132469611Y-45911188D01*
X132469605Y-45911181D01*
X132288818Y-45730394D01*
X132288811Y-45730388D01*
X132085973Y-45574745D01*
X132085971Y-45574743D01*
X132085965Y-45574739D01*
X132085960Y-45574736D01*
X132085957Y-45574734D01*
X131864542Y-45446899D01*
X131864531Y-45446894D01*
X131628322Y-45349053D01*
X131628315Y-45349051D01*
X131628313Y-45349050D01*
X131381340Y-45282874D01*
X131325007Y-45275457D01*
X131127850Y-45249500D01*
X131127843Y-45249500D01*
X130872157Y-45249500D01*
X130872149Y-45249500D01*
X130646826Y-45279165D01*
X130618660Y-45282874D01*
X130502414Y-45314022D01*
X130371687Y-45349050D01*
X130371677Y-45349053D01*
X130135468Y-45446894D01*
X130135457Y-45446899D01*
X129914042Y-45574734D01*
X129914026Y-45574745D01*
X129711188Y-45730388D01*
X129711181Y-45730394D01*
X129530394Y-45911181D01*
X129530388Y-45911188D01*
X129374745Y-46114026D01*
X129374734Y-46114042D01*
X129246899Y-46335457D01*
X129246894Y-46335468D01*
X129149053Y-46571677D01*
X129149050Y-46571687D01*
X129084393Y-46812993D01*
X129082874Y-46818661D01*
X129049500Y-47072149D01*
X126593968Y-47072149D01*
X126589405Y-47043343D01*
X126573402Y-46942299D01*
X126519873Y-46777555D01*
X126441232Y-46623212D01*
X126339414Y-46483072D01*
X126216928Y-46360586D01*
X126076788Y-46258768D01*
X125922445Y-46180127D01*
X125757701Y-46126598D01*
X125757699Y-46126597D01*
X125757698Y-46126597D01*
X125626271Y-46105781D01*
X125586611Y-46099500D01*
X125413389Y-46099500D01*
X125373728Y-46105781D01*
X125242302Y-46126597D01*
X125077552Y-46180128D01*
X124923211Y-46258768D01*
X124843256Y-46316859D01*
X124783072Y-46360586D01*
X124783070Y-46360588D01*
X124783069Y-46360588D01*
X124660588Y-46483069D01*
X124660588Y-46483070D01*
X124660586Y-46483072D01*
X124640602Y-46510578D01*
X124558768Y-46623211D01*
X124480128Y-46777552D01*
X124426597Y-46942302D01*
X124403601Y-47087495D01*
X124399500Y-47113389D01*
X119600500Y-47113389D01*
X119573402Y-46942299D01*
X119519873Y-46777555D01*
X119441232Y-46623212D01*
X119339414Y-46483072D01*
X119216928Y-46360586D01*
X119076788Y-46258768D01*
X118922445Y-46180127D01*
X118757701Y-46126598D01*
X118757699Y-46126597D01*
X118757698Y-46126597D01*
X118626271Y-46105781D01*
X118586611Y-46099500D01*
X118413389Y-46099500D01*
X118373728Y-46105781D01*
X118242302Y-46126597D01*
X118077552Y-46180128D01*
X117923211Y-46258768D01*
X117843256Y-46316859D01*
X117783072Y-46360586D01*
X117783070Y-46360588D01*
X117783069Y-46360588D01*
X117660588Y-46483069D01*
X117660588Y-46483070D01*
X117660586Y-46483072D01*
X117640602Y-46510578D01*
X117558768Y-46623211D01*
X117480128Y-46777552D01*
X117426597Y-46942302D01*
X117403601Y-47087495D01*
X117399500Y-47113389D01*
X114950500Y-47113389D01*
X114950500Y-47072157D01*
X114917126Y-46818660D01*
X114850950Y-46571687D01*
X114820099Y-46497207D01*
X114801480Y-46452256D01*
X114753104Y-46335465D01*
X114753102Y-46335462D01*
X114753100Y-46335457D01*
X114625265Y-46114042D01*
X114625261Y-46114035D01*
X114577473Y-46051756D01*
X114469611Y-45911188D01*
X114469605Y-45911181D01*
X114288818Y-45730394D01*
X114288811Y-45730388D01*
X114085973Y-45574745D01*
X114085971Y-45574743D01*
X114085965Y-45574739D01*
X114085960Y-45574736D01*
X114085957Y-45574734D01*
X113864542Y-45446899D01*
X113864531Y-45446894D01*
X113628322Y-45349053D01*
X113628315Y-45349051D01*
X113628313Y-45349050D01*
X113381340Y-45282874D01*
X113325007Y-45275457D01*
X113127850Y-45249500D01*
X113127843Y-45249500D01*
X112872157Y-45249500D01*
X112872149Y-45249500D01*
X112646826Y-45279165D01*
X112618660Y-45282874D01*
X112502414Y-45314022D01*
X112371687Y-45349050D01*
X112371677Y-45349053D01*
X112135468Y-45446894D01*
X112135457Y-45446899D01*
X111914042Y-45574734D01*
X111914026Y-45574745D01*
X111711188Y-45730388D01*
X111711181Y-45730394D01*
X111530394Y-45911181D01*
X111530388Y-45911188D01*
X111374745Y-46114026D01*
X111374734Y-46114042D01*
X111246899Y-46335457D01*
X111246894Y-46335468D01*
X111149053Y-46571677D01*
X111149050Y-46571687D01*
X111084393Y-46812993D01*
X111082874Y-46818661D01*
X111049500Y-47072149D01*
X108593968Y-47072149D01*
X108589405Y-47043343D01*
X108573402Y-46942299D01*
X108519873Y-46777555D01*
X108441232Y-46623212D01*
X108339414Y-46483072D01*
X108216928Y-46360586D01*
X108076788Y-46258768D01*
X107922445Y-46180127D01*
X107757701Y-46126598D01*
X107757699Y-46126597D01*
X107757698Y-46126597D01*
X107626271Y-46105781D01*
X107586611Y-46099500D01*
X107413389Y-46099500D01*
X107373728Y-46105781D01*
X107242302Y-46126597D01*
X107077552Y-46180128D01*
X106923211Y-46258768D01*
X106843256Y-46316859D01*
X106783072Y-46360586D01*
X106783070Y-46360588D01*
X106783069Y-46360588D01*
X106660588Y-46483069D01*
X106660588Y-46483070D01*
X106660586Y-46483072D01*
X106640602Y-46510578D01*
X106558768Y-46623211D01*
X106480128Y-46777552D01*
X106426597Y-46942302D01*
X106403601Y-47087495D01*
X106399500Y-47113389D01*
X104000500Y-47113389D01*
X104000500Y-47009778D01*
X103966015Y-46792049D01*
X103921185Y-46654075D01*
X103897896Y-46582396D01*
X103897895Y-46582393D01*
X103861303Y-46510578D01*
X103797815Y-46385978D01*
X103761110Y-46335457D01*
X103668247Y-46207641D01*
X103668243Y-46207636D01*
X103512363Y-46051756D01*
X103512358Y-46051752D01*
X103372745Y-45950318D01*
X103330079Y-45894989D01*
X103324100Y-45825375D01*
X103356705Y-45763580D01*
X103372745Y-45749682D01*
X103512358Y-45648247D01*
X103512356Y-45648247D01*
X103512365Y-45648242D01*
X103668242Y-45492365D01*
X103797815Y-45314022D01*
X103897895Y-45117606D01*
X103966015Y-44907951D01*
X104000500Y-44690222D01*
X104000500Y-44469778D01*
X103966015Y-44252049D01*
X103931955Y-44147221D01*
X103897896Y-44042396D01*
X103897895Y-44042393D01*
X103831351Y-43911796D01*
X103797815Y-43845978D01*
X103781260Y-43823192D01*
X103668247Y-43667641D01*
X103668243Y-43667636D01*
X103508920Y-43508313D01*
X103509766Y-43507466D01*
X103474635Y-43453639D01*
X103474142Y-43383771D01*
X103511501Y-43324728D01*
X103535954Y-43307956D01*
X103575474Y-43287313D01*
X103725215Y-43165215D01*
X103847313Y-43015474D01*
X103936771Y-42844215D01*
X103989920Y-42658461D01*
X103989921Y-42658458D01*
X103999999Y-42545097D01*
X104000000Y-42545095D01*
X104000000Y-42290000D01*
X103033012Y-42290000D01*
X103065925Y-42232993D01*
X103100000Y-42105826D01*
X103100000Y-41974174D01*
X103065925Y-41847007D01*
X103033012Y-41790000D01*
X103999999Y-41790000D01*
X103999999Y-41534907D01*
X103999998Y-41534901D01*
X103989921Y-41421539D01*
X103936771Y-41235784D01*
X103847313Y-41064525D01*
X103725215Y-40914784D01*
X103575474Y-40792686D01*
X103404215Y-40703228D01*
X103218461Y-40650079D01*
X103218458Y-40650078D01*
X103105097Y-40640000D01*
X102850000Y-40640000D01*
X102850000Y-41606988D01*
X102792993Y-41574075D01*
X102665826Y-41540000D01*
X102534174Y-41540000D01*
X102407007Y-41574075D01*
X102350000Y-41606988D01*
X102350000Y-40640000D01*
X102094907Y-40640000D01*
X102094901Y-40640001D01*
X101981539Y-40650078D01*
X101795784Y-40703228D01*
X101624525Y-40792686D01*
X101474784Y-40914784D01*
X101352686Y-41064525D01*
X101263228Y-41235784D01*
X101210079Y-41421538D01*
X101210078Y-41421541D01*
X101200000Y-41534902D01*
X101200000Y-41790000D01*
X102166988Y-41790000D01*
X102134075Y-41847007D01*
X102100000Y-41974174D01*
X102100000Y-42105826D01*
X102134075Y-42232993D01*
X102166988Y-42290000D01*
X101200001Y-42290000D01*
X101200001Y-42545098D01*
X101210078Y-42658460D01*
X101263228Y-42844215D01*
X101352686Y-43015474D01*
X101474784Y-43165215D01*
X101624526Y-43287313D01*
X101624527Y-43287314D01*
X101664046Y-43307957D01*
X101714354Y-43356443D01*
X101730462Y-43424430D01*
X101707256Y-43490334D01*
X101690886Y-43508119D01*
X101691080Y-43508313D01*
X101531756Y-43667636D01*
X101531752Y-43667641D01*
X101402185Y-43845976D01*
X101368648Y-43911796D01*
X101320674Y-43962591D01*
X101258164Y-43979500D01*
X94640388Y-43979500D01*
X94599467Y-43990464D01*
X94599467Y-43990465D01*
X94562199Y-44000451D01*
X94487662Y-44020423D01*
X94487657Y-44020426D01*
X94350738Y-44099475D01*
X94350730Y-44099481D01*
X94238928Y-44211284D01*
X94238926Y-44211286D01*
X93759991Y-44690222D01*
X93306032Y-45144181D01*
X93244709Y-45177666D01*
X93218351Y-45180500D01*
X88808131Y-45180500D01*
X88741092Y-45160815D01*
X88695337Y-45108011D01*
X88685393Y-45038853D01*
X88690200Y-45018183D01*
X88726014Y-44907954D01*
X88726013Y-44907954D01*
X88726015Y-44907951D01*
X88760500Y-44690222D01*
X88760500Y-41929778D01*
X88726015Y-41712049D01*
X88726014Y-41712045D01*
X88680014Y-41570467D01*
X88657896Y-41502396D01*
X88657895Y-41502393D01*
X88605977Y-41400500D01*
X88557815Y-41305978D01*
X88541260Y-41283192D01*
X88428247Y-41127641D01*
X88428243Y-41127636D01*
X88272363Y-40971756D01*
X88272358Y-40971752D01*
X88094025Y-40842187D01*
X88094024Y-40842186D01*
X88094022Y-40842185D01*
X87996876Y-40792686D01*
X87897606Y-40742104D01*
X87897603Y-40742103D01*
X87687952Y-40673985D01*
X87537015Y-40650079D01*
X87470222Y-40639500D01*
X87249778Y-40639500D01*
X87182991Y-40650078D01*
X87032047Y-40673985D01*
X86822396Y-40742103D01*
X86822393Y-40742104D01*
X86625974Y-40842187D01*
X86447641Y-40971752D01*
X86447636Y-40971756D01*
X86291756Y-41127636D01*
X86291752Y-41127641D01*
X86162187Y-41305974D01*
X86062104Y-41502393D01*
X86062103Y-41502396D01*
X85993985Y-41712047D01*
X85959500Y-41929778D01*
X85959500Y-44690221D01*
X85993985Y-44907954D01*
X86029800Y-45018183D01*
X86030603Y-45046301D01*
X86034607Y-45074147D01*
X86031587Y-45080758D01*
X86031795Y-45088024D01*
X86017268Y-45112112D01*
X86005582Y-45137703D01*
X85999466Y-45141633D01*
X85995714Y-45147856D01*
X85970471Y-45160266D01*
X85946804Y-45175477D01*
X85936531Y-45176953D01*
X85933013Y-45178684D01*
X85911869Y-45180500D01*
X85704140Y-45180500D01*
X85704124Y-45180499D01*
X85696528Y-45180499D01*
X85538413Y-45180499D01*
X85464946Y-45200185D01*
X85385684Y-45221423D01*
X85385679Y-45221426D01*
X85248760Y-45300475D01*
X85248752Y-45300481D01*
X83724707Y-46824525D01*
X83663384Y-46858010D01*
X83593692Y-46853026D01*
X83537759Y-46811154D01*
X83522502Y-46781729D01*
X83521734Y-46782048D01*
X83519873Y-46777556D01*
X83519873Y-46777555D01*
X83441232Y-46623212D01*
X83339414Y-46483072D01*
X83216928Y-46360586D01*
X83076788Y-46258768D01*
X82922445Y-46180127D01*
X82757701Y-46126598D01*
X82757699Y-46126597D01*
X82757698Y-46126597D01*
X82626271Y-46105781D01*
X82586611Y-46099500D01*
X82413389Y-46099500D01*
X82373728Y-46105781D01*
X82242302Y-46126597D01*
X82077552Y-46180128D01*
X81923211Y-46258768D01*
X81843256Y-46316859D01*
X81783072Y-46360586D01*
X81783070Y-46360588D01*
X81783069Y-46360588D01*
X81660588Y-46483069D01*
X81660588Y-46483070D01*
X81660586Y-46483072D01*
X81640602Y-46510578D01*
X81558768Y-46623211D01*
X81480128Y-46777552D01*
X81426597Y-46942302D01*
X81403601Y-47087495D01*
X81399500Y-47113389D01*
X81399500Y-47286611D01*
X81403686Y-47313039D01*
X81425053Y-47447951D01*
X81426598Y-47457701D01*
X81480127Y-47622445D01*
X81558768Y-47776788D01*
X81660586Y-47916928D01*
X81783072Y-48039414D01*
X81923212Y-48141232D01*
X82077555Y-48219873D01*
X82077559Y-48219874D01*
X82082048Y-48221734D01*
X82081378Y-48223351D01*
X82132824Y-48258514D01*
X82160034Y-48322868D01*
X82148133Y-48391716D01*
X82124526Y-48424707D01*
X81487054Y-49062181D01*
X81425731Y-49095666D01*
X81399373Y-49098500D01*
X78075476Y-49098500D01*
X78008437Y-49078815D01*
X77962682Y-49026011D01*
X77952738Y-48956853D01*
X77981763Y-48893297D01*
X78013475Y-48867113D01*
X78085965Y-48825261D01*
X78288813Y-48669610D01*
X78469610Y-48488813D01*
X78625261Y-48285965D01*
X78753104Y-48064535D01*
X78850950Y-47828313D01*
X78917126Y-47581340D01*
X78950500Y-47327843D01*
X78950500Y-47072157D01*
X78917126Y-46818660D01*
X78850950Y-46571687D01*
X78820099Y-46497207D01*
X78801480Y-46452256D01*
X78753104Y-46335465D01*
X78753102Y-46335462D01*
X78753100Y-46335457D01*
X78625265Y-46114042D01*
X78625261Y-46114035D01*
X78577473Y-46051756D01*
X78469611Y-45911188D01*
X78469605Y-45911181D01*
X78288818Y-45730394D01*
X78288811Y-45730388D01*
X78085973Y-45574745D01*
X78085971Y-45574743D01*
X78085965Y-45574739D01*
X78085960Y-45574736D01*
X78085957Y-45574734D01*
X77864542Y-45446899D01*
X77864531Y-45446894D01*
X77628322Y-45349053D01*
X77628315Y-45349051D01*
X77628313Y-45349050D01*
X77381340Y-45282874D01*
X77325007Y-45275457D01*
X77127850Y-45249500D01*
X77127843Y-45249500D01*
X76872157Y-45249500D01*
X76872149Y-45249500D01*
X76646826Y-45279165D01*
X76618660Y-45282874D01*
X76502414Y-45314022D01*
X76371687Y-45349050D01*
X76371677Y-45349053D01*
X76135468Y-45446894D01*
X76135457Y-45446899D01*
X75914042Y-45574734D01*
X75914026Y-45574745D01*
X75711188Y-45730388D01*
X75711181Y-45730394D01*
X75530394Y-45911181D01*
X75530388Y-45911188D01*
X75374745Y-46114026D01*
X75374734Y-46114042D01*
X75246899Y-46335457D01*
X75246894Y-46335468D01*
X75149053Y-46571677D01*
X75149050Y-46571687D01*
X75084393Y-46812993D01*
X75082874Y-46818661D01*
X75049500Y-47072149D01*
X75049500Y-47327850D01*
X75065313Y-47447952D01*
X75082874Y-47581340D01*
X75123596Y-47733316D01*
X75149050Y-47828312D01*
X75149053Y-47828322D01*
X75246894Y-48064531D01*
X75246899Y-48064542D01*
X75374734Y-48285957D01*
X75374745Y-48285973D01*
X75530388Y-48488811D01*
X75530394Y-48488818D01*
X75711181Y-48669605D01*
X75711188Y-48669611D01*
X75855638Y-48780452D01*
X75914035Y-48825261D01*
X75986525Y-48867113D01*
X76034740Y-48917680D01*
X76047962Y-48986288D01*
X76021994Y-49051152D01*
X75965080Y-49091680D01*
X75924524Y-49098500D01*
X60075476Y-49098500D01*
X60008437Y-49078815D01*
X59962682Y-49026011D01*
X59952738Y-48956853D01*
X59981763Y-48893297D01*
X60013475Y-48867113D01*
X60085965Y-48825261D01*
X60288813Y-48669610D01*
X60469610Y-48488813D01*
X60625261Y-48285965D01*
X60753104Y-48064535D01*
X60850950Y-47828313D01*
X60917126Y-47581340D01*
X60950500Y-47327843D01*
X60950500Y-47113389D01*
X63399500Y-47113389D01*
X63399500Y-47286611D01*
X63403686Y-47313039D01*
X63425053Y-47447951D01*
X63426598Y-47457701D01*
X63480127Y-47622445D01*
X63558768Y-47776788D01*
X63660586Y-47916928D01*
X63783072Y-48039414D01*
X63923212Y-48141232D01*
X64077555Y-48219873D01*
X64242299Y-48273402D01*
X64413389Y-48300500D01*
X64413390Y-48300500D01*
X64586610Y-48300500D01*
X64586611Y-48300500D01*
X64757701Y-48273402D01*
X64922445Y-48219873D01*
X65076788Y-48141232D01*
X65216928Y-48039414D01*
X65339414Y-47916928D01*
X65441232Y-47776788D01*
X65519873Y-47622445D01*
X65573402Y-47457701D01*
X65600500Y-47286611D01*
X65600500Y-47113389D01*
X70399500Y-47113389D01*
X70399500Y-47286611D01*
X70403686Y-47313039D01*
X70425053Y-47447951D01*
X70426598Y-47457701D01*
X70480127Y-47622445D01*
X70558768Y-47776788D01*
X70660586Y-47916928D01*
X70783072Y-48039414D01*
X70923212Y-48141232D01*
X71077555Y-48219873D01*
X71242299Y-48273402D01*
X71413389Y-48300500D01*
X71413390Y-48300500D01*
X71586610Y-48300500D01*
X71586611Y-48300500D01*
X71757701Y-48273402D01*
X71922445Y-48219873D01*
X72076788Y-48141232D01*
X72216928Y-48039414D01*
X72339414Y-47916928D01*
X72441232Y-47776788D01*
X72519873Y-47622445D01*
X72573402Y-47457701D01*
X72600500Y-47286611D01*
X72600500Y-47113389D01*
X72573402Y-46942299D01*
X72519873Y-46777555D01*
X72441232Y-46623212D01*
X72339414Y-46483072D01*
X72216928Y-46360586D01*
X72076788Y-46258768D01*
X71922445Y-46180127D01*
X71757701Y-46126598D01*
X71757699Y-46126597D01*
X71757698Y-46126597D01*
X71626271Y-46105781D01*
X71586611Y-46099500D01*
X71413389Y-46099500D01*
X71373728Y-46105781D01*
X71242302Y-46126597D01*
X71077552Y-46180128D01*
X70923211Y-46258768D01*
X70843256Y-46316859D01*
X70783072Y-46360586D01*
X70783070Y-46360588D01*
X70783069Y-46360588D01*
X70660588Y-46483069D01*
X70660588Y-46483070D01*
X70660586Y-46483072D01*
X70640602Y-46510578D01*
X70558768Y-46623211D01*
X70480128Y-46777552D01*
X70426597Y-46942302D01*
X70403601Y-47087495D01*
X70399500Y-47113389D01*
X65600500Y-47113389D01*
X65573402Y-46942299D01*
X65519873Y-46777555D01*
X65441232Y-46623212D01*
X65339414Y-46483072D01*
X65216928Y-46360586D01*
X65076788Y-46258768D01*
X64922445Y-46180127D01*
X64757701Y-46126598D01*
X64757699Y-46126597D01*
X64757698Y-46126597D01*
X64626271Y-46105781D01*
X64586611Y-46099500D01*
X64413389Y-46099500D01*
X64373728Y-46105781D01*
X64242302Y-46126597D01*
X64077552Y-46180128D01*
X63923211Y-46258768D01*
X63843256Y-46316859D01*
X63783072Y-46360586D01*
X63783070Y-46360588D01*
X63783069Y-46360588D01*
X63660588Y-46483069D01*
X63660588Y-46483070D01*
X63660586Y-46483072D01*
X63640602Y-46510578D01*
X63558768Y-46623211D01*
X63480128Y-46777552D01*
X63426597Y-46942302D01*
X63403601Y-47087495D01*
X63399500Y-47113389D01*
X60950500Y-47113389D01*
X60950500Y-47072157D01*
X60917126Y-46818660D01*
X60850950Y-46571687D01*
X60820099Y-46497207D01*
X60801480Y-46452256D01*
X60753104Y-46335465D01*
X60753102Y-46335462D01*
X60753100Y-46335457D01*
X60625265Y-46114042D01*
X60625261Y-46114035D01*
X60577473Y-46051756D01*
X60469611Y-45911188D01*
X60469605Y-45911181D01*
X60288818Y-45730394D01*
X60288811Y-45730388D01*
X60085973Y-45574745D01*
X60085971Y-45574743D01*
X60085965Y-45574739D01*
X60085960Y-45574736D01*
X60085957Y-45574734D01*
X59864542Y-45446899D01*
X59864531Y-45446894D01*
X59628322Y-45349053D01*
X59628315Y-45349051D01*
X59628313Y-45349050D01*
X59381340Y-45282874D01*
X59325007Y-45275457D01*
X59127850Y-45249500D01*
X59127843Y-45249500D01*
X58872157Y-45249500D01*
X58872149Y-45249500D01*
X58646826Y-45279165D01*
X58618660Y-45282874D01*
X58502414Y-45314022D01*
X58371687Y-45349050D01*
X58371677Y-45349053D01*
X58135468Y-45446894D01*
X58135457Y-45446899D01*
X57914042Y-45574734D01*
X57914026Y-45574745D01*
X57711188Y-45730388D01*
X57711181Y-45730394D01*
X57530394Y-45911181D01*
X57530388Y-45911188D01*
X57374745Y-46114026D01*
X57374734Y-46114042D01*
X57246899Y-46335457D01*
X57246894Y-46335468D01*
X57149053Y-46571677D01*
X57149050Y-46571687D01*
X57084393Y-46812993D01*
X57082874Y-46818661D01*
X57049500Y-47072149D01*
X57049500Y-47327850D01*
X57065313Y-47447952D01*
X57082874Y-47581340D01*
X57123596Y-47733316D01*
X57149050Y-47828312D01*
X57149053Y-47828322D01*
X57246894Y-48064531D01*
X57246899Y-48064542D01*
X57374734Y-48285957D01*
X57374745Y-48285973D01*
X57530388Y-48488811D01*
X57530394Y-48488818D01*
X57711181Y-48669605D01*
X57711188Y-48669611D01*
X57855638Y-48780452D01*
X57914035Y-48825261D01*
X57986525Y-48867113D01*
X58034740Y-48917680D01*
X58047962Y-48986288D01*
X58021994Y-49051152D01*
X57965080Y-49091680D01*
X57924524Y-49098500D01*
X55387669Y-49098500D01*
X55387653Y-49098499D01*
X55380057Y-49098499D01*
X55221943Y-49098499D01*
X55114587Y-49127265D01*
X55069210Y-49139424D01*
X55069209Y-49139425D01*
X55019096Y-49168359D01*
X55019095Y-49168360D01*
X54975689Y-49193420D01*
X54932285Y-49218479D01*
X54932282Y-49218481D01*
X54820478Y-49330286D01*
X54603563Y-49547200D01*
X54542240Y-49580685D01*
X54477564Y-49577450D01*
X54351370Y-49536447D01*
X54118097Y-49499500D01*
X54118092Y-49499500D01*
X53881908Y-49499500D01*
X53881903Y-49499500D01*
X53648631Y-49536446D01*
X53424003Y-49609433D01*
X53213566Y-49716657D01*
X53139841Y-49770222D01*
X53022490Y-49855483D01*
X53022488Y-49855485D01*
X53022487Y-49855485D01*
X52855485Y-50022487D01*
X52855485Y-50022488D01*
X52855483Y-50022490D01*
X52795862Y-50104550D01*
X52716657Y-50213566D01*
X52609433Y-50424003D01*
X52536446Y-50648631D01*
X52499500Y-50881902D01*
X50200500Y-50881902D01*
X50200500Y-47113389D01*
X52399500Y-47113389D01*
X52399500Y-47286611D01*
X52403686Y-47313039D01*
X52425053Y-47447951D01*
X52426598Y-47457701D01*
X52480127Y-47622445D01*
X52558768Y-47776788D01*
X52660586Y-47916928D01*
X52783072Y-48039414D01*
X52923212Y-48141232D01*
X53077555Y-48219873D01*
X53242299Y-48273402D01*
X53413389Y-48300500D01*
X53413390Y-48300500D01*
X53586610Y-48300500D01*
X53586611Y-48300500D01*
X53757701Y-48273402D01*
X53922445Y-48219873D01*
X54076788Y-48141232D01*
X54216928Y-48039414D01*
X54339414Y-47916928D01*
X54441232Y-47776788D01*
X54519873Y-47622445D01*
X54573402Y-47457701D01*
X54600500Y-47286611D01*
X54600500Y-47113389D01*
X54573402Y-46942299D01*
X54519873Y-46777555D01*
X54441232Y-46623212D01*
X54339414Y-46483072D01*
X54216928Y-46360586D01*
X54076788Y-46258768D01*
X53922445Y-46180127D01*
X53757701Y-46126598D01*
X53757699Y-46126597D01*
X53757698Y-46126597D01*
X53626271Y-46105781D01*
X53586611Y-46099500D01*
X53413389Y-46099500D01*
X53373728Y-46105781D01*
X53242302Y-46126597D01*
X53077552Y-46180128D01*
X52923211Y-46258768D01*
X52843256Y-46316859D01*
X52783072Y-46360586D01*
X52783070Y-46360588D01*
X52783069Y-46360588D01*
X52660588Y-46483069D01*
X52660588Y-46483070D01*
X52660586Y-46483072D01*
X52640602Y-46510578D01*
X52558768Y-46623211D01*
X52480128Y-46777552D01*
X52426597Y-46942302D01*
X52403601Y-47087495D01*
X52399500Y-47113389D01*
X50200500Y-47113389D01*
X50200500Y-40768995D01*
X77099499Y-40768995D01*
X77126418Y-40904322D01*
X77126421Y-40904332D01*
X77179221Y-41031804D01*
X77179228Y-41031817D01*
X77255885Y-41146541D01*
X77255888Y-41146545D01*
X77353454Y-41244111D01*
X77353458Y-41244114D01*
X77468182Y-41320771D01*
X77468195Y-41320778D01*
X77595667Y-41373578D01*
X77595672Y-41373580D01*
X77595676Y-41373580D01*
X77595677Y-41373581D01*
X77731004Y-41400500D01*
X77731007Y-41400500D01*
X77868995Y-41400500D01*
X77960041Y-41382389D01*
X78004328Y-41373580D01*
X78131811Y-41320775D01*
X78246542Y-41244114D01*
X78344114Y-41146542D01*
X78420775Y-41031811D01*
X78473580Y-40904328D01*
X78500500Y-40768995D01*
X80099499Y-40768995D01*
X80126418Y-40904322D01*
X80126421Y-40904332D01*
X80179221Y-41031804D01*
X80179228Y-41031817D01*
X80255885Y-41146541D01*
X80255888Y-41146545D01*
X80353454Y-41244111D01*
X80353458Y-41244114D01*
X80468182Y-41320771D01*
X80468195Y-41320778D01*
X80595667Y-41373578D01*
X80595672Y-41373580D01*
X80595676Y-41373580D01*
X80595677Y-41373581D01*
X80731004Y-41400500D01*
X80731007Y-41400500D01*
X80868995Y-41400500D01*
X80960041Y-41382389D01*
X81004328Y-41373580D01*
X81131811Y-41320775D01*
X81246542Y-41244114D01*
X81344114Y-41146542D01*
X81420775Y-41031811D01*
X81473580Y-40904328D01*
X81500500Y-40768993D01*
X81500500Y-40631007D01*
X81500500Y-40631004D01*
X81473581Y-40495677D01*
X81473580Y-40495676D01*
X81473580Y-40495672D01*
X81473578Y-40495667D01*
X81420778Y-40368195D01*
X81420771Y-40368182D01*
X81344114Y-40253458D01*
X81344111Y-40253454D01*
X81246545Y-40155888D01*
X81246541Y-40155885D01*
X81131817Y-40079228D01*
X81131804Y-40079221D01*
X81004332Y-40026421D01*
X81004322Y-40026418D01*
X80868995Y-39999500D01*
X80868993Y-39999500D01*
X80731007Y-39999500D01*
X80731005Y-39999500D01*
X80595677Y-40026418D01*
X80595667Y-40026421D01*
X80468195Y-40079221D01*
X80468182Y-40079228D01*
X80353458Y-40155885D01*
X80353454Y-40155888D01*
X80255888Y-40253454D01*
X80255885Y-40253458D01*
X80179228Y-40368182D01*
X80179221Y-40368195D01*
X80126421Y-40495667D01*
X80126418Y-40495677D01*
X80099500Y-40631004D01*
X80099500Y-40631007D01*
X80099500Y-40768993D01*
X80099500Y-40768995D01*
X80099499Y-40768995D01*
X78500500Y-40768995D01*
X78500500Y-40768993D01*
X78500500Y-40631007D01*
X78500500Y-40631004D01*
X78473581Y-40495677D01*
X78473580Y-40495676D01*
X78473580Y-40495672D01*
X78473578Y-40495667D01*
X78420778Y-40368195D01*
X78420771Y-40368182D01*
X78344114Y-40253458D01*
X78344111Y-40253454D01*
X78246545Y-40155888D01*
X78246541Y-40155885D01*
X78131817Y-40079228D01*
X78131804Y-40079221D01*
X78004332Y-40026421D01*
X78004322Y-40026418D01*
X77868995Y-39999500D01*
X77868993Y-39999500D01*
X77731007Y-39999500D01*
X77731005Y-39999500D01*
X77595677Y-40026418D01*
X77595667Y-40026421D01*
X77468195Y-40079221D01*
X77468182Y-40079228D01*
X77353458Y-40155885D01*
X77353454Y-40155888D01*
X77255888Y-40253454D01*
X77255885Y-40253458D01*
X77179228Y-40368182D01*
X77179221Y-40368195D01*
X77126421Y-40495667D01*
X77126418Y-40495677D01*
X77099500Y-40631004D01*
X77099500Y-40631007D01*
X77099500Y-40768993D01*
X77099500Y-40768995D01*
X77099499Y-40768995D01*
X50200500Y-40768995D01*
X50200500Y-39024500D01*
X50220185Y-38957461D01*
X50272989Y-38911706D01*
X50324500Y-38900500D01*
X139675500Y-38900500D01*
X139742539Y-38920185D01*
G37*
%TD.AperFunction*%
%TD*%
M02*
