%TF.GenerationSoftware,KiCad,Pcbnew,9.0.1*%
%TF.CreationDate,2025-08-18T19:39:49-06:00*%
%TF.ProjectId,aurora40_kicad,6175726f-7261-4343-905f-6b696361642e,1*%
%TF.SameCoordinates,Original*%
%TF.FileFunction,Drillmap*%
%TF.FilePolarity,Positive*%
%FSLAX45Y45*%
G04 Gerber Fmt 4.5, Leading zero omitted, Abs format (unit mm)*
G04 Created by KiCad (PCBNEW 9.0.1) date 2025-08-18 19:39:49*
%MOMM*%
%LPD*%
G01*
G04 APERTURE LIST*
%ADD10C,0.050000*%
%ADD11C,0.200000*%
%ADD12C,0.100000*%
%ADD13C,0.120000*%
G04 APERTURE END LIST*
D10*
X5000000Y-3870000D02*
X14000000Y-3870000D01*
X14000000Y-10670000D01*
X5000000Y-10670000D01*
X5000000Y-3870000D01*
D11*
D12*
X8485000Y-4955000D02*
X8515000Y-4985000D01*
X8515000Y-4955000D02*
X8485000Y-4985000D01*
X9785000Y-6455000D02*
X9815000Y-6485000D01*
X9815000Y-6455000D02*
X9785000Y-6485000D01*
X8692500Y-7620000D02*
G75*
G02*
X8617500Y-7620000I-37500J0D01*
G01*
X8617500Y-7620000D02*
G75*
G02*
X8692500Y-7620000I37500J0D01*
G01*
X8692500Y-7820000D02*
G75*
G02*
X8617500Y-7820000I-37500J0D01*
G01*
X8617500Y-7820000D02*
G75*
G02*
X8692500Y-7820000I37500J0D01*
G01*
X8736000Y-4154000D02*
X8736000Y-4254000D01*
X8686000Y-4204000D02*
X8786000Y-4204000D01*
X8736000Y-4408000D02*
X8736000Y-4508000D01*
X8686000Y-4458000D02*
X8786000Y-4458000D01*
X8736000Y-4662000D02*
X8736000Y-4762000D01*
X8686000Y-4712000D02*
X8786000Y-4712000D01*
X8736000Y-4916000D02*
X8736000Y-5016000D01*
X8686000Y-4966000D02*
X8786000Y-4966000D01*
X8736000Y-5170000D02*
X8736000Y-5270000D01*
X8686000Y-5220000D02*
X8786000Y-5220000D01*
X8736000Y-5424000D02*
X8736000Y-5524000D01*
X8686000Y-5474000D02*
X8786000Y-5474000D01*
X8736000Y-5678000D02*
X8736000Y-5778000D01*
X8686000Y-5728000D02*
X8786000Y-5728000D01*
X8736000Y-5932000D02*
X8736000Y-6032000D01*
X8686000Y-5982000D02*
X8786000Y-5982000D01*
X8736000Y-6186000D02*
X8736000Y-6286000D01*
X8686000Y-6236000D02*
X8786000Y-6236000D01*
X8736000Y-6440000D02*
X8736000Y-6540000D01*
X8686000Y-6490000D02*
X8786000Y-6490000D01*
X8736000Y-6694000D02*
X8736000Y-6794000D01*
X8686000Y-6744000D02*
X8786000Y-6744000D01*
X8736000Y-6948000D02*
X8736000Y-7048000D01*
X8686000Y-6998000D02*
X8786000Y-6998000D01*
X8736000Y-7202000D02*
X8736000Y-7302000D01*
X8686000Y-7252000D02*
X8786000Y-7252000D01*
X9498000Y-6694000D02*
X9498000Y-6794000D01*
X9448000Y-6744000D02*
X9548000Y-6744000D01*
X9752000Y-6694000D02*
X9752000Y-6794000D01*
X9702000Y-6744000D02*
X9802000Y-6744000D01*
X10006000Y-6694000D02*
X10006000Y-6794000D01*
X9956000Y-6744000D02*
X10056000Y-6744000D01*
X10260000Y-4154000D02*
X10260000Y-4254000D01*
X10210000Y-4204000D02*
X10310000Y-4204000D01*
X10260000Y-4408000D02*
X10260000Y-4508000D01*
X10210000Y-4458000D02*
X10310000Y-4458000D01*
X10260000Y-4662000D02*
X10260000Y-4762000D01*
X10210000Y-4712000D02*
X10310000Y-4712000D01*
X10260000Y-4916000D02*
X10260000Y-5016000D01*
X10210000Y-4966000D02*
X10310000Y-4966000D01*
X10260000Y-5170000D02*
X10260000Y-5270000D01*
X10210000Y-5220000D02*
X10310000Y-5220000D01*
X10260000Y-5424000D02*
X10260000Y-5524000D01*
X10210000Y-5474000D02*
X10310000Y-5474000D01*
X10260000Y-5678000D02*
X10260000Y-5778000D01*
X10210000Y-5728000D02*
X10310000Y-5728000D01*
X10260000Y-5932000D02*
X10260000Y-6032000D01*
X10210000Y-5982000D02*
X10310000Y-5982000D01*
X10260000Y-6186000D02*
X10260000Y-6286000D01*
X10210000Y-6236000D02*
X10310000Y-6236000D01*
X10260000Y-6440000D02*
X10260000Y-6540000D01*
X10210000Y-6490000D02*
X10310000Y-6490000D01*
X10260000Y-6694000D02*
X10260000Y-6794000D01*
X10210000Y-6744000D02*
X10310000Y-6744000D01*
X10260000Y-6948000D02*
X10260000Y-7048000D01*
X10210000Y-6998000D02*
X10310000Y-6998000D01*
X10260000Y-7202000D02*
X10260000Y-7302000D01*
X10210000Y-7252000D02*
X10310000Y-7252000D01*
D13*
X5442427Y-5142427D02*
X5442427Y-5057573D01*
X5357573Y-5057573D01*
X5357573Y-5142427D01*
X5442427Y-5142427D01*
X5442427Y-6842427D02*
X5442427Y-6757573D01*
X5357573Y-6757573D01*
X5357573Y-6842427D01*
X5442427Y-6842427D01*
X5442427Y-8542427D02*
X5442427Y-8457573D01*
X5357573Y-8457573D01*
X5357573Y-8542427D01*
X5442427Y-8542427D01*
X5442427Y-10242427D02*
X5442427Y-10157573D01*
X5357573Y-10157573D01*
X5357573Y-10242427D01*
X5442427Y-10242427D01*
X5942427Y-5352427D02*
X5942427Y-5267573D01*
X5857573Y-5267573D01*
X5857573Y-5352427D01*
X5942427Y-5352427D01*
X5942427Y-7052427D02*
X5942427Y-6967573D01*
X5857573Y-6967573D01*
X5857573Y-7052427D01*
X5942427Y-7052427D01*
X5942427Y-8752427D02*
X5942427Y-8667573D01*
X5857573Y-8667573D01*
X5857573Y-8752427D01*
X5942427Y-8752427D01*
X5942427Y-10452427D02*
X5942427Y-10367573D01*
X5857573Y-10367573D01*
X5857573Y-10452427D01*
X5942427Y-10452427D01*
X7242427Y-5142427D02*
X7242427Y-5057573D01*
X7157573Y-5057573D01*
X7157573Y-5142427D01*
X7242427Y-5142427D01*
X7242427Y-6842427D02*
X7242427Y-6757573D01*
X7157573Y-6757573D01*
X7157573Y-6842427D01*
X7242427Y-6842427D01*
X7242427Y-8542427D02*
X7242427Y-8457573D01*
X7157573Y-8457573D01*
X7157573Y-8542427D01*
X7242427Y-8542427D01*
X7242427Y-10242427D02*
X7242427Y-10157573D01*
X7157573Y-10157573D01*
X7157573Y-10242427D01*
X7242427Y-10242427D01*
X7742427Y-5352427D02*
X7742427Y-5267573D01*
X7657573Y-5267573D01*
X7657573Y-5352427D01*
X7742427Y-5352427D01*
X7742427Y-7052427D02*
X7742427Y-6967573D01*
X7657573Y-6967573D01*
X7657573Y-7052427D01*
X7742427Y-7052427D01*
X7742427Y-8752427D02*
X7742427Y-8667573D01*
X7657573Y-8667573D01*
X7657573Y-8752427D01*
X7742427Y-8752427D01*
X7742427Y-10452427D02*
X7742427Y-10367573D01*
X7657573Y-10367573D01*
X7657573Y-10452427D01*
X7742427Y-10452427D01*
X9042427Y-5142427D02*
X9042427Y-5057573D01*
X8957573Y-5057573D01*
X8957573Y-5142427D01*
X9042427Y-5142427D01*
X9042427Y-6842427D02*
X9042427Y-6757573D01*
X8957573Y-6757573D01*
X8957573Y-6842427D01*
X9042427Y-6842427D01*
X9042427Y-8542427D02*
X9042427Y-8457573D01*
X8957573Y-8457573D01*
X8957573Y-8542427D01*
X9042427Y-8542427D01*
X9042427Y-10242427D02*
X9042427Y-10157573D01*
X8957573Y-10157573D01*
X8957573Y-10242427D01*
X9042427Y-10242427D01*
X9542427Y-5352427D02*
X9542427Y-5267573D01*
X9457573Y-5267573D01*
X9457573Y-5352427D01*
X9542427Y-5352427D01*
X9542427Y-7052427D02*
X9542427Y-6967573D01*
X9457573Y-6967573D01*
X9457573Y-7052427D01*
X9542427Y-7052427D01*
X9542427Y-8752427D02*
X9542427Y-8667573D01*
X9457573Y-8667573D01*
X9457573Y-8752427D01*
X9542427Y-8752427D01*
X9542427Y-10452427D02*
X9542427Y-10367573D01*
X9457573Y-10367573D01*
X9457573Y-10452427D01*
X9542427Y-10452427D01*
X10842427Y-5142427D02*
X10842427Y-5057573D01*
X10757573Y-5057573D01*
X10757573Y-5142427D01*
X10842427Y-5142427D01*
X10842427Y-6842427D02*
X10842427Y-6757573D01*
X10757573Y-6757573D01*
X10757573Y-6842427D01*
X10842427Y-6842427D01*
X10842427Y-8542427D02*
X10842427Y-8457573D01*
X10757573Y-8457573D01*
X10757573Y-8542427D01*
X10842427Y-8542427D01*
X10842427Y-10242427D02*
X10842427Y-10157573D01*
X10757573Y-10157573D01*
X10757573Y-10242427D01*
X10842427Y-10242427D01*
X11342427Y-5352427D02*
X11342427Y-5267573D01*
X11257573Y-5267573D01*
X11257573Y-5352427D01*
X11342427Y-5352427D01*
X11342427Y-7052427D02*
X11342427Y-6967573D01*
X11257573Y-6967573D01*
X11257573Y-7052427D01*
X11342427Y-7052427D01*
X11342427Y-8752427D02*
X11342427Y-8667573D01*
X11257573Y-8667573D01*
X11257573Y-8752427D01*
X11342427Y-8752427D01*
X11342427Y-10452427D02*
X11342427Y-10367573D01*
X11257573Y-10367573D01*
X11257573Y-10452427D01*
X11342427Y-10452427D01*
X12642427Y-5142427D02*
X12642427Y-5057573D01*
X12557573Y-5057573D01*
X12557573Y-5142427D01*
X12642427Y-5142427D01*
X12642427Y-6842427D02*
X12642427Y-6757573D01*
X12557573Y-6757573D01*
X12557573Y-6842427D01*
X12642427Y-6842427D01*
X12642427Y-8542427D02*
X12642427Y-8457573D01*
X12557573Y-8457573D01*
X12557573Y-8542427D01*
X12642427Y-8542427D01*
X12642427Y-10242427D02*
X12642427Y-10157573D01*
X12557573Y-10157573D01*
X12557573Y-10242427D01*
X12642427Y-10242427D01*
X13142427Y-5352427D02*
X13142427Y-5267573D01*
X13057573Y-5267573D01*
X13057573Y-5352427D01*
X13142427Y-5352427D01*
X13142427Y-7052427D02*
X13142427Y-6967573D01*
X13057573Y-6967573D01*
X13057573Y-7052427D01*
X13142427Y-7052427D01*
X13142427Y-8752427D02*
X13142427Y-8667573D01*
X13057573Y-8667573D01*
X13057573Y-8752427D01*
X13142427Y-8752427D01*
X13142427Y-10452427D02*
X13142427Y-10367573D01*
X13057573Y-10367573D01*
X13057573Y-10452427D01*
X13142427Y-10452427D01*
D11*
X5258277Y-10983984D02*
X5258277Y-10783984D01*
X5258277Y-10783984D02*
X5305896Y-10783984D01*
X5305896Y-10783984D02*
X5334467Y-10793508D01*
X5334467Y-10793508D02*
X5353515Y-10812555D01*
X5353515Y-10812555D02*
X5363039Y-10831603D01*
X5363039Y-10831603D02*
X5372563Y-10869698D01*
X5372563Y-10869698D02*
X5372563Y-10898270D01*
X5372563Y-10898270D02*
X5363039Y-10936365D01*
X5363039Y-10936365D02*
X5353515Y-10955412D01*
X5353515Y-10955412D02*
X5334467Y-10974460D01*
X5334467Y-10974460D02*
X5305896Y-10983984D01*
X5305896Y-10983984D02*
X5258277Y-10983984D01*
X5458277Y-10983984D02*
X5458277Y-10850650D01*
X5458277Y-10888746D02*
X5467801Y-10869698D01*
X5467801Y-10869698D02*
X5477324Y-10860174D01*
X5477324Y-10860174D02*
X5496372Y-10850650D01*
X5496372Y-10850650D02*
X5515420Y-10850650D01*
X5582086Y-10983984D02*
X5582086Y-10850650D01*
X5582086Y-10783984D02*
X5572563Y-10793508D01*
X5572563Y-10793508D02*
X5582086Y-10803031D01*
X5582086Y-10803031D02*
X5591610Y-10793508D01*
X5591610Y-10793508D02*
X5582086Y-10783984D01*
X5582086Y-10783984D02*
X5582086Y-10803031D01*
X5705896Y-10983984D02*
X5686848Y-10974460D01*
X5686848Y-10974460D02*
X5677324Y-10955412D01*
X5677324Y-10955412D02*
X5677324Y-10783984D01*
X5810658Y-10983984D02*
X5791610Y-10974460D01*
X5791610Y-10974460D02*
X5782086Y-10955412D01*
X5782086Y-10955412D02*
X5782086Y-10783984D01*
X6039229Y-10983984D02*
X6039229Y-10783984D01*
X6039229Y-10783984D02*
X6105896Y-10926841D01*
X6105896Y-10926841D02*
X6172562Y-10783984D01*
X6172562Y-10783984D02*
X6172562Y-10983984D01*
X6353515Y-10983984D02*
X6353515Y-10879222D01*
X6353515Y-10879222D02*
X6343991Y-10860174D01*
X6343991Y-10860174D02*
X6324943Y-10850650D01*
X6324943Y-10850650D02*
X6286848Y-10850650D01*
X6286848Y-10850650D02*
X6267801Y-10860174D01*
X6353515Y-10974460D02*
X6334467Y-10983984D01*
X6334467Y-10983984D02*
X6286848Y-10983984D01*
X6286848Y-10983984D02*
X6267801Y-10974460D01*
X6267801Y-10974460D02*
X6258277Y-10955412D01*
X6258277Y-10955412D02*
X6258277Y-10936365D01*
X6258277Y-10936365D02*
X6267801Y-10917317D01*
X6267801Y-10917317D02*
X6286848Y-10907793D01*
X6286848Y-10907793D02*
X6334467Y-10907793D01*
X6334467Y-10907793D02*
X6353515Y-10898270D01*
X6448753Y-10850650D02*
X6448753Y-11050650D01*
X6448753Y-10860174D02*
X6467801Y-10850650D01*
X6467801Y-10850650D02*
X6505896Y-10850650D01*
X6505896Y-10850650D02*
X6524943Y-10860174D01*
X6524943Y-10860174D02*
X6534467Y-10869698D01*
X6534467Y-10869698D02*
X6543991Y-10888746D01*
X6543991Y-10888746D02*
X6543991Y-10945889D01*
X6543991Y-10945889D02*
X6534467Y-10964936D01*
X6534467Y-10964936D02*
X6524943Y-10974460D01*
X6524943Y-10974460D02*
X6505896Y-10983984D01*
X6505896Y-10983984D02*
X6467801Y-10983984D01*
X6467801Y-10983984D02*
X6448753Y-10974460D01*
X6629705Y-10964936D02*
X6639229Y-10974460D01*
X6639229Y-10974460D02*
X6629705Y-10983984D01*
X6629705Y-10983984D02*
X6620182Y-10974460D01*
X6620182Y-10974460D02*
X6629705Y-10964936D01*
X6629705Y-10964936D02*
X6629705Y-10983984D01*
X6629705Y-10860174D02*
X6639229Y-10869698D01*
X6639229Y-10869698D02*
X6629705Y-10879222D01*
X6629705Y-10879222D02*
X6620182Y-10869698D01*
X6620182Y-10869698D02*
X6629705Y-10860174D01*
X6629705Y-10860174D02*
X6629705Y-10879222D01*
D12*
X4967500Y-11297500D02*
X4997500Y-11327500D01*
X4997500Y-11297500D02*
X4967500Y-11327500D01*
D11*
X5296372Y-11203984D02*
X5315420Y-11203984D01*
X5315420Y-11203984D02*
X5334467Y-11213508D01*
X5334467Y-11213508D02*
X5343991Y-11223031D01*
X5343991Y-11223031D02*
X5353515Y-11242079D01*
X5353515Y-11242079D02*
X5363039Y-11280174D01*
X5363039Y-11280174D02*
X5363039Y-11327793D01*
X5363039Y-11327793D02*
X5353515Y-11365888D01*
X5353515Y-11365888D02*
X5343991Y-11384936D01*
X5343991Y-11384936D02*
X5334467Y-11394460D01*
X5334467Y-11394460D02*
X5315420Y-11403984D01*
X5315420Y-11403984D02*
X5296372Y-11403984D01*
X5296372Y-11403984D02*
X5277324Y-11394460D01*
X5277324Y-11394460D02*
X5267801Y-11384936D01*
X5267801Y-11384936D02*
X5258277Y-11365888D01*
X5258277Y-11365888D02*
X5248753Y-11327793D01*
X5248753Y-11327793D02*
X5248753Y-11280174D01*
X5248753Y-11280174D02*
X5258277Y-11242079D01*
X5258277Y-11242079D02*
X5267801Y-11223031D01*
X5267801Y-11223031D02*
X5277324Y-11213508D01*
X5277324Y-11213508D02*
X5296372Y-11203984D01*
X5448753Y-11384936D02*
X5458277Y-11394460D01*
X5458277Y-11394460D02*
X5448753Y-11403984D01*
X5448753Y-11403984D02*
X5439229Y-11394460D01*
X5439229Y-11394460D02*
X5448753Y-11384936D01*
X5448753Y-11384936D02*
X5448753Y-11403984D01*
X5524944Y-11203984D02*
X5648753Y-11203984D01*
X5648753Y-11203984D02*
X5582086Y-11280174D01*
X5582086Y-11280174D02*
X5610658Y-11280174D01*
X5610658Y-11280174D02*
X5629705Y-11289698D01*
X5629705Y-11289698D02*
X5639229Y-11299222D01*
X5639229Y-11299222D02*
X5648753Y-11318269D01*
X5648753Y-11318269D02*
X5648753Y-11365888D01*
X5648753Y-11365888D02*
X5639229Y-11384936D01*
X5639229Y-11384936D02*
X5629705Y-11394460D01*
X5629705Y-11394460D02*
X5610658Y-11403984D01*
X5610658Y-11403984D02*
X5553515Y-11403984D01*
X5553515Y-11403984D02*
X5534467Y-11394460D01*
X5534467Y-11394460D02*
X5524944Y-11384936D01*
X5772562Y-11203984D02*
X5791610Y-11203984D01*
X5791610Y-11203984D02*
X5810658Y-11213508D01*
X5810658Y-11213508D02*
X5820182Y-11223031D01*
X5820182Y-11223031D02*
X5829705Y-11242079D01*
X5829705Y-11242079D02*
X5839229Y-11280174D01*
X5839229Y-11280174D02*
X5839229Y-11327793D01*
X5839229Y-11327793D02*
X5829705Y-11365888D01*
X5829705Y-11365888D02*
X5820182Y-11384936D01*
X5820182Y-11384936D02*
X5810658Y-11394460D01*
X5810658Y-11394460D02*
X5791610Y-11403984D01*
X5791610Y-11403984D02*
X5772562Y-11403984D01*
X5772562Y-11403984D02*
X5753515Y-11394460D01*
X5753515Y-11394460D02*
X5743991Y-11384936D01*
X5743991Y-11384936D02*
X5734467Y-11365888D01*
X5734467Y-11365888D02*
X5724943Y-11327793D01*
X5724943Y-11327793D02*
X5724943Y-11280174D01*
X5724943Y-11280174D02*
X5734467Y-11242079D01*
X5734467Y-11242079D02*
X5743991Y-11223031D01*
X5743991Y-11223031D02*
X5753515Y-11213508D01*
X5753515Y-11213508D02*
X5772562Y-11203984D01*
X5963039Y-11203984D02*
X5982086Y-11203984D01*
X5982086Y-11203984D02*
X6001134Y-11213508D01*
X6001134Y-11213508D02*
X6010658Y-11223031D01*
X6010658Y-11223031D02*
X6020182Y-11242079D01*
X6020182Y-11242079D02*
X6029705Y-11280174D01*
X6029705Y-11280174D02*
X6029705Y-11327793D01*
X6029705Y-11327793D02*
X6020182Y-11365888D01*
X6020182Y-11365888D02*
X6010658Y-11384936D01*
X6010658Y-11384936D02*
X6001134Y-11394460D01*
X6001134Y-11394460D02*
X5982086Y-11403984D01*
X5982086Y-11403984D02*
X5963039Y-11403984D01*
X5963039Y-11403984D02*
X5943991Y-11394460D01*
X5943991Y-11394460D02*
X5934467Y-11384936D01*
X5934467Y-11384936D02*
X5924943Y-11365888D01*
X5924943Y-11365888D02*
X5915420Y-11327793D01*
X5915420Y-11327793D02*
X5915420Y-11280174D01*
X5915420Y-11280174D02*
X5924943Y-11242079D01*
X5924943Y-11242079D02*
X5934467Y-11223031D01*
X5934467Y-11223031D02*
X5943991Y-11213508D01*
X5943991Y-11213508D02*
X5963039Y-11203984D01*
X6115420Y-11403984D02*
X6115420Y-11270650D01*
X6115420Y-11289698D02*
X6124943Y-11280174D01*
X6124943Y-11280174D02*
X6143991Y-11270650D01*
X6143991Y-11270650D02*
X6172563Y-11270650D01*
X6172563Y-11270650D02*
X6191610Y-11280174D01*
X6191610Y-11280174D02*
X6201134Y-11299222D01*
X6201134Y-11299222D02*
X6201134Y-11403984D01*
X6201134Y-11299222D02*
X6210658Y-11280174D01*
X6210658Y-11280174D02*
X6229705Y-11270650D01*
X6229705Y-11270650D02*
X6258277Y-11270650D01*
X6258277Y-11270650D02*
X6277324Y-11280174D01*
X6277324Y-11280174D02*
X6286848Y-11299222D01*
X6286848Y-11299222D02*
X6286848Y-11403984D01*
X6382086Y-11403984D02*
X6382086Y-11270650D01*
X6382086Y-11289698D02*
X6391610Y-11280174D01*
X6391610Y-11280174D02*
X6410658Y-11270650D01*
X6410658Y-11270650D02*
X6439229Y-11270650D01*
X6439229Y-11270650D02*
X6458277Y-11280174D01*
X6458277Y-11280174D02*
X6467801Y-11299222D01*
X6467801Y-11299222D02*
X6467801Y-11403984D01*
X6467801Y-11299222D02*
X6477324Y-11280174D01*
X6477324Y-11280174D02*
X6496372Y-11270650D01*
X6496372Y-11270650D02*
X6524943Y-11270650D01*
X6524943Y-11270650D02*
X6543991Y-11280174D01*
X6543991Y-11280174D02*
X6553515Y-11299222D01*
X6553515Y-11299222D02*
X6553515Y-11403984D01*
X6943991Y-11194460D02*
X6772563Y-11451603D01*
X7201134Y-11203984D02*
X7220182Y-11203984D01*
X7220182Y-11203984D02*
X7239229Y-11213508D01*
X7239229Y-11213508D02*
X7248753Y-11223031D01*
X7248753Y-11223031D02*
X7258277Y-11242079D01*
X7258277Y-11242079D02*
X7267801Y-11280174D01*
X7267801Y-11280174D02*
X7267801Y-11327793D01*
X7267801Y-11327793D02*
X7258277Y-11365888D01*
X7258277Y-11365888D02*
X7248753Y-11384936D01*
X7248753Y-11384936D02*
X7239229Y-11394460D01*
X7239229Y-11394460D02*
X7220182Y-11403984D01*
X7220182Y-11403984D02*
X7201134Y-11403984D01*
X7201134Y-11403984D02*
X7182086Y-11394460D01*
X7182086Y-11394460D02*
X7172563Y-11384936D01*
X7172563Y-11384936D02*
X7163039Y-11365888D01*
X7163039Y-11365888D02*
X7153515Y-11327793D01*
X7153515Y-11327793D02*
X7153515Y-11280174D01*
X7153515Y-11280174D02*
X7163039Y-11242079D01*
X7163039Y-11242079D02*
X7172563Y-11223031D01*
X7172563Y-11223031D02*
X7182086Y-11213508D01*
X7182086Y-11213508D02*
X7201134Y-11203984D01*
X7353515Y-11384936D02*
X7363039Y-11394460D01*
X7363039Y-11394460D02*
X7353515Y-11403984D01*
X7353515Y-11403984D02*
X7343991Y-11394460D01*
X7343991Y-11394460D02*
X7353515Y-11384936D01*
X7353515Y-11384936D02*
X7353515Y-11403984D01*
X7486848Y-11203984D02*
X7505896Y-11203984D01*
X7505896Y-11203984D02*
X7524944Y-11213508D01*
X7524944Y-11213508D02*
X7534467Y-11223031D01*
X7534467Y-11223031D02*
X7543991Y-11242079D01*
X7543991Y-11242079D02*
X7553515Y-11280174D01*
X7553515Y-11280174D02*
X7553515Y-11327793D01*
X7553515Y-11327793D02*
X7543991Y-11365888D01*
X7543991Y-11365888D02*
X7534467Y-11384936D01*
X7534467Y-11384936D02*
X7524944Y-11394460D01*
X7524944Y-11394460D02*
X7505896Y-11403984D01*
X7505896Y-11403984D02*
X7486848Y-11403984D01*
X7486848Y-11403984D02*
X7467801Y-11394460D01*
X7467801Y-11394460D02*
X7458277Y-11384936D01*
X7458277Y-11384936D02*
X7448753Y-11365888D01*
X7448753Y-11365888D02*
X7439229Y-11327793D01*
X7439229Y-11327793D02*
X7439229Y-11280174D01*
X7439229Y-11280174D02*
X7448753Y-11242079D01*
X7448753Y-11242079D02*
X7458277Y-11223031D01*
X7458277Y-11223031D02*
X7467801Y-11213508D01*
X7467801Y-11213508D02*
X7486848Y-11203984D01*
X7743991Y-11403984D02*
X7629706Y-11403984D01*
X7686848Y-11403984D02*
X7686848Y-11203984D01*
X7686848Y-11203984D02*
X7667801Y-11232555D01*
X7667801Y-11232555D02*
X7648753Y-11251603D01*
X7648753Y-11251603D02*
X7629706Y-11261127D01*
X7934467Y-11403984D02*
X7820182Y-11403984D01*
X7877325Y-11403984D02*
X7877325Y-11203984D01*
X7877325Y-11203984D02*
X7858277Y-11232555D01*
X7858277Y-11232555D02*
X7839229Y-11251603D01*
X7839229Y-11251603D02*
X7820182Y-11261127D01*
X8048753Y-11289698D02*
X8029706Y-11280174D01*
X8029706Y-11280174D02*
X8020182Y-11270650D01*
X8020182Y-11270650D02*
X8010658Y-11251603D01*
X8010658Y-11251603D02*
X8010658Y-11242079D01*
X8010658Y-11242079D02*
X8020182Y-11223031D01*
X8020182Y-11223031D02*
X8029706Y-11213508D01*
X8029706Y-11213508D02*
X8048753Y-11203984D01*
X8048753Y-11203984D02*
X8086848Y-11203984D01*
X8086848Y-11203984D02*
X8105896Y-11213508D01*
X8105896Y-11213508D02*
X8115420Y-11223031D01*
X8115420Y-11223031D02*
X8124944Y-11242079D01*
X8124944Y-11242079D02*
X8124944Y-11251603D01*
X8124944Y-11251603D02*
X8115420Y-11270650D01*
X8115420Y-11270650D02*
X8105896Y-11280174D01*
X8105896Y-11280174D02*
X8086848Y-11289698D01*
X8086848Y-11289698D02*
X8048753Y-11289698D01*
X8048753Y-11289698D02*
X8029706Y-11299222D01*
X8029706Y-11299222D02*
X8020182Y-11308746D01*
X8020182Y-11308746D02*
X8010658Y-11327793D01*
X8010658Y-11327793D02*
X8010658Y-11365888D01*
X8010658Y-11365888D02*
X8020182Y-11384936D01*
X8020182Y-11384936D02*
X8029706Y-11394460D01*
X8029706Y-11394460D02*
X8048753Y-11403984D01*
X8048753Y-11403984D02*
X8086848Y-11403984D01*
X8086848Y-11403984D02*
X8105896Y-11394460D01*
X8105896Y-11394460D02*
X8115420Y-11384936D01*
X8115420Y-11384936D02*
X8124944Y-11365888D01*
X8124944Y-11365888D02*
X8124944Y-11327793D01*
X8124944Y-11327793D02*
X8115420Y-11308746D01*
X8115420Y-11308746D02*
X8105896Y-11299222D01*
X8105896Y-11299222D02*
X8086848Y-11289698D01*
X8201134Y-11203984D02*
X8201134Y-11242079D01*
X8277325Y-11203984D02*
X8277325Y-11242079D01*
X8572563Y-11480174D02*
X8563039Y-11470650D01*
X8563039Y-11470650D02*
X8543991Y-11442079D01*
X8543991Y-11442079D02*
X8534468Y-11423031D01*
X8534468Y-11423031D02*
X8524944Y-11394460D01*
X8524944Y-11394460D02*
X8515420Y-11346841D01*
X8515420Y-11346841D02*
X8515420Y-11308746D01*
X8515420Y-11308746D02*
X8524944Y-11261127D01*
X8524944Y-11261127D02*
X8534468Y-11232555D01*
X8534468Y-11232555D02*
X8543991Y-11213508D01*
X8543991Y-11213508D02*
X8563039Y-11184936D01*
X8563039Y-11184936D02*
X8572563Y-11175412D01*
X8639230Y-11223031D02*
X8648753Y-11213508D01*
X8648753Y-11213508D02*
X8667801Y-11203984D01*
X8667801Y-11203984D02*
X8715420Y-11203984D01*
X8715420Y-11203984D02*
X8734468Y-11213508D01*
X8734468Y-11213508D02*
X8743991Y-11223031D01*
X8743991Y-11223031D02*
X8753515Y-11242079D01*
X8753515Y-11242079D02*
X8753515Y-11261127D01*
X8753515Y-11261127D02*
X8743991Y-11289698D01*
X8743991Y-11289698D02*
X8629706Y-11403984D01*
X8629706Y-11403984D02*
X8753515Y-11403984D01*
X8991611Y-11403984D02*
X8991611Y-11203984D01*
X9077325Y-11403984D02*
X9077325Y-11299222D01*
X9077325Y-11299222D02*
X9067801Y-11280174D01*
X9067801Y-11280174D02*
X9048753Y-11270650D01*
X9048753Y-11270650D02*
X9020182Y-11270650D01*
X9020182Y-11270650D02*
X9001134Y-11280174D01*
X9001134Y-11280174D02*
X8991611Y-11289698D01*
X9201134Y-11403984D02*
X9182087Y-11394460D01*
X9182087Y-11394460D02*
X9172563Y-11384936D01*
X9172563Y-11384936D02*
X9163039Y-11365888D01*
X9163039Y-11365888D02*
X9163039Y-11308746D01*
X9163039Y-11308746D02*
X9172563Y-11289698D01*
X9172563Y-11289698D02*
X9182087Y-11280174D01*
X9182087Y-11280174D02*
X9201134Y-11270650D01*
X9201134Y-11270650D02*
X9229706Y-11270650D01*
X9229706Y-11270650D02*
X9248753Y-11280174D01*
X9248753Y-11280174D02*
X9258277Y-11289698D01*
X9258277Y-11289698D02*
X9267801Y-11308746D01*
X9267801Y-11308746D02*
X9267801Y-11365888D01*
X9267801Y-11365888D02*
X9258277Y-11384936D01*
X9258277Y-11384936D02*
X9248753Y-11394460D01*
X9248753Y-11394460D02*
X9229706Y-11403984D01*
X9229706Y-11403984D02*
X9201134Y-11403984D01*
X9382087Y-11403984D02*
X9363039Y-11394460D01*
X9363039Y-11394460D02*
X9353515Y-11375412D01*
X9353515Y-11375412D02*
X9353515Y-11203984D01*
X9534468Y-11394460D02*
X9515420Y-11403984D01*
X9515420Y-11403984D02*
X9477325Y-11403984D01*
X9477325Y-11403984D02*
X9458277Y-11394460D01*
X9458277Y-11394460D02*
X9448753Y-11375412D01*
X9448753Y-11375412D02*
X9448753Y-11299222D01*
X9448753Y-11299222D02*
X9458277Y-11280174D01*
X9458277Y-11280174D02*
X9477325Y-11270650D01*
X9477325Y-11270650D02*
X9515420Y-11270650D01*
X9515420Y-11270650D02*
X9534468Y-11280174D01*
X9534468Y-11280174D02*
X9543992Y-11299222D01*
X9543992Y-11299222D02*
X9543992Y-11318269D01*
X9543992Y-11318269D02*
X9448753Y-11337317D01*
X9620182Y-11394460D02*
X9639230Y-11403984D01*
X9639230Y-11403984D02*
X9677325Y-11403984D01*
X9677325Y-11403984D02*
X9696373Y-11394460D01*
X9696373Y-11394460D02*
X9705896Y-11375412D01*
X9705896Y-11375412D02*
X9705896Y-11365888D01*
X9705896Y-11365888D02*
X9696373Y-11346841D01*
X9696373Y-11346841D02*
X9677325Y-11337317D01*
X9677325Y-11337317D02*
X9648753Y-11337317D01*
X9648753Y-11337317D02*
X9629706Y-11327793D01*
X9629706Y-11327793D02*
X9620182Y-11308746D01*
X9620182Y-11308746D02*
X9620182Y-11299222D01*
X9620182Y-11299222D02*
X9629706Y-11280174D01*
X9629706Y-11280174D02*
X9648753Y-11270650D01*
X9648753Y-11270650D02*
X9677325Y-11270650D01*
X9677325Y-11270650D02*
X9696373Y-11280174D01*
X9772563Y-11480174D02*
X9782087Y-11470650D01*
X9782087Y-11470650D02*
X9801134Y-11442079D01*
X9801134Y-11442079D02*
X9810658Y-11423031D01*
X9810658Y-11423031D02*
X9820182Y-11394460D01*
X9820182Y-11394460D02*
X9829706Y-11346841D01*
X9829706Y-11346841D02*
X9829706Y-11308746D01*
X9829706Y-11308746D02*
X9820182Y-11261127D01*
X9820182Y-11261127D02*
X9810658Y-11232555D01*
X9810658Y-11232555D02*
X9801134Y-11213508D01*
X9801134Y-11213508D02*
X9782087Y-11184936D01*
X9782087Y-11184936D02*
X9772563Y-11175412D01*
D12*
X4997500Y-11576500D02*
G75*
G02*
X4922500Y-11576500I-37500J0D01*
G01*
X4922500Y-11576500D02*
G75*
G02*
X4997500Y-11576500I37500J0D01*
G01*
D11*
X5296372Y-11467984D02*
X5315420Y-11467984D01*
X5315420Y-11467984D02*
X5334467Y-11477508D01*
X5334467Y-11477508D02*
X5343991Y-11487031D01*
X5343991Y-11487031D02*
X5353515Y-11506079D01*
X5353515Y-11506079D02*
X5363039Y-11544174D01*
X5363039Y-11544174D02*
X5363039Y-11591793D01*
X5363039Y-11591793D02*
X5353515Y-11629888D01*
X5353515Y-11629888D02*
X5343991Y-11648936D01*
X5343991Y-11648936D02*
X5334467Y-11658460D01*
X5334467Y-11658460D02*
X5315420Y-11667984D01*
X5315420Y-11667984D02*
X5296372Y-11667984D01*
X5296372Y-11667984D02*
X5277324Y-11658460D01*
X5277324Y-11658460D02*
X5267801Y-11648936D01*
X5267801Y-11648936D02*
X5258277Y-11629888D01*
X5258277Y-11629888D02*
X5248753Y-11591793D01*
X5248753Y-11591793D02*
X5248753Y-11544174D01*
X5248753Y-11544174D02*
X5258277Y-11506079D01*
X5258277Y-11506079D02*
X5267801Y-11487031D01*
X5267801Y-11487031D02*
X5277324Y-11477508D01*
X5277324Y-11477508D02*
X5296372Y-11467984D01*
X5448753Y-11648936D02*
X5458277Y-11658460D01*
X5458277Y-11658460D02*
X5448753Y-11667984D01*
X5448753Y-11667984D02*
X5439229Y-11658460D01*
X5439229Y-11658460D02*
X5448753Y-11648936D01*
X5448753Y-11648936D02*
X5448753Y-11667984D01*
X5524944Y-11467984D02*
X5658277Y-11467984D01*
X5658277Y-11467984D02*
X5572563Y-11667984D01*
X5829705Y-11467984D02*
X5734467Y-11467984D01*
X5734467Y-11467984D02*
X5724943Y-11563222D01*
X5724943Y-11563222D02*
X5734467Y-11553698D01*
X5734467Y-11553698D02*
X5753515Y-11544174D01*
X5753515Y-11544174D02*
X5801134Y-11544174D01*
X5801134Y-11544174D02*
X5820182Y-11553698D01*
X5820182Y-11553698D02*
X5829705Y-11563222D01*
X5829705Y-11563222D02*
X5839229Y-11582269D01*
X5839229Y-11582269D02*
X5839229Y-11629888D01*
X5839229Y-11629888D02*
X5829705Y-11648936D01*
X5829705Y-11648936D02*
X5820182Y-11658460D01*
X5820182Y-11658460D02*
X5801134Y-11667984D01*
X5801134Y-11667984D02*
X5753515Y-11667984D01*
X5753515Y-11667984D02*
X5734467Y-11658460D01*
X5734467Y-11658460D02*
X5724943Y-11648936D01*
X5963039Y-11467984D02*
X5982086Y-11467984D01*
X5982086Y-11467984D02*
X6001134Y-11477508D01*
X6001134Y-11477508D02*
X6010658Y-11487031D01*
X6010658Y-11487031D02*
X6020182Y-11506079D01*
X6020182Y-11506079D02*
X6029705Y-11544174D01*
X6029705Y-11544174D02*
X6029705Y-11591793D01*
X6029705Y-11591793D02*
X6020182Y-11629888D01*
X6020182Y-11629888D02*
X6010658Y-11648936D01*
X6010658Y-11648936D02*
X6001134Y-11658460D01*
X6001134Y-11658460D02*
X5982086Y-11667984D01*
X5982086Y-11667984D02*
X5963039Y-11667984D01*
X5963039Y-11667984D02*
X5943991Y-11658460D01*
X5943991Y-11658460D02*
X5934467Y-11648936D01*
X5934467Y-11648936D02*
X5924943Y-11629888D01*
X5924943Y-11629888D02*
X5915420Y-11591793D01*
X5915420Y-11591793D02*
X5915420Y-11544174D01*
X5915420Y-11544174D02*
X5924943Y-11506079D01*
X5924943Y-11506079D02*
X5934467Y-11487031D01*
X5934467Y-11487031D02*
X5943991Y-11477508D01*
X5943991Y-11477508D02*
X5963039Y-11467984D01*
X6115420Y-11667984D02*
X6115420Y-11534650D01*
X6115420Y-11553698D02*
X6124943Y-11544174D01*
X6124943Y-11544174D02*
X6143991Y-11534650D01*
X6143991Y-11534650D02*
X6172563Y-11534650D01*
X6172563Y-11534650D02*
X6191610Y-11544174D01*
X6191610Y-11544174D02*
X6201134Y-11563222D01*
X6201134Y-11563222D02*
X6201134Y-11667984D01*
X6201134Y-11563222D02*
X6210658Y-11544174D01*
X6210658Y-11544174D02*
X6229705Y-11534650D01*
X6229705Y-11534650D02*
X6258277Y-11534650D01*
X6258277Y-11534650D02*
X6277324Y-11544174D01*
X6277324Y-11544174D02*
X6286848Y-11563222D01*
X6286848Y-11563222D02*
X6286848Y-11667984D01*
X6382086Y-11667984D02*
X6382086Y-11534650D01*
X6382086Y-11553698D02*
X6391610Y-11544174D01*
X6391610Y-11544174D02*
X6410658Y-11534650D01*
X6410658Y-11534650D02*
X6439229Y-11534650D01*
X6439229Y-11534650D02*
X6458277Y-11544174D01*
X6458277Y-11544174D02*
X6467801Y-11563222D01*
X6467801Y-11563222D02*
X6467801Y-11667984D01*
X6467801Y-11563222D02*
X6477324Y-11544174D01*
X6477324Y-11544174D02*
X6496372Y-11534650D01*
X6496372Y-11534650D02*
X6524943Y-11534650D01*
X6524943Y-11534650D02*
X6543991Y-11544174D01*
X6543991Y-11544174D02*
X6553515Y-11563222D01*
X6553515Y-11563222D02*
X6553515Y-11667984D01*
X6943991Y-11458460D02*
X6772563Y-11715603D01*
X7201134Y-11467984D02*
X7220182Y-11467984D01*
X7220182Y-11467984D02*
X7239229Y-11477508D01*
X7239229Y-11477508D02*
X7248753Y-11487031D01*
X7248753Y-11487031D02*
X7258277Y-11506079D01*
X7258277Y-11506079D02*
X7267801Y-11544174D01*
X7267801Y-11544174D02*
X7267801Y-11591793D01*
X7267801Y-11591793D02*
X7258277Y-11629888D01*
X7258277Y-11629888D02*
X7248753Y-11648936D01*
X7248753Y-11648936D02*
X7239229Y-11658460D01*
X7239229Y-11658460D02*
X7220182Y-11667984D01*
X7220182Y-11667984D02*
X7201134Y-11667984D01*
X7201134Y-11667984D02*
X7182086Y-11658460D01*
X7182086Y-11658460D02*
X7172563Y-11648936D01*
X7172563Y-11648936D02*
X7163039Y-11629888D01*
X7163039Y-11629888D02*
X7153515Y-11591793D01*
X7153515Y-11591793D02*
X7153515Y-11544174D01*
X7153515Y-11544174D02*
X7163039Y-11506079D01*
X7163039Y-11506079D02*
X7172563Y-11487031D01*
X7172563Y-11487031D02*
X7182086Y-11477508D01*
X7182086Y-11477508D02*
X7201134Y-11467984D01*
X7353515Y-11648936D02*
X7363039Y-11658460D01*
X7363039Y-11658460D02*
X7353515Y-11667984D01*
X7353515Y-11667984D02*
X7343991Y-11658460D01*
X7343991Y-11658460D02*
X7353515Y-11648936D01*
X7353515Y-11648936D02*
X7353515Y-11667984D01*
X7486848Y-11467984D02*
X7505896Y-11467984D01*
X7505896Y-11467984D02*
X7524944Y-11477508D01*
X7524944Y-11477508D02*
X7534467Y-11487031D01*
X7534467Y-11487031D02*
X7543991Y-11506079D01*
X7543991Y-11506079D02*
X7553515Y-11544174D01*
X7553515Y-11544174D02*
X7553515Y-11591793D01*
X7553515Y-11591793D02*
X7543991Y-11629888D01*
X7543991Y-11629888D02*
X7534467Y-11648936D01*
X7534467Y-11648936D02*
X7524944Y-11658460D01*
X7524944Y-11658460D02*
X7505896Y-11667984D01*
X7505896Y-11667984D02*
X7486848Y-11667984D01*
X7486848Y-11667984D02*
X7467801Y-11658460D01*
X7467801Y-11658460D02*
X7458277Y-11648936D01*
X7458277Y-11648936D02*
X7448753Y-11629888D01*
X7448753Y-11629888D02*
X7439229Y-11591793D01*
X7439229Y-11591793D02*
X7439229Y-11544174D01*
X7439229Y-11544174D02*
X7448753Y-11506079D01*
X7448753Y-11506079D02*
X7458277Y-11487031D01*
X7458277Y-11487031D02*
X7467801Y-11477508D01*
X7467801Y-11477508D02*
X7486848Y-11467984D01*
X7629706Y-11487031D02*
X7639229Y-11477508D01*
X7639229Y-11477508D02*
X7658277Y-11467984D01*
X7658277Y-11467984D02*
X7705896Y-11467984D01*
X7705896Y-11467984D02*
X7724944Y-11477508D01*
X7724944Y-11477508D02*
X7734467Y-11487031D01*
X7734467Y-11487031D02*
X7743991Y-11506079D01*
X7743991Y-11506079D02*
X7743991Y-11525127D01*
X7743991Y-11525127D02*
X7734467Y-11553698D01*
X7734467Y-11553698D02*
X7620182Y-11667984D01*
X7620182Y-11667984D02*
X7743991Y-11667984D01*
X7839229Y-11667984D02*
X7877325Y-11667984D01*
X7877325Y-11667984D02*
X7896372Y-11658460D01*
X7896372Y-11658460D02*
X7905896Y-11648936D01*
X7905896Y-11648936D02*
X7924944Y-11620365D01*
X7924944Y-11620365D02*
X7934467Y-11582269D01*
X7934467Y-11582269D02*
X7934467Y-11506079D01*
X7934467Y-11506079D02*
X7924944Y-11487031D01*
X7924944Y-11487031D02*
X7915420Y-11477508D01*
X7915420Y-11477508D02*
X7896372Y-11467984D01*
X7896372Y-11467984D02*
X7858277Y-11467984D01*
X7858277Y-11467984D02*
X7839229Y-11477508D01*
X7839229Y-11477508D02*
X7829706Y-11487031D01*
X7829706Y-11487031D02*
X7820182Y-11506079D01*
X7820182Y-11506079D02*
X7820182Y-11553698D01*
X7820182Y-11553698D02*
X7829706Y-11572746D01*
X7829706Y-11572746D02*
X7839229Y-11582269D01*
X7839229Y-11582269D02*
X7858277Y-11591793D01*
X7858277Y-11591793D02*
X7896372Y-11591793D01*
X7896372Y-11591793D02*
X7915420Y-11582269D01*
X7915420Y-11582269D02*
X7924944Y-11572746D01*
X7924944Y-11572746D02*
X7934467Y-11553698D01*
X8115420Y-11467984D02*
X8020182Y-11467984D01*
X8020182Y-11467984D02*
X8010658Y-11563222D01*
X8010658Y-11563222D02*
X8020182Y-11553698D01*
X8020182Y-11553698D02*
X8039229Y-11544174D01*
X8039229Y-11544174D02*
X8086848Y-11544174D01*
X8086848Y-11544174D02*
X8105896Y-11553698D01*
X8105896Y-11553698D02*
X8115420Y-11563222D01*
X8115420Y-11563222D02*
X8124944Y-11582269D01*
X8124944Y-11582269D02*
X8124944Y-11629888D01*
X8124944Y-11629888D02*
X8115420Y-11648936D01*
X8115420Y-11648936D02*
X8105896Y-11658460D01*
X8105896Y-11658460D02*
X8086848Y-11667984D01*
X8086848Y-11667984D02*
X8039229Y-11667984D01*
X8039229Y-11667984D02*
X8020182Y-11658460D01*
X8020182Y-11658460D02*
X8010658Y-11648936D01*
X8201134Y-11467984D02*
X8201134Y-11506079D01*
X8277325Y-11467984D02*
X8277325Y-11506079D01*
X8572563Y-11744174D02*
X8563039Y-11734650D01*
X8563039Y-11734650D02*
X8543991Y-11706079D01*
X8543991Y-11706079D02*
X8534468Y-11687031D01*
X8534468Y-11687031D02*
X8524944Y-11658460D01*
X8524944Y-11658460D02*
X8515420Y-11610841D01*
X8515420Y-11610841D02*
X8515420Y-11572746D01*
X8515420Y-11572746D02*
X8524944Y-11525127D01*
X8524944Y-11525127D02*
X8534468Y-11496555D01*
X8534468Y-11496555D02*
X8543991Y-11477508D01*
X8543991Y-11477508D02*
X8563039Y-11448936D01*
X8563039Y-11448936D02*
X8572563Y-11439412D01*
X8639230Y-11487031D02*
X8648753Y-11477508D01*
X8648753Y-11477508D02*
X8667801Y-11467984D01*
X8667801Y-11467984D02*
X8715420Y-11467984D01*
X8715420Y-11467984D02*
X8734468Y-11477508D01*
X8734468Y-11477508D02*
X8743991Y-11487031D01*
X8743991Y-11487031D02*
X8753515Y-11506079D01*
X8753515Y-11506079D02*
X8753515Y-11525127D01*
X8753515Y-11525127D02*
X8743991Y-11553698D01*
X8743991Y-11553698D02*
X8629706Y-11667984D01*
X8629706Y-11667984D02*
X8753515Y-11667984D01*
X8991611Y-11667984D02*
X8991611Y-11467984D01*
X9077325Y-11667984D02*
X9077325Y-11563222D01*
X9077325Y-11563222D02*
X9067801Y-11544174D01*
X9067801Y-11544174D02*
X9048753Y-11534650D01*
X9048753Y-11534650D02*
X9020182Y-11534650D01*
X9020182Y-11534650D02*
X9001134Y-11544174D01*
X9001134Y-11544174D02*
X8991611Y-11553698D01*
X9201134Y-11667984D02*
X9182087Y-11658460D01*
X9182087Y-11658460D02*
X9172563Y-11648936D01*
X9172563Y-11648936D02*
X9163039Y-11629888D01*
X9163039Y-11629888D02*
X9163039Y-11572746D01*
X9163039Y-11572746D02*
X9172563Y-11553698D01*
X9172563Y-11553698D02*
X9182087Y-11544174D01*
X9182087Y-11544174D02*
X9201134Y-11534650D01*
X9201134Y-11534650D02*
X9229706Y-11534650D01*
X9229706Y-11534650D02*
X9248753Y-11544174D01*
X9248753Y-11544174D02*
X9258277Y-11553698D01*
X9258277Y-11553698D02*
X9267801Y-11572746D01*
X9267801Y-11572746D02*
X9267801Y-11629888D01*
X9267801Y-11629888D02*
X9258277Y-11648936D01*
X9258277Y-11648936D02*
X9248753Y-11658460D01*
X9248753Y-11658460D02*
X9229706Y-11667984D01*
X9229706Y-11667984D02*
X9201134Y-11667984D01*
X9382087Y-11667984D02*
X9363039Y-11658460D01*
X9363039Y-11658460D02*
X9353515Y-11639412D01*
X9353515Y-11639412D02*
X9353515Y-11467984D01*
X9534468Y-11658460D02*
X9515420Y-11667984D01*
X9515420Y-11667984D02*
X9477325Y-11667984D01*
X9477325Y-11667984D02*
X9458277Y-11658460D01*
X9458277Y-11658460D02*
X9448753Y-11639412D01*
X9448753Y-11639412D02*
X9448753Y-11563222D01*
X9448753Y-11563222D02*
X9458277Y-11544174D01*
X9458277Y-11544174D02*
X9477325Y-11534650D01*
X9477325Y-11534650D02*
X9515420Y-11534650D01*
X9515420Y-11534650D02*
X9534468Y-11544174D01*
X9534468Y-11544174D02*
X9543992Y-11563222D01*
X9543992Y-11563222D02*
X9543992Y-11582269D01*
X9543992Y-11582269D02*
X9448753Y-11601317D01*
X9620182Y-11658460D02*
X9639230Y-11667984D01*
X9639230Y-11667984D02*
X9677325Y-11667984D01*
X9677325Y-11667984D02*
X9696373Y-11658460D01*
X9696373Y-11658460D02*
X9705896Y-11639412D01*
X9705896Y-11639412D02*
X9705896Y-11629888D01*
X9705896Y-11629888D02*
X9696373Y-11610841D01*
X9696373Y-11610841D02*
X9677325Y-11601317D01*
X9677325Y-11601317D02*
X9648753Y-11601317D01*
X9648753Y-11601317D02*
X9629706Y-11591793D01*
X9629706Y-11591793D02*
X9620182Y-11572746D01*
X9620182Y-11572746D02*
X9620182Y-11563222D01*
X9620182Y-11563222D02*
X9629706Y-11544174D01*
X9629706Y-11544174D02*
X9648753Y-11534650D01*
X9648753Y-11534650D02*
X9677325Y-11534650D01*
X9677325Y-11534650D02*
X9696373Y-11544174D01*
X9772563Y-11744174D02*
X9782087Y-11734650D01*
X9782087Y-11734650D02*
X9801134Y-11706079D01*
X9801134Y-11706079D02*
X9810658Y-11687031D01*
X9810658Y-11687031D02*
X9820182Y-11658460D01*
X9820182Y-11658460D02*
X9829706Y-11610841D01*
X9829706Y-11610841D02*
X9829706Y-11572746D01*
X9829706Y-11572746D02*
X9820182Y-11525127D01*
X9820182Y-11525127D02*
X9810658Y-11496555D01*
X9810658Y-11496555D02*
X9801134Y-11477508D01*
X9801134Y-11477508D02*
X9782087Y-11448936D01*
X9782087Y-11448936D02*
X9772563Y-11439412D01*
D12*
X4947500Y-11790500D02*
X4947500Y-11890500D01*
X4897500Y-11840500D02*
X4997500Y-11840500D01*
D11*
X5363039Y-11931984D02*
X5248753Y-11931984D01*
X5305896Y-11931984D02*
X5305896Y-11731984D01*
X5305896Y-11731984D02*
X5286848Y-11760555D01*
X5286848Y-11760555D02*
X5267801Y-11779603D01*
X5267801Y-11779603D02*
X5248753Y-11789127D01*
X5448753Y-11912936D02*
X5458277Y-11922460D01*
X5458277Y-11922460D02*
X5448753Y-11931984D01*
X5448753Y-11931984D02*
X5439229Y-11922460D01*
X5439229Y-11922460D02*
X5448753Y-11912936D01*
X5448753Y-11912936D02*
X5448753Y-11931984D01*
X5582086Y-11731984D02*
X5601134Y-11731984D01*
X5601134Y-11731984D02*
X5620182Y-11741508D01*
X5620182Y-11741508D02*
X5629705Y-11751031D01*
X5629705Y-11751031D02*
X5639229Y-11770079D01*
X5639229Y-11770079D02*
X5648753Y-11808174D01*
X5648753Y-11808174D02*
X5648753Y-11855793D01*
X5648753Y-11855793D02*
X5639229Y-11893888D01*
X5639229Y-11893888D02*
X5629705Y-11912936D01*
X5629705Y-11912936D02*
X5620182Y-11922460D01*
X5620182Y-11922460D02*
X5601134Y-11931984D01*
X5601134Y-11931984D02*
X5582086Y-11931984D01*
X5582086Y-11931984D02*
X5563039Y-11922460D01*
X5563039Y-11922460D02*
X5553515Y-11912936D01*
X5553515Y-11912936D02*
X5543991Y-11893888D01*
X5543991Y-11893888D02*
X5534467Y-11855793D01*
X5534467Y-11855793D02*
X5534467Y-11808174D01*
X5534467Y-11808174D02*
X5543991Y-11770079D01*
X5543991Y-11770079D02*
X5553515Y-11751031D01*
X5553515Y-11751031D02*
X5563039Y-11741508D01*
X5563039Y-11741508D02*
X5582086Y-11731984D01*
X5772562Y-11731984D02*
X5791610Y-11731984D01*
X5791610Y-11731984D02*
X5810658Y-11741508D01*
X5810658Y-11741508D02*
X5820182Y-11751031D01*
X5820182Y-11751031D02*
X5829705Y-11770079D01*
X5829705Y-11770079D02*
X5839229Y-11808174D01*
X5839229Y-11808174D02*
X5839229Y-11855793D01*
X5839229Y-11855793D02*
X5829705Y-11893888D01*
X5829705Y-11893888D02*
X5820182Y-11912936D01*
X5820182Y-11912936D02*
X5810658Y-11922460D01*
X5810658Y-11922460D02*
X5791610Y-11931984D01*
X5791610Y-11931984D02*
X5772562Y-11931984D01*
X5772562Y-11931984D02*
X5753515Y-11922460D01*
X5753515Y-11922460D02*
X5743991Y-11912936D01*
X5743991Y-11912936D02*
X5734467Y-11893888D01*
X5734467Y-11893888D02*
X5724943Y-11855793D01*
X5724943Y-11855793D02*
X5724943Y-11808174D01*
X5724943Y-11808174D02*
X5734467Y-11770079D01*
X5734467Y-11770079D02*
X5743991Y-11751031D01*
X5743991Y-11751031D02*
X5753515Y-11741508D01*
X5753515Y-11741508D02*
X5772562Y-11731984D01*
X5963039Y-11731984D02*
X5982086Y-11731984D01*
X5982086Y-11731984D02*
X6001134Y-11741508D01*
X6001134Y-11741508D02*
X6010658Y-11751031D01*
X6010658Y-11751031D02*
X6020182Y-11770079D01*
X6020182Y-11770079D02*
X6029705Y-11808174D01*
X6029705Y-11808174D02*
X6029705Y-11855793D01*
X6029705Y-11855793D02*
X6020182Y-11893888D01*
X6020182Y-11893888D02*
X6010658Y-11912936D01*
X6010658Y-11912936D02*
X6001134Y-11922460D01*
X6001134Y-11922460D02*
X5982086Y-11931984D01*
X5982086Y-11931984D02*
X5963039Y-11931984D01*
X5963039Y-11931984D02*
X5943991Y-11922460D01*
X5943991Y-11922460D02*
X5934467Y-11912936D01*
X5934467Y-11912936D02*
X5924943Y-11893888D01*
X5924943Y-11893888D02*
X5915420Y-11855793D01*
X5915420Y-11855793D02*
X5915420Y-11808174D01*
X5915420Y-11808174D02*
X5924943Y-11770079D01*
X5924943Y-11770079D02*
X5934467Y-11751031D01*
X5934467Y-11751031D02*
X5943991Y-11741508D01*
X5943991Y-11741508D02*
X5963039Y-11731984D01*
X6115420Y-11931984D02*
X6115420Y-11798650D01*
X6115420Y-11817698D02*
X6124943Y-11808174D01*
X6124943Y-11808174D02*
X6143991Y-11798650D01*
X6143991Y-11798650D02*
X6172563Y-11798650D01*
X6172563Y-11798650D02*
X6191610Y-11808174D01*
X6191610Y-11808174D02*
X6201134Y-11827222D01*
X6201134Y-11827222D02*
X6201134Y-11931984D01*
X6201134Y-11827222D02*
X6210658Y-11808174D01*
X6210658Y-11808174D02*
X6229705Y-11798650D01*
X6229705Y-11798650D02*
X6258277Y-11798650D01*
X6258277Y-11798650D02*
X6277324Y-11808174D01*
X6277324Y-11808174D02*
X6286848Y-11827222D01*
X6286848Y-11827222D02*
X6286848Y-11931984D01*
X6382086Y-11931984D02*
X6382086Y-11798650D01*
X6382086Y-11817698D02*
X6391610Y-11808174D01*
X6391610Y-11808174D02*
X6410658Y-11798650D01*
X6410658Y-11798650D02*
X6439229Y-11798650D01*
X6439229Y-11798650D02*
X6458277Y-11808174D01*
X6458277Y-11808174D02*
X6467801Y-11827222D01*
X6467801Y-11827222D02*
X6467801Y-11931984D01*
X6467801Y-11827222D02*
X6477324Y-11808174D01*
X6477324Y-11808174D02*
X6496372Y-11798650D01*
X6496372Y-11798650D02*
X6524943Y-11798650D01*
X6524943Y-11798650D02*
X6543991Y-11808174D01*
X6543991Y-11808174D02*
X6553515Y-11827222D01*
X6553515Y-11827222D02*
X6553515Y-11931984D01*
X6943991Y-11722460D02*
X6772563Y-11979603D01*
X7201134Y-11731984D02*
X7220182Y-11731984D01*
X7220182Y-11731984D02*
X7239229Y-11741508D01*
X7239229Y-11741508D02*
X7248753Y-11751031D01*
X7248753Y-11751031D02*
X7258277Y-11770079D01*
X7258277Y-11770079D02*
X7267801Y-11808174D01*
X7267801Y-11808174D02*
X7267801Y-11855793D01*
X7267801Y-11855793D02*
X7258277Y-11893888D01*
X7258277Y-11893888D02*
X7248753Y-11912936D01*
X7248753Y-11912936D02*
X7239229Y-11922460D01*
X7239229Y-11922460D02*
X7220182Y-11931984D01*
X7220182Y-11931984D02*
X7201134Y-11931984D01*
X7201134Y-11931984D02*
X7182086Y-11922460D01*
X7182086Y-11922460D02*
X7172563Y-11912936D01*
X7172563Y-11912936D02*
X7163039Y-11893888D01*
X7163039Y-11893888D02*
X7153515Y-11855793D01*
X7153515Y-11855793D02*
X7153515Y-11808174D01*
X7153515Y-11808174D02*
X7163039Y-11770079D01*
X7163039Y-11770079D02*
X7172563Y-11751031D01*
X7172563Y-11751031D02*
X7182086Y-11741508D01*
X7182086Y-11741508D02*
X7201134Y-11731984D01*
X7353515Y-11912936D02*
X7363039Y-11922460D01*
X7363039Y-11922460D02*
X7353515Y-11931984D01*
X7353515Y-11931984D02*
X7343991Y-11922460D01*
X7343991Y-11922460D02*
X7353515Y-11912936D01*
X7353515Y-11912936D02*
X7353515Y-11931984D01*
X7486848Y-11731984D02*
X7505896Y-11731984D01*
X7505896Y-11731984D02*
X7524944Y-11741508D01*
X7524944Y-11741508D02*
X7534467Y-11751031D01*
X7534467Y-11751031D02*
X7543991Y-11770079D01*
X7543991Y-11770079D02*
X7553515Y-11808174D01*
X7553515Y-11808174D02*
X7553515Y-11855793D01*
X7553515Y-11855793D02*
X7543991Y-11893888D01*
X7543991Y-11893888D02*
X7534467Y-11912936D01*
X7534467Y-11912936D02*
X7524944Y-11922460D01*
X7524944Y-11922460D02*
X7505896Y-11931984D01*
X7505896Y-11931984D02*
X7486848Y-11931984D01*
X7486848Y-11931984D02*
X7467801Y-11922460D01*
X7467801Y-11922460D02*
X7458277Y-11912936D01*
X7458277Y-11912936D02*
X7448753Y-11893888D01*
X7448753Y-11893888D02*
X7439229Y-11855793D01*
X7439229Y-11855793D02*
X7439229Y-11808174D01*
X7439229Y-11808174D02*
X7448753Y-11770079D01*
X7448753Y-11770079D02*
X7458277Y-11751031D01*
X7458277Y-11751031D02*
X7467801Y-11741508D01*
X7467801Y-11741508D02*
X7486848Y-11731984D01*
X7620182Y-11731984D02*
X7743991Y-11731984D01*
X7743991Y-11731984D02*
X7677325Y-11808174D01*
X7677325Y-11808174D02*
X7705896Y-11808174D01*
X7705896Y-11808174D02*
X7724944Y-11817698D01*
X7724944Y-11817698D02*
X7734467Y-11827222D01*
X7734467Y-11827222D02*
X7743991Y-11846269D01*
X7743991Y-11846269D02*
X7743991Y-11893888D01*
X7743991Y-11893888D02*
X7734467Y-11912936D01*
X7734467Y-11912936D02*
X7724944Y-11922460D01*
X7724944Y-11922460D02*
X7705896Y-11931984D01*
X7705896Y-11931984D02*
X7648753Y-11931984D01*
X7648753Y-11931984D02*
X7629706Y-11922460D01*
X7629706Y-11922460D02*
X7620182Y-11912936D01*
X7839229Y-11931984D02*
X7877325Y-11931984D01*
X7877325Y-11931984D02*
X7896372Y-11922460D01*
X7896372Y-11922460D02*
X7905896Y-11912936D01*
X7905896Y-11912936D02*
X7924944Y-11884365D01*
X7924944Y-11884365D02*
X7934467Y-11846269D01*
X7934467Y-11846269D02*
X7934467Y-11770079D01*
X7934467Y-11770079D02*
X7924944Y-11751031D01*
X7924944Y-11751031D02*
X7915420Y-11741508D01*
X7915420Y-11741508D02*
X7896372Y-11731984D01*
X7896372Y-11731984D02*
X7858277Y-11731984D01*
X7858277Y-11731984D02*
X7839229Y-11741508D01*
X7839229Y-11741508D02*
X7829706Y-11751031D01*
X7829706Y-11751031D02*
X7820182Y-11770079D01*
X7820182Y-11770079D02*
X7820182Y-11817698D01*
X7820182Y-11817698D02*
X7829706Y-11836746D01*
X7829706Y-11836746D02*
X7839229Y-11846269D01*
X7839229Y-11846269D02*
X7858277Y-11855793D01*
X7858277Y-11855793D02*
X7896372Y-11855793D01*
X7896372Y-11855793D02*
X7915420Y-11846269D01*
X7915420Y-11846269D02*
X7924944Y-11836746D01*
X7924944Y-11836746D02*
X7934467Y-11817698D01*
X8105896Y-11798650D02*
X8105896Y-11931984D01*
X8058277Y-11722460D02*
X8010658Y-11865317D01*
X8010658Y-11865317D02*
X8134467Y-11865317D01*
X8201134Y-11731984D02*
X8201134Y-11770079D01*
X8277325Y-11731984D02*
X8277325Y-11770079D01*
X8572563Y-12008174D02*
X8563039Y-11998650D01*
X8563039Y-11998650D02*
X8543991Y-11970079D01*
X8543991Y-11970079D02*
X8534468Y-11951031D01*
X8534468Y-11951031D02*
X8524944Y-11922460D01*
X8524944Y-11922460D02*
X8515420Y-11874841D01*
X8515420Y-11874841D02*
X8515420Y-11836746D01*
X8515420Y-11836746D02*
X8524944Y-11789127D01*
X8524944Y-11789127D02*
X8534468Y-11760555D01*
X8534468Y-11760555D02*
X8543991Y-11741508D01*
X8543991Y-11741508D02*
X8563039Y-11712936D01*
X8563039Y-11712936D02*
X8572563Y-11703412D01*
X8639230Y-11751031D02*
X8648753Y-11741508D01*
X8648753Y-11741508D02*
X8667801Y-11731984D01*
X8667801Y-11731984D02*
X8715420Y-11731984D01*
X8715420Y-11731984D02*
X8734468Y-11741508D01*
X8734468Y-11741508D02*
X8743991Y-11751031D01*
X8743991Y-11751031D02*
X8753515Y-11770079D01*
X8753515Y-11770079D02*
X8753515Y-11789127D01*
X8753515Y-11789127D02*
X8743991Y-11817698D01*
X8743991Y-11817698D02*
X8629706Y-11931984D01*
X8629706Y-11931984D02*
X8753515Y-11931984D01*
X8848753Y-11931984D02*
X8886849Y-11931984D01*
X8886849Y-11931984D02*
X8905896Y-11922460D01*
X8905896Y-11922460D02*
X8915420Y-11912936D01*
X8915420Y-11912936D02*
X8934468Y-11884365D01*
X8934468Y-11884365D02*
X8943991Y-11846269D01*
X8943991Y-11846269D02*
X8943991Y-11770079D01*
X8943991Y-11770079D02*
X8934468Y-11751031D01*
X8934468Y-11751031D02*
X8924944Y-11741508D01*
X8924944Y-11741508D02*
X8905896Y-11731984D01*
X8905896Y-11731984D02*
X8867801Y-11731984D01*
X8867801Y-11731984D02*
X8848753Y-11741508D01*
X8848753Y-11741508D02*
X8839230Y-11751031D01*
X8839230Y-11751031D02*
X8829706Y-11770079D01*
X8829706Y-11770079D02*
X8829706Y-11817698D01*
X8829706Y-11817698D02*
X8839230Y-11836746D01*
X8839230Y-11836746D02*
X8848753Y-11846269D01*
X8848753Y-11846269D02*
X8867801Y-11855793D01*
X8867801Y-11855793D02*
X8905896Y-11855793D01*
X8905896Y-11855793D02*
X8924944Y-11846269D01*
X8924944Y-11846269D02*
X8934468Y-11836746D01*
X8934468Y-11836746D02*
X8943991Y-11817698D01*
X9182087Y-11931984D02*
X9182087Y-11731984D01*
X9267801Y-11931984D02*
X9267801Y-11827222D01*
X9267801Y-11827222D02*
X9258277Y-11808174D01*
X9258277Y-11808174D02*
X9239230Y-11798650D01*
X9239230Y-11798650D02*
X9210658Y-11798650D01*
X9210658Y-11798650D02*
X9191611Y-11808174D01*
X9191611Y-11808174D02*
X9182087Y-11817698D01*
X9391611Y-11931984D02*
X9372563Y-11922460D01*
X9372563Y-11922460D02*
X9363039Y-11912936D01*
X9363039Y-11912936D02*
X9353515Y-11893888D01*
X9353515Y-11893888D02*
X9353515Y-11836746D01*
X9353515Y-11836746D02*
X9363039Y-11817698D01*
X9363039Y-11817698D02*
X9372563Y-11808174D01*
X9372563Y-11808174D02*
X9391611Y-11798650D01*
X9391611Y-11798650D02*
X9420182Y-11798650D01*
X9420182Y-11798650D02*
X9439230Y-11808174D01*
X9439230Y-11808174D02*
X9448753Y-11817698D01*
X9448753Y-11817698D02*
X9458277Y-11836746D01*
X9458277Y-11836746D02*
X9458277Y-11893888D01*
X9458277Y-11893888D02*
X9448753Y-11912936D01*
X9448753Y-11912936D02*
X9439230Y-11922460D01*
X9439230Y-11922460D02*
X9420182Y-11931984D01*
X9420182Y-11931984D02*
X9391611Y-11931984D01*
X9572563Y-11931984D02*
X9553515Y-11922460D01*
X9553515Y-11922460D02*
X9543992Y-11903412D01*
X9543992Y-11903412D02*
X9543992Y-11731984D01*
X9724944Y-11922460D02*
X9705896Y-11931984D01*
X9705896Y-11931984D02*
X9667801Y-11931984D01*
X9667801Y-11931984D02*
X9648753Y-11922460D01*
X9648753Y-11922460D02*
X9639230Y-11903412D01*
X9639230Y-11903412D02*
X9639230Y-11827222D01*
X9639230Y-11827222D02*
X9648753Y-11808174D01*
X9648753Y-11808174D02*
X9667801Y-11798650D01*
X9667801Y-11798650D02*
X9705896Y-11798650D01*
X9705896Y-11798650D02*
X9724944Y-11808174D01*
X9724944Y-11808174D02*
X9734468Y-11827222D01*
X9734468Y-11827222D02*
X9734468Y-11846269D01*
X9734468Y-11846269D02*
X9639230Y-11865317D01*
X9810658Y-11922460D02*
X9829706Y-11931984D01*
X9829706Y-11931984D02*
X9867801Y-11931984D01*
X9867801Y-11931984D02*
X9886849Y-11922460D01*
X9886849Y-11922460D02*
X9896373Y-11903412D01*
X9896373Y-11903412D02*
X9896373Y-11893888D01*
X9896373Y-11893888D02*
X9886849Y-11874841D01*
X9886849Y-11874841D02*
X9867801Y-11865317D01*
X9867801Y-11865317D02*
X9839230Y-11865317D01*
X9839230Y-11865317D02*
X9820182Y-11855793D01*
X9820182Y-11855793D02*
X9810658Y-11836746D01*
X9810658Y-11836746D02*
X9810658Y-11827222D01*
X9810658Y-11827222D02*
X9820182Y-11808174D01*
X9820182Y-11808174D02*
X9839230Y-11798650D01*
X9839230Y-11798650D02*
X9867801Y-11798650D01*
X9867801Y-11798650D02*
X9886849Y-11808174D01*
X9963039Y-12008174D02*
X9972563Y-11998650D01*
X9972563Y-11998650D02*
X9991611Y-11970079D01*
X9991611Y-11970079D02*
X10001134Y-11951031D01*
X10001134Y-11951031D02*
X10010658Y-11922460D01*
X10010658Y-11922460D02*
X10020182Y-11874841D01*
X10020182Y-11874841D02*
X10020182Y-11836746D01*
X10020182Y-11836746D02*
X10010658Y-11789127D01*
X10010658Y-11789127D02*
X10001134Y-11760555D01*
X10001134Y-11760555D02*
X9991611Y-11741508D01*
X9991611Y-11741508D02*
X9972563Y-11712936D01*
X9972563Y-11712936D02*
X9963039Y-11703412D01*
D13*
X4979927Y-12146927D02*
X4979927Y-12062073D01*
X4895073Y-12062073D01*
X4895073Y-12146927D01*
X4979927Y-12146927D01*
D11*
X5363039Y-12195984D02*
X5248753Y-12195984D01*
X5305896Y-12195984D02*
X5305896Y-11995984D01*
X5305896Y-11995984D02*
X5286848Y-12024555D01*
X5286848Y-12024555D02*
X5267801Y-12043603D01*
X5267801Y-12043603D02*
X5248753Y-12053127D01*
X5448753Y-12176936D02*
X5458277Y-12186460D01*
X5458277Y-12186460D02*
X5448753Y-12195984D01*
X5448753Y-12195984D02*
X5439229Y-12186460D01*
X5439229Y-12186460D02*
X5448753Y-12176936D01*
X5448753Y-12176936D02*
X5448753Y-12195984D01*
X5534467Y-12015031D02*
X5543991Y-12005508D01*
X5543991Y-12005508D02*
X5563039Y-11995984D01*
X5563039Y-11995984D02*
X5610658Y-11995984D01*
X5610658Y-11995984D02*
X5629705Y-12005508D01*
X5629705Y-12005508D02*
X5639229Y-12015031D01*
X5639229Y-12015031D02*
X5648753Y-12034079D01*
X5648753Y-12034079D02*
X5648753Y-12053127D01*
X5648753Y-12053127D02*
X5639229Y-12081698D01*
X5639229Y-12081698D02*
X5524944Y-12195984D01*
X5524944Y-12195984D02*
X5648753Y-12195984D01*
X5772562Y-11995984D02*
X5791610Y-11995984D01*
X5791610Y-11995984D02*
X5810658Y-12005508D01*
X5810658Y-12005508D02*
X5820182Y-12015031D01*
X5820182Y-12015031D02*
X5829705Y-12034079D01*
X5829705Y-12034079D02*
X5839229Y-12072174D01*
X5839229Y-12072174D02*
X5839229Y-12119793D01*
X5839229Y-12119793D02*
X5829705Y-12157888D01*
X5829705Y-12157888D02*
X5820182Y-12176936D01*
X5820182Y-12176936D02*
X5810658Y-12186460D01*
X5810658Y-12186460D02*
X5791610Y-12195984D01*
X5791610Y-12195984D02*
X5772562Y-12195984D01*
X5772562Y-12195984D02*
X5753515Y-12186460D01*
X5753515Y-12186460D02*
X5743991Y-12176936D01*
X5743991Y-12176936D02*
X5734467Y-12157888D01*
X5734467Y-12157888D02*
X5724943Y-12119793D01*
X5724943Y-12119793D02*
X5724943Y-12072174D01*
X5724943Y-12072174D02*
X5734467Y-12034079D01*
X5734467Y-12034079D02*
X5743991Y-12015031D01*
X5743991Y-12015031D02*
X5753515Y-12005508D01*
X5753515Y-12005508D02*
X5772562Y-11995984D01*
X5963039Y-11995984D02*
X5982086Y-11995984D01*
X5982086Y-11995984D02*
X6001134Y-12005508D01*
X6001134Y-12005508D02*
X6010658Y-12015031D01*
X6010658Y-12015031D02*
X6020182Y-12034079D01*
X6020182Y-12034079D02*
X6029705Y-12072174D01*
X6029705Y-12072174D02*
X6029705Y-12119793D01*
X6029705Y-12119793D02*
X6020182Y-12157888D01*
X6020182Y-12157888D02*
X6010658Y-12176936D01*
X6010658Y-12176936D02*
X6001134Y-12186460D01*
X6001134Y-12186460D02*
X5982086Y-12195984D01*
X5982086Y-12195984D02*
X5963039Y-12195984D01*
X5963039Y-12195984D02*
X5943991Y-12186460D01*
X5943991Y-12186460D02*
X5934467Y-12176936D01*
X5934467Y-12176936D02*
X5924943Y-12157888D01*
X5924943Y-12157888D02*
X5915420Y-12119793D01*
X5915420Y-12119793D02*
X5915420Y-12072174D01*
X5915420Y-12072174D02*
X5924943Y-12034079D01*
X5924943Y-12034079D02*
X5934467Y-12015031D01*
X5934467Y-12015031D02*
X5943991Y-12005508D01*
X5943991Y-12005508D02*
X5963039Y-11995984D01*
X6115420Y-12195984D02*
X6115420Y-12062650D01*
X6115420Y-12081698D02*
X6124943Y-12072174D01*
X6124943Y-12072174D02*
X6143991Y-12062650D01*
X6143991Y-12062650D02*
X6172563Y-12062650D01*
X6172563Y-12062650D02*
X6191610Y-12072174D01*
X6191610Y-12072174D02*
X6201134Y-12091222D01*
X6201134Y-12091222D02*
X6201134Y-12195984D01*
X6201134Y-12091222D02*
X6210658Y-12072174D01*
X6210658Y-12072174D02*
X6229705Y-12062650D01*
X6229705Y-12062650D02*
X6258277Y-12062650D01*
X6258277Y-12062650D02*
X6277324Y-12072174D01*
X6277324Y-12072174D02*
X6286848Y-12091222D01*
X6286848Y-12091222D02*
X6286848Y-12195984D01*
X6382086Y-12195984D02*
X6382086Y-12062650D01*
X6382086Y-12081698D02*
X6391610Y-12072174D01*
X6391610Y-12072174D02*
X6410658Y-12062650D01*
X6410658Y-12062650D02*
X6439229Y-12062650D01*
X6439229Y-12062650D02*
X6458277Y-12072174D01*
X6458277Y-12072174D02*
X6467801Y-12091222D01*
X6467801Y-12091222D02*
X6467801Y-12195984D01*
X6467801Y-12091222D02*
X6477324Y-12072174D01*
X6477324Y-12072174D02*
X6496372Y-12062650D01*
X6496372Y-12062650D02*
X6524943Y-12062650D01*
X6524943Y-12062650D02*
X6543991Y-12072174D01*
X6543991Y-12072174D02*
X6553515Y-12091222D01*
X6553515Y-12091222D02*
X6553515Y-12195984D01*
X6943991Y-11986460D02*
X6772563Y-12243603D01*
X7201134Y-11995984D02*
X7220182Y-11995984D01*
X7220182Y-11995984D02*
X7239229Y-12005508D01*
X7239229Y-12005508D02*
X7248753Y-12015031D01*
X7248753Y-12015031D02*
X7258277Y-12034079D01*
X7258277Y-12034079D02*
X7267801Y-12072174D01*
X7267801Y-12072174D02*
X7267801Y-12119793D01*
X7267801Y-12119793D02*
X7258277Y-12157888D01*
X7258277Y-12157888D02*
X7248753Y-12176936D01*
X7248753Y-12176936D02*
X7239229Y-12186460D01*
X7239229Y-12186460D02*
X7220182Y-12195984D01*
X7220182Y-12195984D02*
X7201134Y-12195984D01*
X7201134Y-12195984D02*
X7182086Y-12186460D01*
X7182086Y-12186460D02*
X7172563Y-12176936D01*
X7172563Y-12176936D02*
X7163039Y-12157888D01*
X7163039Y-12157888D02*
X7153515Y-12119793D01*
X7153515Y-12119793D02*
X7153515Y-12072174D01*
X7153515Y-12072174D02*
X7163039Y-12034079D01*
X7163039Y-12034079D02*
X7172563Y-12015031D01*
X7172563Y-12015031D02*
X7182086Y-12005508D01*
X7182086Y-12005508D02*
X7201134Y-11995984D01*
X7353515Y-12176936D02*
X7363039Y-12186460D01*
X7363039Y-12186460D02*
X7353515Y-12195984D01*
X7353515Y-12195984D02*
X7343991Y-12186460D01*
X7343991Y-12186460D02*
X7353515Y-12176936D01*
X7353515Y-12176936D02*
X7353515Y-12195984D01*
X7486848Y-11995984D02*
X7505896Y-11995984D01*
X7505896Y-11995984D02*
X7524944Y-12005508D01*
X7524944Y-12005508D02*
X7534467Y-12015031D01*
X7534467Y-12015031D02*
X7543991Y-12034079D01*
X7543991Y-12034079D02*
X7553515Y-12072174D01*
X7553515Y-12072174D02*
X7553515Y-12119793D01*
X7553515Y-12119793D02*
X7543991Y-12157888D01*
X7543991Y-12157888D02*
X7534467Y-12176936D01*
X7534467Y-12176936D02*
X7524944Y-12186460D01*
X7524944Y-12186460D02*
X7505896Y-12195984D01*
X7505896Y-12195984D02*
X7486848Y-12195984D01*
X7486848Y-12195984D02*
X7467801Y-12186460D01*
X7467801Y-12186460D02*
X7458277Y-12176936D01*
X7458277Y-12176936D02*
X7448753Y-12157888D01*
X7448753Y-12157888D02*
X7439229Y-12119793D01*
X7439229Y-12119793D02*
X7439229Y-12072174D01*
X7439229Y-12072174D02*
X7448753Y-12034079D01*
X7448753Y-12034079D02*
X7458277Y-12015031D01*
X7458277Y-12015031D02*
X7467801Y-12005508D01*
X7467801Y-12005508D02*
X7486848Y-11995984D01*
X7724944Y-12062650D02*
X7724944Y-12195984D01*
X7677325Y-11986460D02*
X7629706Y-12129317D01*
X7629706Y-12129317D02*
X7753515Y-12129317D01*
X7810658Y-11995984D02*
X7943991Y-11995984D01*
X7943991Y-11995984D02*
X7858277Y-12195984D01*
X8010658Y-12015031D02*
X8020182Y-12005508D01*
X8020182Y-12005508D02*
X8039229Y-11995984D01*
X8039229Y-11995984D02*
X8086848Y-11995984D01*
X8086848Y-11995984D02*
X8105896Y-12005508D01*
X8105896Y-12005508D02*
X8115420Y-12015031D01*
X8115420Y-12015031D02*
X8124944Y-12034079D01*
X8124944Y-12034079D02*
X8124944Y-12053127D01*
X8124944Y-12053127D02*
X8115420Y-12081698D01*
X8115420Y-12081698D02*
X8001134Y-12195984D01*
X8001134Y-12195984D02*
X8124944Y-12195984D01*
X8201134Y-11995984D02*
X8201134Y-12034079D01*
X8277325Y-11995984D02*
X8277325Y-12034079D01*
X8572563Y-12272174D02*
X8563039Y-12262650D01*
X8563039Y-12262650D02*
X8543991Y-12234079D01*
X8543991Y-12234079D02*
X8534468Y-12215031D01*
X8534468Y-12215031D02*
X8524944Y-12186460D01*
X8524944Y-12186460D02*
X8515420Y-12138841D01*
X8515420Y-12138841D02*
X8515420Y-12100746D01*
X8515420Y-12100746D02*
X8524944Y-12053127D01*
X8524944Y-12053127D02*
X8534468Y-12024555D01*
X8534468Y-12024555D02*
X8543991Y-12005508D01*
X8543991Y-12005508D02*
X8563039Y-11976936D01*
X8563039Y-11976936D02*
X8572563Y-11967412D01*
X8734468Y-12062650D02*
X8734468Y-12195984D01*
X8686849Y-11986460D02*
X8639230Y-12129317D01*
X8639230Y-12129317D02*
X8763039Y-12129317D01*
X8877325Y-11995984D02*
X8896372Y-11995984D01*
X8896372Y-11995984D02*
X8915420Y-12005508D01*
X8915420Y-12005508D02*
X8924944Y-12015031D01*
X8924944Y-12015031D02*
X8934468Y-12034079D01*
X8934468Y-12034079D02*
X8943991Y-12072174D01*
X8943991Y-12072174D02*
X8943991Y-12119793D01*
X8943991Y-12119793D02*
X8934468Y-12157888D01*
X8934468Y-12157888D02*
X8924944Y-12176936D01*
X8924944Y-12176936D02*
X8915420Y-12186460D01*
X8915420Y-12186460D02*
X8896372Y-12195984D01*
X8896372Y-12195984D02*
X8877325Y-12195984D01*
X8877325Y-12195984D02*
X8858277Y-12186460D01*
X8858277Y-12186460D02*
X8848753Y-12176936D01*
X8848753Y-12176936D02*
X8839230Y-12157888D01*
X8839230Y-12157888D02*
X8829706Y-12119793D01*
X8829706Y-12119793D02*
X8829706Y-12072174D01*
X8829706Y-12072174D02*
X8839230Y-12034079D01*
X8839230Y-12034079D02*
X8848753Y-12015031D01*
X8848753Y-12015031D02*
X8858277Y-12005508D01*
X8858277Y-12005508D02*
X8877325Y-11995984D01*
X9182087Y-12195984D02*
X9182087Y-11995984D01*
X9267801Y-12195984D02*
X9267801Y-12091222D01*
X9267801Y-12091222D02*
X9258277Y-12072174D01*
X9258277Y-12072174D02*
X9239230Y-12062650D01*
X9239230Y-12062650D02*
X9210658Y-12062650D01*
X9210658Y-12062650D02*
X9191611Y-12072174D01*
X9191611Y-12072174D02*
X9182087Y-12081698D01*
X9391611Y-12195984D02*
X9372563Y-12186460D01*
X9372563Y-12186460D02*
X9363039Y-12176936D01*
X9363039Y-12176936D02*
X9353515Y-12157888D01*
X9353515Y-12157888D02*
X9353515Y-12100746D01*
X9353515Y-12100746D02*
X9363039Y-12081698D01*
X9363039Y-12081698D02*
X9372563Y-12072174D01*
X9372563Y-12072174D02*
X9391611Y-12062650D01*
X9391611Y-12062650D02*
X9420182Y-12062650D01*
X9420182Y-12062650D02*
X9439230Y-12072174D01*
X9439230Y-12072174D02*
X9448753Y-12081698D01*
X9448753Y-12081698D02*
X9458277Y-12100746D01*
X9458277Y-12100746D02*
X9458277Y-12157888D01*
X9458277Y-12157888D02*
X9448753Y-12176936D01*
X9448753Y-12176936D02*
X9439230Y-12186460D01*
X9439230Y-12186460D02*
X9420182Y-12195984D01*
X9420182Y-12195984D02*
X9391611Y-12195984D01*
X9572563Y-12195984D02*
X9553515Y-12186460D01*
X9553515Y-12186460D02*
X9543992Y-12167412D01*
X9543992Y-12167412D02*
X9543992Y-11995984D01*
X9724944Y-12186460D02*
X9705896Y-12195984D01*
X9705896Y-12195984D02*
X9667801Y-12195984D01*
X9667801Y-12195984D02*
X9648753Y-12186460D01*
X9648753Y-12186460D02*
X9639230Y-12167412D01*
X9639230Y-12167412D02*
X9639230Y-12091222D01*
X9639230Y-12091222D02*
X9648753Y-12072174D01*
X9648753Y-12072174D02*
X9667801Y-12062650D01*
X9667801Y-12062650D02*
X9705896Y-12062650D01*
X9705896Y-12062650D02*
X9724944Y-12072174D01*
X9724944Y-12072174D02*
X9734468Y-12091222D01*
X9734468Y-12091222D02*
X9734468Y-12110269D01*
X9734468Y-12110269D02*
X9639230Y-12129317D01*
X9810658Y-12186460D02*
X9829706Y-12195984D01*
X9829706Y-12195984D02*
X9867801Y-12195984D01*
X9867801Y-12195984D02*
X9886849Y-12186460D01*
X9886849Y-12186460D02*
X9896373Y-12167412D01*
X9896373Y-12167412D02*
X9896373Y-12157888D01*
X9896373Y-12157888D02*
X9886849Y-12138841D01*
X9886849Y-12138841D02*
X9867801Y-12129317D01*
X9867801Y-12129317D02*
X9839230Y-12129317D01*
X9839230Y-12129317D02*
X9820182Y-12119793D01*
X9820182Y-12119793D02*
X9810658Y-12100746D01*
X9810658Y-12100746D02*
X9810658Y-12091222D01*
X9810658Y-12091222D02*
X9820182Y-12072174D01*
X9820182Y-12072174D02*
X9839230Y-12062650D01*
X9839230Y-12062650D02*
X9867801Y-12062650D01*
X9867801Y-12062650D02*
X9886849Y-12072174D01*
X9963039Y-12272174D02*
X9972563Y-12262650D01*
X9972563Y-12262650D02*
X9991611Y-12234079D01*
X9991611Y-12234079D02*
X10001134Y-12215031D01*
X10001134Y-12215031D02*
X10010658Y-12186460D01*
X10010658Y-12186460D02*
X10020182Y-12138841D01*
X10020182Y-12138841D02*
X10020182Y-12100746D01*
X10020182Y-12100746D02*
X10010658Y-12053127D01*
X10010658Y-12053127D02*
X10001134Y-12024555D01*
X10001134Y-12024555D02*
X9991611Y-12005508D01*
X9991611Y-12005508D02*
X9972563Y-11976936D01*
X9972563Y-11976936D02*
X9963039Y-11967412D01*
M02*
