M48
; DRILL file {KiCad 9.0.1} date 2025-08-18T19:39:49-0600
; FORMAT={-:-/ absolute / metric / decimal}
; #@! TF.CreationDate,2025-08-18T19:39:49-06:00
; #@! TF.GenerationSoftware,Kicad,Pcbnew,9.0.1
; #@! TF.FileFunction,NonPlated,1,2,NPTH
FMAT,2
METRIC
; #@! TA.AperFunction,NonPlated,NPTH,ComponentDrill
T1C0.900
; #@! TA.AperFunction,NonPlated,NPTH,ComponentDrill
T2C1.700
; #@! TA.AperFunction,NonPlated,NPTH,ComponentDrill
T3C3.400
%
G90
G05
T1
X77.8Y-40.7
X80.8Y-40.7
T2
X53.5Y-47.2
X53.5Y-64.2
X53.5Y-81.2
X53.5Y-98.2
X64.5Y-47.2
X64.5Y-64.2
X64.5Y-81.2
X64.5Y-98.2
X71.5Y-47.2
X71.5Y-64.2
X71.5Y-81.2
X71.5Y-98.2
X82.5Y-47.2
X82.5Y-64.2
X82.5Y-81.2
X82.5Y-98.2
X89.5Y-47.2
X89.5Y-64.2
X89.5Y-81.2
X89.5Y-98.2
X100.5Y-47.2
X100.5Y-64.2
X100.5Y-81.2
X100.5Y-98.2
X107.5Y-47.2
X107.5Y-64.2
X107.5Y-81.2
X107.5Y-98.2
X118.5Y-47.2
X118.5Y-64.2
X118.5Y-81.2
X118.5Y-98.2
X125.5Y-47.2
X125.5Y-64.2
X125.5Y-81.2
X125.5Y-98.2
X136.5Y-47.2
X136.5Y-64.2
X136.5Y-81.2
X136.5Y-98.2
T3
X59.0Y-47.2
X59.0Y-64.2
X59.0Y-81.2
X59.0Y-98.2
X77.0Y-47.2
X77.0Y-64.2
X77.0Y-81.2
X77.0Y-98.2
X95.0Y-47.2
X95.0Y-64.2
X95.0Y-81.2
X95.0Y-98.2
X113.0Y-47.2
X113.0Y-64.2
X113.0Y-81.2
X113.0Y-98.2
X131.0Y-47.2
X131.0Y-64.2
X131.0Y-81.2
X131.0Y-98.2
M30
