%TF.GenerationSoftware,KiCad,Pcbnew,9.0.1*%
%TF.CreationDate,2025-08-18T19:39:49-06:00*%
%TF.ProjectId,aurora40_kicad,6175726f-7261-4343-905f-6b696361642e,1*%
%TF.SameCoordinates,Original*%
%TF.FileFunction,Drillmap*%
%TF.FilePolarity,Positive*%
%FSLAX45Y45*%
G04 Gerber Fmt 4.5, Leading zero omitted, Abs format (unit mm)*
G04 Created by KiCad (PCBNEW 9.0.1) date 2025-08-18 19:39:49*
%MOMM*%
%LPD*%
G01*
G04 APERTURE LIST*
%ADD10C,0.050000*%
%ADD11C,0.200000*%
%ADD12C,0.100000*%
%ADD13C,0.170000*%
%ADD14C,0.340000*%
G04 APERTURE END LIST*
D10*
X5000000Y-3870000D02*
X14000000Y-3870000D01*
X14000000Y-10670000D01*
X5000000Y-10670000D01*
X5000000Y-3870000D01*
D11*
D12*
X7735000Y-4025000D02*
X7825000Y-4115000D01*
X7825000Y-4025000D02*
X7735000Y-4115000D01*
X8035000Y-4025000D02*
X8125000Y-4115000D01*
X8125000Y-4025000D02*
X8035000Y-4115000D01*
D13*
X5435000Y-4720000D02*
G75*
G02*
X5265000Y-4720000I-85000J0D01*
G01*
X5265000Y-4720000D02*
G75*
G02*
X5435000Y-4720000I85000J0D01*
G01*
X5435000Y-6420000D02*
G75*
G02*
X5265000Y-6420000I-85000J0D01*
G01*
X5265000Y-6420000D02*
G75*
G02*
X5435000Y-6420000I85000J0D01*
G01*
X5435000Y-8120000D02*
G75*
G02*
X5265000Y-8120000I-85000J0D01*
G01*
X5265000Y-8120000D02*
G75*
G02*
X5435000Y-8120000I85000J0D01*
G01*
X5435000Y-9820000D02*
G75*
G02*
X5265000Y-9820000I-85000J0D01*
G01*
X5265000Y-9820000D02*
G75*
G02*
X5435000Y-9820000I85000J0D01*
G01*
X6535000Y-4720000D02*
G75*
G02*
X6365000Y-4720000I-85000J0D01*
G01*
X6365000Y-4720000D02*
G75*
G02*
X6535000Y-4720000I85000J0D01*
G01*
X6535000Y-6420000D02*
G75*
G02*
X6365000Y-6420000I-85000J0D01*
G01*
X6365000Y-6420000D02*
G75*
G02*
X6535000Y-6420000I85000J0D01*
G01*
X6535000Y-8120000D02*
G75*
G02*
X6365000Y-8120000I-85000J0D01*
G01*
X6365000Y-8120000D02*
G75*
G02*
X6535000Y-8120000I85000J0D01*
G01*
X6535000Y-9820000D02*
G75*
G02*
X6365000Y-9820000I-85000J0D01*
G01*
X6365000Y-9820000D02*
G75*
G02*
X6535000Y-9820000I85000J0D01*
G01*
X7235000Y-4720000D02*
G75*
G02*
X7065000Y-4720000I-85000J0D01*
G01*
X7065000Y-4720000D02*
G75*
G02*
X7235000Y-4720000I85000J0D01*
G01*
X7235000Y-6420000D02*
G75*
G02*
X7065000Y-6420000I-85000J0D01*
G01*
X7065000Y-6420000D02*
G75*
G02*
X7235000Y-6420000I85000J0D01*
G01*
X7235000Y-8120000D02*
G75*
G02*
X7065000Y-8120000I-85000J0D01*
G01*
X7065000Y-8120000D02*
G75*
G02*
X7235000Y-8120000I85000J0D01*
G01*
X7235000Y-9820000D02*
G75*
G02*
X7065000Y-9820000I-85000J0D01*
G01*
X7065000Y-9820000D02*
G75*
G02*
X7235000Y-9820000I85000J0D01*
G01*
X8335000Y-4720000D02*
G75*
G02*
X8165000Y-4720000I-85000J0D01*
G01*
X8165000Y-4720000D02*
G75*
G02*
X8335000Y-4720000I85000J0D01*
G01*
X8335000Y-6420000D02*
G75*
G02*
X8165000Y-6420000I-85000J0D01*
G01*
X8165000Y-6420000D02*
G75*
G02*
X8335000Y-6420000I85000J0D01*
G01*
X8335000Y-8120000D02*
G75*
G02*
X8165000Y-8120000I-85000J0D01*
G01*
X8165000Y-8120000D02*
G75*
G02*
X8335000Y-8120000I85000J0D01*
G01*
X8335000Y-9820000D02*
G75*
G02*
X8165000Y-9820000I-85000J0D01*
G01*
X8165000Y-9820000D02*
G75*
G02*
X8335000Y-9820000I85000J0D01*
G01*
X9035000Y-4720000D02*
G75*
G02*
X8865000Y-4720000I-85000J0D01*
G01*
X8865000Y-4720000D02*
G75*
G02*
X9035000Y-4720000I85000J0D01*
G01*
X9035000Y-6420000D02*
G75*
G02*
X8865000Y-6420000I-85000J0D01*
G01*
X8865000Y-6420000D02*
G75*
G02*
X9035000Y-6420000I85000J0D01*
G01*
X9035000Y-8120000D02*
G75*
G02*
X8865000Y-8120000I-85000J0D01*
G01*
X8865000Y-8120000D02*
G75*
G02*
X9035000Y-8120000I85000J0D01*
G01*
X9035000Y-9820000D02*
G75*
G02*
X8865000Y-9820000I-85000J0D01*
G01*
X8865000Y-9820000D02*
G75*
G02*
X9035000Y-9820000I85000J0D01*
G01*
X10135000Y-4720000D02*
G75*
G02*
X9965000Y-4720000I-85000J0D01*
G01*
X9965000Y-4720000D02*
G75*
G02*
X10135000Y-4720000I85000J0D01*
G01*
X10135000Y-6420000D02*
G75*
G02*
X9965000Y-6420000I-85000J0D01*
G01*
X9965000Y-6420000D02*
G75*
G02*
X10135000Y-6420000I85000J0D01*
G01*
X10135000Y-8120000D02*
G75*
G02*
X9965000Y-8120000I-85000J0D01*
G01*
X9965000Y-8120000D02*
G75*
G02*
X10135000Y-8120000I85000J0D01*
G01*
X10135000Y-9820000D02*
G75*
G02*
X9965000Y-9820000I-85000J0D01*
G01*
X9965000Y-9820000D02*
G75*
G02*
X10135000Y-9820000I85000J0D01*
G01*
X10835000Y-4720000D02*
G75*
G02*
X10665000Y-4720000I-85000J0D01*
G01*
X10665000Y-4720000D02*
G75*
G02*
X10835000Y-4720000I85000J0D01*
G01*
X10835000Y-6420000D02*
G75*
G02*
X10665000Y-6420000I-85000J0D01*
G01*
X10665000Y-6420000D02*
G75*
G02*
X10835000Y-6420000I85000J0D01*
G01*
X10835000Y-8120000D02*
G75*
G02*
X10665000Y-8120000I-85000J0D01*
G01*
X10665000Y-8120000D02*
G75*
G02*
X10835000Y-8120000I85000J0D01*
G01*
X10835000Y-9820000D02*
G75*
G02*
X10665000Y-9820000I-85000J0D01*
G01*
X10665000Y-9820000D02*
G75*
G02*
X10835000Y-9820000I85000J0D01*
G01*
X11935000Y-4720000D02*
G75*
G02*
X11765000Y-4720000I-85000J0D01*
G01*
X11765000Y-4720000D02*
G75*
G02*
X11935000Y-4720000I85000J0D01*
G01*
X11935000Y-6420000D02*
G75*
G02*
X11765000Y-6420000I-85000J0D01*
G01*
X11765000Y-6420000D02*
G75*
G02*
X11935000Y-6420000I85000J0D01*
G01*
X11935000Y-8120000D02*
G75*
G02*
X11765000Y-8120000I-85000J0D01*
G01*
X11765000Y-8120000D02*
G75*
G02*
X11935000Y-8120000I85000J0D01*
G01*
X11935000Y-9820000D02*
G75*
G02*
X11765000Y-9820000I-85000J0D01*
G01*
X11765000Y-9820000D02*
G75*
G02*
X11935000Y-9820000I85000J0D01*
G01*
X12635000Y-4720000D02*
G75*
G02*
X12465000Y-4720000I-85000J0D01*
G01*
X12465000Y-4720000D02*
G75*
G02*
X12635000Y-4720000I85000J0D01*
G01*
X12635000Y-6420000D02*
G75*
G02*
X12465000Y-6420000I-85000J0D01*
G01*
X12465000Y-6420000D02*
G75*
G02*
X12635000Y-6420000I85000J0D01*
G01*
X12635000Y-8120000D02*
G75*
G02*
X12465000Y-8120000I-85000J0D01*
G01*
X12465000Y-8120000D02*
G75*
G02*
X12635000Y-8120000I85000J0D01*
G01*
X12635000Y-9820000D02*
G75*
G02*
X12465000Y-9820000I-85000J0D01*
G01*
X12465000Y-9820000D02*
G75*
G02*
X12635000Y-9820000I85000J0D01*
G01*
X13735000Y-4720000D02*
G75*
G02*
X13565000Y-4720000I-85000J0D01*
G01*
X13565000Y-4720000D02*
G75*
G02*
X13735000Y-4720000I85000J0D01*
G01*
X13735000Y-6420000D02*
G75*
G02*
X13565000Y-6420000I-85000J0D01*
G01*
X13565000Y-6420000D02*
G75*
G02*
X13735000Y-6420000I85000J0D01*
G01*
X13735000Y-8120000D02*
G75*
G02*
X13565000Y-8120000I-85000J0D01*
G01*
X13565000Y-8120000D02*
G75*
G02*
X13735000Y-8120000I85000J0D01*
G01*
X13735000Y-9820000D02*
G75*
G02*
X13565000Y-9820000I-85000J0D01*
G01*
X13565000Y-9820000D02*
G75*
G02*
X13735000Y-9820000I85000J0D01*
G01*
D14*
X5900000Y-4550000D02*
X5900000Y-4890000D01*
X5730000Y-4720000D02*
X6070000Y-4720000D01*
X5900000Y-6250000D02*
X5900000Y-6590000D01*
X5730000Y-6420000D02*
X6070000Y-6420000D01*
X5900000Y-7950000D02*
X5900000Y-8290000D01*
X5730000Y-8120000D02*
X6070000Y-8120000D01*
X5900000Y-9650000D02*
X5900000Y-9990000D01*
X5730000Y-9820000D02*
X6070000Y-9820000D01*
X7700000Y-4550000D02*
X7700000Y-4890000D01*
X7530000Y-4720000D02*
X7870000Y-4720000D01*
X7700000Y-6250000D02*
X7700000Y-6590000D01*
X7530000Y-6420000D02*
X7870000Y-6420000D01*
X7700000Y-7950000D02*
X7700000Y-8290000D01*
X7530000Y-8120000D02*
X7870000Y-8120000D01*
X7700000Y-9650000D02*
X7700000Y-9990000D01*
X7530000Y-9820000D02*
X7870000Y-9820000D01*
X9500000Y-4550000D02*
X9500000Y-4890000D01*
X9330000Y-4720000D02*
X9670000Y-4720000D01*
X9500000Y-6250000D02*
X9500000Y-6590000D01*
X9330000Y-6420000D02*
X9670000Y-6420000D01*
X9500000Y-7950000D02*
X9500000Y-8290000D01*
X9330000Y-8120000D02*
X9670000Y-8120000D01*
X9500000Y-9650000D02*
X9500000Y-9990000D01*
X9330000Y-9820000D02*
X9670000Y-9820000D01*
X11300000Y-4550000D02*
X11300000Y-4890000D01*
X11130000Y-4720000D02*
X11470000Y-4720000D01*
X11300000Y-6250000D02*
X11300000Y-6590000D01*
X11130000Y-6420000D02*
X11470000Y-6420000D01*
X11300000Y-7950000D02*
X11300000Y-8290000D01*
X11130000Y-8120000D02*
X11470000Y-8120000D01*
X11300000Y-9650000D02*
X11300000Y-9990000D01*
X11130000Y-9820000D02*
X11470000Y-9820000D01*
X13100000Y-4550000D02*
X13100000Y-4890000D01*
X12930000Y-4720000D02*
X13270000Y-4720000D01*
X13100000Y-6250000D02*
X13100000Y-6590000D01*
X12930000Y-6420000D02*
X13270000Y-6420000D01*
X13100000Y-7950000D02*
X13100000Y-8290000D01*
X12930000Y-8120000D02*
X13270000Y-8120000D01*
X13100000Y-9650000D02*
X13100000Y-9990000D01*
X12930000Y-9820000D02*
X13270000Y-9820000D01*
D11*
X5258277Y-10983984D02*
X5258277Y-10783984D01*
X5258277Y-10783984D02*
X5305896Y-10783984D01*
X5305896Y-10783984D02*
X5334467Y-10793508D01*
X5334467Y-10793508D02*
X5353515Y-10812555D01*
X5353515Y-10812555D02*
X5363039Y-10831603D01*
X5363039Y-10831603D02*
X5372563Y-10869698D01*
X5372563Y-10869698D02*
X5372563Y-10898270D01*
X5372563Y-10898270D02*
X5363039Y-10936365D01*
X5363039Y-10936365D02*
X5353515Y-10955412D01*
X5353515Y-10955412D02*
X5334467Y-10974460D01*
X5334467Y-10974460D02*
X5305896Y-10983984D01*
X5305896Y-10983984D02*
X5258277Y-10983984D01*
X5458277Y-10983984D02*
X5458277Y-10850650D01*
X5458277Y-10888746D02*
X5467801Y-10869698D01*
X5467801Y-10869698D02*
X5477324Y-10860174D01*
X5477324Y-10860174D02*
X5496372Y-10850650D01*
X5496372Y-10850650D02*
X5515420Y-10850650D01*
X5582086Y-10983984D02*
X5582086Y-10850650D01*
X5582086Y-10783984D02*
X5572563Y-10793508D01*
X5572563Y-10793508D02*
X5582086Y-10803031D01*
X5582086Y-10803031D02*
X5591610Y-10793508D01*
X5591610Y-10793508D02*
X5582086Y-10783984D01*
X5582086Y-10783984D02*
X5582086Y-10803031D01*
X5705896Y-10983984D02*
X5686848Y-10974460D01*
X5686848Y-10974460D02*
X5677324Y-10955412D01*
X5677324Y-10955412D02*
X5677324Y-10783984D01*
X5810658Y-10983984D02*
X5791610Y-10974460D01*
X5791610Y-10974460D02*
X5782086Y-10955412D01*
X5782086Y-10955412D02*
X5782086Y-10783984D01*
X6039229Y-10983984D02*
X6039229Y-10783984D01*
X6039229Y-10783984D02*
X6105896Y-10926841D01*
X6105896Y-10926841D02*
X6172562Y-10783984D01*
X6172562Y-10783984D02*
X6172562Y-10983984D01*
X6353515Y-10983984D02*
X6353515Y-10879222D01*
X6353515Y-10879222D02*
X6343991Y-10860174D01*
X6343991Y-10860174D02*
X6324943Y-10850650D01*
X6324943Y-10850650D02*
X6286848Y-10850650D01*
X6286848Y-10850650D02*
X6267801Y-10860174D01*
X6353515Y-10974460D02*
X6334467Y-10983984D01*
X6334467Y-10983984D02*
X6286848Y-10983984D01*
X6286848Y-10983984D02*
X6267801Y-10974460D01*
X6267801Y-10974460D02*
X6258277Y-10955412D01*
X6258277Y-10955412D02*
X6258277Y-10936365D01*
X6258277Y-10936365D02*
X6267801Y-10917317D01*
X6267801Y-10917317D02*
X6286848Y-10907793D01*
X6286848Y-10907793D02*
X6334467Y-10907793D01*
X6334467Y-10907793D02*
X6353515Y-10898270D01*
X6448753Y-10850650D02*
X6448753Y-11050650D01*
X6448753Y-10860174D02*
X6467801Y-10850650D01*
X6467801Y-10850650D02*
X6505896Y-10850650D01*
X6505896Y-10850650D02*
X6524943Y-10860174D01*
X6524943Y-10860174D02*
X6534467Y-10869698D01*
X6534467Y-10869698D02*
X6543991Y-10888746D01*
X6543991Y-10888746D02*
X6543991Y-10945889D01*
X6543991Y-10945889D02*
X6534467Y-10964936D01*
X6534467Y-10964936D02*
X6524943Y-10974460D01*
X6524943Y-10974460D02*
X6505896Y-10983984D01*
X6505896Y-10983984D02*
X6467801Y-10983984D01*
X6467801Y-10983984D02*
X6448753Y-10974460D01*
X6629705Y-10964936D02*
X6639229Y-10974460D01*
X6639229Y-10974460D02*
X6629705Y-10983984D01*
X6629705Y-10983984D02*
X6620182Y-10974460D01*
X6620182Y-10974460D02*
X6629705Y-10964936D01*
X6629705Y-10964936D02*
X6629705Y-10983984D01*
X6629705Y-10860174D02*
X6639229Y-10869698D01*
X6639229Y-10869698D02*
X6629705Y-10879222D01*
X6629705Y-10879222D02*
X6620182Y-10869698D01*
X6620182Y-10869698D02*
X6629705Y-10860174D01*
X6629705Y-10860174D02*
X6629705Y-10879222D01*
D12*
X4907500Y-11267500D02*
X4997500Y-11357500D01*
X4997500Y-11267500D02*
X4907500Y-11357500D01*
D11*
X5296372Y-11203984D02*
X5315420Y-11203984D01*
X5315420Y-11203984D02*
X5334467Y-11213508D01*
X5334467Y-11213508D02*
X5343991Y-11223031D01*
X5343991Y-11223031D02*
X5353515Y-11242079D01*
X5353515Y-11242079D02*
X5363039Y-11280174D01*
X5363039Y-11280174D02*
X5363039Y-11327793D01*
X5363039Y-11327793D02*
X5353515Y-11365888D01*
X5353515Y-11365888D02*
X5343991Y-11384936D01*
X5343991Y-11384936D02*
X5334467Y-11394460D01*
X5334467Y-11394460D02*
X5315420Y-11403984D01*
X5315420Y-11403984D02*
X5296372Y-11403984D01*
X5296372Y-11403984D02*
X5277324Y-11394460D01*
X5277324Y-11394460D02*
X5267801Y-11384936D01*
X5267801Y-11384936D02*
X5258277Y-11365888D01*
X5258277Y-11365888D02*
X5248753Y-11327793D01*
X5248753Y-11327793D02*
X5248753Y-11280174D01*
X5248753Y-11280174D02*
X5258277Y-11242079D01*
X5258277Y-11242079D02*
X5267801Y-11223031D01*
X5267801Y-11223031D02*
X5277324Y-11213508D01*
X5277324Y-11213508D02*
X5296372Y-11203984D01*
X5448753Y-11384936D02*
X5458277Y-11394460D01*
X5458277Y-11394460D02*
X5448753Y-11403984D01*
X5448753Y-11403984D02*
X5439229Y-11394460D01*
X5439229Y-11394460D02*
X5448753Y-11384936D01*
X5448753Y-11384936D02*
X5448753Y-11403984D01*
X5553515Y-11403984D02*
X5591610Y-11403984D01*
X5591610Y-11403984D02*
X5610658Y-11394460D01*
X5610658Y-11394460D02*
X5620182Y-11384936D01*
X5620182Y-11384936D02*
X5639229Y-11356365D01*
X5639229Y-11356365D02*
X5648753Y-11318269D01*
X5648753Y-11318269D02*
X5648753Y-11242079D01*
X5648753Y-11242079D02*
X5639229Y-11223031D01*
X5639229Y-11223031D02*
X5629705Y-11213508D01*
X5629705Y-11213508D02*
X5610658Y-11203984D01*
X5610658Y-11203984D02*
X5572563Y-11203984D01*
X5572563Y-11203984D02*
X5553515Y-11213508D01*
X5553515Y-11213508D02*
X5543991Y-11223031D01*
X5543991Y-11223031D02*
X5534467Y-11242079D01*
X5534467Y-11242079D02*
X5534467Y-11289698D01*
X5534467Y-11289698D02*
X5543991Y-11308746D01*
X5543991Y-11308746D02*
X5553515Y-11318269D01*
X5553515Y-11318269D02*
X5572563Y-11327793D01*
X5572563Y-11327793D02*
X5610658Y-11327793D01*
X5610658Y-11327793D02*
X5629705Y-11318269D01*
X5629705Y-11318269D02*
X5639229Y-11308746D01*
X5639229Y-11308746D02*
X5648753Y-11289698D01*
X5772562Y-11203984D02*
X5791610Y-11203984D01*
X5791610Y-11203984D02*
X5810658Y-11213508D01*
X5810658Y-11213508D02*
X5820182Y-11223031D01*
X5820182Y-11223031D02*
X5829705Y-11242079D01*
X5829705Y-11242079D02*
X5839229Y-11280174D01*
X5839229Y-11280174D02*
X5839229Y-11327793D01*
X5839229Y-11327793D02*
X5829705Y-11365888D01*
X5829705Y-11365888D02*
X5820182Y-11384936D01*
X5820182Y-11384936D02*
X5810658Y-11394460D01*
X5810658Y-11394460D02*
X5791610Y-11403984D01*
X5791610Y-11403984D02*
X5772562Y-11403984D01*
X5772562Y-11403984D02*
X5753515Y-11394460D01*
X5753515Y-11394460D02*
X5743991Y-11384936D01*
X5743991Y-11384936D02*
X5734467Y-11365888D01*
X5734467Y-11365888D02*
X5724943Y-11327793D01*
X5724943Y-11327793D02*
X5724943Y-11280174D01*
X5724943Y-11280174D02*
X5734467Y-11242079D01*
X5734467Y-11242079D02*
X5743991Y-11223031D01*
X5743991Y-11223031D02*
X5753515Y-11213508D01*
X5753515Y-11213508D02*
X5772562Y-11203984D01*
X5963039Y-11203984D02*
X5982086Y-11203984D01*
X5982086Y-11203984D02*
X6001134Y-11213508D01*
X6001134Y-11213508D02*
X6010658Y-11223031D01*
X6010658Y-11223031D02*
X6020182Y-11242079D01*
X6020182Y-11242079D02*
X6029705Y-11280174D01*
X6029705Y-11280174D02*
X6029705Y-11327793D01*
X6029705Y-11327793D02*
X6020182Y-11365888D01*
X6020182Y-11365888D02*
X6010658Y-11384936D01*
X6010658Y-11384936D02*
X6001134Y-11394460D01*
X6001134Y-11394460D02*
X5982086Y-11403984D01*
X5982086Y-11403984D02*
X5963039Y-11403984D01*
X5963039Y-11403984D02*
X5943991Y-11394460D01*
X5943991Y-11394460D02*
X5934467Y-11384936D01*
X5934467Y-11384936D02*
X5924943Y-11365888D01*
X5924943Y-11365888D02*
X5915420Y-11327793D01*
X5915420Y-11327793D02*
X5915420Y-11280174D01*
X5915420Y-11280174D02*
X5924943Y-11242079D01*
X5924943Y-11242079D02*
X5934467Y-11223031D01*
X5934467Y-11223031D02*
X5943991Y-11213508D01*
X5943991Y-11213508D02*
X5963039Y-11203984D01*
X6115420Y-11403984D02*
X6115420Y-11270650D01*
X6115420Y-11289698D02*
X6124943Y-11280174D01*
X6124943Y-11280174D02*
X6143991Y-11270650D01*
X6143991Y-11270650D02*
X6172563Y-11270650D01*
X6172563Y-11270650D02*
X6191610Y-11280174D01*
X6191610Y-11280174D02*
X6201134Y-11299222D01*
X6201134Y-11299222D02*
X6201134Y-11403984D01*
X6201134Y-11299222D02*
X6210658Y-11280174D01*
X6210658Y-11280174D02*
X6229705Y-11270650D01*
X6229705Y-11270650D02*
X6258277Y-11270650D01*
X6258277Y-11270650D02*
X6277324Y-11280174D01*
X6277324Y-11280174D02*
X6286848Y-11299222D01*
X6286848Y-11299222D02*
X6286848Y-11403984D01*
X6382086Y-11403984D02*
X6382086Y-11270650D01*
X6382086Y-11289698D02*
X6391610Y-11280174D01*
X6391610Y-11280174D02*
X6410658Y-11270650D01*
X6410658Y-11270650D02*
X6439229Y-11270650D01*
X6439229Y-11270650D02*
X6458277Y-11280174D01*
X6458277Y-11280174D02*
X6467801Y-11299222D01*
X6467801Y-11299222D02*
X6467801Y-11403984D01*
X6467801Y-11299222D02*
X6477324Y-11280174D01*
X6477324Y-11280174D02*
X6496372Y-11270650D01*
X6496372Y-11270650D02*
X6524943Y-11270650D01*
X6524943Y-11270650D02*
X6543991Y-11280174D01*
X6543991Y-11280174D02*
X6553515Y-11299222D01*
X6553515Y-11299222D02*
X6553515Y-11403984D01*
X6943991Y-11194460D02*
X6772563Y-11451603D01*
X7201134Y-11203984D02*
X7220182Y-11203984D01*
X7220182Y-11203984D02*
X7239229Y-11213508D01*
X7239229Y-11213508D02*
X7248753Y-11223031D01*
X7248753Y-11223031D02*
X7258277Y-11242079D01*
X7258277Y-11242079D02*
X7267801Y-11280174D01*
X7267801Y-11280174D02*
X7267801Y-11327793D01*
X7267801Y-11327793D02*
X7258277Y-11365888D01*
X7258277Y-11365888D02*
X7248753Y-11384936D01*
X7248753Y-11384936D02*
X7239229Y-11394460D01*
X7239229Y-11394460D02*
X7220182Y-11403984D01*
X7220182Y-11403984D02*
X7201134Y-11403984D01*
X7201134Y-11403984D02*
X7182086Y-11394460D01*
X7182086Y-11394460D02*
X7172563Y-11384936D01*
X7172563Y-11384936D02*
X7163039Y-11365888D01*
X7163039Y-11365888D02*
X7153515Y-11327793D01*
X7153515Y-11327793D02*
X7153515Y-11280174D01*
X7153515Y-11280174D02*
X7163039Y-11242079D01*
X7163039Y-11242079D02*
X7172563Y-11223031D01*
X7172563Y-11223031D02*
X7182086Y-11213508D01*
X7182086Y-11213508D02*
X7201134Y-11203984D01*
X7353515Y-11384936D02*
X7363039Y-11394460D01*
X7363039Y-11394460D02*
X7353515Y-11403984D01*
X7353515Y-11403984D02*
X7343991Y-11394460D01*
X7343991Y-11394460D02*
X7353515Y-11384936D01*
X7353515Y-11384936D02*
X7353515Y-11403984D01*
X7486848Y-11203984D02*
X7505896Y-11203984D01*
X7505896Y-11203984D02*
X7524944Y-11213508D01*
X7524944Y-11213508D02*
X7534467Y-11223031D01*
X7534467Y-11223031D02*
X7543991Y-11242079D01*
X7543991Y-11242079D02*
X7553515Y-11280174D01*
X7553515Y-11280174D02*
X7553515Y-11327793D01*
X7553515Y-11327793D02*
X7543991Y-11365888D01*
X7543991Y-11365888D02*
X7534467Y-11384936D01*
X7534467Y-11384936D02*
X7524944Y-11394460D01*
X7524944Y-11394460D02*
X7505896Y-11403984D01*
X7505896Y-11403984D02*
X7486848Y-11403984D01*
X7486848Y-11403984D02*
X7467801Y-11394460D01*
X7467801Y-11394460D02*
X7458277Y-11384936D01*
X7458277Y-11384936D02*
X7448753Y-11365888D01*
X7448753Y-11365888D02*
X7439229Y-11327793D01*
X7439229Y-11327793D02*
X7439229Y-11280174D01*
X7439229Y-11280174D02*
X7448753Y-11242079D01*
X7448753Y-11242079D02*
X7458277Y-11223031D01*
X7458277Y-11223031D02*
X7467801Y-11213508D01*
X7467801Y-11213508D02*
X7486848Y-11203984D01*
X7620182Y-11203984D02*
X7743991Y-11203984D01*
X7743991Y-11203984D02*
X7677325Y-11280174D01*
X7677325Y-11280174D02*
X7705896Y-11280174D01*
X7705896Y-11280174D02*
X7724944Y-11289698D01*
X7724944Y-11289698D02*
X7734467Y-11299222D01*
X7734467Y-11299222D02*
X7743991Y-11318269D01*
X7743991Y-11318269D02*
X7743991Y-11365888D01*
X7743991Y-11365888D02*
X7734467Y-11384936D01*
X7734467Y-11384936D02*
X7724944Y-11394460D01*
X7724944Y-11394460D02*
X7705896Y-11403984D01*
X7705896Y-11403984D02*
X7648753Y-11403984D01*
X7648753Y-11403984D02*
X7629706Y-11394460D01*
X7629706Y-11394460D02*
X7620182Y-11384936D01*
X7924944Y-11203984D02*
X7829706Y-11203984D01*
X7829706Y-11203984D02*
X7820182Y-11299222D01*
X7820182Y-11299222D02*
X7829706Y-11289698D01*
X7829706Y-11289698D02*
X7848753Y-11280174D01*
X7848753Y-11280174D02*
X7896372Y-11280174D01*
X7896372Y-11280174D02*
X7915420Y-11289698D01*
X7915420Y-11289698D02*
X7924944Y-11299222D01*
X7924944Y-11299222D02*
X7934467Y-11318269D01*
X7934467Y-11318269D02*
X7934467Y-11365888D01*
X7934467Y-11365888D02*
X7924944Y-11384936D01*
X7924944Y-11384936D02*
X7915420Y-11394460D01*
X7915420Y-11394460D02*
X7896372Y-11403984D01*
X7896372Y-11403984D02*
X7848753Y-11403984D01*
X7848753Y-11403984D02*
X7829706Y-11394460D01*
X7829706Y-11394460D02*
X7820182Y-11384936D01*
X8105896Y-11270650D02*
X8105896Y-11403984D01*
X8058277Y-11194460D02*
X8010658Y-11337317D01*
X8010658Y-11337317D02*
X8134467Y-11337317D01*
X8201134Y-11203984D02*
X8201134Y-11242079D01*
X8277325Y-11203984D02*
X8277325Y-11242079D01*
X8572563Y-11480174D02*
X8563039Y-11470650D01*
X8563039Y-11470650D02*
X8543991Y-11442079D01*
X8543991Y-11442079D02*
X8534468Y-11423031D01*
X8534468Y-11423031D02*
X8524944Y-11394460D01*
X8524944Y-11394460D02*
X8515420Y-11346841D01*
X8515420Y-11346841D02*
X8515420Y-11308746D01*
X8515420Y-11308746D02*
X8524944Y-11261127D01*
X8524944Y-11261127D02*
X8534468Y-11232555D01*
X8534468Y-11232555D02*
X8543991Y-11213508D01*
X8543991Y-11213508D02*
X8563039Y-11184936D01*
X8563039Y-11184936D02*
X8572563Y-11175412D01*
X8639230Y-11223031D02*
X8648753Y-11213508D01*
X8648753Y-11213508D02*
X8667801Y-11203984D01*
X8667801Y-11203984D02*
X8715420Y-11203984D01*
X8715420Y-11203984D02*
X8734468Y-11213508D01*
X8734468Y-11213508D02*
X8743991Y-11223031D01*
X8743991Y-11223031D02*
X8753515Y-11242079D01*
X8753515Y-11242079D02*
X8753515Y-11261127D01*
X8753515Y-11261127D02*
X8743991Y-11289698D01*
X8743991Y-11289698D02*
X8629706Y-11403984D01*
X8629706Y-11403984D02*
X8753515Y-11403984D01*
X8991611Y-11403984D02*
X8991611Y-11203984D01*
X9077325Y-11403984D02*
X9077325Y-11299222D01*
X9077325Y-11299222D02*
X9067801Y-11280174D01*
X9067801Y-11280174D02*
X9048753Y-11270650D01*
X9048753Y-11270650D02*
X9020182Y-11270650D01*
X9020182Y-11270650D02*
X9001134Y-11280174D01*
X9001134Y-11280174D02*
X8991611Y-11289698D01*
X9201134Y-11403984D02*
X9182087Y-11394460D01*
X9182087Y-11394460D02*
X9172563Y-11384936D01*
X9172563Y-11384936D02*
X9163039Y-11365888D01*
X9163039Y-11365888D02*
X9163039Y-11308746D01*
X9163039Y-11308746D02*
X9172563Y-11289698D01*
X9172563Y-11289698D02*
X9182087Y-11280174D01*
X9182087Y-11280174D02*
X9201134Y-11270650D01*
X9201134Y-11270650D02*
X9229706Y-11270650D01*
X9229706Y-11270650D02*
X9248753Y-11280174D01*
X9248753Y-11280174D02*
X9258277Y-11289698D01*
X9258277Y-11289698D02*
X9267801Y-11308746D01*
X9267801Y-11308746D02*
X9267801Y-11365888D01*
X9267801Y-11365888D02*
X9258277Y-11384936D01*
X9258277Y-11384936D02*
X9248753Y-11394460D01*
X9248753Y-11394460D02*
X9229706Y-11403984D01*
X9229706Y-11403984D02*
X9201134Y-11403984D01*
X9382087Y-11403984D02*
X9363039Y-11394460D01*
X9363039Y-11394460D02*
X9353515Y-11375412D01*
X9353515Y-11375412D02*
X9353515Y-11203984D01*
X9534468Y-11394460D02*
X9515420Y-11403984D01*
X9515420Y-11403984D02*
X9477325Y-11403984D01*
X9477325Y-11403984D02*
X9458277Y-11394460D01*
X9458277Y-11394460D02*
X9448753Y-11375412D01*
X9448753Y-11375412D02*
X9448753Y-11299222D01*
X9448753Y-11299222D02*
X9458277Y-11280174D01*
X9458277Y-11280174D02*
X9477325Y-11270650D01*
X9477325Y-11270650D02*
X9515420Y-11270650D01*
X9515420Y-11270650D02*
X9534468Y-11280174D01*
X9534468Y-11280174D02*
X9543992Y-11299222D01*
X9543992Y-11299222D02*
X9543992Y-11318269D01*
X9543992Y-11318269D02*
X9448753Y-11337317D01*
X9620182Y-11394460D02*
X9639230Y-11403984D01*
X9639230Y-11403984D02*
X9677325Y-11403984D01*
X9677325Y-11403984D02*
X9696373Y-11394460D01*
X9696373Y-11394460D02*
X9705896Y-11375412D01*
X9705896Y-11375412D02*
X9705896Y-11365888D01*
X9705896Y-11365888D02*
X9696373Y-11346841D01*
X9696373Y-11346841D02*
X9677325Y-11337317D01*
X9677325Y-11337317D02*
X9648753Y-11337317D01*
X9648753Y-11337317D02*
X9629706Y-11327793D01*
X9629706Y-11327793D02*
X9620182Y-11308746D01*
X9620182Y-11308746D02*
X9620182Y-11299222D01*
X9620182Y-11299222D02*
X9629706Y-11280174D01*
X9629706Y-11280174D02*
X9648753Y-11270650D01*
X9648753Y-11270650D02*
X9677325Y-11270650D01*
X9677325Y-11270650D02*
X9696373Y-11280174D01*
X9772563Y-11480174D02*
X9782087Y-11470650D01*
X9782087Y-11470650D02*
X9801134Y-11442079D01*
X9801134Y-11442079D02*
X9810658Y-11423031D01*
X9810658Y-11423031D02*
X9820182Y-11394460D01*
X9820182Y-11394460D02*
X9829706Y-11346841D01*
X9829706Y-11346841D02*
X9829706Y-11308746D01*
X9829706Y-11308746D02*
X9820182Y-11261127D01*
X9820182Y-11261127D02*
X9810658Y-11232555D01*
X9810658Y-11232555D02*
X9801134Y-11213508D01*
X9801134Y-11213508D02*
X9782087Y-11184936D01*
X9782087Y-11184936D02*
X9772563Y-11175412D01*
X10134468Y-11480174D02*
X10124944Y-11470650D01*
X10124944Y-11470650D02*
X10105896Y-11442079D01*
X10105896Y-11442079D02*
X10096373Y-11423031D01*
X10096373Y-11423031D02*
X10086849Y-11394460D01*
X10086849Y-11394460D02*
X10077325Y-11346841D01*
X10077325Y-11346841D02*
X10077325Y-11308746D01*
X10077325Y-11308746D02*
X10086849Y-11261127D01*
X10086849Y-11261127D02*
X10096373Y-11232555D01*
X10096373Y-11232555D02*
X10105896Y-11213508D01*
X10105896Y-11213508D02*
X10124944Y-11184936D01*
X10124944Y-11184936D02*
X10134468Y-11175412D01*
X10210658Y-11270650D02*
X10210658Y-11403984D01*
X10210658Y-11289698D02*
X10220182Y-11280174D01*
X10220182Y-11280174D02*
X10239230Y-11270650D01*
X10239230Y-11270650D02*
X10267801Y-11270650D01*
X10267801Y-11270650D02*
X10286849Y-11280174D01*
X10286849Y-11280174D02*
X10296373Y-11299222D01*
X10296373Y-11299222D02*
X10296373Y-11403984D01*
X10420182Y-11403984D02*
X10401134Y-11394460D01*
X10401134Y-11394460D02*
X10391611Y-11384936D01*
X10391611Y-11384936D02*
X10382087Y-11365888D01*
X10382087Y-11365888D02*
X10382087Y-11308746D01*
X10382087Y-11308746D02*
X10391611Y-11289698D01*
X10391611Y-11289698D02*
X10401134Y-11280174D01*
X10401134Y-11280174D02*
X10420182Y-11270650D01*
X10420182Y-11270650D02*
X10448754Y-11270650D01*
X10448754Y-11270650D02*
X10467801Y-11280174D01*
X10467801Y-11280174D02*
X10477325Y-11289698D01*
X10477325Y-11289698D02*
X10486849Y-11308746D01*
X10486849Y-11308746D02*
X10486849Y-11365888D01*
X10486849Y-11365888D02*
X10477325Y-11384936D01*
X10477325Y-11384936D02*
X10467801Y-11394460D01*
X10467801Y-11394460D02*
X10448754Y-11403984D01*
X10448754Y-11403984D02*
X10420182Y-11403984D01*
X10543992Y-11270650D02*
X10620182Y-11270650D01*
X10572563Y-11203984D02*
X10572563Y-11375412D01*
X10572563Y-11375412D02*
X10582087Y-11394460D01*
X10582087Y-11394460D02*
X10601134Y-11403984D01*
X10601134Y-11403984D02*
X10620182Y-11403984D01*
X10839230Y-11270650D02*
X10839230Y-11470650D01*
X10839230Y-11280174D02*
X10858277Y-11270650D01*
X10858277Y-11270650D02*
X10896373Y-11270650D01*
X10896373Y-11270650D02*
X10915420Y-11280174D01*
X10915420Y-11280174D02*
X10924944Y-11289698D01*
X10924944Y-11289698D02*
X10934468Y-11308746D01*
X10934468Y-11308746D02*
X10934468Y-11365888D01*
X10934468Y-11365888D02*
X10924944Y-11384936D01*
X10924944Y-11384936D02*
X10915420Y-11394460D01*
X10915420Y-11394460D02*
X10896373Y-11403984D01*
X10896373Y-11403984D02*
X10858277Y-11403984D01*
X10858277Y-11403984D02*
X10839230Y-11394460D01*
X11048754Y-11403984D02*
X11029706Y-11394460D01*
X11029706Y-11394460D02*
X11020182Y-11375412D01*
X11020182Y-11375412D02*
X11020182Y-11203984D01*
X11210658Y-11403984D02*
X11210658Y-11299222D01*
X11210658Y-11299222D02*
X11201134Y-11280174D01*
X11201134Y-11280174D02*
X11182087Y-11270650D01*
X11182087Y-11270650D02*
X11143992Y-11270650D01*
X11143992Y-11270650D02*
X11124944Y-11280174D01*
X11210658Y-11394460D02*
X11191611Y-11403984D01*
X11191611Y-11403984D02*
X11143992Y-11403984D01*
X11143992Y-11403984D02*
X11124944Y-11394460D01*
X11124944Y-11394460D02*
X11115420Y-11375412D01*
X11115420Y-11375412D02*
X11115420Y-11356365D01*
X11115420Y-11356365D02*
X11124944Y-11337317D01*
X11124944Y-11337317D02*
X11143992Y-11327793D01*
X11143992Y-11327793D02*
X11191611Y-11327793D01*
X11191611Y-11327793D02*
X11210658Y-11318269D01*
X11277325Y-11270650D02*
X11353515Y-11270650D01*
X11305896Y-11203984D02*
X11305896Y-11375412D01*
X11305896Y-11375412D02*
X11315420Y-11394460D01*
X11315420Y-11394460D02*
X11334468Y-11403984D01*
X11334468Y-11403984D02*
X11353515Y-11403984D01*
X11496373Y-11394460D02*
X11477325Y-11403984D01*
X11477325Y-11403984D02*
X11439230Y-11403984D01*
X11439230Y-11403984D02*
X11420182Y-11394460D01*
X11420182Y-11394460D02*
X11410658Y-11375412D01*
X11410658Y-11375412D02*
X11410658Y-11299222D01*
X11410658Y-11299222D02*
X11420182Y-11280174D01*
X11420182Y-11280174D02*
X11439230Y-11270650D01*
X11439230Y-11270650D02*
X11477325Y-11270650D01*
X11477325Y-11270650D02*
X11496373Y-11280174D01*
X11496373Y-11280174D02*
X11505896Y-11299222D01*
X11505896Y-11299222D02*
X11505896Y-11318269D01*
X11505896Y-11318269D02*
X11410658Y-11337317D01*
X11677325Y-11403984D02*
X11677325Y-11203984D01*
X11677325Y-11394460D02*
X11658277Y-11403984D01*
X11658277Y-11403984D02*
X11620182Y-11403984D01*
X11620182Y-11403984D02*
X11601134Y-11394460D01*
X11601134Y-11394460D02*
X11591611Y-11384936D01*
X11591611Y-11384936D02*
X11582087Y-11365888D01*
X11582087Y-11365888D02*
X11582087Y-11308746D01*
X11582087Y-11308746D02*
X11591611Y-11289698D01*
X11591611Y-11289698D02*
X11601134Y-11280174D01*
X11601134Y-11280174D02*
X11620182Y-11270650D01*
X11620182Y-11270650D02*
X11658277Y-11270650D01*
X11658277Y-11270650D02*
X11677325Y-11280174D01*
X11753515Y-11480174D02*
X11763039Y-11470650D01*
X11763039Y-11470650D02*
X11782087Y-11442079D01*
X11782087Y-11442079D02*
X11791611Y-11423031D01*
X11791611Y-11423031D02*
X11801134Y-11394460D01*
X11801134Y-11394460D02*
X11810658Y-11346841D01*
X11810658Y-11346841D02*
X11810658Y-11308746D01*
X11810658Y-11308746D02*
X11801134Y-11261127D01*
X11801134Y-11261127D02*
X11791611Y-11232555D01*
X11791611Y-11232555D02*
X11782087Y-11213508D01*
X11782087Y-11213508D02*
X11763039Y-11184936D01*
X11763039Y-11184936D02*
X11753515Y-11175412D01*
D13*
X4997500Y-11576500D02*
G75*
G02*
X4827500Y-11576500I-85000J0D01*
G01*
X4827500Y-11576500D02*
G75*
G02*
X4997500Y-11576500I85000J0D01*
G01*
D11*
X5363039Y-11667984D02*
X5248753Y-11667984D01*
X5305896Y-11667984D02*
X5305896Y-11467984D01*
X5305896Y-11467984D02*
X5286848Y-11496555D01*
X5286848Y-11496555D02*
X5267801Y-11515603D01*
X5267801Y-11515603D02*
X5248753Y-11525127D01*
X5448753Y-11648936D02*
X5458277Y-11658460D01*
X5458277Y-11658460D02*
X5448753Y-11667984D01*
X5448753Y-11667984D02*
X5439229Y-11658460D01*
X5439229Y-11658460D02*
X5448753Y-11648936D01*
X5448753Y-11648936D02*
X5448753Y-11667984D01*
X5524944Y-11467984D02*
X5658277Y-11467984D01*
X5658277Y-11467984D02*
X5572563Y-11667984D01*
X5772562Y-11467984D02*
X5791610Y-11467984D01*
X5791610Y-11467984D02*
X5810658Y-11477508D01*
X5810658Y-11477508D02*
X5820182Y-11487031D01*
X5820182Y-11487031D02*
X5829705Y-11506079D01*
X5829705Y-11506079D02*
X5839229Y-11544174D01*
X5839229Y-11544174D02*
X5839229Y-11591793D01*
X5839229Y-11591793D02*
X5829705Y-11629888D01*
X5829705Y-11629888D02*
X5820182Y-11648936D01*
X5820182Y-11648936D02*
X5810658Y-11658460D01*
X5810658Y-11658460D02*
X5791610Y-11667984D01*
X5791610Y-11667984D02*
X5772562Y-11667984D01*
X5772562Y-11667984D02*
X5753515Y-11658460D01*
X5753515Y-11658460D02*
X5743991Y-11648936D01*
X5743991Y-11648936D02*
X5734467Y-11629888D01*
X5734467Y-11629888D02*
X5724943Y-11591793D01*
X5724943Y-11591793D02*
X5724943Y-11544174D01*
X5724943Y-11544174D02*
X5734467Y-11506079D01*
X5734467Y-11506079D02*
X5743991Y-11487031D01*
X5743991Y-11487031D02*
X5753515Y-11477508D01*
X5753515Y-11477508D02*
X5772562Y-11467984D01*
X5963039Y-11467984D02*
X5982086Y-11467984D01*
X5982086Y-11467984D02*
X6001134Y-11477508D01*
X6001134Y-11477508D02*
X6010658Y-11487031D01*
X6010658Y-11487031D02*
X6020182Y-11506079D01*
X6020182Y-11506079D02*
X6029705Y-11544174D01*
X6029705Y-11544174D02*
X6029705Y-11591793D01*
X6029705Y-11591793D02*
X6020182Y-11629888D01*
X6020182Y-11629888D02*
X6010658Y-11648936D01*
X6010658Y-11648936D02*
X6001134Y-11658460D01*
X6001134Y-11658460D02*
X5982086Y-11667984D01*
X5982086Y-11667984D02*
X5963039Y-11667984D01*
X5963039Y-11667984D02*
X5943991Y-11658460D01*
X5943991Y-11658460D02*
X5934467Y-11648936D01*
X5934467Y-11648936D02*
X5924943Y-11629888D01*
X5924943Y-11629888D02*
X5915420Y-11591793D01*
X5915420Y-11591793D02*
X5915420Y-11544174D01*
X5915420Y-11544174D02*
X5924943Y-11506079D01*
X5924943Y-11506079D02*
X5934467Y-11487031D01*
X5934467Y-11487031D02*
X5943991Y-11477508D01*
X5943991Y-11477508D02*
X5963039Y-11467984D01*
X6115420Y-11667984D02*
X6115420Y-11534650D01*
X6115420Y-11553698D02*
X6124943Y-11544174D01*
X6124943Y-11544174D02*
X6143991Y-11534650D01*
X6143991Y-11534650D02*
X6172563Y-11534650D01*
X6172563Y-11534650D02*
X6191610Y-11544174D01*
X6191610Y-11544174D02*
X6201134Y-11563222D01*
X6201134Y-11563222D02*
X6201134Y-11667984D01*
X6201134Y-11563222D02*
X6210658Y-11544174D01*
X6210658Y-11544174D02*
X6229705Y-11534650D01*
X6229705Y-11534650D02*
X6258277Y-11534650D01*
X6258277Y-11534650D02*
X6277324Y-11544174D01*
X6277324Y-11544174D02*
X6286848Y-11563222D01*
X6286848Y-11563222D02*
X6286848Y-11667984D01*
X6382086Y-11667984D02*
X6382086Y-11534650D01*
X6382086Y-11553698D02*
X6391610Y-11544174D01*
X6391610Y-11544174D02*
X6410658Y-11534650D01*
X6410658Y-11534650D02*
X6439229Y-11534650D01*
X6439229Y-11534650D02*
X6458277Y-11544174D01*
X6458277Y-11544174D02*
X6467801Y-11563222D01*
X6467801Y-11563222D02*
X6467801Y-11667984D01*
X6467801Y-11563222D02*
X6477324Y-11544174D01*
X6477324Y-11544174D02*
X6496372Y-11534650D01*
X6496372Y-11534650D02*
X6524943Y-11534650D01*
X6524943Y-11534650D02*
X6543991Y-11544174D01*
X6543991Y-11544174D02*
X6553515Y-11563222D01*
X6553515Y-11563222D02*
X6553515Y-11667984D01*
X6943991Y-11458460D02*
X6772563Y-11715603D01*
X7201134Y-11467984D02*
X7220182Y-11467984D01*
X7220182Y-11467984D02*
X7239229Y-11477508D01*
X7239229Y-11477508D02*
X7248753Y-11487031D01*
X7248753Y-11487031D02*
X7258277Y-11506079D01*
X7258277Y-11506079D02*
X7267801Y-11544174D01*
X7267801Y-11544174D02*
X7267801Y-11591793D01*
X7267801Y-11591793D02*
X7258277Y-11629888D01*
X7258277Y-11629888D02*
X7248753Y-11648936D01*
X7248753Y-11648936D02*
X7239229Y-11658460D01*
X7239229Y-11658460D02*
X7220182Y-11667984D01*
X7220182Y-11667984D02*
X7201134Y-11667984D01*
X7201134Y-11667984D02*
X7182086Y-11658460D01*
X7182086Y-11658460D02*
X7172563Y-11648936D01*
X7172563Y-11648936D02*
X7163039Y-11629888D01*
X7163039Y-11629888D02*
X7153515Y-11591793D01*
X7153515Y-11591793D02*
X7153515Y-11544174D01*
X7153515Y-11544174D02*
X7163039Y-11506079D01*
X7163039Y-11506079D02*
X7172563Y-11487031D01*
X7172563Y-11487031D02*
X7182086Y-11477508D01*
X7182086Y-11477508D02*
X7201134Y-11467984D01*
X7353515Y-11648936D02*
X7363039Y-11658460D01*
X7363039Y-11658460D02*
X7353515Y-11667984D01*
X7353515Y-11667984D02*
X7343991Y-11658460D01*
X7343991Y-11658460D02*
X7353515Y-11648936D01*
X7353515Y-11648936D02*
X7353515Y-11667984D01*
X7486848Y-11467984D02*
X7505896Y-11467984D01*
X7505896Y-11467984D02*
X7524944Y-11477508D01*
X7524944Y-11477508D02*
X7534467Y-11487031D01*
X7534467Y-11487031D02*
X7543991Y-11506079D01*
X7543991Y-11506079D02*
X7553515Y-11544174D01*
X7553515Y-11544174D02*
X7553515Y-11591793D01*
X7553515Y-11591793D02*
X7543991Y-11629888D01*
X7543991Y-11629888D02*
X7534467Y-11648936D01*
X7534467Y-11648936D02*
X7524944Y-11658460D01*
X7524944Y-11658460D02*
X7505896Y-11667984D01*
X7505896Y-11667984D02*
X7486848Y-11667984D01*
X7486848Y-11667984D02*
X7467801Y-11658460D01*
X7467801Y-11658460D02*
X7458277Y-11648936D01*
X7458277Y-11648936D02*
X7448753Y-11629888D01*
X7448753Y-11629888D02*
X7439229Y-11591793D01*
X7439229Y-11591793D02*
X7439229Y-11544174D01*
X7439229Y-11544174D02*
X7448753Y-11506079D01*
X7448753Y-11506079D02*
X7458277Y-11487031D01*
X7458277Y-11487031D02*
X7467801Y-11477508D01*
X7467801Y-11477508D02*
X7486848Y-11467984D01*
X7724944Y-11467984D02*
X7686848Y-11467984D01*
X7686848Y-11467984D02*
X7667801Y-11477508D01*
X7667801Y-11477508D02*
X7658277Y-11487031D01*
X7658277Y-11487031D02*
X7639229Y-11515603D01*
X7639229Y-11515603D02*
X7629706Y-11553698D01*
X7629706Y-11553698D02*
X7629706Y-11629888D01*
X7629706Y-11629888D02*
X7639229Y-11648936D01*
X7639229Y-11648936D02*
X7648753Y-11658460D01*
X7648753Y-11658460D02*
X7667801Y-11667984D01*
X7667801Y-11667984D02*
X7705896Y-11667984D01*
X7705896Y-11667984D02*
X7724944Y-11658460D01*
X7724944Y-11658460D02*
X7734467Y-11648936D01*
X7734467Y-11648936D02*
X7743991Y-11629888D01*
X7743991Y-11629888D02*
X7743991Y-11582269D01*
X7743991Y-11582269D02*
X7734467Y-11563222D01*
X7734467Y-11563222D02*
X7724944Y-11553698D01*
X7724944Y-11553698D02*
X7705896Y-11544174D01*
X7705896Y-11544174D02*
X7667801Y-11544174D01*
X7667801Y-11544174D02*
X7648753Y-11553698D01*
X7648753Y-11553698D02*
X7639229Y-11563222D01*
X7639229Y-11563222D02*
X7629706Y-11582269D01*
X7915420Y-11467984D02*
X7877325Y-11467984D01*
X7877325Y-11467984D02*
X7858277Y-11477508D01*
X7858277Y-11477508D02*
X7848753Y-11487031D01*
X7848753Y-11487031D02*
X7829706Y-11515603D01*
X7829706Y-11515603D02*
X7820182Y-11553698D01*
X7820182Y-11553698D02*
X7820182Y-11629888D01*
X7820182Y-11629888D02*
X7829706Y-11648936D01*
X7829706Y-11648936D02*
X7839229Y-11658460D01*
X7839229Y-11658460D02*
X7858277Y-11667984D01*
X7858277Y-11667984D02*
X7896372Y-11667984D01*
X7896372Y-11667984D02*
X7915420Y-11658460D01*
X7915420Y-11658460D02*
X7924944Y-11648936D01*
X7924944Y-11648936D02*
X7934467Y-11629888D01*
X7934467Y-11629888D02*
X7934467Y-11582269D01*
X7934467Y-11582269D02*
X7924944Y-11563222D01*
X7924944Y-11563222D02*
X7915420Y-11553698D01*
X7915420Y-11553698D02*
X7896372Y-11544174D01*
X7896372Y-11544174D02*
X7858277Y-11544174D01*
X7858277Y-11544174D02*
X7839229Y-11553698D01*
X7839229Y-11553698D02*
X7829706Y-11563222D01*
X7829706Y-11563222D02*
X7820182Y-11582269D01*
X8029706Y-11667984D02*
X8067801Y-11667984D01*
X8067801Y-11667984D02*
X8086848Y-11658460D01*
X8086848Y-11658460D02*
X8096372Y-11648936D01*
X8096372Y-11648936D02*
X8115420Y-11620365D01*
X8115420Y-11620365D02*
X8124944Y-11582269D01*
X8124944Y-11582269D02*
X8124944Y-11506079D01*
X8124944Y-11506079D02*
X8115420Y-11487031D01*
X8115420Y-11487031D02*
X8105896Y-11477508D01*
X8105896Y-11477508D02*
X8086848Y-11467984D01*
X8086848Y-11467984D02*
X8048753Y-11467984D01*
X8048753Y-11467984D02*
X8029706Y-11477508D01*
X8029706Y-11477508D02*
X8020182Y-11487031D01*
X8020182Y-11487031D02*
X8010658Y-11506079D01*
X8010658Y-11506079D02*
X8010658Y-11553698D01*
X8010658Y-11553698D02*
X8020182Y-11572746D01*
X8020182Y-11572746D02*
X8029706Y-11582269D01*
X8029706Y-11582269D02*
X8048753Y-11591793D01*
X8048753Y-11591793D02*
X8086848Y-11591793D01*
X8086848Y-11591793D02*
X8105896Y-11582269D01*
X8105896Y-11582269D02*
X8115420Y-11572746D01*
X8115420Y-11572746D02*
X8124944Y-11553698D01*
X8201134Y-11467984D02*
X8201134Y-11506079D01*
X8277325Y-11467984D02*
X8277325Y-11506079D01*
X8572563Y-11744174D02*
X8563039Y-11734650D01*
X8563039Y-11734650D02*
X8543991Y-11706079D01*
X8543991Y-11706079D02*
X8534468Y-11687031D01*
X8534468Y-11687031D02*
X8524944Y-11658460D01*
X8524944Y-11658460D02*
X8515420Y-11610841D01*
X8515420Y-11610841D02*
X8515420Y-11572746D01*
X8515420Y-11572746D02*
X8524944Y-11525127D01*
X8524944Y-11525127D02*
X8534468Y-11496555D01*
X8534468Y-11496555D02*
X8543991Y-11477508D01*
X8543991Y-11477508D02*
X8563039Y-11448936D01*
X8563039Y-11448936D02*
X8572563Y-11439412D01*
X8734468Y-11534650D02*
X8734468Y-11667984D01*
X8686849Y-11458460D02*
X8639230Y-11601317D01*
X8639230Y-11601317D02*
X8763039Y-11601317D01*
X8877325Y-11467984D02*
X8896372Y-11467984D01*
X8896372Y-11467984D02*
X8915420Y-11477508D01*
X8915420Y-11477508D02*
X8924944Y-11487031D01*
X8924944Y-11487031D02*
X8934468Y-11506079D01*
X8934468Y-11506079D02*
X8943991Y-11544174D01*
X8943991Y-11544174D02*
X8943991Y-11591793D01*
X8943991Y-11591793D02*
X8934468Y-11629888D01*
X8934468Y-11629888D02*
X8924944Y-11648936D01*
X8924944Y-11648936D02*
X8915420Y-11658460D01*
X8915420Y-11658460D02*
X8896372Y-11667984D01*
X8896372Y-11667984D02*
X8877325Y-11667984D01*
X8877325Y-11667984D02*
X8858277Y-11658460D01*
X8858277Y-11658460D02*
X8848753Y-11648936D01*
X8848753Y-11648936D02*
X8839230Y-11629888D01*
X8839230Y-11629888D02*
X8829706Y-11591793D01*
X8829706Y-11591793D02*
X8829706Y-11544174D01*
X8829706Y-11544174D02*
X8839230Y-11506079D01*
X8839230Y-11506079D02*
X8848753Y-11487031D01*
X8848753Y-11487031D02*
X8858277Y-11477508D01*
X8858277Y-11477508D02*
X8877325Y-11467984D01*
X9182087Y-11667984D02*
X9182087Y-11467984D01*
X9267801Y-11667984D02*
X9267801Y-11563222D01*
X9267801Y-11563222D02*
X9258277Y-11544174D01*
X9258277Y-11544174D02*
X9239230Y-11534650D01*
X9239230Y-11534650D02*
X9210658Y-11534650D01*
X9210658Y-11534650D02*
X9191611Y-11544174D01*
X9191611Y-11544174D02*
X9182087Y-11553698D01*
X9391611Y-11667984D02*
X9372563Y-11658460D01*
X9372563Y-11658460D02*
X9363039Y-11648936D01*
X9363039Y-11648936D02*
X9353515Y-11629888D01*
X9353515Y-11629888D02*
X9353515Y-11572746D01*
X9353515Y-11572746D02*
X9363039Y-11553698D01*
X9363039Y-11553698D02*
X9372563Y-11544174D01*
X9372563Y-11544174D02*
X9391611Y-11534650D01*
X9391611Y-11534650D02*
X9420182Y-11534650D01*
X9420182Y-11534650D02*
X9439230Y-11544174D01*
X9439230Y-11544174D02*
X9448753Y-11553698D01*
X9448753Y-11553698D02*
X9458277Y-11572746D01*
X9458277Y-11572746D02*
X9458277Y-11629888D01*
X9458277Y-11629888D02*
X9448753Y-11648936D01*
X9448753Y-11648936D02*
X9439230Y-11658460D01*
X9439230Y-11658460D02*
X9420182Y-11667984D01*
X9420182Y-11667984D02*
X9391611Y-11667984D01*
X9572563Y-11667984D02*
X9553515Y-11658460D01*
X9553515Y-11658460D02*
X9543992Y-11639412D01*
X9543992Y-11639412D02*
X9543992Y-11467984D01*
X9724944Y-11658460D02*
X9705896Y-11667984D01*
X9705896Y-11667984D02*
X9667801Y-11667984D01*
X9667801Y-11667984D02*
X9648753Y-11658460D01*
X9648753Y-11658460D02*
X9639230Y-11639412D01*
X9639230Y-11639412D02*
X9639230Y-11563222D01*
X9639230Y-11563222D02*
X9648753Y-11544174D01*
X9648753Y-11544174D02*
X9667801Y-11534650D01*
X9667801Y-11534650D02*
X9705896Y-11534650D01*
X9705896Y-11534650D02*
X9724944Y-11544174D01*
X9724944Y-11544174D02*
X9734468Y-11563222D01*
X9734468Y-11563222D02*
X9734468Y-11582269D01*
X9734468Y-11582269D02*
X9639230Y-11601317D01*
X9810658Y-11658460D02*
X9829706Y-11667984D01*
X9829706Y-11667984D02*
X9867801Y-11667984D01*
X9867801Y-11667984D02*
X9886849Y-11658460D01*
X9886849Y-11658460D02*
X9896373Y-11639412D01*
X9896373Y-11639412D02*
X9896373Y-11629888D01*
X9896373Y-11629888D02*
X9886849Y-11610841D01*
X9886849Y-11610841D02*
X9867801Y-11601317D01*
X9867801Y-11601317D02*
X9839230Y-11601317D01*
X9839230Y-11601317D02*
X9820182Y-11591793D01*
X9820182Y-11591793D02*
X9810658Y-11572746D01*
X9810658Y-11572746D02*
X9810658Y-11563222D01*
X9810658Y-11563222D02*
X9820182Y-11544174D01*
X9820182Y-11544174D02*
X9839230Y-11534650D01*
X9839230Y-11534650D02*
X9867801Y-11534650D01*
X9867801Y-11534650D02*
X9886849Y-11544174D01*
X9963039Y-11744174D02*
X9972563Y-11734650D01*
X9972563Y-11734650D02*
X9991611Y-11706079D01*
X9991611Y-11706079D02*
X10001134Y-11687031D01*
X10001134Y-11687031D02*
X10010658Y-11658460D01*
X10010658Y-11658460D02*
X10020182Y-11610841D01*
X10020182Y-11610841D02*
X10020182Y-11572746D01*
X10020182Y-11572746D02*
X10010658Y-11525127D01*
X10010658Y-11525127D02*
X10001134Y-11496555D01*
X10001134Y-11496555D02*
X9991611Y-11477508D01*
X9991611Y-11477508D02*
X9972563Y-11448936D01*
X9972563Y-11448936D02*
X9963039Y-11439412D01*
X10324944Y-11744174D02*
X10315420Y-11734650D01*
X10315420Y-11734650D02*
X10296373Y-11706079D01*
X10296373Y-11706079D02*
X10286849Y-11687031D01*
X10286849Y-11687031D02*
X10277325Y-11658460D01*
X10277325Y-11658460D02*
X10267801Y-11610841D01*
X10267801Y-11610841D02*
X10267801Y-11572746D01*
X10267801Y-11572746D02*
X10277325Y-11525127D01*
X10277325Y-11525127D02*
X10286849Y-11496555D01*
X10286849Y-11496555D02*
X10296373Y-11477508D01*
X10296373Y-11477508D02*
X10315420Y-11448936D01*
X10315420Y-11448936D02*
X10324944Y-11439412D01*
X10401134Y-11534650D02*
X10401134Y-11667984D01*
X10401134Y-11553698D02*
X10410658Y-11544174D01*
X10410658Y-11544174D02*
X10429706Y-11534650D01*
X10429706Y-11534650D02*
X10458277Y-11534650D01*
X10458277Y-11534650D02*
X10477325Y-11544174D01*
X10477325Y-11544174D02*
X10486849Y-11563222D01*
X10486849Y-11563222D02*
X10486849Y-11667984D01*
X10610658Y-11667984D02*
X10591611Y-11658460D01*
X10591611Y-11658460D02*
X10582087Y-11648936D01*
X10582087Y-11648936D02*
X10572563Y-11629888D01*
X10572563Y-11629888D02*
X10572563Y-11572746D01*
X10572563Y-11572746D02*
X10582087Y-11553698D01*
X10582087Y-11553698D02*
X10591611Y-11544174D01*
X10591611Y-11544174D02*
X10610658Y-11534650D01*
X10610658Y-11534650D02*
X10639230Y-11534650D01*
X10639230Y-11534650D02*
X10658277Y-11544174D01*
X10658277Y-11544174D02*
X10667801Y-11553698D01*
X10667801Y-11553698D02*
X10677325Y-11572746D01*
X10677325Y-11572746D02*
X10677325Y-11629888D01*
X10677325Y-11629888D02*
X10667801Y-11648936D01*
X10667801Y-11648936D02*
X10658277Y-11658460D01*
X10658277Y-11658460D02*
X10639230Y-11667984D01*
X10639230Y-11667984D02*
X10610658Y-11667984D01*
X10734468Y-11534650D02*
X10810658Y-11534650D01*
X10763039Y-11467984D02*
X10763039Y-11639412D01*
X10763039Y-11639412D02*
X10772563Y-11658460D01*
X10772563Y-11658460D02*
X10791611Y-11667984D01*
X10791611Y-11667984D02*
X10810658Y-11667984D01*
X11029706Y-11534650D02*
X11029706Y-11734650D01*
X11029706Y-11544174D02*
X11048754Y-11534650D01*
X11048754Y-11534650D02*
X11086849Y-11534650D01*
X11086849Y-11534650D02*
X11105896Y-11544174D01*
X11105896Y-11544174D02*
X11115420Y-11553698D01*
X11115420Y-11553698D02*
X11124944Y-11572746D01*
X11124944Y-11572746D02*
X11124944Y-11629888D01*
X11124944Y-11629888D02*
X11115420Y-11648936D01*
X11115420Y-11648936D02*
X11105896Y-11658460D01*
X11105896Y-11658460D02*
X11086849Y-11667984D01*
X11086849Y-11667984D02*
X11048754Y-11667984D01*
X11048754Y-11667984D02*
X11029706Y-11658460D01*
X11239230Y-11667984D02*
X11220182Y-11658460D01*
X11220182Y-11658460D02*
X11210658Y-11639412D01*
X11210658Y-11639412D02*
X11210658Y-11467984D01*
X11401134Y-11667984D02*
X11401134Y-11563222D01*
X11401134Y-11563222D02*
X11391611Y-11544174D01*
X11391611Y-11544174D02*
X11372563Y-11534650D01*
X11372563Y-11534650D02*
X11334468Y-11534650D01*
X11334468Y-11534650D02*
X11315420Y-11544174D01*
X11401134Y-11658460D02*
X11382087Y-11667984D01*
X11382087Y-11667984D02*
X11334468Y-11667984D01*
X11334468Y-11667984D02*
X11315420Y-11658460D01*
X11315420Y-11658460D02*
X11305896Y-11639412D01*
X11305896Y-11639412D02*
X11305896Y-11620365D01*
X11305896Y-11620365D02*
X11315420Y-11601317D01*
X11315420Y-11601317D02*
X11334468Y-11591793D01*
X11334468Y-11591793D02*
X11382087Y-11591793D01*
X11382087Y-11591793D02*
X11401134Y-11582269D01*
X11467801Y-11534650D02*
X11543992Y-11534650D01*
X11496373Y-11467984D02*
X11496373Y-11639412D01*
X11496373Y-11639412D02*
X11505896Y-11658460D01*
X11505896Y-11658460D02*
X11524944Y-11667984D01*
X11524944Y-11667984D02*
X11543992Y-11667984D01*
X11686849Y-11658460D02*
X11667801Y-11667984D01*
X11667801Y-11667984D02*
X11629706Y-11667984D01*
X11629706Y-11667984D02*
X11610658Y-11658460D01*
X11610658Y-11658460D02*
X11601134Y-11639412D01*
X11601134Y-11639412D02*
X11601134Y-11563222D01*
X11601134Y-11563222D02*
X11610658Y-11544174D01*
X11610658Y-11544174D02*
X11629706Y-11534650D01*
X11629706Y-11534650D02*
X11667801Y-11534650D01*
X11667801Y-11534650D02*
X11686849Y-11544174D01*
X11686849Y-11544174D02*
X11696373Y-11563222D01*
X11696373Y-11563222D02*
X11696373Y-11582269D01*
X11696373Y-11582269D02*
X11601134Y-11601317D01*
X11867801Y-11667984D02*
X11867801Y-11467984D01*
X11867801Y-11658460D02*
X11848754Y-11667984D01*
X11848754Y-11667984D02*
X11810658Y-11667984D01*
X11810658Y-11667984D02*
X11791611Y-11658460D01*
X11791611Y-11658460D02*
X11782087Y-11648936D01*
X11782087Y-11648936D02*
X11772563Y-11629888D01*
X11772563Y-11629888D02*
X11772563Y-11572746D01*
X11772563Y-11572746D02*
X11782087Y-11553698D01*
X11782087Y-11553698D02*
X11791611Y-11544174D01*
X11791611Y-11544174D02*
X11810658Y-11534650D01*
X11810658Y-11534650D02*
X11848754Y-11534650D01*
X11848754Y-11534650D02*
X11867801Y-11544174D01*
X11943992Y-11744174D02*
X11953515Y-11734650D01*
X11953515Y-11734650D02*
X11972563Y-11706079D01*
X11972563Y-11706079D02*
X11982087Y-11687031D01*
X11982087Y-11687031D02*
X11991611Y-11658460D01*
X11991611Y-11658460D02*
X12001134Y-11610841D01*
X12001134Y-11610841D02*
X12001134Y-11572746D01*
X12001134Y-11572746D02*
X11991611Y-11525127D01*
X11991611Y-11525127D02*
X11982087Y-11496555D01*
X11982087Y-11496555D02*
X11972563Y-11477508D01*
X11972563Y-11477508D02*
X11953515Y-11448936D01*
X11953515Y-11448936D02*
X11943992Y-11439412D01*
X4897500Y-11766500D02*
X4897500Y-11966500D01*
X4797500Y-11866500D02*
X4997500Y-11866500D01*
X5239229Y-11757984D02*
X5363039Y-11757984D01*
X5363039Y-11757984D02*
X5296372Y-11834174D01*
X5296372Y-11834174D02*
X5324944Y-11834174D01*
X5324944Y-11834174D02*
X5343991Y-11843698D01*
X5343991Y-11843698D02*
X5353515Y-11853222D01*
X5353515Y-11853222D02*
X5363039Y-11872269D01*
X5363039Y-11872269D02*
X5363039Y-11919888D01*
X5363039Y-11919888D02*
X5353515Y-11938936D01*
X5353515Y-11938936D02*
X5343991Y-11948460D01*
X5343991Y-11948460D02*
X5324944Y-11957984D01*
X5324944Y-11957984D02*
X5267801Y-11957984D01*
X5267801Y-11957984D02*
X5248753Y-11948460D01*
X5248753Y-11948460D02*
X5239229Y-11938936D01*
X5448753Y-11938936D02*
X5458277Y-11948460D01*
X5458277Y-11948460D02*
X5448753Y-11957984D01*
X5448753Y-11957984D02*
X5439229Y-11948460D01*
X5439229Y-11948460D02*
X5448753Y-11938936D01*
X5448753Y-11938936D02*
X5448753Y-11957984D01*
X5629705Y-11824650D02*
X5629705Y-11957984D01*
X5582086Y-11748460D02*
X5534467Y-11891317D01*
X5534467Y-11891317D02*
X5658277Y-11891317D01*
X5772562Y-11757984D02*
X5791610Y-11757984D01*
X5791610Y-11757984D02*
X5810658Y-11767508D01*
X5810658Y-11767508D02*
X5820182Y-11777031D01*
X5820182Y-11777031D02*
X5829705Y-11796079D01*
X5829705Y-11796079D02*
X5839229Y-11834174D01*
X5839229Y-11834174D02*
X5839229Y-11881793D01*
X5839229Y-11881793D02*
X5829705Y-11919888D01*
X5829705Y-11919888D02*
X5820182Y-11938936D01*
X5820182Y-11938936D02*
X5810658Y-11948460D01*
X5810658Y-11948460D02*
X5791610Y-11957984D01*
X5791610Y-11957984D02*
X5772562Y-11957984D01*
X5772562Y-11957984D02*
X5753515Y-11948460D01*
X5753515Y-11948460D02*
X5743991Y-11938936D01*
X5743991Y-11938936D02*
X5734467Y-11919888D01*
X5734467Y-11919888D02*
X5724943Y-11881793D01*
X5724943Y-11881793D02*
X5724943Y-11834174D01*
X5724943Y-11834174D02*
X5734467Y-11796079D01*
X5734467Y-11796079D02*
X5743991Y-11777031D01*
X5743991Y-11777031D02*
X5753515Y-11767508D01*
X5753515Y-11767508D02*
X5772562Y-11757984D01*
X5963039Y-11757984D02*
X5982086Y-11757984D01*
X5982086Y-11757984D02*
X6001134Y-11767508D01*
X6001134Y-11767508D02*
X6010658Y-11777031D01*
X6010658Y-11777031D02*
X6020182Y-11796079D01*
X6020182Y-11796079D02*
X6029705Y-11834174D01*
X6029705Y-11834174D02*
X6029705Y-11881793D01*
X6029705Y-11881793D02*
X6020182Y-11919888D01*
X6020182Y-11919888D02*
X6010658Y-11938936D01*
X6010658Y-11938936D02*
X6001134Y-11948460D01*
X6001134Y-11948460D02*
X5982086Y-11957984D01*
X5982086Y-11957984D02*
X5963039Y-11957984D01*
X5963039Y-11957984D02*
X5943991Y-11948460D01*
X5943991Y-11948460D02*
X5934467Y-11938936D01*
X5934467Y-11938936D02*
X5924943Y-11919888D01*
X5924943Y-11919888D02*
X5915420Y-11881793D01*
X5915420Y-11881793D02*
X5915420Y-11834174D01*
X5915420Y-11834174D02*
X5924943Y-11796079D01*
X5924943Y-11796079D02*
X5934467Y-11777031D01*
X5934467Y-11777031D02*
X5943991Y-11767508D01*
X5943991Y-11767508D02*
X5963039Y-11757984D01*
X6115420Y-11957984D02*
X6115420Y-11824650D01*
X6115420Y-11843698D02*
X6124943Y-11834174D01*
X6124943Y-11834174D02*
X6143991Y-11824650D01*
X6143991Y-11824650D02*
X6172563Y-11824650D01*
X6172563Y-11824650D02*
X6191610Y-11834174D01*
X6191610Y-11834174D02*
X6201134Y-11853222D01*
X6201134Y-11853222D02*
X6201134Y-11957984D01*
X6201134Y-11853222D02*
X6210658Y-11834174D01*
X6210658Y-11834174D02*
X6229705Y-11824650D01*
X6229705Y-11824650D02*
X6258277Y-11824650D01*
X6258277Y-11824650D02*
X6277324Y-11834174D01*
X6277324Y-11834174D02*
X6286848Y-11853222D01*
X6286848Y-11853222D02*
X6286848Y-11957984D01*
X6382086Y-11957984D02*
X6382086Y-11824650D01*
X6382086Y-11843698D02*
X6391610Y-11834174D01*
X6391610Y-11834174D02*
X6410658Y-11824650D01*
X6410658Y-11824650D02*
X6439229Y-11824650D01*
X6439229Y-11824650D02*
X6458277Y-11834174D01*
X6458277Y-11834174D02*
X6467801Y-11853222D01*
X6467801Y-11853222D02*
X6467801Y-11957984D01*
X6467801Y-11853222D02*
X6477324Y-11834174D01*
X6477324Y-11834174D02*
X6496372Y-11824650D01*
X6496372Y-11824650D02*
X6524943Y-11824650D01*
X6524943Y-11824650D02*
X6543991Y-11834174D01*
X6543991Y-11834174D02*
X6553515Y-11853222D01*
X6553515Y-11853222D02*
X6553515Y-11957984D01*
X6943991Y-11748460D02*
X6772563Y-12005603D01*
X7201134Y-11757984D02*
X7220182Y-11757984D01*
X7220182Y-11757984D02*
X7239229Y-11767508D01*
X7239229Y-11767508D02*
X7248753Y-11777031D01*
X7248753Y-11777031D02*
X7258277Y-11796079D01*
X7258277Y-11796079D02*
X7267801Y-11834174D01*
X7267801Y-11834174D02*
X7267801Y-11881793D01*
X7267801Y-11881793D02*
X7258277Y-11919888D01*
X7258277Y-11919888D02*
X7248753Y-11938936D01*
X7248753Y-11938936D02*
X7239229Y-11948460D01*
X7239229Y-11948460D02*
X7220182Y-11957984D01*
X7220182Y-11957984D02*
X7201134Y-11957984D01*
X7201134Y-11957984D02*
X7182086Y-11948460D01*
X7182086Y-11948460D02*
X7172563Y-11938936D01*
X7172563Y-11938936D02*
X7163039Y-11919888D01*
X7163039Y-11919888D02*
X7153515Y-11881793D01*
X7153515Y-11881793D02*
X7153515Y-11834174D01*
X7153515Y-11834174D02*
X7163039Y-11796079D01*
X7163039Y-11796079D02*
X7172563Y-11777031D01*
X7172563Y-11777031D02*
X7182086Y-11767508D01*
X7182086Y-11767508D02*
X7201134Y-11757984D01*
X7353515Y-11938936D02*
X7363039Y-11948460D01*
X7363039Y-11948460D02*
X7353515Y-11957984D01*
X7353515Y-11957984D02*
X7343991Y-11948460D01*
X7343991Y-11948460D02*
X7353515Y-11938936D01*
X7353515Y-11938936D02*
X7353515Y-11957984D01*
X7553515Y-11957984D02*
X7439229Y-11957984D01*
X7496372Y-11957984D02*
X7496372Y-11757984D01*
X7496372Y-11757984D02*
X7477325Y-11786555D01*
X7477325Y-11786555D02*
X7458277Y-11805603D01*
X7458277Y-11805603D02*
X7439229Y-11815127D01*
X7620182Y-11757984D02*
X7743991Y-11757984D01*
X7743991Y-11757984D02*
X7677325Y-11834174D01*
X7677325Y-11834174D02*
X7705896Y-11834174D01*
X7705896Y-11834174D02*
X7724944Y-11843698D01*
X7724944Y-11843698D02*
X7734467Y-11853222D01*
X7734467Y-11853222D02*
X7743991Y-11872269D01*
X7743991Y-11872269D02*
X7743991Y-11919888D01*
X7743991Y-11919888D02*
X7734467Y-11938936D01*
X7734467Y-11938936D02*
X7724944Y-11948460D01*
X7724944Y-11948460D02*
X7705896Y-11957984D01*
X7705896Y-11957984D02*
X7648753Y-11957984D01*
X7648753Y-11957984D02*
X7629706Y-11948460D01*
X7629706Y-11948460D02*
X7620182Y-11938936D01*
X7810658Y-11757984D02*
X7934467Y-11757984D01*
X7934467Y-11757984D02*
X7867801Y-11834174D01*
X7867801Y-11834174D02*
X7896372Y-11834174D01*
X7896372Y-11834174D02*
X7915420Y-11843698D01*
X7915420Y-11843698D02*
X7924944Y-11853222D01*
X7924944Y-11853222D02*
X7934467Y-11872269D01*
X7934467Y-11872269D02*
X7934467Y-11919888D01*
X7934467Y-11919888D02*
X7924944Y-11938936D01*
X7924944Y-11938936D02*
X7915420Y-11948460D01*
X7915420Y-11948460D02*
X7896372Y-11957984D01*
X7896372Y-11957984D02*
X7839229Y-11957984D01*
X7839229Y-11957984D02*
X7820182Y-11948460D01*
X7820182Y-11948460D02*
X7810658Y-11938936D01*
X8029706Y-11957984D02*
X8067801Y-11957984D01*
X8067801Y-11957984D02*
X8086848Y-11948460D01*
X8086848Y-11948460D02*
X8096372Y-11938936D01*
X8096372Y-11938936D02*
X8115420Y-11910365D01*
X8115420Y-11910365D02*
X8124944Y-11872269D01*
X8124944Y-11872269D02*
X8124944Y-11796079D01*
X8124944Y-11796079D02*
X8115420Y-11777031D01*
X8115420Y-11777031D02*
X8105896Y-11767508D01*
X8105896Y-11767508D02*
X8086848Y-11757984D01*
X8086848Y-11757984D02*
X8048753Y-11757984D01*
X8048753Y-11757984D02*
X8029706Y-11767508D01*
X8029706Y-11767508D02*
X8020182Y-11777031D01*
X8020182Y-11777031D02*
X8010658Y-11796079D01*
X8010658Y-11796079D02*
X8010658Y-11843698D01*
X8010658Y-11843698D02*
X8020182Y-11862746D01*
X8020182Y-11862746D02*
X8029706Y-11872269D01*
X8029706Y-11872269D02*
X8048753Y-11881793D01*
X8048753Y-11881793D02*
X8086848Y-11881793D01*
X8086848Y-11881793D02*
X8105896Y-11872269D01*
X8105896Y-11872269D02*
X8115420Y-11862746D01*
X8115420Y-11862746D02*
X8124944Y-11843698D01*
X8201134Y-11757984D02*
X8201134Y-11796079D01*
X8277325Y-11757984D02*
X8277325Y-11796079D01*
X8572563Y-12034174D02*
X8563039Y-12024650D01*
X8563039Y-12024650D02*
X8543991Y-11996079D01*
X8543991Y-11996079D02*
X8534468Y-11977031D01*
X8534468Y-11977031D02*
X8524944Y-11948460D01*
X8524944Y-11948460D02*
X8515420Y-11900841D01*
X8515420Y-11900841D02*
X8515420Y-11862746D01*
X8515420Y-11862746D02*
X8524944Y-11815127D01*
X8524944Y-11815127D02*
X8534468Y-11786555D01*
X8534468Y-11786555D02*
X8543991Y-11767508D01*
X8543991Y-11767508D02*
X8563039Y-11738936D01*
X8563039Y-11738936D02*
X8572563Y-11729412D01*
X8639230Y-11777031D02*
X8648753Y-11767508D01*
X8648753Y-11767508D02*
X8667801Y-11757984D01*
X8667801Y-11757984D02*
X8715420Y-11757984D01*
X8715420Y-11757984D02*
X8734468Y-11767508D01*
X8734468Y-11767508D02*
X8743991Y-11777031D01*
X8743991Y-11777031D02*
X8753515Y-11796079D01*
X8753515Y-11796079D02*
X8753515Y-11815127D01*
X8753515Y-11815127D02*
X8743991Y-11843698D01*
X8743991Y-11843698D02*
X8629706Y-11957984D01*
X8629706Y-11957984D02*
X8753515Y-11957984D01*
X8877325Y-11757984D02*
X8896372Y-11757984D01*
X8896372Y-11757984D02*
X8915420Y-11767508D01*
X8915420Y-11767508D02*
X8924944Y-11777031D01*
X8924944Y-11777031D02*
X8934468Y-11796079D01*
X8934468Y-11796079D02*
X8943991Y-11834174D01*
X8943991Y-11834174D02*
X8943991Y-11881793D01*
X8943991Y-11881793D02*
X8934468Y-11919888D01*
X8934468Y-11919888D02*
X8924944Y-11938936D01*
X8924944Y-11938936D02*
X8915420Y-11948460D01*
X8915420Y-11948460D02*
X8896372Y-11957984D01*
X8896372Y-11957984D02*
X8877325Y-11957984D01*
X8877325Y-11957984D02*
X8858277Y-11948460D01*
X8858277Y-11948460D02*
X8848753Y-11938936D01*
X8848753Y-11938936D02*
X8839230Y-11919888D01*
X8839230Y-11919888D02*
X8829706Y-11881793D01*
X8829706Y-11881793D02*
X8829706Y-11834174D01*
X8829706Y-11834174D02*
X8839230Y-11796079D01*
X8839230Y-11796079D02*
X8848753Y-11777031D01*
X8848753Y-11777031D02*
X8858277Y-11767508D01*
X8858277Y-11767508D02*
X8877325Y-11757984D01*
X9182087Y-11957984D02*
X9182087Y-11757984D01*
X9267801Y-11957984D02*
X9267801Y-11853222D01*
X9267801Y-11853222D02*
X9258277Y-11834174D01*
X9258277Y-11834174D02*
X9239230Y-11824650D01*
X9239230Y-11824650D02*
X9210658Y-11824650D01*
X9210658Y-11824650D02*
X9191611Y-11834174D01*
X9191611Y-11834174D02*
X9182087Y-11843698D01*
X9391611Y-11957984D02*
X9372563Y-11948460D01*
X9372563Y-11948460D02*
X9363039Y-11938936D01*
X9363039Y-11938936D02*
X9353515Y-11919888D01*
X9353515Y-11919888D02*
X9353515Y-11862746D01*
X9353515Y-11862746D02*
X9363039Y-11843698D01*
X9363039Y-11843698D02*
X9372563Y-11834174D01*
X9372563Y-11834174D02*
X9391611Y-11824650D01*
X9391611Y-11824650D02*
X9420182Y-11824650D01*
X9420182Y-11824650D02*
X9439230Y-11834174D01*
X9439230Y-11834174D02*
X9448753Y-11843698D01*
X9448753Y-11843698D02*
X9458277Y-11862746D01*
X9458277Y-11862746D02*
X9458277Y-11919888D01*
X9458277Y-11919888D02*
X9448753Y-11938936D01*
X9448753Y-11938936D02*
X9439230Y-11948460D01*
X9439230Y-11948460D02*
X9420182Y-11957984D01*
X9420182Y-11957984D02*
X9391611Y-11957984D01*
X9572563Y-11957984D02*
X9553515Y-11948460D01*
X9553515Y-11948460D02*
X9543992Y-11929412D01*
X9543992Y-11929412D02*
X9543992Y-11757984D01*
X9724944Y-11948460D02*
X9705896Y-11957984D01*
X9705896Y-11957984D02*
X9667801Y-11957984D01*
X9667801Y-11957984D02*
X9648753Y-11948460D01*
X9648753Y-11948460D02*
X9639230Y-11929412D01*
X9639230Y-11929412D02*
X9639230Y-11853222D01*
X9639230Y-11853222D02*
X9648753Y-11834174D01*
X9648753Y-11834174D02*
X9667801Y-11824650D01*
X9667801Y-11824650D02*
X9705896Y-11824650D01*
X9705896Y-11824650D02*
X9724944Y-11834174D01*
X9724944Y-11834174D02*
X9734468Y-11853222D01*
X9734468Y-11853222D02*
X9734468Y-11872269D01*
X9734468Y-11872269D02*
X9639230Y-11891317D01*
X9810658Y-11948460D02*
X9829706Y-11957984D01*
X9829706Y-11957984D02*
X9867801Y-11957984D01*
X9867801Y-11957984D02*
X9886849Y-11948460D01*
X9886849Y-11948460D02*
X9896373Y-11929412D01*
X9896373Y-11929412D02*
X9896373Y-11919888D01*
X9896373Y-11919888D02*
X9886849Y-11900841D01*
X9886849Y-11900841D02*
X9867801Y-11891317D01*
X9867801Y-11891317D02*
X9839230Y-11891317D01*
X9839230Y-11891317D02*
X9820182Y-11881793D01*
X9820182Y-11881793D02*
X9810658Y-11862746D01*
X9810658Y-11862746D02*
X9810658Y-11853222D01*
X9810658Y-11853222D02*
X9820182Y-11834174D01*
X9820182Y-11834174D02*
X9839230Y-11824650D01*
X9839230Y-11824650D02*
X9867801Y-11824650D01*
X9867801Y-11824650D02*
X9886849Y-11834174D01*
X9963039Y-12034174D02*
X9972563Y-12024650D01*
X9972563Y-12024650D02*
X9991611Y-11996079D01*
X9991611Y-11996079D02*
X10001134Y-11977031D01*
X10001134Y-11977031D02*
X10010658Y-11948460D01*
X10010658Y-11948460D02*
X10020182Y-11900841D01*
X10020182Y-11900841D02*
X10020182Y-11862746D01*
X10020182Y-11862746D02*
X10010658Y-11815127D01*
X10010658Y-11815127D02*
X10001134Y-11786555D01*
X10001134Y-11786555D02*
X9991611Y-11767508D01*
X9991611Y-11767508D02*
X9972563Y-11738936D01*
X9972563Y-11738936D02*
X9963039Y-11729412D01*
X10324944Y-12034174D02*
X10315420Y-12024650D01*
X10315420Y-12024650D02*
X10296373Y-11996079D01*
X10296373Y-11996079D02*
X10286849Y-11977031D01*
X10286849Y-11977031D02*
X10277325Y-11948460D01*
X10277325Y-11948460D02*
X10267801Y-11900841D01*
X10267801Y-11900841D02*
X10267801Y-11862746D01*
X10267801Y-11862746D02*
X10277325Y-11815127D01*
X10277325Y-11815127D02*
X10286849Y-11786555D01*
X10286849Y-11786555D02*
X10296373Y-11767508D01*
X10296373Y-11767508D02*
X10315420Y-11738936D01*
X10315420Y-11738936D02*
X10324944Y-11729412D01*
X10401134Y-11824650D02*
X10401134Y-11957984D01*
X10401134Y-11843698D02*
X10410658Y-11834174D01*
X10410658Y-11834174D02*
X10429706Y-11824650D01*
X10429706Y-11824650D02*
X10458277Y-11824650D01*
X10458277Y-11824650D02*
X10477325Y-11834174D01*
X10477325Y-11834174D02*
X10486849Y-11853222D01*
X10486849Y-11853222D02*
X10486849Y-11957984D01*
X10610658Y-11957984D02*
X10591611Y-11948460D01*
X10591611Y-11948460D02*
X10582087Y-11938936D01*
X10582087Y-11938936D02*
X10572563Y-11919888D01*
X10572563Y-11919888D02*
X10572563Y-11862746D01*
X10572563Y-11862746D02*
X10582087Y-11843698D01*
X10582087Y-11843698D02*
X10591611Y-11834174D01*
X10591611Y-11834174D02*
X10610658Y-11824650D01*
X10610658Y-11824650D02*
X10639230Y-11824650D01*
X10639230Y-11824650D02*
X10658277Y-11834174D01*
X10658277Y-11834174D02*
X10667801Y-11843698D01*
X10667801Y-11843698D02*
X10677325Y-11862746D01*
X10677325Y-11862746D02*
X10677325Y-11919888D01*
X10677325Y-11919888D02*
X10667801Y-11938936D01*
X10667801Y-11938936D02*
X10658277Y-11948460D01*
X10658277Y-11948460D02*
X10639230Y-11957984D01*
X10639230Y-11957984D02*
X10610658Y-11957984D01*
X10734468Y-11824650D02*
X10810658Y-11824650D01*
X10763039Y-11757984D02*
X10763039Y-11929412D01*
X10763039Y-11929412D02*
X10772563Y-11948460D01*
X10772563Y-11948460D02*
X10791611Y-11957984D01*
X10791611Y-11957984D02*
X10810658Y-11957984D01*
X11029706Y-11824650D02*
X11029706Y-12024650D01*
X11029706Y-11834174D02*
X11048754Y-11824650D01*
X11048754Y-11824650D02*
X11086849Y-11824650D01*
X11086849Y-11824650D02*
X11105896Y-11834174D01*
X11105896Y-11834174D02*
X11115420Y-11843698D01*
X11115420Y-11843698D02*
X11124944Y-11862746D01*
X11124944Y-11862746D02*
X11124944Y-11919888D01*
X11124944Y-11919888D02*
X11115420Y-11938936D01*
X11115420Y-11938936D02*
X11105896Y-11948460D01*
X11105896Y-11948460D02*
X11086849Y-11957984D01*
X11086849Y-11957984D02*
X11048754Y-11957984D01*
X11048754Y-11957984D02*
X11029706Y-11948460D01*
X11239230Y-11957984D02*
X11220182Y-11948460D01*
X11220182Y-11948460D02*
X11210658Y-11929412D01*
X11210658Y-11929412D02*
X11210658Y-11757984D01*
X11401134Y-11957984D02*
X11401134Y-11853222D01*
X11401134Y-11853222D02*
X11391611Y-11834174D01*
X11391611Y-11834174D02*
X11372563Y-11824650D01*
X11372563Y-11824650D02*
X11334468Y-11824650D01*
X11334468Y-11824650D02*
X11315420Y-11834174D01*
X11401134Y-11948460D02*
X11382087Y-11957984D01*
X11382087Y-11957984D02*
X11334468Y-11957984D01*
X11334468Y-11957984D02*
X11315420Y-11948460D01*
X11315420Y-11948460D02*
X11305896Y-11929412D01*
X11305896Y-11929412D02*
X11305896Y-11910365D01*
X11305896Y-11910365D02*
X11315420Y-11891317D01*
X11315420Y-11891317D02*
X11334468Y-11881793D01*
X11334468Y-11881793D02*
X11382087Y-11881793D01*
X11382087Y-11881793D02*
X11401134Y-11872269D01*
X11467801Y-11824650D02*
X11543992Y-11824650D01*
X11496373Y-11757984D02*
X11496373Y-11929412D01*
X11496373Y-11929412D02*
X11505896Y-11948460D01*
X11505896Y-11948460D02*
X11524944Y-11957984D01*
X11524944Y-11957984D02*
X11543992Y-11957984D01*
X11686849Y-11948460D02*
X11667801Y-11957984D01*
X11667801Y-11957984D02*
X11629706Y-11957984D01*
X11629706Y-11957984D02*
X11610658Y-11948460D01*
X11610658Y-11948460D02*
X11601134Y-11929412D01*
X11601134Y-11929412D02*
X11601134Y-11853222D01*
X11601134Y-11853222D02*
X11610658Y-11834174D01*
X11610658Y-11834174D02*
X11629706Y-11824650D01*
X11629706Y-11824650D02*
X11667801Y-11824650D01*
X11667801Y-11824650D02*
X11686849Y-11834174D01*
X11686849Y-11834174D02*
X11696373Y-11853222D01*
X11696373Y-11853222D02*
X11696373Y-11872269D01*
X11696373Y-11872269D02*
X11601134Y-11891317D01*
X11867801Y-11957984D02*
X11867801Y-11757984D01*
X11867801Y-11948460D02*
X11848754Y-11957984D01*
X11848754Y-11957984D02*
X11810658Y-11957984D01*
X11810658Y-11957984D02*
X11791611Y-11948460D01*
X11791611Y-11948460D02*
X11782087Y-11938936D01*
X11782087Y-11938936D02*
X11772563Y-11919888D01*
X11772563Y-11919888D02*
X11772563Y-11862746D01*
X11772563Y-11862746D02*
X11782087Y-11843698D01*
X11782087Y-11843698D02*
X11791611Y-11834174D01*
X11791611Y-11834174D02*
X11810658Y-11824650D01*
X11810658Y-11824650D02*
X11848754Y-11824650D01*
X11848754Y-11824650D02*
X11867801Y-11834174D01*
X11943992Y-12034174D02*
X11953515Y-12024650D01*
X11953515Y-12024650D02*
X11972563Y-11996079D01*
X11972563Y-11996079D02*
X11982087Y-11977031D01*
X11982087Y-11977031D02*
X11991611Y-11948460D01*
X11991611Y-11948460D02*
X12001134Y-11900841D01*
X12001134Y-11900841D02*
X12001134Y-11862746D01*
X12001134Y-11862746D02*
X11991611Y-11815127D01*
X11991611Y-11815127D02*
X11982087Y-11786555D01*
X11982087Y-11786555D02*
X11972563Y-11767508D01*
X11972563Y-11767508D02*
X11953515Y-11738936D01*
X11953515Y-11738936D02*
X11943992Y-11729412D01*
M02*
