M48
; DRILL file {KiCad 9.0.1} date 2025-08-18T19:39:49-0600
; FORMAT={-:-/ absolute / metric / decimal}
; #@! TF.CreationDate,2025-08-18T19:39:49-06:00
; #@! TF.GenerationSoftware,Kicad,Pcbnew,9.0.1
; #@! TF.FileFunction,Plated,1,2,PTH
FMAT,2
METRIC
; #@! TA.AperFunction,Plated,PTH,ViaDrill
T1C0.300
; #@! TA.AperFunction,Plated,PTH,ComponentDrill
T2C0.750
; #@! TA.AperFunction,Plated,PTH,ComponentDrill
T3C1.000
; #@! TA.AperFunction,Plated,PTH,ComponentDrill
T4C1.200
%
G90
G05
T1
X85.0Y-49.7
X98.0Y-64.7
T2
X86.55Y-76.2
X86.55Y-78.2
T3
X87.36Y-42.04
X87.36Y-44.58
X87.36Y-47.12
X87.36Y-49.66
X87.36Y-52.2
X87.36Y-54.74
X87.36Y-57.28
X87.36Y-59.82
X87.36Y-62.36
X87.36Y-64.9
X87.36Y-67.44
X87.36Y-69.98
X87.36Y-72.52
X94.98Y-67.44
X97.52Y-67.44
X100.06Y-67.44
X102.6Y-42.04
X102.6Y-44.58
X102.6Y-47.12
X102.6Y-49.66
X102.6Y-52.2
X102.6Y-54.74
X102.6Y-57.28
X102.6Y-59.82
X102.6Y-62.36
X102.6Y-64.9
X102.6Y-67.44
X102.6Y-69.98
X102.6Y-72.52
T4
X54.0Y-51.0
X54.0Y-68.0
X54.0Y-85.0
X54.0Y-102.0
X59.0Y-53.1
X59.0Y-70.1
X59.0Y-87.1
X59.0Y-104.1
X72.0Y-51.0
X72.0Y-68.0
X72.0Y-85.0
X72.0Y-102.0
X77.0Y-53.1
X77.0Y-70.1
X77.0Y-87.1
X77.0Y-104.1
X90.0Y-51.0
X90.0Y-68.0
X90.0Y-85.0
X90.0Y-102.0
X95.0Y-53.1
X95.0Y-70.1
X95.0Y-87.1
X95.0Y-104.1
X108.0Y-51.0
X108.0Y-68.0
X108.0Y-85.0
X108.0Y-102.0
X113.0Y-53.1
X113.0Y-70.1
X113.0Y-87.1
X113.0Y-104.1
X126.0Y-51.0
X126.0Y-68.0
X126.0Y-85.0
X126.0Y-102.0
X131.0Y-53.1
X131.0Y-70.1
X131.0Y-87.1
X131.0Y-104.1
M30
