%TF.GenerationSoftware,KiCad,Pcbnew,9.0.1*%
%TF.CreationDate,2025-08-18T19:36:27-06:00*%
%TF.ProjectId,aurora40_kicad,6175726f-7261-4343-905f-6b696361642e,1*%
%TF.SameCoordinates,Original*%
%TF.FileFunction,Soldermask,Bot*%
%TF.FilePolarity,Negative*%
%FSLAX46Y46*%
G04 Gerber Fmt 4.6, Leading zero omitted, Abs format (unit mm)*
G04 Created by KiCad (PCBNEW 9.0.1) date 2025-08-18 19:36:27*
%MOMM*%
%LPD*%
G01*
G04 APERTURE LIST*
G04 Aperture macros list*
%AMRoundRect*
0 Rectangle with rounded corners*
0 $1 Rounding radius*
0 $2 $3 $4 $5 $6 $7 $8 $9 X,Y pos of 4 corners*
0 Add a 4 corners polygon primitive as box body*
4,1,4,$2,$3,$4,$5,$6,$7,$8,$9,$2,$3,0*
0 Add four circle primitives for the rounded corners*
1,1,$1+$1,$2,$3*
1,1,$1+$1,$4,$5*
1,1,$1+$1,$6,$7*
1,1,$1+$1,$8,$9*
0 Add four rect primitives between the rounded corners*
20,1,$1+$1,$2,$3,$4,$5,0*
20,1,$1+$1,$4,$5,$6,$7,0*
20,1,$1+$1,$6,$7,$8,$9,0*
20,1,$1+$1,$8,$9,$2,$3,0*%
G04 Aperture macros list end*
%ADD10C,1.700000*%
%ADD11C,3.400000*%
%ADD12C,2.000000*%
%ADD13RoundRect,0.250000X-0.625000X0.350000X-0.625000X-0.350000X0.625000X-0.350000X0.625000X0.350000X0*%
%ADD14O,1.750000X1.200000*%
%ADD15C,0.900000*%
%ADD16R,0.700000X1.500000*%
%ADD17R,1.000000X0.800000*%
%ADD18R,1.550000X1.000000*%
G04 APERTURE END LIST*
D10*
%TO.C,CH7*%
X71500000Y-64200000D03*
D11*
X77000000Y-64200000D03*
D10*
X82500000Y-64200000D03*
D12*
X72000000Y-68000000D03*
X77000000Y-70100000D03*
%TD*%
D10*
%TO.C,CH5*%
X125500000Y-47200000D03*
D11*
X131000000Y-47200000D03*
D10*
X136500000Y-47200000D03*
D12*
X126000000Y-51000000D03*
X131000000Y-53100000D03*
%TD*%
D10*
%TO.C,CH18*%
X89500000Y-98200000D03*
D11*
X95000000Y-98200000D03*
D10*
X100500000Y-98200000D03*
D12*
X90000000Y-102000000D03*
X95000000Y-104100000D03*
%TD*%
D10*
%TO.C,CH3*%
X89500000Y-47200000D03*
D11*
X95000000Y-47200000D03*
D10*
X100500000Y-47200000D03*
D12*
X90000000Y-51000000D03*
X95000000Y-53100000D03*
%TD*%
D10*
%TO.C,CH10*%
X125500000Y-64200000D03*
D11*
X131000000Y-64200000D03*
D10*
X136500000Y-64200000D03*
D12*
X126000000Y-68000000D03*
X131000000Y-70100000D03*
%TD*%
D10*
%TO.C,CH8*%
X89500000Y-64200000D03*
D11*
X95000000Y-64200000D03*
D10*
X100500000Y-64200000D03*
D12*
X90000000Y-68000000D03*
X95000000Y-70100000D03*
%TD*%
D10*
%TO.C,CH20*%
X125500000Y-98200000D03*
D11*
X131000000Y-98200000D03*
D10*
X136500000Y-98200000D03*
D12*
X126000000Y-102000000D03*
X131000000Y-104100000D03*
%TD*%
D10*
%TO.C,CH2*%
X71500000Y-47200000D03*
D11*
X77000000Y-47200000D03*
D10*
X82500000Y-47200000D03*
D12*
X72000000Y-51000000D03*
X77000000Y-53100000D03*
%TD*%
D10*
%TO.C,CH16*%
X53500000Y-98200000D03*
D11*
X59000000Y-98200000D03*
D10*
X64500000Y-98200000D03*
D12*
X54000000Y-102000000D03*
X59000000Y-104100000D03*
%TD*%
D10*
%TO.C,CH12*%
X71500000Y-81200000D03*
D11*
X77000000Y-81200000D03*
D10*
X82500000Y-81200000D03*
D12*
X72000000Y-85000000D03*
X77000000Y-87100000D03*
%TD*%
D10*
%TO.C,CH9*%
X107500000Y-64200000D03*
D11*
X113000000Y-64200000D03*
D10*
X118500000Y-64200000D03*
D12*
X108000000Y-68000000D03*
X113000000Y-70100000D03*
%TD*%
D10*
%TO.C,CH17*%
X71500000Y-98200000D03*
D11*
X77000000Y-98200000D03*
D10*
X82500000Y-98200000D03*
D12*
X72000000Y-102000000D03*
X77000000Y-104100000D03*
%TD*%
D10*
%TO.C,CH4*%
X107500000Y-47200000D03*
D11*
X113000000Y-47200000D03*
D10*
X118500000Y-47200000D03*
D12*
X108000000Y-51000000D03*
X113000000Y-53100000D03*
%TD*%
D10*
%TO.C,CH1*%
X53500000Y-47200000D03*
D11*
X59000000Y-47200000D03*
D10*
X64500000Y-47200000D03*
D12*
X54000000Y-51000000D03*
X59000000Y-53100000D03*
%TD*%
D10*
%TO.C,CH13*%
X89500000Y-81200000D03*
D11*
X95000000Y-81200000D03*
D10*
X100500000Y-81200000D03*
D12*
X90000000Y-85000000D03*
X95000000Y-87100000D03*
%TD*%
D10*
%TO.C,CH14*%
X107500000Y-81200000D03*
D11*
X113000000Y-81200000D03*
D10*
X118500000Y-81200000D03*
D12*
X108000000Y-85000000D03*
X113000000Y-87100000D03*
%TD*%
D10*
%TO.C,CH6*%
X53500000Y-64200000D03*
D11*
X59000000Y-64200000D03*
D10*
X64500000Y-64200000D03*
D12*
X54000000Y-68000000D03*
X59000000Y-70100000D03*
%TD*%
D10*
%TO.C,CH11*%
X53500000Y-81200000D03*
D11*
X59000000Y-81200000D03*
D10*
X64500000Y-81200000D03*
D12*
X54000000Y-85000000D03*
X59000000Y-87100000D03*
%TD*%
D10*
%TO.C,CH19*%
X107500000Y-98200000D03*
D11*
X113000000Y-98200000D03*
D10*
X118500000Y-98200000D03*
D12*
X108000000Y-102000000D03*
X113000000Y-104100000D03*
%TD*%
D10*
%TO.C,CH15*%
X125500000Y-81200000D03*
D11*
X131000000Y-81200000D03*
D10*
X136500000Y-81200000D03*
D12*
X126000000Y-85000000D03*
X131000000Y-87100000D03*
%TD*%
D13*
%TO.C,J1*%
X86550000Y-76200000D03*
D14*
X86550000Y-78200000D03*
%TD*%
D15*
%TO.C,SW1*%
X77800000Y-40700000D03*
X80800000Y-40700000D03*
D16*
X77050000Y-42450000D03*
X80050000Y-42450000D03*
X81550000Y-42450000D03*
D17*
X75650000Y-41800000D03*
X75650000Y-39600000D03*
X82950000Y-41800000D03*
X82950000Y-39600000D03*
%TD*%
D18*
%TO.C,SW2*%
X111625000Y-39850000D03*
X106375000Y-39850000D03*
X111625000Y-41550000D03*
X106375000Y-41550000D03*
%TD*%
M02*
